<svg width="45" height="45" viewBox="0 0 45 45" fill="none" xmlns="http://www.w3.org/2000/svg">
<path d="M32.3636 16.4074C32.3636 18.3448 31.7851 20.2386 30.7013 21.8495C29.6175 23.4604 28.077 24.7159 26.2746 25.4573C24.4723 26.1987 22.4891 26.3927 20.5757 26.0147C18.6623 25.6367 16.9048 24.7038 15.5254 23.3339C14.1459 21.9639 13.2065 20.2185 12.8259 18.3184C12.4453 16.4182 12.6406 14.4487 13.3872 12.6588C14.1337 10.8689 15.398 9.33903 17.0201 8.26268C18.6421 7.18633 20.5492 6.61184 22.5 6.61184C25.116 6.61184 27.6248 7.64386 29.4746 9.48088C31.3244 11.3179 32.3636 13.8094 32.3636 16.4074ZM38 16.4074C38.0003 18.6748 37.4951 20.9142 36.5205 22.9647C35.546 25.0152 34.1264 26.826 32.3636 28.267V41.5959C32.3636 41.967 32.2152 42.323 31.9509 42.5854C31.6867 42.8478 31.3283 42.9953 30.9545 42.9953C30.7359 42.9907 30.5204 42.9431 30.3204 42.8553L22.5 38.9546L14.6795 42.8553C14.4636 42.9612 14.2239 43.0104 13.9834 42.9982C13.7429 42.9859 13.5096 42.9127 13.3057 42.7854C13.1001 42.6614 12.9304 42.4867 12.8131 42.2783C12.6958 42.0698 12.6349 41.8347 12.6364 41.5959V28.267C10.6212 26.6161 9.05897 24.4861 8.09467 22.0751C7.13038 19.664 6.79534 17.05 7.12068 14.4759C7.44603 11.9018 8.4212 9.45116 9.95561 7.35156C11.49 5.25196 13.5339 3.57155 15.8973 2.46644C18.2608 1.36133 20.8672 0.86737 23.4743 1.03044C26.0815 1.19352 28.6048 2.00834 30.81 3.39921C33.0151 4.79008 34.8306 6.71188 36.0876 8.98607C37.3446 11.2603 38.0024 13.8131 38 16.4074ZM35.1818 16.4074C35.1818 13.9165 34.438 11.4815 33.0445 9.41038C31.651 7.33926 29.6704 5.72502 27.3531 4.77179C25.0358 3.81856 22.4859 3.56915 20.0259 4.05511C17.5659 4.54106 15.3062 5.74055 13.5326 7.50189C11.759 9.26322 10.5512 11.5073 10.0619 13.9504C9.57253 16.3934 9.82367 18.9257 10.7835 21.227C11.7434 23.5283 13.3688 25.4953 15.4544 26.8791C17.5399 28.263 19.9918 29.0016 22.5 29.0016C25.862 28.997 29.085 27.6686 31.4622 25.3078C33.8395 22.9469 35.1772 19.7462 35.1818 16.4074Z" fill="inherit"/>
</svg>
