<svg width="45" height="45" viewBox="0 0 45 45" fill="none" xmlns="http://www.w3.org/2000/svg">
<path d="M37.4591 30.25C37.0273 33.2075 34.54 35.5 31.5 35.5H28.9091V32H34.0909C33.97 29.76 34.54 25.07 33.2791 23.1625C31.6036 19.575 26.8882 18.98 23.6064 18.0875C22 18 20.2727 16.25 19.9964 14.5H15.0909C14.6073 14.5 14.2273 14.115 14.2273 13.625C14.2273 13.135 14.6073 12.75 15.0909 12.75H19.4091V11H15.0909C14.6073 11 14.2273 10.615 14.2273 10.125C14.2273 9.635 14.6073 9.25 15.0909 9.25H19.4091V4H4.77909V32H9.90909V35.5H3V39H31.5C36.44 39 40.5164 35.15 41 30.25H37.4591ZM25.4545 35.5H13.3636V32H25.4545V35.5Z" fill="inherit"/>
</svg>
