<?xml version="1.0" encoding="utf-8"?>
<!-- Generator: Adobe Illustrator 25.4.0, SVG Export Plug-In . SVG Version: 6.00 Build 0)  -->
<svg version="1.1" id="Layer_1" xmlns="http://www.w3.org/2000/svg" xmlns:xlink="http://www.w3.org/1999/xlink" x="0px" y="0px"
	 viewBox="0 0 1000 1000" style="enable-background:new 0 0 1000 1000;" xml:space="preserve">
<style type="text/css">
	.st0{fill:#27AAE2;}
	.st1{fill:#DBDCDC;}
	.st2{fill:#A5A7AA;}
</style>
<g>
	<polygon class="st0" points="242.05,554.42 433.71,450.68 242.05,347.24 	"/>
	<polygon class="st1" points="664.29,575.07 664.87,575.37 664.29,575.06 	"/>
	<polygon class="st0" points="789.59,175.85 534.45,312.48 63.07,42.63 63.07,769.47 140.64,728.6 140.64,172.68 533.86,396.93
		712.02,300.41 712.02,600.64 789.59,640.51 	"/>
	<polygon class="st1" points="188.37,701.99 188.37,701.97 187.91,702.23 	"/>
</g>
<g>
	<path class="st2" d="M516.46,828.87h33.19v9.29h-21.51v35.97h-11.67V828.87z"/>
	<path class="st2" d="M557.01,839.43c2.1-3.55,5-6.32,8.69-8.32c3.68-1.99,7.81-2.98,12.38-2.98c4.57,0,8.69,0.99,12.35,2.98
		c3.66,1.99,6.55,4.77,8.65,8.32c2.1,3.55,3.16,7.59,3.16,12.11s-1.05,8.56-3.16,12.12c-2.1,3.55-4.99,6.32-8.65,8.31
		c-3.67,1.99-7.78,2.98-12.35,2.98c-4.57,0-8.7-0.99-12.38-2.98c-3.69-1.99-6.58-4.76-8.69-8.31c-2.1-3.56-3.16-7.59-3.16-12.12
		S554.91,842.98,557.01,839.43z M588.84,844.37c-1.02-2.14-2.46-3.84-4.31-5.08c-1.86-1.24-4-1.87-6.45-1.87
		c-2.44,0-4.6,0.62-6.48,1.87c-1.88,1.24-3.32,2.94-4.35,5.08c-1.02,2.15-1.52,4.53-1.52,7.17c0,2.63,0.51,5.03,1.52,7.17
		c1.02,2.14,2.47,3.84,4.35,5.08c1.88,1.24,4.04,1.87,6.48,1.87c2.45,0,4.59-0.62,6.45-1.87c1.85-1.24,3.29-2.94,4.31-5.08
		c1.02-2.14,1.52-4.53,1.52-7.17C590.36,848.9,589.85,846.52,588.84,844.37z"/>
	<path class="st2" d="M610.86,828.87h22.66c3.3,0,6.15,0.67,8.52,2c2.37,1.34,4.17,3.15,5.4,5.43c1.22,2.29,1.83,4.83,1.83,7.64
		c0,2.76-0.61,5.27-1.83,7.53c-1.23,2.26-3.02,4.05-5.4,5.36c-2.37,1.31-5.22,1.97-8.52,1.97h-10.99v15.34h-11.67V828.87z
		 M635.86,839.76c-1.02-1.06-2.31-1.59-3.9-1.59h-9.43v11.33h9.43c1.58,0,2.88-0.51,3.9-1.55c1.02-1.03,1.53-2.38,1.53-4.04
		C637.39,842.2,636.88,840.81,635.86,839.76z"/>
	<path class="st2" d="M658.06,839.43c2.1-3.55,5-6.32,8.69-8.32c3.68-1.99,7.81-2.98,12.38-2.98c4.57,0,8.69,0.99,12.35,2.98
		c3.66,1.99,6.55,4.77,8.65,8.32c2.1,3.55,3.16,7.59,3.16,12.11s-1.05,8.56-3.16,12.12c-2.1,3.55-4.99,6.32-8.65,8.31
		c-3.67,1.99-7.78,2.98-12.35,2.98c-4.57,0-8.7-0.99-12.38-2.98c-3.69-1.99-6.58-4.76-8.69-8.31c-2.1-3.56-3.16-7.59-3.16-12.12
		S655.95,842.98,658.06,839.43z M689.88,844.37c-1.02-2.14-2.46-3.84-4.31-5.08c-1.86-1.24-4-1.87-6.45-1.87
		c-2.44,0-4.6,0.62-6.48,1.87c-1.88,1.24-3.32,2.94-4.35,5.08c-1.02,2.15-1.52,4.53-1.52,7.17c0,2.63,0.51,5.03,1.52,7.17
		c1.02,2.14,2.47,3.84,4.35,5.08c1.88,1.24,4.04,1.87,6.48,1.87c2.45,0,4.59-0.62,6.45-1.87c1.85-1.24,3.29-2.94,4.31-5.08
		c1.02-2.14,1.52-4.53,1.52-7.17C691.41,848.9,690.9,846.52,689.88,844.37z"/>
	<path class="st2" d="M710.34,863.96c2.94-2.85,4.95-10.63,6.04-23.34l1.02-11.74h32.71v35.97h5.43v17.64h-10.24v-8.34h-28.3v8.34
		h-10.18v-18.52H710.34z M724.63,857.42c-0.75,3.49-1.77,5.96-3.06,7.42h16.88v-26.67h-11.53l-0.48,5.31
		C725.97,849.29,725.37,853.94,724.63,857.42z"/>
	<path class="st2" d="M772.61,872c-3.69-1.97-6.59-4.74-8.72-8.31c-2.13-3.57-3.19-7.63-3.19-12.15c0-4.57,1.07-8.63,3.19-12.18
		c2.13-3.55,5.02-6.31,8.69-8.28c3.66-1.97,7.76-2.95,12.28-2.95c5.16,0,9.36,1.03,12.59,3.09c3.24,2.06,5.74,4.74,7.5,8.04
		L794.9,844c-0.77-1.86-2.07-3.41-3.9-4.68c-1.83-1.26-3.88-1.9-6.14-1.9c-2.31,0-4.4,0.62-6.28,1.87
		c-1.88,1.24-3.35,2.94-4.41,5.08c-1.07,2.15-1.6,4.53-1.6,7.17c0,2.63,0.53,5.03,1.6,7.17c1.06,2.14,2.53,3.84,4.41,5.08
		c1.88,1.24,3.97,1.87,6.28,1.87c2.26,0,4.31-0.64,6.14-1.9c1.83-1.26,3.13-2.83,3.9-4.68l10.04,4.75
		c-1.72,3.26-4.21,5.93-7.46,8.01c-3.26,2.08-7.47,3.11-12.62,3.11C780.38,874.95,776.3,873.96,772.61,872z"/>
	<path class="st2" d="M827.41,857.1l-3.05,3.8v13.23h-11.67v-45.26h11.67v18.59l13.91-18.59h14.39l-17.58,21.17l18.53,24.09h-14.32
		L827.41,857.1z"/>
	<path class="st2" d="M871.44,828.87v28.23l18.32-28.23h12.08v45.26h-11.74v-29.52l-19.07,29.52h-11.27v-45.26H871.44z"/>
	<path class="st2" d="M931.57,858.93l-9.84,15.2h-13.85l15.81-23.21l-14.8-22.06h13.78l8.89,14.18l8.75-14.18h13.85l-14.72,21.99
		l15.74,23.28h-13.78L931.57,858.93z"/>
	<path class="st2" d="M94.23,936.5h-18.8v19.07H63.75v-45.26h11.67v16.9h18.8v-16.9h11.67v45.26H94.23V936.5z"/>
	<path class="st2" d="M117.6,920.86c2.1-3.55,5-6.32,8.69-8.32c3.68-1.99,7.81-2.98,12.38-2.98c4.57,0,8.69,0.99,12.35,2.98
		c3.66,1.99,6.55,4.77,8.65,8.32c2.1,3.55,3.16,7.59,3.16,12.11s-1.05,8.56-3.16,12.12c-2.1,3.55-4.99,6.32-8.65,8.31
		c-3.67,1.99-7.78,2.98-12.35,2.98c-4.57,0-8.7-0.99-12.38-2.98c-3.69-1.99-6.58-4.76-8.69-8.31c-2.1-3.56-3.16-7.59-3.16-12.12
		S115.5,924.41,117.6,920.86z M149.43,925.8c-1.02-2.14-2.46-3.84-4.31-5.08c-1.86-1.24-4-1.87-6.45-1.87
		c-2.44,0-4.6,0.62-6.48,1.87c-1.88,1.24-3.32,2.94-4.35,5.08c-1.02,2.15-1.52,4.53-1.52,7.17c0,2.63,0.51,5.03,1.52,7.17
		c1.02,2.14,2.47,3.84,4.35,5.08c1.88,1.24,4.04,1.87,6.48,1.87c2.45,0,4.59-0.62,6.45-1.87c1.85-1.24,3.29-2.94,4.31-5.08
		c1.02-2.14,1.52-4.53,1.52-7.17C150.96,930.34,150.45,927.95,149.43,925.8z"/>
	<path class="st2" d="M171.45,910.31h25.65c2.85,0,5.27,0.54,7.26,1.62c1.99,1.08,3.48,2.49,4.48,4.24
		c0.99,1.76,1.49,3.62,1.49,5.59c0,2.7-0.73,4.97-2.2,6.81c-1.47,1.84-3.31,3-5.53,3.5c2.45,0.36,4.49,1.61,6.15,3.72
		c1.65,2.12,2.47,4.59,2.47,7.41c0,2.28-0.5,4.35-1.49,6.22c-1,1.87-2.5,3.36-4.51,4.47c-2.02,1.12-4.45,1.67-7.3,1.67h-26.47
		V910.31z M194.46,927.81c1.18,0,2.14-0.39,2.88-1.18c0.75-0.78,1.12-1.77,1.12-2.97c0-1.19-0.38-2.16-1.12-2.93
		c-0.75-0.76-1.71-1.14-2.88-1.14h-11.33v8.21H194.46z M194.87,946.28c1.35,0,2.44-0.42,3.25-1.26c0.82-0.83,1.23-1.92,1.23-3.25
		c0-1.33-0.41-2.44-1.23-3.33c-0.81-0.88-1.9-1.33-3.25-1.33h-11.74v9.16H194.87z"/>
	<path class="st2" d="M221.16,920.86c2.1-3.55,5-6.32,8.69-8.32c3.68-1.99,7.81-2.98,12.38-2.98c4.57,0,8.69,0.99,12.35,2.98
		c3.66,1.99,6.55,4.77,8.65,8.32c2.1,3.55,3.16,7.59,3.16,12.11s-1.05,8.56-3.16,12.12c-2.1,3.55-4.99,6.32-8.65,8.31
		c-3.67,1.99-7.78,2.98-12.35,2.98c-4.57,0-8.7-0.99-12.38-2.98c-3.69-1.99-6.58-4.76-8.69-8.31c-2.1-3.56-3.16-7.59-3.16-12.12
		S219.05,924.41,221.16,920.86z M252.98,925.8c-1.02-2.14-2.46-3.84-4.31-5.08c-1.86-1.24-4-1.87-6.45-1.87
		c-2.44,0-4.6,0.62-6.48,1.87c-1.88,1.24-3.32,2.94-4.35,5.08c-1.02,2.15-1.52,4.53-1.52,7.17c0,2.63,0.51,5.03,1.52,7.17
		c1.02,2.14,2.47,3.84,4.35,5.08c1.88,1.24,4.04,1.87,6.48,1.87c2.45,0,4.59-0.62,6.45-1.87c1.85-1.24,3.29-2.94,4.31-5.08
		c1.02-2.14,1.52-4.53,1.52-7.17C254.51,930.34,254,927.95,252.98,925.8z"/>
	<path class="st2" d="M284.61,953.43c-3.69-1.97-6.59-4.74-8.72-8.31c-2.13-3.57-3.19-7.63-3.19-12.15c0-4.57,1.07-8.63,3.19-12.18
		c2.13-3.55,5.02-6.31,8.69-8.28c3.66-1.97,7.76-2.95,12.28-2.95c5.16,0,9.36,1.03,12.59,3.09c3.24,2.06,5.74,4.74,7.5,8.04
		l-10.04,4.75c-0.77-1.86-2.07-3.41-3.9-4.68c-1.83-1.26-3.88-1.9-6.14-1.9c-2.31,0-4.4,0.62-6.28,1.87
		c-1.88,1.24-3.35,2.94-4.41,5.08c-1.07,2.15-1.6,4.53-1.6,7.17c0,2.63,0.53,5.03,1.6,7.17c1.06,2.14,2.53,3.84,4.41,5.08
		c1.88,1.24,3.97,1.87,6.28,1.87c2.26,0,4.31-0.64,6.14-1.9c1.83-1.26,3.13-2.83,3.9-4.68l10.04,4.75
		c-1.72,3.26-4.21,5.93-7.46,8.01c-3.26,2.08-7.47,3.11-12.62,3.11C292.38,956.38,288.3,955.4,284.61,953.43z"/>
	<path class="st2" d="M334.79,919.6H322.1v-9.29h36.98v9.29h-12.62v35.97h-11.67V919.6z"/>
	<path class="st2" d="M367.36,910.31h33.19v9.29h-21.51v8.08h21.04v9.29h-21.04v9.3h21.51v9.29h-33.19V910.31z"/>
	<path class="st2" d="M421.72,910.31v28.23l18.32-28.23h12.08v45.26h-11.74v-29.52l-19.07,29.52h-11.27v-45.26H421.72z
		 M424.1,905.54c-2.17-1.14-4-2.71-5.49-4.71l5.49-4.57c0.81,1.18,1.82,2.1,3.02,2.78s2.52,1.02,3.97,1.02c1.45,0,2.78-0.34,4-1.02
		c1.22-0.68,2.24-1.61,3.05-2.78l5.43,4.57c-1.45,2-3.26,3.57-5.43,4.71c-2.18,1.14-4.53,1.71-7.06,1.71
		C428.6,907.25,426.27,906.68,424.1,905.54z"/>
	<path class="st0" d="M522.77,925.03l-11.47,30.54h-5.16l-11.4-30.54v30.54h-11.67v-45.26h16.22l9.43,25.65l9.5-25.65h16.22v45.26
		h-11.67V925.03z"/>
	<path class="st0" d="M546.15,920.86c2.1-3.55,5-6.32,8.69-8.32c3.68-1.99,7.81-2.98,12.38-2.98c4.57,0,8.69,0.99,12.35,2.98
		c3.66,1.99,6.55,4.77,8.65,8.32c2.1,3.55,3.16,7.59,3.16,12.11s-1.05,8.56-3.16,12.12c-2.1,3.55-4.99,6.32-8.65,8.31
		c-3.67,1.99-7.78,2.98-12.35,2.98c-4.57,0-8.7-0.99-12.38-2.98c-3.69-1.99-6.58-4.76-8.69-8.31c-2.1-3.56-3.16-7.59-3.16-12.12
		S544.04,924.41,546.15,920.86z M577.97,925.8c-1.02-2.14-2.46-3.84-4.31-5.08c-1.86-1.24-4-1.87-6.45-1.87
		c-2.44,0-4.6,0.62-6.48,1.87c-1.88,1.24-3.32,2.94-4.35,5.08c-1.02,2.15-1.52,4.53-1.52,7.17c0,2.63,0.51,5.03,1.52,7.17
		c1.02,2.14,2.47,3.84,4.35,5.08c1.88,1.24,4.04,1.87,6.48,1.87c2.45,0,4.59-0.62,6.45-1.87c1.85-1.24,3.29-2.94,4.31-5.08
		c1.02-2.14,1.52-4.53,1.52-7.17C579.5,930.34,578.99,927.95,577.97,925.8z"/>
	<path class="st0" d="M609.59,953.43c-3.69-1.97-6.59-4.74-8.72-8.31c-2.13-3.57-3.19-7.63-3.19-12.15c0-4.57,1.07-8.63,3.19-12.18
		c2.13-3.55,5.02-6.31,8.69-8.28c3.66-1.97,7.76-2.95,12.28-2.95c5.16,0,9.36,1.03,12.59,3.09c3.24,2.06,5.74,4.74,7.5,8.04
		l-10.04,4.75c-0.77-1.86-2.07-3.41-3.9-4.68c-1.83-1.26-3.88-1.9-6.14-1.9c-2.31,0-4.4,0.62-6.28,1.87
		c-1.88,1.24-3.35,2.94-4.41,5.08c-1.07,2.15-1.6,4.53-1.6,7.17c0,2.63,0.53,5.03,1.6,7.17c1.06,2.14,2.53,3.84,4.41,5.08
		c1.88,1.24,3.97,1.87,6.28,1.87c2.26,0,4.31-0.64,6.14-1.9c1.83-1.26,3.13-2.83,3.9-4.68l10.04,4.75
		c-1.72,3.26-4.21,5.93-7.46,8.01c-3.26,2.08-7.47,3.11-12.62,3.11C617.36,956.38,613.28,955.4,609.59,953.43z"/>
	<path class="st0" d="M664.39,938.54l-3.05,3.8v13.23h-11.67v-45.26h11.67v18.59l13.91-18.59h14.39l-17.58,21.17l18.53,24.09h-14.32
		L664.39,938.54z"/>
	<path class="st0" d="M696.76,910.31h25.65c2.85,0,5.27,0.54,7.26,1.62c1.99,1.08,3.48,2.49,4.48,4.24
		c0.99,1.76,1.49,3.62,1.49,5.59c0,2.7-0.73,4.97-2.2,6.81c-1.47,1.84-3.31,3-5.53,3.5c2.45,0.36,4.49,1.61,6.15,3.72
		c1.65,2.12,2.47,4.59,2.47,7.41c0,2.28-0.5,4.35-1.49,6.22c-1,1.87-2.5,3.36-4.51,4.47c-2.02,1.12-4.45,1.67-7.3,1.67h-26.47
		V910.31z M719.76,927.81c1.18,0,2.14-0.39,2.88-1.18c0.75-0.78,1.12-1.77,1.12-2.97c0-1.19-0.38-2.16-1.12-2.93
		c-0.75-0.76-1.71-1.14-2.88-1.14h-11.33v8.21H719.76z M720.17,946.28c1.35,0,2.44-0.42,3.25-1.26c0.82-0.83,1.23-1.92,1.23-3.25
		c0-1.33-0.41-2.44-1.23-3.33c-0.81-0.88-1.9-1.33-3.25-1.33h-11.74v9.16H720.17z"/>
	<path class="st0" d="M774.59,948.72h-18.8l-2.3,6.85H740.8l17.03-45.26h14.66l17.1,45.26H776.9L774.59,948.72z M758.67,939.42
		h12.87l-6.38-18.39L758.67,939.42z"/>
	<g>
		<path class="st2" d="M96.67,867.19H77.98l-2.29,6.82H63.07L80.01,829h14.58l17.01,45.01H98.97L96.67,867.19z M80.84,857.95h12.8
			l-6.34-18.29L80.84,857.95z"/>
		<path class="st2" d="M118.84,829h33v9.24h-21.39v35.76h-11.61V829z"/>
		<path class="st2" d="M160.55,829h33v9.24h-21.39v8.03h20.92v9.24h-20.92v9.24h21.39v9.24h-33V829z"/>
		<path class="st2" d="M234.44,855.05h-18.69v18.96h-11.61V829h11.61v16.8h18.69V829h11.61v45.01h-11.61V855.05z"/>
		<path class="st2" d="M267.05,838.24h-12.62V829h36.78v9.24h-12.55v35.76h-11.61V838.24z"/>
		<path class="st2" d="M308.76,871.88c-3.67-1.96-6.56-4.71-8.67-8.27c-2.11-3.55-3.17-7.58-3.17-12.08c0-4.54,1.06-8.58,3.17-12.11
			c2.11-3.53,4.99-6.28,8.64-8.23c3.64-1.96,7.71-2.94,12.21-2.94c5.13,0,9.3,1.02,12.52,3.07c3.22,2.05,5.71,4.71,7.46,8
			l-9.99,4.72c-0.76-1.84-2.06-3.4-3.88-4.66c-1.82-1.26-3.86-1.89-6.11-1.89c-2.29,0-4.38,0.62-6.24,1.86
			c-1.87,1.24-3.33,2.92-4.39,5.05c-1.06,2.13-1.59,4.51-1.59,7.13c0,2.62,0.53,5,1.59,7.13c1.06,2.13,2.52,3.82,4.39,5.05
			c1.87,1.24,3.95,1.86,6.24,1.86c2.25,0,4.28-0.63,6.11-1.89c1.82-1.26,3.11-2.81,3.88-4.66l9.99,4.72
			c-1.71,3.24-4.18,5.9-7.42,7.97c-3.24,2.07-7.42,3.1-12.55,3.1C316.49,874.82,312.42,873.84,308.76,871.88z"/>
		<path class="st2" d="M360.39,838.24h-12.62V829h36.78v9.24H372v35.76h-11.61V838.24z"/>
		<path class="st2" d="M392.93,829h25.51c2.83,0,5.24,0.54,7.22,1.61c1.98,1.07,3.46,2.48,4.45,4.22c0.99,1.74,1.48,3.6,1.48,5.56
			c0,2.68-0.73,4.94-2.19,6.77c-1.46,1.83-3.29,2.99-5.5,3.48c2.43,0.36,4.46,1.6,6.11,3.7c1.64,2.11,2.46,4.56,2.46,7.37
			c0,2.27-0.5,4.32-1.49,6.18c-0.99,1.86-2.49,3.34-4.49,4.45c-2,1.11-4.42,1.66-7.26,1.66h-26.32V829z M415.81,846.41
			c1.17,0,2.12-0.39,2.87-1.17c0.74-0.78,1.12-1.76,1.12-2.95c0-1.18-0.37-2.15-1.12-2.91c-0.74-0.76-1.7-1.14-2.87-1.14h-11.27
			v8.17H415.81z M416.21,864.76c1.35,0,2.43-0.42,3.24-1.25c0.81-0.83,1.22-1.91,1.22-3.23c0-1.32-0.4-2.42-1.22-3.31
			c-0.81-0.88-1.89-1.32-3.24-1.32h-11.68v9.11H416.21z"/>
		<path class="st2" d="M442.79,839.49c2.09-3.53,4.97-6.29,8.64-8.27c3.67-1.98,7.77-2.97,12.32-2.97c4.54,0,8.64,0.99,12.28,2.97
			c3.64,1.98,6.51,4.74,8.6,8.27c2.09,3.53,3.14,7.55,3.14,12.05c0,4.5-1.05,8.51-3.14,12.05c-2.09,3.53-4.96,6.29-8.6,8.27
			c-3.64,1.98-7.74,2.97-12.28,2.97c-4.54,0-8.65-0.99-12.32-2.97c-3.67-1.98-6.55-4.73-8.64-8.27c-2.09-3.53-3.14-7.55-3.14-12.05
			C439.65,847.04,440.7,843.02,442.79,839.49z M474.44,844.41c-1.01-2.13-2.44-3.82-4.28-5.05c-1.85-1.24-3.98-1.86-6.41-1.86
			c-2.43,0-4.58,0.62-6.45,1.86s-3.31,2.92-4.32,5.05c-1.01,2.13-1.52,4.51-1.52,7.13c0,2.62,0.5,5,1.52,7.13
			c1.01,2.13,2.45,3.82,4.32,5.05c1.87,1.24,4.02,1.86,6.45,1.86c2.43,0,4.57-0.62,6.41-1.86c1.84-1.24,3.27-2.92,4.28-5.05
			c1.01-2.13,1.52-4.51,1.52-7.13C475.96,848.92,475.45,846.54,474.44,844.41z"/>
	</g>
</g>
</svg>
