<svg width="268" height="46" viewBox="0 0 268 46" fill="none" xmlns="http://www.w3.org/2000/svg">
<g clip-path="url(#clip0_175_3391)">
<path d="M180.851 41.9427L201 34.9207C201 34.9207 208.735 24.0198 209.343 23.0296C209.949 22.0394 210.036 21.4135 208.962 21.6225C207.892 21.7827 194.104 24.3792 194.104 24.3792L179.499 18.0712L179.448 15.8988L200.098 13.7778L180.677 2.75349L180.649 0.576233C180.649 0.576233 221.148 0.529785 224.636 0.529785C228.125 0.529785 231.808 1.27552 234.593 2.95643C234.593 2.95643 236.711 0.556684 240.916 0.556684L243.73 0.576233C246.428 0.576233 249.735 2.02732 252.317 4.53342C252.317 4.53342 255.247 5.98695 256.581 8.20698L253.652 9.43684C253.652 9.43684 253.219 10.0615 252.201 10.9967C250.996 12.1055 248.81 14.1067 245.413 14.9576C243.615 15.4074 241.671 15.768 239.757 16.1874C237.841 16.608 236.97 17.4783 236.073 18.2876C234.042 20.1177 231.433 20.8682 229.894 21.3182C229.081 21.5553 219.419 24.0956 219.419 24.0956L210.555 31.4292C210.555 31.4292 244.499 19.488 251.071 17.1177C257.642 14.7473 261.393 11.581 262.657 9.78278L263.912 10.3195C263.912 10.3195 264.176 12.2461 262.837 14.1801C261.794 15.6874 261.794 15.6874 261.794 15.6874C261.794 15.6874 265.252 13.7681 266.247 11.4392L267.76 12.2449C266.42 17.3879 263.57 19.5162 260.625 21.0553C257.681 22.5944 229.053 31.5565 229.053 31.5565L188.244 45.2066L180.98 43.6859L180.851 41.9427Z" fill="white"/>
<path d="M257.183 19.7265C251.313 21.8132 186.983 43.6774 186.983 43.6774L187.982 43.8815C187.982 43.8815 252.536 22.5736 258.284 20.6116C264.031 18.6506 266.415 13.4661 266.415 13.4661C266.415 13.4661 263.053 17.6385 257.183 19.7265Z" fill="#101828"/>
<path d="M254.196 17.2718C248.333 19.3769 182.613 42.7545 182.613 42.7545L184.82 43.2362C184.82 43.2362 248.296 21.2412 254.054 19.3182C260.839 17.053 262.819 11.3501 262.819 11.3501C262.819 11.3501 259.284 15.443 254.196 17.2718Z" fill="#101828"/>
<path d="M182.282 1.94687C182.282 1.94687 183.599 2.71706 183.918 2.89798C184.236 3.07891 184.448 3.18402 185.372 3.18402C190.909 3.19624 218.603 3.25982 225.358 3.25982C232.874 3.25982 236.761 6.56174 236.761 6.56174C236.761 6.56174 233.273 1.86987 225.21 1.86987C217.145 1.86987 182.282 1.94687 182.282 1.94687Z" fill="#101828"/>
<path d="M235.105 4.47251C235.105 4.47251 237.216 1.89551 240.225 1.89551C243.233 1.89551 241.367 1.93096 244.134 1.93096C246.904 1.93096 250.293 4.50795 250.293 4.50795C250.293 4.50795 247.317 3.21947 243.926 3.21947C240.536 3.21947 245.969 3.21947 241.089 3.21947C236.633 3.21947 235.105 4.47251 235.105 4.47251Z" fill="#101828"/>
<path d="M191.403 21.964L208.993 19.03L210.703 19.9799C210.703 19.9799 195.545 22.7232 194.734 22.8772C193.921 23.0312 193.561 22.8527 193.133 22.6913C192.705 22.53 191.403 21.964 191.403 21.964Z" fill="#3451B6"/>
<path d="M251.299 5.097C250.003 4.63001 249.188 4.53467 248.618 4.53467C247.813 4.53467 236.816 4.52612 236.816 4.52612C236.816 4.52612 237.666 7.14958 240.605 7.10312C242.406 7.07378 244.033 6.95397 245.669 6.9173C248.492 7.05055 246.34 10.2461 246.34 10.2461C244.239 13.0639 241.112 13.6544 240.296 13.8048C237.078 14.3964 237.604 16.6079 233.105 17.603C228.607 18.5969 217.22 21.213 215.76 21.4746C214.148 21.7864 212.737 21.1104 212.737 21.1104C212.737 21.1104 209.312 19.1825 210.621 19.9636C211.931 20.7448 210.772 23.2985 210.772 23.2985L202.507 34.8107C202.507 34.8107 207.8 28.7679 209.06 27.3609C211.628 25.0161 212.687 24.5993 215.558 23.7142C218.43 22.8279 225.006 21.1812 229.023 20.1409C235.302 18.5175 235.647 15.674 239.115 14.8757C243.432 13.883 240.796 14.5028 243.432 13.883C247.55 12.9148 250.533 10.597 250.533 10.597L250.525 10.581L250.584 10.6007L253.592 7.9075L254.842 7.60188C254.204 7.00776 253.184 5.99063 251.299 5.097Z" fill="#101828"/>
<path d="M206.196 33.5712L212.214 26.7998C212.214 26.7998 213.32 25.449 215.007 24.9941C216.695 24.5406 216.938 24.4783 216.938 24.4783C213.834 26.4318 206.196 33.5712 206.196 33.5712Z" fill="#101828"/>
<path d="M201.727 15.02L180.779 17.2706C180.779 17.2706 186.962 19.9687 187.846 20.3366C188.729 20.7046 189.254 20.9527 190.334 20.784C192.796 20.3965 199.961 19.2645 207.275 18.1031L201.727 15.02Z" fill="#101828"/>
<path d="M213.405 13.7659L204.42 14.7316C204.42 14.7316 207.151 16.3123 208.319 16.9773C209.487 17.6424 209.651 17.7451 210.738 17.5531C213.117 17.1765 215.433 16.8074 217.529 16.4737L213.405 13.7659Z" fill="#3451B6"/>
<path d="M206.671 9.34375L196.096 9.93056C196.096 9.93056 200.427 12.477 201.353 12.9709C202.279 13.4648 202.449 13.5809 203.896 13.4318C205.437 13.2729 208.37 12.9758 211.693 12.642L206.671 9.34375Z" fill="#3451B6"/>
<path d="M207.639 8.13885C217.992 7.54717 231.373 6.78069 231.373 6.78069C231.373 6.78069 231.019 4.53498 226.465 4.53498C222.775 4.53498 209.64 4.48853 202.241 4.48853L207.639 8.13885Z" fill="#101828"/>
<path d="M199.275 4.48706C192.37 4.48706 186.676 4.48706 186.676 4.48706C186.676 4.48706 192.141 7.62761 193.055 8.16428C193.968 8.70095 194.306 8.888 195.836 8.80855C196.324 8.78287 200.12 8.56771 205.061 8.28654L199.275 4.48706Z" fill="#101828"/>
<path d="M227.372 12.2646L215.608 13.5286L219.498 16.1594C221.152 15.8954 222.131 15.7389 223.28 15.5531C224.811 15.3282 225.676 14.6423 226.314 13.7487C226.952 12.855 227.372 12.2646 227.372 12.2646Z" fill="#3451B6"/>
<path d="M230.414 8.02588L209.214 9.20191L213.96 12.4122C218.96 11.9085 224.314 11.3926 226.972 11.1004C228.348 10.9488 228.418 10.8193 229.083 9.88163C229.749 8.94274 230.414 8.02588 230.414 8.02588Z" fill="#3451B6"/>
<path d="M246.687 5.1936H245.505V6.30849H246.687V5.1936Z" fill="white"/>
<path d="M12.695 41.2158V42.894H12.1802V42.1964C12.1802 41.8392 11.8957 41.6977 11.4971 41.6977C10.9997 41.6977 10.8042 41.7909 10.8042 42.0797V44.3207C10.8042 44.615 11.0888 44.6779 11.4786 44.6779C11.9848 44.6779 12.1802 44.6027 12.1802 44.3668V43.7478H12.695V44.5139C12.695 45.0127 12.1802 45.2071 11.4776 45.2071C10.6251 45.2071 10.2872 44.9183 10.2872 44.5139V41.8573C10.2872 41.3585 10.7586 41.1641 11.4058 41.1641C11.8588 41.1641 12.0988 41.2742 12.1965 41.4314H12.215L12.2681 41.2158H12.695Z" fill="white"/>
<path d="M157.24 41.2158V42.894H156.725V42.1964C156.725 41.8392 156.44 41.6977 156.041 41.6977C155.544 41.6977 155.349 41.7909 155.349 42.0797V44.3207C155.349 44.615 155.633 44.6779 156.025 44.6779C156.529 44.6779 156.725 44.6027 156.725 44.3668V43.7478H157.24V44.5139C157.24 45.0127 156.725 45.2071 156.023 45.2071C155.17 45.2071 154.832 44.9183 154.832 44.5139V41.8573C154.832 41.3585 155.304 41.1641 155.95 41.1641C156.403 41.1641 156.644 41.2742 156.742 41.4314H156.76L156.813 41.2158H157.24Z" fill="white"/>
<path d="M14.5609 44.6191V41.7489H14.0982V41.2153H17.252V41.7489H16.7904V44.6191H17.252V45.1527H15.8467V44.6191H16.2757V41.7489H15.0767V44.6191H15.5046V45.1527H14.0993V44.6191H14.5609Z" fill="white"/>
<path d="M137.502 44.6191V41.7489H137.039V41.2153H140.193V41.7489H139.732V44.6191H140.193V45.1527H138.813V44.6191H139.217V41.7489H138.018V44.6191H138.423V45.1527H137.039V44.6191H137.502Z" fill="white"/>
<path d="M18.6735 41.8658C18.6735 41.3626 19.1883 41.1626 19.891 41.1626C20.7696 41.1626 21.116 41.4558 21.116 41.8602V44.5012C21.116 45.0044 20.6013 45.2044 19.891 45.2044C19.0113 45.2044 18.6735 44.9101 18.6735 44.5012V41.8658ZM20.6099 42.0276C20.6099 41.7231 20.308 41.6962 19.891 41.6962C19.3762 41.6962 19.1797 41.7815 19.1797 42.022V44.3068C19.1797 44.6113 19.4816 44.6708 19.891 44.6708C20.4058 44.6708 20.6099 44.581 20.6099 44.3394V42.0276Z" fill="white"/>
<path d="M23.0004 44.6191V41.7489H22.5475V41.2153H24.3155C24.9813 41.2153 25.2387 41.5299 25.2387 41.9613V42.7521C25.2387 43.288 24.8477 43.4981 24.3155 43.4981H23.5162V44.6203H24.245V45.1539H22.5398V44.6203H23.0004V44.6191ZM24.7228 42.1848C24.7228 41.8692 24.5013 41.7489 24.1993 41.7489H23.5151V42.9633H24.2167C24.5805 42.9633 24.7228 42.779 24.7228 42.5275V42.1848Z" fill="white"/>
<path d="M29.1919 45.1527H27.4152V44.6191H28.0463V41.7489H27.0427V42.6117H26.528V41.2153H30.0814V42.6117H29.5667V41.7489H28.5632V44.6191H29.1941V45.1527H29.1919Z" fill="white"/>
<path d="M89.0586 45.1527H87.2819V44.6191H87.9128V41.7489H86.9093V42.6117H86.3945V41.2153H89.9481V42.6117H89.4332V41.7489H88.4288V44.6191H89.0597V45.1527H89.0586Z" fill="white"/>
<path d="M31.8756 44.6191V41.7489H31.4129V41.2153H32.8433V41.7489H32.3903V43.352L32.3013 44.3608L33.7946 41.2153H34.7536V41.7489H34.292V44.6191H34.7536V45.1527H33.3233V44.6191H33.7761V43.0948L33.8652 42.0185L32.3719 45.1527H31.4575V44.6191H31.8756Z" fill="white"/>
<path d="M38.8749 42.4802C38.8749 42.8634 38.5458 43.0217 38.1016 43.0319C38.6968 43.0475 38.9281 43.352 38.9281 43.7665V44.4394C38.9281 44.9539 38.5013 45.1527 37.9061 45.1527H36.1739V44.6191H36.6354V41.7489H36.1739V41.2153H37.9061C38.599 41.2153 38.8749 41.5299 38.8749 41.9613V42.4802ZM38.3601 42.0781C38.3601 41.7624 38.1559 41.7489 37.8713 41.7489H37.1524V42.7532H37.7562C38.1906 42.7532 38.3601 42.5746 38.3601 42.3331V42.0781ZM37.702 44.6191C38.2167 44.6191 38.4122 44.563 38.4122 44.3271V43.8968C38.4122 43.3396 38.1113 43.2509 37.702 43.2509H37.1513V44.618H37.702V44.6191Z" fill="white"/>
<path d="M67.4268 42.4802C67.4268 42.8634 67.0966 43.0217 66.6535 43.0319C67.2487 43.0475 67.4789 43.352 67.4789 43.7665V44.4394C67.4789 44.9539 67.0532 45.1527 66.458 45.1527H64.7258V44.6191H65.1874V41.7489H64.7258V41.2153H66.458C67.1509 41.2153 67.4268 41.5299 67.4268 41.9613V42.4802ZM66.9109 42.0781C66.9109 41.7624 66.7057 41.7489 66.4211 41.7489H65.7022V42.7532H66.306C66.7415 42.7532 66.9109 42.5746 66.9109 42.3331V42.0781ZM66.2538 44.6191C66.7686 44.6191 66.9642 44.563 66.9642 44.3271V43.8968C66.9642 43.3396 66.6622 43.2509 66.2538 43.2509H65.7022V44.618H66.2538V44.6191Z" fill="white"/>
<path d="M43.5928 44.6191V45.1527H42.1625V44.6191H42.6154V43.4036H41.3285V44.6191H41.7813V45.1527H40.351V44.6191H40.8126V41.7489H40.351V41.2153H41.7813V41.7489H41.3285V42.8903H42.6154V41.7489H42.1625V41.2153H43.5928V41.7489H43.1302V44.6191H43.5928Z" fill="white"/>
<path d="M107.137 44.6191V45.1527H105.707V44.6191H106.16V43.4036H104.874V44.6191H105.327V45.1527H103.896V44.6191H104.358V41.7489H103.896V41.2153H105.327V41.7489H104.874V42.8903H106.16V41.7489H105.707V41.2153H107.137V41.7489H106.676V44.6191H107.137Z" fill="white"/>
<path d="M45.0133 41.8658C45.0133 41.3626 45.5281 41.1626 46.2307 41.1626C47.1104 41.1626 47.4569 41.4558 47.4569 41.8602V44.5012C47.4569 45.0044 46.9421 45.2044 46.2307 45.2044C45.3521 45.2044 45.0133 44.9101 45.0133 44.5012V41.8658ZM46.9497 42.0444C46.9497 41.7399 46.6478 41.6962 46.2307 41.6962C45.716 41.6962 45.5194 41.7984 45.5194 42.0399V44.308C45.5194 44.6124 45.8224 44.6719 46.2307 44.6719C46.7456 44.6719 46.9497 44.5697 46.9497 44.3282V42.0444Z" fill="white"/>
<path d="M126.924 41.8658C126.924 41.3626 127.439 41.1626 128.142 41.1626C129.021 41.1626 129.368 41.4558 129.368 41.8602V44.5012C129.368 45.0044 128.853 45.2044 128.142 45.2044C127.263 45.2044 126.924 44.9101 126.924 44.5012V41.8658ZM128.861 42.0444C128.861 41.7399 128.559 41.6962 128.141 41.6962C127.626 41.6962 127.43 41.7984 127.43 42.0399V44.308C127.43 44.6124 127.732 44.6719 128.141 44.6719C128.657 44.6719 128.861 44.5697 128.861 44.3282V42.0444Z" fill="white"/>
<path d="M49.0121 43.0444H51.2232V43.5937H49.0121V43.0444Z" fill="white"/>
<path d="M53.24 44.6191V41.7489H52.7871V41.2153H54.554C55.2209 41.2153 55.4783 41.5299 55.4783 41.9613V42.6656C55.4783 43.2015 55.0863 43.352 54.554 43.352H53.7558V44.6191H54.4835V45.1527H52.7784V44.6191H53.24ZM54.9635 42.0893C54.9635 41.7737 54.7409 41.7478 54.4389 41.7478H53.7558V42.8476H54.4563C54.8212 42.8476 54.9635 42.7408 54.9635 42.4892V42.0893Z" fill="white"/>
<path d="M56.8945 44.6191L57.672 41.2153H58.4008L59.1795 44.6191H59.7073V45.1527H58.2759V44.6191L58.6701 44.6225L58.4822 43.8047L57.5841 43.8114L57.4081 44.6203H57.7959V45.1539H56.3656V44.6203L56.8945 44.6191ZM58.4008 43.2913L58.2139 42.4746L58.0369 41.4356L57.8599 42.4746L57.6786 43.2846L58.4008 43.2913Z" fill="white"/>
<path d="M82.6922 44.6191L83.472 41.2153H84.1996L84.9783 44.6191H85.5061V45.1527H84.0747V44.6191L84.469 44.6225L84.2811 43.8047L83.384 43.8114L83.2081 44.6203H83.5958V45.1539H82.1655V44.6203L82.6922 44.6191ZM84.1985 43.2913L84.0117 42.4746L83.8347 41.4356L83.6566 42.4746L83.4774 43.2846L84.1985 43.2913Z" fill="white"/>
<path d="M61.3147 41.2158L61.3777 41.4572H61.3951C61.5373 41.2472 61.8566 41.1641 62.2117 41.1641C63.0024 41.1641 63.3044 41.4528 63.3044 41.8573V42.4875C63.3044 42.8761 62.9926 43.0379 62.5669 43.0491C63.1001 43.0491 63.3044 43.3647 63.3044 43.795V44.4926C63.3044 45.007 62.7895 45.2071 62.0782 45.2071C61.2528 45.2071 60.9324 44.9071 60.9324 44.4926V44.0208H61.4124V44.3263C61.4124 44.6308 61.697 44.6735 62.0869 44.6735C62.593 44.6735 62.7884 44.5656 62.7884 44.3196V43.8983C62.7884 43.4254 62.5398 43.2423 62.202 43.2423H61.9631V42.8042H62.202C62.6288 42.8042 62.7884 42.6255 62.7884 42.3796V42.1987C62.7884 41.8415 62.4952 41.6999 62.0956 41.6999C61.6068 41.6999 61.4113 41.91 61.4113 42.1987V42.3582H60.9313V41.2192H61.3147V41.2158Z" fill="white"/>
<path d="M69.8867 44.5068C69.9051 44.927 69.6553 45.1527 69.1937 45.1527H68.7767V44.6191H68.9809C69.336 44.6191 69.3718 44.6124 69.3718 44.2507V41.7489H68.9103V41.2153H72.0631V41.7489H71.6015V44.6191H72.0631V45.1527H70.6153V44.6191H71.0867V41.7489H69.8878V44.5068H69.8867Z" fill="white"/>
<path d="M96.3658 44.5068C96.3824 44.927 96.1337 45.1527 95.6723 45.1527H95.2551V44.6191H95.4596C95.8151 44.6191 95.851 44.6124 95.851 44.2507V41.7489H95.3887V41.2153H98.543V41.7489H98.0806V44.6191H98.543V45.1527H97.0943V44.6191H97.5658V41.7489H96.3667L96.3658 44.5068Z" fill="white"/>
<path d="M142.605 44.5068C142.622 44.927 142.373 45.1527 141.911 45.1527H141.493V44.6191H141.698C142.053 44.6191 142.09 44.6124 142.09 44.2507V41.7489H141.628V41.2153H144.781V41.7489H144.319V44.6191H144.781V45.1527H143.333V44.6191H143.805V41.7489H142.605L142.605 44.5068Z" fill="white"/>
<path d="M75.5557 41.7492H74.4534V42.932H75.4047V43.4387H74.4534V44.6182H75.5557V43.7454H76.0705V45.1518H73.4846V44.6182H73.9375V41.748H73.4846V41.2144H76.0705V42.6163H75.5557V41.7492Z" fill="white"/>
<path d="M93.3515 41.7492H92.25V42.932H93.2023V43.4387H92.25V44.6182H93.3515V43.7454H93.8663V45.1518H91.2817V44.6182H91.7347V41.748H91.2817V41.2144H93.8663V42.6163H93.3515V41.7492Z" fill="white"/>
<path d="M148.27 41.7492H147.169V42.932H148.119V43.4387H147.169V44.6182H148.27V43.7454H148.785V45.1518H146.199V44.6182H146.652V41.748H146.199V41.2144H148.785V42.6163H148.27V41.7492Z" fill="white"/>
<path d="M79.0017 44.6191V45.1527H77.5811V44.6191H78.0427V41.7489H77.5811V41.2153H79.0017V41.7489H78.5585V44.6191H79.0017ZM79.3839 41.7489V41.2153H80.8675V41.7489L80.2973 41.731L79.0809 43.2104L80.3038 44.6191H81.0087V45.1527H79.5338V44.6191H79.7131L78.5651 43.2363L79.8172 41.7489H79.3839Z" fill="white"/>
<path d="M123.81 44.6191V45.1527H122.389V44.6191H122.852V41.7489H122.389V41.2153H123.81V41.7489H123.367V44.6191H123.81ZM124.193 41.7489V41.2153H125.675V41.7489L125.106 41.731L123.889 43.2104L125.112 44.6191H125.816V45.1527H124.342V44.6191H124.521L123.373 43.2363L124.626 41.7489H124.193Z" fill="white"/>
<path d="M151.709 44.6191V45.1527H150.288V44.6191H150.75V41.7489H150.288V41.2153H151.709V41.7489H151.265V44.6191H151.709ZM152.09 41.7489V41.2153H153.574V41.7444L153.029 41.74L151.789 43.2093L153.024 44.618H153.717V45.1516H152.242V44.618H152.421L151.273 43.2352L152.526 41.7478H152.09V41.7489Z" fill="white"/>
<path d="M101.728 43.0229C102.393 43.0229 102.651 43.3385 102.651 43.7688V44.4068C102.651 44.9426 102.259 45.1527 101.728 45.1527H99.9594V44.6191H100.412V41.7489H99.9594V41.2153H101.38V41.7489H100.928V43.024H101.728V43.0229ZM102.135 43.9507C102.135 43.6362 101.922 43.5149 101.628 43.5149H100.926V44.618H101.611C101.984 44.618 102.135 44.5045 102.135 44.2518V43.9507Z" fill="white"/>
<path d="M110.511 43.0229C111.178 43.0229 111.436 43.3385 111.436 43.7688V44.4068C111.436 44.9426 111.044 45.1527 110.511 45.1527H108.743V44.6191H109.197V41.7489H108.743V41.2153H110.165V41.7489H109.711V43.024H110.511V43.0229ZM110.921 43.9507C110.921 43.6362 110.707 43.5149 110.413 43.5149H109.712V44.618H110.396C110.769 44.618 110.921 44.5045 110.921 44.2518V43.9507Z" fill="white"/>
<path d="M112.822 44.6191H113.275V45.1527H111.855V44.6191H112.308V41.7489H111.855V41.2153H113.275V41.7489H112.822V44.6191Z" fill="white"/>
<path d="M115.292 44.6191V41.7489H114.83V41.2153H116.26V41.7489H115.807V43.352L115.775 44.2484L117.211 41.2153H118.17V41.7489H117.707V44.6191H118.17V45.1527H116.739V44.6191H117.192V43.0947L117.281 42.0186L115.789 45.1527H114.873V44.6191H115.292ZM117.398 40.4953C117.398 40.6739 117.184 40.8783 116.607 40.8783C116.029 40.8783 115.815 40.6727 115.815 40.4953V40.1033H116.189V40.2661C116.189 40.3492 116.278 40.4605 116.607 40.4605C116.935 40.4605 117.023 40.3492 117.023 40.2661V40.1033H117.396V40.4953H117.398Z" fill="white"/>
<path d="M135.608 41.2153V41.7489H135.147V44.6191H135.618V45.1527H134.188V44.6191H134.632V43.625L134.676 42.1601L133.486 44.8899H132.926L131.728 42.1601L131.78 43.6306V44.6191H132.225V45.1527H130.795V44.6191H131.266V41.7489H130.803V41.2153H131.772L133.202 44.4124L134.642 41.2153H135.608Z" fill="white"/>
<path d="M166.607 0.529785H0.88443V31.3221H166.607V0.529785Z" fill="#3451B6"/>
<path d="M42.0321 11.4311C42.0321 11.1323 42.1418 10.8716 42.3644 10.6469C42.5859 10.4234 42.8368 10.3123 43.1137 10.3123H49.9829C50.2599 10.3123 50.5107 10.4234 50.7323 10.6469C50.9539 10.8716 51.0646 11.1334 51.0646 11.4311V20.3921C51.0646 20.7022 50.9539 20.9661 50.7323 21.184C50.5096 21.4031 50.2599 21.512 49.9829 21.512H43.1137C42.8368 21.512 42.5848 21.4031 42.3644 21.184C42.1418 20.9661 42.0321 20.7022 42.0321 20.3921V11.4311ZM47.8174 19.08V12.7442H45.2793V19.08H47.8174Z" fill="white"/>
<path d="M10.2872 10.3123H18.2392C18.5183 10.3123 18.7681 10.4234 18.9886 10.6469C19.2112 10.8716 19.321 11.1334 19.321 11.4311V14.7911C19.321 15.0899 19.2123 15.3516 18.9972 15.5751C18.7801 15.7987 18.539 15.911 18.2696 15.911C18.5183 15.9436 18.754 16.0391 18.9809 16.1997C19.2091 16.3593 19.322 16.5738 19.322 16.84V20.3921C19.322 20.7022 19.2123 20.9661 18.9897 21.184C18.7681 21.4031 18.5183 21.512 18.2403 21.512H10.2884V10.3123H10.2872ZM16.0737 14.9843V12.7442H13.5367V14.9843H16.0737ZM16.0737 19.08V16.84H13.5367V19.08H16.0737Z" fill="white"/>
<path d="M20.974 11.4311C20.974 11.1323 21.0848 10.8716 21.3063 10.6469C21.529 10.4234 21.7787 10.3123 22.0579 10.3123H28.926C29.205 10.3123 29.4549 10.4234 29.6764 10.6469C29.899 10.8716 30.0087 11.1334 30.0087 11.4311V20.3921C30.0087 20.7022 29.899 20.9661 29.6764 21.184C29.4549 21.4031 29.205 21.512 28.926 21.512H22.0579C21.7787 21.512 21.529 21.4031 21.3063 21.184C21.0848 20.9661 20.974 20.7022 20.974 20.3921V11.4311ZM26.7593 19.08V12.7442H24.2223V19.08H26.7593Z" fill="white"/>
<path d="M31.6649 10.3123H39.6168C39.8959 10.3123 40.1457 10.4234 40.3661 10.6469C40.5888 10.8716 40.6996 11.1334 40.6996 11.4311V16.4716C40.6996 16.7816 40.5888 17.0456 40.3661 17.2646C40.1446 17.4837 39.8949 17.5926 39.6168 17.5926H34.9143V21.5132H31.6649V10.3123ZM37.4502 15.7357V12.7442H34.9132V15.7357H37.4502Z" fill="white"/>
<path d="M52.5917 10.2751H61.0064L59.9247 12.7072H55.8401V14.9472H60.5437C60.6567 14.9472 60.7772 14.9686 60.9065 15.0113C61.0357 15.0539 61.1551 15.1146 61.2616 15.1955C61.3702 15.2753 61.4582 15.3741 61.5255 15.492C61.5929 15.6089 61.6255 15.7369 61.6255 15.8751V20.3551C61.6255 20.6437 61.5201 20.9021 61.3083 21.1301C61.0965 21.3604 60.8413 21.475 60.5437 21.475H52.5917V10.2751ZM58.3781 19.0429V16.803H55.8401V19.0429H58.3781Z" fill="white"/>
<path d="M63.0708 10.2751H66.3191V14.2114H71.0217C71.3007 14.2114 71.5506 14.3226 71.7732 14.5462C71.9947 14.7697 72.1055 15.0303 72.1055 15.3269V20.3573C72.1055 20.665 71.9947 20.9302 71.7732 21.147C71.5506 21.366 71.3007 21.4739 71.0217 21.4739H63.0708V10.2751ZM68.855 19.0429V16.0672H66.318V19.0429H68.855Z" fill="white"/>
<path d="M73.2383 10.2751H82.2719L81.1903 12.7072H76.4866V14.9472H81.1903V16.803H76.4866V19.0429H82.273L81.1914 21.4761H73.2394V10.2751H73.2383Z" fill="white"/>
<path d="M83.407 10.2751H91.3578C91.6369 10.2751 91.8867 10.3864 92.1091 10.6099C92.3311 10.8346 92.4416 11.0952 92.4416 11.394V14.754C92.4416 15.0528 92.3329 15.3145 92.1156 15.5381C91.9008 15.7616 91.6576 15.874 91.3893 15.874C91.6369 15.9066 91.8736 16.0021 92.1008 16.1627C92.3274 16.3222 92.4416 16.5368 92.4416 16.803V20.3551C92.4416 20.665 92.3311 20.9291 92.1091 21.147C91.8867 21.366 91.6369 21.475 91.3578 21.475H83.407V10.2751ZM89.1911 14.9472V12.7072H86.6542V14.9472H89.1911ZM89.1911 19.0429V16.803H86.6542V19.0429H89.1911Z" fill="white"/>
<path d="M94.0975 10.2751H97.3457V14.2114H102.048C102.327 14.2114 102.578 14.3226 102.8 14.5462C103.022 14.7697 103.132 15.0303 103.132 15.3269V20.3573C103.132 20.6651 103.022 20.9302 102.8 21.147C102.578 21.366 102.327 21.4739 102.048 21.4739H94.0975V10.2751ZM99.882 19.0429V16.0672H97.3448V19.0429H99.882ZM104.157 10.2751H107.407V21.4761H104.157V10.2751Z" fill="white"/>
<path d="M114.487 10.2751H122.073L120.991 12.7072H117.737V21.4761H114.487V10.2751Z" fill="white"/>
<path d="M122.744 11.395C122.744 11.0961 122.855 10.8355 123.076 10.6109C123.299 10.3874 123.549 10.2761 123.828 10.2761H130.697C130.976 10.2761 131.225 10.3874 131.445 10.6109C131.668 10.8355 131.778 11.0961 131.778 11.395V20.3559C131.778 20.666 131.668 20.93 131.445 21.148C131.224 21.367 130.975 21.476 130.697 21.476H123.828C123.549 21.476 123.299 21.367 123.076 21.148C122.855 20.93 122.744 20.666 122.744 20.3559V11.395ZM128.53 19.0428V12.7071H125.992V19.0428H128.53Z" fill="white"/>
<path d="M133.475 10.2751H141.426C141.705 10.2751 141.955 10.3864 142.177 10.6099C142.399 10.8346 142.51 11.0952 142.51 11.394V16.4345C142.51 16.7445 142.399 17.0085 142.177 17.2276C141.955 17.4466 141.705 17.5556 141.426 17.5556H136.723V21.4761H133.475V10.2751ZM139.26 15.6987V12.7072H136.722V15.6987H139.26Z" fill="white"/>
<path d="M143.895 10.2751H147.144V14.2114H151.846C152.125 14.2114 152.375 14.3226 152.596 14.5462C152.819 14.7697 152.929 15.0303 152.929 15.3269V20.3573C152.929 20.6651 152.819 20.9302 152.596 21.147C152.374 21.366 152.125 21.4739 151.846 21.4739H143.895V10.2751ZM149.68 19.0429V16.0672H147.143V19.0429H149.68ZM153.955 10.2751H157.204V21.4761H153.955V10.2751Z" fill="white"/>
<path d="M77.048 6.37012H74.8607V8.63254H77.048V6.37012Z" fill="white"/>
<path d="M80.6502 6.37012H78.463V8.63254H80.6502V6.37012Z" fill="white"/>
</g>
<defs>
<clipPath id="clip0_175_3391">
<rect width="268" height="46" fill="white"/>
</clipPath>
</defs>
</svg>
