<svg xmlns="http://www.w3.org/2000/svg" viewBox="0 0 136.04 58.34"><defs><style>.cls-1{fill:#fff;}.cls-2{opacity:0.6;}</style></defs><g id="Слой_2" data-name="Слой 2"><g id="white"><path class="cls-1" d="M56.16,2.08V18.57a10.17,10.17,0,0,0,1.56,6.14c2.45,3.5,7.09,5.83,9.79,6.62,2.7-.79,7.33-3.12,9.78-6.62a10.17,10.17,0,0,0,1.56-6.14V2.08ZM80.94,0V18.57A12.19,12.19,0,0,1,79,25.91c-2.89,4.13-8.3,6.8-11.49,7.58C64.31,32.71,58.9,30,56,25.91a12.19,12.19,0,0,1-1.94-7.34V0Z"/><polygon class="cls-1" points="25.91 58.01 15.73 58.01 15.73 42.24 25.91 42.24 25.91 44.84 18.51 44.84 18.51 48.72 24.99 48.72 24.99 51.32 18.51 51.32 18.51 55.41 25.91 55.41 25.91 58.01"/><polygon class="cls-1" points="75.88 58.01 75.88 42.24 73.23 42.24 73.11 42.68 66.63 52.8 66.63 42.24 63.85 42.24 63.85 58.01 66.5 58.01 66.63 57.57 73.08 47.42 73.08 58.01 75.88 58.01"/><polygon class="cls-1" points="104.58 51.32 98.1 51.32 98.1 58.01 95.31 58.01 95.31 42.24 98.1 42.24 98.1 48.73 104.58 48.73 104.58 42.24 107.35 42.24 107.35 58.01 104.58 58.01 104.58 51.32"/><polygon class="cls-1" points="57.38 44.83 50.9 44.83 50.9 58.01 48.11 58 48.11 42.24 60.15 42.24 60.15 58.01 57.38 58.01 57.38 44.83"/><polygon class="cls-1" points="41.64 48.85 37.94 56.15 36.09 56.15 32.39 48.85 32.39 58.01 29.61 58.01 29.61 42.24 32.3 42.24 32.39 42.7 36.8 51.51 37.2 51.51 41.64 42.72 41.75 42.24 44.42 42.24 44.42 58.01 41.64 58.01 41.64 48.85"/><polygon class="cls-1" points="131.41 58.01 128.63 58.01 128.63 44.84 124.01 44.84 124.01 42.24 136.04 42.24 136.04 44.84 131.41 44.84 131.41 58.01"/><path class="cls-1" d="M9.25,42.24v6.49a6.71,6.71,0,0,1-3.62,1.12c-1.43,0-2.85-.54-2.85-3V42.24H0v4.64a5.2,5.2,0,0,0,5.55,5.56,8.61,8.61,0,0,0,3.7-.93V58H12V42.24Z"/><path class="cls-1" d="M109.68,58h3l1.42-3.71h5.72L121.28,58h3l-6-15.77h-2.64ZM115,51.7,117,46.11H117L119,51.7Z"/><path class="cls-1" d="M91,44.71a6.63,6.63,0,0,0-10.87,0,6.5,6.5,0,0,0-.93,3.71v3.39a6.49,6.49,0,0,0,.93,3.7,6.63,6.63,0,0,0,10.87,0,6.49,6.49,0,0,0,.93-3.7V48.42A6.5,6.5,0,0,0,91,44.71ZM89.2,52A3.61,3.61,0,1,1,82,52V48.19a3.61,3.61,0,1,1,7.2,0Z"/><g class="cls-2"><path class="cls-1" d="M62.13,20.61h4.43v8.14a17,17,0,0,1-7.11-5.25c-.55-.78-1.18-2.05-1.18-4.93A4.16,4.16,0,0,0,62.13,20.61Z"/></g><path class="cls-1" d="M63.31,18.51h3.78A2.27,2.27,0,0,0,68.66,18V28.66a16.87,16.87,0,0,0,6.91-5.16c.54-.78,1.17-2.05,1.17-4.93V4.2H68.66v8.42a.77.77,0,0,1-.84.84H66.35a.77.77,0,0,1-.84-.84V4.2H58.27v9.26C58.27,16.48,58.59,18.51,63.31,18.51Z"/></g></g></svg>