<svg width="111" height="119" viewBox="0 0 111 119" fill="none" xmlns="http://www.w3.org/2000/svg">
<path d="M51.2769 0.0363343C50.3079 -0.33997 48.7079 2.24954 47.695 5.8149C47.3595 6.97824 47.1233 8.169 46.9888 9.37387C46.8474 8.17012 46.6112 6.97994 46.2824 5.8149C45.2698 2.24954 43.6631 -0.33997 42.6941 0.0363343C41.7254 0.412635 41.7815 3.60808 42.7944 7.17982C43.8069 10.7516 45.4073 13.3347 46.376 12.9647C46.6888 12.8372 46.8826 12.3907 47.0013 11.7465C47.1012 12.3843 47.295 12.8372 47.6262 12.9647C48.5952 13.3347 50.1956 10.7516 51.2081 7.17982C52.2207 3.60808 52.271 0.41902 51.3081 0.0363343" fill="white"/>
<path d="M51.2769 11.0373C50.3079 10.6611 48.7079 13.2568 47.695 16.8155C47.3595 17.9787 47.1233 19.1694 46.9888 20.3742C46.8474 19.1705 46.6112 17.9804 46.2824 16.8155C45.2698 13.2568 43.6631 10.6547 42.6941 11.0373C41.7254 11.42 41.7815 14.6088 42.7944 18.1803C43.8069 21.7517 45.4073 24.3347 46.376 23.9647C46.6888 23.8372 46.8826 23.3908 47.0013 22.7466C47.1012 23.3844 47.295 23.8372 47.6262 23.9647C48.5952 24.3347 50.1956 21.7517 51.2081 18.1803C52.2207 14.6088 52.271 11.42 51.3081 11.0373" fill="white"/>
<path d="M51.2769 21.0809C50.3079 20.7046 48.7079 23.3005 47.695 26.8658C47.3604 28.0184 47.1239 29.1986 46.9888 30.3928C46.8505 29.1844 46.6143 27.9899 46.2824 26.8212C45.2698 23.2558 43.6631 20.66 42.6941 21.0363C41.7254 21.4126 41.7815 24.608 42.7944 28.1861C43.8069 31.764 45.4073 34.3346 46.376 33.9646C46.6888 33.8369 46.8826 33.3906 47.0013 32.7527C47.1012 33.3906 47.295 33.8369 47.6262 33.9646C48.5952 34.3346 50.1956 31.7513 51.2081 28.1861C52.2207 24.6207 52.271 21.4189 51.3081 21.0363" fill="white"/>
<path d="M34.2808 32.0362C33.3174 31.66 31.7159 34.2556 30.6961 37.8205C30.3625 38.9818 30.1283 40.1703 29.9955 41.3728C29.8555 40.1707 29.617 38.9824 29.2822 37.8205C28.2688 34.2556 26.6673 31.66 25.6979 32.0362C24.728 32.4125 24.7781 35.6077 25.7915 39.1854C26.8048 42.7631 28.4128 45.3398 29.3761 44.9635C29.6952 44.8358 29.8892 44.3896 30.0016 43.7517C30.0955 44.3896 30.2958 44.8358 30.6274 44.9635C31.5907 45.3398 33.1983 42.7504 34.212 39.1854C35.2253 35.6204 35.2753 32.4125 34.2808 32.0362Z" fill="white"/>
<path d="M33.4397 43.8172C32.5096 43.3377 30.6931 45.8821 29.3822 49.4996C28.9552 50.6773 28.6232 51.8918 28.3895 53.13C28.3598 51.8663 28.2325 50.6073 28.0087 49.3662C27.3033 45.5626 25.9301 42.7049 24.9373 43.0244C23.9449 43.3442 23.6889 46.6551 24.4193 50.4652C25.1496 54.2756 26.498 57.1269 27.4907 56.8071C27.8152 56.7139 28.0462 56.2675 28.2023 55.6081C28.2522 56.2743 28.4082 56.7673 28.7079 56.9405C29.638 57.4267 31.4545 54.882 32.7657 51.2648C34.0766 47.6476 34.395 44.3234 33.4709 43.8372" fill="white"/>
<path d="M31.7842 57.6986C31.1009 56.9529 28.5914 58.5976 26.1939 61.4151C25.4115 62.3194 24.7109 63.2946 24.1004 64.3286C24.485 63.1725 24.7718 61.9845 24.9576 60.7779C25.5166 57.1121 25.1378 54.0713 24.1128 54.0013C23.0879 53.9309 21.8083 56.8318 21.2555 60.5164C20.7026 64.201 21.0754 67.2165 22.1003 67.293C22.4357 67.293 22.796 66.9934 23.15 66.4578C22.9761 67.0954 22.9699 67.5734 23.1997 67.8156C23.9141 68.5743 26.4235 66.9231 28.7903 64.1245C31.1568 61.3259 32.5172 58.4507 31.8152 57.6986" fill="white"/>
<path d="M24.8961 69.8653C24.3771 68.9129 21.4061 69.8653 18.2664 72.0275C17.2428 72.72 16.2812 73.5034 15.3926 74.3681C16.0682 73.3183 16.6562 72.2123 17.1506 71.0619C18.675 67.5443 19.0967 64.3901 18.0847 64.0331C17.0727 63.6758 15.0164 66.2481 13.4854 69.7792C11.9545 73.3103 11.5393 76.4445 12.5578 76.7951C12.8886 76.914 13.3362 76.6958 13.8552 76.2527C13.5179 76.8346 13.3816 77.3173 13.5503 77.6283C14.0693 78.5868 17.0338 77.6283 20.1735 75.4792C23.3132 73.3302 25.4411 70.8505 24.922 69.8653" fill="white"/>
<path d="M14 80.8618C13.8269 79.8118 10.7553 79.6824 7.12592 80.5897C5.93739 80.8729 4.77638 81.2634 3.6568 81.7563C4.63834 81.0193 5.55644 80.1998 6.4013 79.3064C8.96626 76.5844 10.4219 73.8237 9.6075 73.1497C8.79311 72.4757 6.02296 74.1411 3.43235 76.8631C0.841767 79.5851 -0.581811 82.3458 0.226177 83.0135C0.495486 83.2402 0.982821 83.1886 1.59201 82.9552C1.08542 83.37 0.796851 83.7718 0.854565 84.1151C1.02131 85.1717 4.09282 85.3012 7.72225 84.4004C11.3517 83.4994 14.1347 81.9118 13.9936 80.8489" fill="white"/>
<path d="M50.9444 90.8253C50.478 89.911 47.5133 90.6824 44.3252 92.5546C43.2868 93.1624 42.3035 93.8555 41.3862 94.6257C42.1005 93.6726 42.7291 92.6613 43.2645 91.6027C44.9256 88.3622 45.4814 85.42 44.504 85.0406C43.5263 84.6613 41.3862 86.9814 39.7186 90.2281C38.051 93.475 37.5079 96.4048 38.4852 96.7841C38.805 96.9087 39.2584 96.7219 39.7632 96.3301C39.3989 96.8588 39.2457 97.3128 39.3989 97.6114C39.8653 98.5321 42.83 97.7607 46.0119 95.8885C49.1935 94.0163 51.4043 91.7521 50.9379 90.8253" fill="white"/>
<path d="M41.9567 100.58C41.5491 99.6008 38.3943 100.132 34.8986 101.776C33.7579 102.299 32.6665 102.916 31.6369 103.619C32.4709 102.703 33.2224 101.72 33.8826 100.682C35.888 97.4826 36.7703 94.5458 35.7808 94.0657C34.7917 93.5859 32.3521 95.7871 30.3137 98.9671C28.2749 102.147 27.4263 105.104 28.4086 105.577C28.7363 105.737 29.2174 105.577 29.7921 105.225C29.3644 105.737 29.1238 106.185 29.2909 106.505C29.692 107.49 32.8533 106.959 36.3491 105.315C39.8448 103.67 42.3644 101.546 41.9567 100.56" fill="white"/>
<path d="M27.9924 109.881C27.9158 108.863 24.8838 108.485 21.221 109.037C20.0226 109.213 18.8419 109.489 17.6921 109.862C18.7248 109.249 19.7009 108.549 20.6095 107.771C23.4059 105.388 25.0684 102.88 24.3041 102.185C23.5397 101.49 20.6732 102.806 17.8768 105.208C15.0804 107.61 13.4179 110.092 14.1886 110.793C14.4371 111.029 14.9275 111.023 15.5518 110.849C15.0103 111.203 14.6918 111.563 14.7173 111.898C14.7938 112.922 17.8259 113.301 21.4886 112.742C25.1514 112.183 28.0751 110.88 27.9985 109.887" fill="white"/>
<path d="M13.99 117.749C14.1924 116.754 11.2943 115.623 7.51501 115.24C6.28196 115.111 5.03955 115.079 3.80102 115.148C4.99256 114.818 6.1504 114.388 7.26045 113.862C10.6677 112.28 12.9913 110.278 12.4365 109.407C11.8817 108.535 8.67032 109.11 5.25658 110.698C1.84283 112.286 -0.467809 114.27 0.080486 115.154C0.26324 115.444 0.733216 115.555 1.41858 115.549C0.765847 115.753 0.374221 116.019 0.308929 116.346C0.106603 117.354 2.99817 118.479 6.77742 118.868C10.5567 119.257 13.7942 118.757 13.9965 117.749" fill="white"/>
<path d="M45.8879 67.7544C45.2537 66.9038 42.5086 68.225 39.7377 70.7059C38.8323 71.5101 37.9966 72.3919 37.2399 73.3418C37.7592 72.2429 38.1834 71.0998 38.5077 69.9261C39.5476 66.3238 39.5541 63.2242 38.5077 63.0115C37.4616 62.7989 35.8133 65.5506 34.7798 69.1592C33.7464 72.7681 33.7338 75.8358 34.7798 76.0612C35.1223 76.132 35.528 75.8614 35.9592 75.3717C35.6991 75.9711 35.6293 76.4608 35.8323 76.738C36.4662 77.5951 39.2116 76.2805 41.9757 73.7993C44.7402 71.3181 46.4963 68.6437 45.875 67.7544" fill="white"/>
<path d="M37.8986 79.4453C37.3286 78.5298 34.3407 79.6153 31.2333 81.8778C30.2192 82.6214 29.2705 83.4482 28.3978 84.3497C29.04 83.2826 29.5917 82.165 30.0475 81.0084C31.4455 77.4573 31.7302 74.3317 30.7099 74.0245C29.6896 73.7172 27.6822 76.3394 26.2777 79.9095C24.873 83.48 24.588 86.5862 25.615 86.8934C25.9597 86.9916 26.41 86.7562 26.9004 86.2919C26.5823 86.8804 26.4632 87.3707 26.6487 87.6716C27.2251 88.5935 30.2063 87.508 33.3137 85.2455C36.421 82.983 38.475 80.4132 37.905 79.491" fill="white"/>
<path d="M26.9826 90.062C26.7164 89.0678 23.6049 89.2233 20.0257 90.4035C18.8596 90.7851 17.7296 91.2613 16.6479 91.8265C17.5661 91.0406 18.4135 90.1822 19.1813 89.2604C21.5392 86.4336 22.7345 83.6689 21.8381 83.1034C20.9416 82.5379 18.3173 84.3461 15.9529 87.1977C13.5884 90.0494 12.4062 92.7896 13.2961 93.3487C13.5884 93.535 14.0756 93.4417 14.6732 93.1621C14.1925 93.6096 13.9392 94.0196 14.0237 94.3426C14.2965 95.3369 17.4079 95.1877 20.9806 94.0009C24.5533 92.8143 27.2425 91.0623 26.9826 90.062Z" fill="white"/>
<path d="M13.9809 100.541C13.9809 99.4808 10.9978 98.8379 7.29445 99.1016C6.08733 99.1862 4.88919 99.3711 3.71221 99.6541C4.79153 99.1019 5.82161 98.4569 6.79089 97.726C9.78037 95.5148 11.6225 93.085 10.985 92.2623C10.3477 91.4395 7.31357 92.6224 4.31773 94.8336C1.32192 97.0447 -0.558437 99.5129 0.149071 100.316C0.378546 100.58 0.86297 100.612 1.50675 100.483C0.939452 100.811 0.588878 101.126 0.582518 101.499C0.582518 102.56 3.55921 103.209 7.26259 102.939C10.9659 102.669 13.9809 101.602 14 100.541" fill="white"/>
<path d="M51.2769 32.0363C50.3079 31.66 48.7079 34.2556 47.695 37.8206C47.3598 38.9818 47.1233 40.1704 46.9888 41.3729C46.8474 40.1713 46.6112 38.9834 46.2824 37.8206C45.2698 34.2556 43.6631 31.66 42.6941 32.0363C41.7254 32.4125 41.7815 35.614 42.7944 39.1855C43.8069 42.757 45.4073 45.3398 46.376 44.9636C46.6888 44.8359 46.8826 44.3961 47.0013 43.7518C47.1012 44.3896 47.295 44.8359 47.6262 44.9636C48.5952 45.3398 50.1956 42.7505 51.2081 39.1855C52.2207 35.6205 52.271 32.4187 51.3081 32.0363" fill="white"/>
<path d="M51.2769 43.0363C50.3079 42.6599 48.7079 45.2505 47.695 48.8172C47.3598 49.979 47.1233 51.1681 46.9888 52.3712C46.8474 51.169 46.6112 49.9806 46.2824 48.8172C45.2698 45.2505 43.6631 42.6599 42.6941 43.0363C41.7254 43.4128 41.7815 46.6095 42.7944 50.1827C43.8069 53.7559 45.4073 56.34 46.376 55.9636C46.6888 55.8423 46.8826 55.3955 47.0013 54.7512C47.1012 55.3893 47.295 55.8423 47.6262 55.9636C48.5952 56.34 50.1956 53.7494 51.2081 50.1827C52.2207 46.616 52.271 43.4128 51.3081 43.0363" fill="white"/>
<path d="M51.2777 53.0364C50.3096 52.6598 48.7107 55.2513 47.699 58.8201C47.3638 59.9844 47.1276 61.1762 46.9932 62.3821C46.8519 61.1775 46.616 59.9862 46.2874 58.8201C45.2758 55.2513 43.6705 52.6598 42.7027 53.0364C41.7346 53.413 41.7658 56.6113 42.8026 60.1798C43.8393 63.7483 45.4131 66.3402 46.3812 65.9636C46.6934 65.8423 46.887 65.3952 47.0056 64.7506C47.1055 65.389 47.2991 65.8423 47.6304 65.9636C48.5982 66.3402 50.197 63.7548 51.2087 60.1798C52.2207 56.6048 52.2706 53.413 51.3089 53.0298" fill="white"/>
<path d="M59.2797 73.0363C58.3165 72.6601 56.7151 75.2491 55.7019 78.8144C55.3634 79.9748 55.1267 81.1636 54.9949 82.3667C54.8543 81.1664 54.6159 79.9803 54.282 78.8206C53.2684 75.2556 51.6673 72.6663 50.6977 73.0425C49.7281 73.4188 49.7781 76.614 50.7914 80.1855C51.8049 83.757 53.4123 86.3398 54.3756 85.9636C54.6947 85.8424 54.8886 85.3961 55.0013 84.7518C55.0949 85.3896 55.2952 85.8424 55.6267 85.9636C56.59 86.3398 58.1977 83.757 59.2109 80.1855C60.2242 76.614 60.2681 73.4188 59.3049 73.0425" fill="white"/>
<path d="M59.2797 62.0363C58.3165 61.6601 56.7151 64.2496 55.7019 67.8213C55.3634 68.9816 55.1267 70.1706 54.9949 71.3737C54.858 70.1709 54.6195 68.9823 54.282 67.8213C53.2684 64.2496 51.6673 61.6601 50.6977 62.0363C49.7281 62.4129 49.7781 65.608 50.7914 69.1862C51.8049 72.7641 53.4123 75.3344 54.3756 74.9646C54.6947 74.8369 54.8886 74.3906 55.0013 73.7463C55.0949 74.3841 55.2952 74.8369 55.6267 74.9646C56.59 75.3344 58.1977 72.7514 59.2109 69.1862C60.2242 65.6207 60.2681 62.4129 59.3049 62.0363" fill="white"/>
<path d="M59.7198 0.0363343C60.6825 -0.33997 62.2832 2.24954 63.3023 5.8149C63.6357 6.97845 63.8701 8.16919 64.0025 9.37387C64.143 8.16944 64.3814 6.97901 64.7154 5.8149C65.7282 2.24954 67.3164 -0.33997 68.2979 0.0363343C69.2795 0.412635 69.2168 3.60808 68.204 7.17982C67.1913 10.7516 65.5843 13.3347 64.6215 12.9647C64.3026 12.8372 64.1088 12.3907 63.9964 11.7465C63.9025 12.3843 63.7023 12.8372 63.371 12.9647C62.4082 13.3347 60.8016 10.7516 59.7885 7.17982C58.7758 3.60808 58.7321 0.41902 59.6949 0.0363343" fill="white"/>
<path d="M59.7201 11.0363C60.6834 10.6599 62.2848 13.2558 63.3044 16.8149C63.638 17.9784 63.8725 19.1692 64.005 20.3739C64.1456 19.1694 64.384 17.979 64.7182 16.8149C65.7315 13.2558 67.3329 10.6599 68.3025 11.0363C69.2718 11.4126 69.2218 14.608 68.2086 18.1798C67.1953 21.7515 65.5876 24.3347 64.6243 23.9647C64.3052 23.8372 64.1113 23.3907 63.9989 22.7465C63.905 23.3843 63.7047 23.8372 63.3732 23.9647C62.4099 24.3347 60.8025 21.7515 59.7889 18.1798C58.7756 14.608 58.732 11.419 59.6953 11.0363" fill="white"/>
<path d="M59.7201 21.0809C60.6834 20.7046 62.2848 23.3005 63.3044 26.8658C63.638 28.0271 63.8725 29.2157 64.005 30.4182C64.1419 29.2008 64.3804 27.9973 64.7182 26.8212C65.7315 23.2558 67.3329 20.66 68.3025 21.0363C69.2718 21.4126 69.2218 24.608 68.2086 28.1861C67.1953 31.764 65.5876 34.3346 64.6243 33.9646C64.3052 33.8369 64.1113 33.3906 63.9989 32.7527C63.905 33.3906 63.7047 33.8369 63.3732 33.9646C62.4099 34.3346 60.8025 31.7513 59.7889 28.1861C58.7756 24.6207 58.732 21.4189 59.6953 21.0363" fill="white"/>
<path d="M76.7284 32.0362C77.6908 31.66 79.291 34.2556 80.3034 37.8205C80.6389 38.9818 80.875 40.1703 81.0097 41.3728C81.1466 40.17 81.3852 38.9815 81.7221 37.8205C82.7349 34.2556 84.3347 31.66 85.3035 32.0362C86.2724 32.4125 86.2224 35.6077 85.2036 39.1854C84.1848 42.7631 82.5911 45.3398 81.6222 44.9635C81.3098 44.8358 81.116 44.3896 80.9973 43.7517C80.8971 44.3896 80.7033 44.8358 80.3721 44.9635C79.4036 45.3398 77.8035 42.7504 76.7907 39.1854C75.7783 35.6204 75.7283 32.4187 76.6972 32.0362" fill="white"/>
<path d="M76.5372 43.8172C77.4626 43.3377 79.2816 45.8821 80.5944 49.4996C81.0262 50.6769 81.3626 51.8915 81.601 53.13C81.637 51.8659 81.7708 50.607 82.001 49.3662C82.7075 45.5626 84.0889 42.7049 85.0768 43.0244C86.0643 43.3442 86.2956 46.6551 85.5955 50.4652C84.8954 54.2756 83.5139 57.1269 82.5197 56.8071C82.1948 56.7139 81.9634 56.2675 81.8072 55.6081C81.7636 56.2743 81.607 56.7673 81.3009 56.9405C80.3694 57.4267 78.5503 54.882 77.2373 51.2648C75.9246 47.6476 75.5996 44.3234 76.5372 43.8372" fill="white"/>
<path d="M79.2033 57.6986C79.9108 56.9399 82.4185 58.5976 84.7897 61.3897C85.5652 62.2946 86.2592 63.2695 86.8629 64.3029C86.4919 63.1539 86.2156 61.9746 86.0376 60.7775C85.4849 57.1121 85.8638 54.0713 86.8879 54.0012C87.912 53.9309 89.1845 56.838 89.7432 60.5164C90.3019 64.1945 89.917 67.2165 88.8992 67.293C88.5576 67.293 88.2037 66.9931 87.8438 66.4578C88.0176 67.0954 88.0299 67.5734 87.7942 67.8156C87.0803 68.5743 84.5726 66.9231 82.2077 64.1245C79.8426 61.3259 78.4832 58.4507 79.1847 57.6986" fill="white"/>
<path d="M86.0914 69.8653C86.6107 68.9129 89.5781 69.8653 92.7211 72.0275C93.7524 72.7158 94.72 73.4995 95.6105 74.3681C94.9323 73.3183 94.3416 72.2123 93.8443 71.0619C92.3184 67.5443 91.8963 64.3901 92.9095 64.0331C93.9223 63.6758 95.9873 66.2481 97.5132 69.7792C99.039 73.3103 99.4611 76.4445 98.4483 76.7951C98.1105 76.914 97.6689 76.6958 97.1495 76.2527C97.4937 76.8346 97.6302 77.3173 97.4613 77.6283C96.9353 78.5868 93.9676 77.6283 90.825 75.4792C87.682 73.3302 85.5588 70.8505 86.0782 69.8653" fill="white"/>
<path d="M97.0051 80.8489C97.1719 79.7989 100.25 79.6695 103.873 80.5768C105.058 80.8609 106.214 81.2511 107.33 81.7433C106.353 81.0099 105.439 80.1948 104.598 79.3064C102.033 76.5844 100.583 73.8237 101.391 73.1497C102.199 72.4757 104.97 74.1411 107.567 76.8631C110.164 79.5851 111.581 82.3458 110.773 83.0135C110.504 83.2402 110.01 83.1886 109.401 82.9552C109.908 83.37 110.196 83.7718 110.145 84.1151C109.972 85.1717 106.9 85.3012 103.277 84.4004C99.6536 83.4994 96.8641 81.9118 97.0051 80.8489Z" fill="white"/>
<path d="M60.0556 90.8253C60.5219 89.911 63.486 90.6824 66.6734 92.5546C67.714 93.1588 68.6971 93.8522 69.6118 94.6257C68.8976 93.6726 68.2691 92.6613 67.7338 91.6027C66.0728 88.3622 65.5171 85.42 66.5011 85.0406C67.4847 84.6613 69.6118 86.9814 71.279 90.2281C72.9462 93.475 73.4957 96.4048 72.5118 96.7841C72.1924 96.9087 71.7391 96.7219 71.2344 96.3301C71.5983 96.8588 71.7518 97.3128 71.5983 97.6114C71.132 98.5321 68.1683 97.7607 64.987 95.8885C61.8058 94.0163 59.5958 91.7521 60.0621 90.8253" fill="white"/>
<path d="M70.0432 100.561C70.4446 99.5813 73.6076 100.112 77.1053 101.757C78.246 102.289 79.3377 102.912 80.3688 103.619C79.5343 102.703 78.7824 101.72 78.1219 100.682C76.1157 97.4827 75.2329 94.5455 76.2158 94.0657C77.1989 93.5859 79.6532 95.7868 81.6863 98.9672C83.7194 102.147 84.5753 105.104 83.5921 105.577C83.2711 105.737 82.7829 105.577 82.2079 105.225C82.6358 105.737 82.8765 106.185 82.7162 106.505C82.3083 107.49 79.1449 106.959 75.654 105.315C72.1631 103.67 69.6353 101.546 70.0432 100.561Z" fill="white"/>
<path d="M83.0012 109.881C83.0778 108.863 86.1162 108.485 89.7789 109.037C90.9755 109.212 92.1542 109.488 93.3014 109.862C92.2711 109.248 91.297 108.549 90.3904 107.771C87.5939 105.388 85.9314 102.88 86.696 102.185C87.4603 101.49 90.3269 102.806 93.1231 105.208C95.9196 107.61 97.5822 110.092 96.8114 110.793C96.563 111.029 96.0788 111.023 95.4481 110.849C95.9897 111.203 96.3081 111.563 96.2828 111.898C96.2124 112.922 93.1805 113.301 89.5113 112.742C85.8422 112.183 82.9312 110.88 83.0012 109.887" fill="white"/>
<path d="M97.01 117.749C96.8077 116.754 99.7105 115.623 103.488 115.24C104.718 115.111 105.958 115.08 107.193 115.148C106.003 114.815 104.846 114.385 103.736 113.862C100.331 112.28 98.0079 110.278 98.5691 109.407C99.13 108.535 102.333 109.11 105.745 110.698C109.157 112.286 111.473 114.282 110.918 115.154C110.735 115.444 110.266 115.555 109.613 115.549C110.266 115.753 110.657 116.019 110.722 116.346C110.925 117.354 108.028 118.479 104.251 118.868C100.474 119.257 97.2448 118.757 97.0362 117.749" fill="white"/>
<path d="M65.0769 67.7544C65.7113 66.9038 68.4571 68.225 71.2224 70.7059C72.1419 71.5079 72.9907 72.3898 73.759 73.3418C73.2395 72.2429 72.8153 71.0998 72.4909 69.9261C71.4506 66.3238 71.438 63.2242 72.4909 63.0115C73.5437 62.7989 75.1799 65.5506 76.2198 69.1592C77.2601 72.7681 77.2601 75.8549 76.2198 76.0612C75.8837 76.132 75.4779 75.8614 75.0466 75.3717C75.3068 75.9711 75.3765 76.4608 75.1735 76.738C74.5394 77.5951 71.7932 76.2805 69.0218 73.7993C66.2501 71.3181 64.4999 68.6437 65.1276 67.7544" fill="white"/>
<path d="M73.0898 79.4783C73.6532 78.5628 76.6491 79.6483 79.7577 81.9107C80.771 82.6435 81.7198 83.4595 82.5943 84.3499C81.9519 83.2825 81.4 82.1649 80.9441 81.0083C79.5387 77.4576 79.2539 74.3317 80.281 74.0245C81.3085 73.7172 83.3167 76.3394 84.7221 79.9098C86.127 83.4802 86.4122 86.586 85.3847 86.8936C85.0402 86.9915 84.5962 86.756 84.1056 86.2917C84.4238 86.8802 84.5429 87.3709 84.3573 87.6715C83.7807 88.5936 80.7915 87.5081 77.6897 85.2457C74.5875 82.9832 72.5199 80.4131 73.0965 79.4913" fill="white"/>
<path d="M84.0174 90.062C84.2835 89.0678 87.4002 89.2233 90.9714 90.4035C92.1395 90.7839 93.2715 91.26 94.3545 91.8265C93.4335 91.0436 92.5862 90.1849 91.8222 89.2604C89.4585 86.4336 88.2702 83.6689 89.16 83.1034C90.0495 82.5379 92.679 84.3461 95.0427 87.1977C97.4061 90.0494 98.5944 92.7896 97.7049 93.3487C97.4061 93.535 96.9192 93.4417 96.3219 93.1621C96.8022 93.6096 97.0554 94.0196 96.9711 94.3426C96.705 95.3369 93.5946 95.1877 90.0171 94.0009C86.4393 92.8143 83.7576 91.0623 84.0174 90.062Z" fill="white"/>
<path d="M97 100.562C97 99.4999 99.9851 98.8558 103.691 99.12C104.897 99.2041 106.094 99.3894 107.27 99.6736C106.19 99.1203 105.159 98.4741 104.189 97.7418C101.197 95.5137 99.3347 93.0599 100.023 92.2551C100.713 91.4502 103.704 92.6156 106.695 94.8309C109.687 97.0461 111.55 99.5127 110.854 100.311C110.631 100.575 110.14 100.607 109.502 100.479C110.07 100.807 110.421 101.123 110.427 101.496C110.427 102.559 107.442 103.209 103.736 102.939C100.03 102.668 97 101.599 97 100.537" fill="white"/>
<path d="M59.7201 32.0363C60.6834 31.66 62.2848 34.2556 63.3044 37.8206C63.638 38.9818 63.8725 40.1704 64.005 41.3729C64.1449 40.1707 64.3837 38.9825 64.7182 37.8206C65.7315 34.2556 67.3329 31.66 68.3025 32.0363C69.2718 32.4125 69.2218 35.614 68.2086 39.1855C67.1953 42.757 65.5876 45.3398 64.6243 44.9636C64.3052 44.8359 64.1113 44.3961 63.9989 43.7518C63.905 44.3896 63.7047 44.8359 63.3732 44.9636C62.4099 45.3398 60.8025 42.7505 59.7889 39.1855C58.7756 35.6205 58.732 32.4187 59.6953 32.0363" fill="white"/>
<path d="M59.7201 43.0363C60.6834 42.6599 62.2848 45.2505 63.3044 48.8172C63.638 49.979 63.8725 51.1681 64.005 52.3712C64.1449 51.1684 64.3837 49.9796 64.7182 48.8172C65.7315 45.2505 67.3329 42.6599 68.3025 43.0363C69.2718 43.4128 69.2218 46.6095 68.2086 50.1827C67.1953 53.7559 65.5876 56.34 64.6243 55.9636C64.3052 55.8423 64.1113 55.3955 63.9989 54.7512C63.905 55.3893 63.7047 55.8423 63.3732 55.9636C62.4099 56.34 60.8025 53.7494 59.7889 50.1827C58.7756 46.616 58.732 43.4128 59.6953 43.0363" fill="white"/>
<path d="M59.7201 53.0363C60.6834 52.6599 62.2848 55.2503 63.3044 58.8173C63.638 59.9813 63.8725 61.1726 64.005 62.3776C64.1456 61.1726 64.384 59.9819 64.7182 58.8173C65.7315 55.2503 67.3329 52.6599 68.3025 53.0363C69.2718 53.4128 69.2218 56.6096 68.2086 60.1829C67.1953 63.7558 65.5876 66.3403 64.6243 65.9635C64.3052 65.8426 64.1113 65.3958 63.9989 64.7515C63.905 65.3893 63.7047 65.8426 63.3732 65.9635C62.4099 66.3403 60.8025 63.7558 59.7889 60.1829C58.7756 56.6096 58.732 53.419 59.6953 53.0363" fill="white"/>
</svg>
