<svg width="185" height="52" viewBox="0 0 185 52" fill="none" xmlns="http://www.w3.org/2000/svg">
<g clip-path="url(#clip0_175_3459)">
<path opacity="0.9" fill-rule="evenodd" clip-rule="evenodd" d="M65.8866 0.0160332L65.8871 0.0160244C66.1205 0.00794767 66.3501 0 66.5873 0C75.6409 0 83.0038 7.51596 83 16.7651V35.0828C83 44.3237 75.6409 51.8396 66.5873 51.8396C62.2821 51.8396 58.359 50.1354 55.4298 47.3547L55.435 47.3476C58.3638 50.1248 62.2845 51.8271 66.5873 51.8271V49.437H66.5915C74.3412 49.437 80.6463 43.0053 80.6463 35.091V16.7692C80.6463 8.85899 74.345 2.42318 66.5915 2.42318C66.3784 2.42318 66.169 2.43139 65.96 2.4396L65.9596 2.43961C65.9318 2.44166 65.9045 2.44269 65.8772 2.44372V2.44373L65.8683 2.44405L65.8518 2.44472C65.8419 2.44512 65.832 2.44556 65.8226 2.44609C65.8132 2.44658 65.8043 2.44715 65.7949 2.44782C65.7073 2.45575 65.6189 2.46273 65.5313 2.46967C65.4368 2.47711 65.3431 2.48451 65.2518 2.493C65.242 2.49443 65.2316 2.49535 65.2213 2.49614L65.2137 2.49669L65.2076 2.49711L65.2071 2.49712L65.1949 2.49798L65.1897 2.49838L65.1827 2.49897C65.1761 2.49957 65.1695 2.50029 65.1629 2.50122C64.9761 2.51956 64.7959 2.54446 64.61 2.57007V2.57009L64.5436 2.57925C64.5098 2.58554 64.4782 2.58942 64.4453 2.59459C64.4354 2.59617 64.4251 2.59786 64.4147 2.59978C64.2759 2.61825 64.1441 2.64364 64.0124 2.66903L64.0119 2.66908L63.9841 2.67446C63.9686 2.67738 63.9536 2.68028 63.9385 2.68317C63.9187 2.68689 63.8994 2.6906 63.8797 2.69425C63.8472 2.69836 63.8152 2.70246 63.7832 2.71068C63.5696 2.75586 63.3644 2.80103 63.1592 2.85443L63.1112 2.86675C63.0665 2.87907 63.0218 2.89117 62.9776 2.90325L62.9753 2.90387C62.8275 2.94395 62.6802 2.98388 62.5358 3.03103C62.5118 3.03924 62.4873 3.04335 62.4633 3.05157C62.045 3.18299 61.6342 3.33495 61.2361 3.50334C61.2281 3.50334 61.2201 3.50745 61.2121 3.51156C59.5623 4.20977 58.0734 5.22013 56.81 6.47275V6.46867C56.1422 7.1258 55.5427 7.85276 55.0157 8.63309C55.45 9.43398 55.8284 10.2677 56.1342 11.1425C58.0734 7.33114 61.9805 4.71494 66.4706 4.71494H66.7205C73.138 4.71494 78.3607 10.0377 78.3607 16.5885V35.2593C78.3607 41.8101 73.138 47.1412 66.7205 47.1412H66.4706C61.9772 47.1412 58.0748 44.5301 56.1352 40.7116C56.1375 40.7055 56.1394 40.6993 56.1418 40.693C58.0809 44.5126 61.9843 47.1247 66.4786 47.1247H66.6033L66.5873 44.7221H66.4626C61.3443 44.7221 57.1841 40.4712 57.1841 35.2511V20.4245H54.7296V35.0786C54.7296 37.0459 54.3353 38.9105 53.6308 40.615C53.6308 40.6149 53.6308 40.6147 53.6308 40.6146C54.3329 38.9125 54.7258 37.0468 54.7258 35.0828V16.761C54.7258 8.85077 48.4208 2.41497 40.6712 2.41497C32.9217 2.41497 26.6166 8.84669 26.6166 16.761V35.0828C26.6166 42.9889 32.9217 49.4288 40.6712 49.4288H40.6749V51.8271C44.9794 51.8271 48.9017 50.1234 51.8309 47.3439L51.8328 47.3465C48.9036 50.1272 44.9805 51.8314 40.6753 51.8314C34.5513 51.8314 29.2039 48.3856 26.3833 43.2928V52H24.0294V0.653025H26.3833V8.53866C29.2039 3.44584 34.5553 0 40.6792 0C45.9422 0 50.6338 2.5464 53.6313 6.48097C55.2529 4.35351 57.3695 2.63264 59.7994 1.49909L59.8239 1.48677C60.2625 1.2773 60.7208 1.09248 61.1838 0.928201L61.2563 0.90356C61.7066 0.743383 62.1654 0.603744 62.6322 0.488746C62.6407 0.487012 62.6496 0.485095 62.6581 0.483073C62.6741 0.479374 62.6901 0.475322 62.7061 0.471391L62.7188 0.468201L62.7339 0.46451C62.7405 0.462912 62.7466 0.461394 62.7531 0.459993C63.2077 0.349103 63.6703 0.258747 64.1413 0.18482C64.1672 0.180713 64.1926 0.177631 64.2175 0.17455C64.2425 0.171472 64.2679 0.168391 64.2938 0.164284C64.7606 0.0985709 65.2274 0.0492838 65.7022 0.0246434C65.7295 0.0225209 65.7586 0.0214948 65.7887 0.0204336L65.7897 0.0204072C65.8038 0.0198971 65.8189 0.0193782 65.8335 0.0187244C65.8476 0.0181117 65.8612 0.0173788 65.8753 0.0164289L65.8866 0.0160332ZM51.8309 47.3439L51.8324 47.3424C51.446 46.8249 50.863 46.0035 50.4724 45.3504C47.9338 47.8722 44.4772 49.4245 40.6749 49.4245V49.4288C44.4838 49.4279 47.9389 47.8673 50.4687 45.3546C50.8583 46.0065 51.4446 46.8263 51.8309 47.3439ZM52.5288 20.4205H52.5326V35.0786C52.5326 37.0376 52.9269 38.9103 53.6308 40.6146C53.6299 40.6175 53.6285 40.6203 53.6276 40.6232C52.9231 38.9188 52.5288 37.0459 52.5288 35.0828V20.4205ZM50.0786 20.4205H52.5288V16.761C52.5288 16.6748 52.533 16.5926 52.5368 16.5105C52.541 15.7589 52.4366 13.4179 51.1326 11.1302C51.1326 11.1322 51.1317 11.1343 51.1307 11.1364L51.1298 11.1378C51.1293 11.1394 51.1289 11.1409 51.1289 11.1425C49.1892 7.32705 45.2863 4.71494 40.7919 4.71494H40.5465C34.1287 4.71494 28.9101 10.046 28.9101 16.5885V35.2553C28.9101 41.8061 34.1328 47.137 40.5465 47.137H40.7919C45.2863 47.137 49.1892 44.5208 51.1289 40.7054C51.4785 41.7075 51.9213 42.6603 52.4446 43.568C52.8027 44.2169 53.205 44.8617 53.6276 45.3546L53.6313 45.3505L53.6356 45.3546C54.0576 44.8658 54.4642 44.221 54.8185 43.568C55.1333 43.026 55.418 42.463 55.6721 41.8819C55.8397 41.4996 55.994 41.1095 56.1352 40.7116C56.1347 40.7109 56.1342 40.7102 56.1342 40.7094C55.9935 41.1077 55.8392 41.4987 55.6721 41.8819C55.4199 42.456 55.1381 43.0126 54.8261 43.5515C54.4717 44.2005 54.0656 44.8453 53.6431 45.3381C53.6393 45.3381 53.6388 45.334 53.6388 45.334C53.6351 45.334 53.6351 45.3381 53.6351 45.3381C53.2125 44.8453 52.8102 44.2046 52.4521 43.5515C51.9288 42.6439 51.4865 41.6911 51.1364 40.6889C49.1967 44.5044 45.294 47.1206 40.7997 47.1206H40.6749V44.7221H40.7999C45.914 44.7221 50.0786 40.4754 50.0786 35.2511V20.4205ZM50.0786 20.4205H50.0781V35.247C50.0781 40.4712 45.9137 44.718 40.7997 44.718H40.6749V44.7221H40.5546C35.4364 44.7221 31.276 40.4712 31.276 35.2511V16.5803C31.276 11.3561 35.4405 7.10937 40.5546 7.10937H40.7999C45.918 7.10937 50.0786 11.3602 50.0786 16.5803V20.4205ZM66.5873 49.437V49.4245C62.7767 49.4245 59.3246 47.8722 56.7897 45.3504C56.4072 45.9945 55.8312 46.7884 55.4524 47.3108L55.4298 47.3424L55.435 47.3476C55.8176 46.8257 56.4053 46.0129 56.794 45.3628C59.3279 47.8836 62.7786 49.436 66.5873 49.437ZM66.4626 7.10524C61.3485 7.10524 57.1841 11.352 57.1841 16.5762V35.2429C57.1841 40.463 61.3448 44.7139 66.4626 44.7139H66.712C71.826 44.7139 75.9905 40.4672 75.9905 35.2429V16.5762C75.9905 11.3561 71.8303 7.10524 66.712 7.10524H66.4626ZM66.5873 42.4345H66.591V42.4386C63.4364 42.4386 60.7533 40.328 59.8272 37.4179C60.7566 40.3277 63.4336 42.4345 66.5873 42.4345ZM66.5826 40.0318C63.9672 40.027 61.8393 37.8521 61.8393 35.1814V16.6461C61.8393 13.9723 63.9719 11.7956 66.5915 11.7956C69.2107 11.7956 71.3433 13.9723 71.3433 16.6461V35.1814C71.3433 37.8551 69.2107 40.0318 66.5915 40.0318L66.5873 40.0318L66.591 42.4345C70.5085 42.4323 73.697 39.1763 73.697 35.1772V16.642C73.697 12.6417 70.5066 9.38475 66.5873 9.38475C62.6685 9.38475 59.4776 12.6417 59.4776 16.642V35.1772C59.479 35.959 59.6018 36.7121 59.8272 37.4179C59.6027 36.7131 59.4813 35.9613 59.4813 35.1813V28.6799H61.8351V35.1813C61.8351 37.8535 63.9653 40.0293 66.5826 40.0318ZM33.5613 16.6542C33.5613 12.6539 36.752 9.39699 40.671 9.39699C44.59 9.39699 47.7808 12.6457 47.7808 16.6501V35.1854C47.7808 39.1857 44.59 42.4426 40.671 42.4426C36.752 42.4426 33.5613 39.1857 33.5613 35.1854V16.6542ZM45.4229 28.6799H47.7808V35.1813C47.7808 39.1817 44.59 42.4386 40.671 42.4386V40.0359C42.6528 40.0359 44.3558 38.7874 45.0675 37.0216C44.3555 38.7859 42.6517 40.0317 40.667 40.0317C38.0476 40.0317 35.9151 37.855 35.9151 35.1813V16.6501C35.9151 13.9764 38.0476 11.7996 40.667 11.7996C43.2864 11.7996 45.4229 13.9764 45.4229 16.6501L45.4229 28.6799ZM45.4229 28.6799V35.1813L45.4229 35.1813L45.4229 28.6799ZM14.7185 52V27.1232C15.5031 26.6427 16.2475 26.0923 16.9355 25.4886L17.0723 25.3654V52H14.7185ZM17.0723 0.653063H14.7185C14.7185 9.43403 8.30075 16.7077 0 17.8577V20.2808C9.6004 19.1144 17.0723 10.7606 17.0723 0.653063ZM0 29.8257V27.4148C6.72752 26.8193 12.7469 23.6322 17.0723 18.8269V22.2194C12.4934 26.5072 6.5545 29.2918 0 29.8257ZM19.3738 0.648947V0.661272C19.3738 12.0625 10.8719 21.4801 0 22.6506V25.0656C8.55025 24.236 15.8089 18.8146 19.3738 11.2452V52H21.7277V0.648947H19.3738Z" fill="white"/>
<path fill-rule="evenodd" clip-rule="evenodd" d="M50.316 20H53.0646V34.4776C53.0646 36.2306 53.396 37.9121 53.9935 39.459C54.5907 37.913 54.9224 36.2379 54.9224 34.4776V20.004H57.671V34.6461C57.671 39.6363 61.6878 43.7042 66.6409 43.7364L66.9817 43.7387L67 46.4057L66.6503 46.4037C62.2914 46.3793 58.4947 43.9412 56.5063 40.3491C56.1753 41.2159 55.7776 42.0446 55.314 42.8351L55.3082 42.8449L55.308 42.8452C54.996 43.4082 54.6419 43.9708 54.2696 44.4318L54.0017 44.7634L53.7338 44.4318C53.3589 43.9678 53.0044 43.4026 52.6872 42.8319L52.6853 42.8285C52.2231 42.037 51.824 41.2103 51.496 40.3458C49.5075 43.9341 45.7105 46.3757 41.3512 46.3997L41.0039 46.4016V43.7347L41.347 43.7324C46.2962 43.6995 50.316 39.6357 50.316 34.6421V20ZM51.051 39.7108L51.6132 38.6193L52.0239 39.7774L52.024 39.7775C52.3588 40.7228 52.7822 41.6229 53.2843 42.4819L53.2874 42.4872L53.2919 42.4956C53.5173 42.901 53.7562 43.2923 54.0017 43.6379C54.2487 43.2901 54.489 42.8965 54.7121 42.4929L54.7189 42.4807L54.7243 42.4725C55.2227 41.6216 55.6415 40.7243 55.9798 39.7797L56.3921 38.6274L56.9519 39.715C56.9519 39.715 56.9519 39.715 56.9519 39.715C58.7255 43.1601 62.235 45.5488 66.3044 45.7004L66.2957 44.4241C61.121 44.2097 56.9803 39.9043 56.9803 34.6461V20.6998H55.6132V34.4776C55.6132 36.4733 55.2072 38.3651 54.4834 40.0934L53.9928 41.2633L53.5036 40.0935C52.7793 38.365 52.3739 36.465 52.3739 34.4776V20.6958H51.0067V34.6421C51.0067 39.9032 46.8641 44.2038 41.6946 44.4199V45.6965C45.7656 45.546 49.277 43.1534 51.051 39.7108C51.051 39.7108 51.0511 39.7108 51.051 39.7108ZM45.7059 28.0674H48.3589V34.5779C48.3589 38.5082 45.2333 41.7192 41.3546 41.8241L41 41.8337V39.1688L41.3323 39.1561C43.7586 39.0639 45.7059 37.0424 45.7059 34.5779V28.0674ZM46.3966 28.7632V34.5779C46.3966 37.3043 44.33 39.5585 41.6907 39.8282V41.1092C45.0308 40.8357 47.6682 38.009 47.6682 34.5779V28.7632H46.3966ZM59.6281 28.0674H62.277V34.5779C62.277 37.0424 64.2243 39.0602 66.6512 39.1521L66.9831 39.1647L66.9875 41.8337L66.6322 41.8241C62.7538 41.719 59.6281 38.5081 59.6281 34.5779V28.0674ZM60.3189 28.7632V34.5779C60.3189 38.0087 62.956 40.8352 66.2955 41.1091L66.2934 39.8243C63.6539 39.5555 61.5863 37.3052 61.5863 34.5779V28.7632H60.3189ZM50.8959 44.2642L51.1201 44.6191C51.4599 45.1574 51.9017 45.7754 52.2374 46.2243L52.4267 46.4775L52.194 46.6909C49.3227 49.3234 45.5224 50.9481 41.3532 50.996L41.0039 51V48.3333L41.3448 48.3288C44.9149 48.2817 48.1631 46.8561 50.5919 44.5525L50.8959 44.2642ZM57.0914 44.2644L57.3953 44.5531C59.8202 46.8566 63.0645 48.2817 66.6423 48.3288L66.9832 48.3333V51L66.6338 50.996C62.4639 50.9481 58.6629 49.3229 55.7916 46.6896L55.561 46.4781L55.7465 46.2255C56.079 45.7725 56.5259 45.1592 56.867 44.6194L57.0914 44.2644ZM41.6946 49.0161V50.2923C45.4389 50.1663 48.8552 48.7128 51.4956 46.3861C51.2631 46.0684 51.0015 45.6992 50.762 45.3389C48.3281 47.5207 45.1648 48.8886 41.6946 49.0161ZM57.2243 45.339C56.9826 45.7002 56.7186 46.0685 56.4888 46.3838C59.1294 48.7119 62.5469 50.1662 66.2924 50.2923V49.0161C62.8156 48.8888 59.655 47.5213 57.2243 45.339Z" fill="white"/>
<path opacity="0.9" d="M93.9471 16H91V13.856H91.8495L92.569 1H98V16H95.7724V3.14403H94.6705L93.9471 16Z" fill="white"/>
<path opacity="0.9" d="M100 1H105V3.14403H102.021V6.78726H104.904V8.92716H102.021V13.856H105V16H100V1Z" fill="white"/>
<path opacity="0.9" d="M106 1H112V3.14403H110.031V16H107.965V3.14403H106V1Z" fill="white"/>
<path opacity="0.9" d="M98.3197 19H101V34H98.8011V27.5702L99.1583 23.2851H99.0537L97.5252 31.0008H95.4748L93.9017 23.2851H93.7972L94.1984 27.5702V34H92V19H94.6761L96.4578 27.5702H96.522L98.3197 19Z" fill="white"/>
<path opacity="0.9" d="M104.023 33.9959C103.401 33.9959 103 33.5892 103 33.0101V19.9858C103 19.4066 103.401 19 104.023 19H108.978C109.6 19 110 19.4066 110 19.9858V33.0142C110 33.5934 109.6 34 108.978 34H104.023V33.9959ZM107.665 21.1399H105.331V31.8519H107.665V21.1399Z" fill="white"/>
<path opacity="0.9" d="M111.905 34C111.354 34 111 33.5933 111 33.014V19.986C111 19.4067 111.354 19 111.905 19H117V23.2851H114.933V21.1405H113.062V31.8554H114.933V29.0699H117V34H111.905Z" fill="white"/>
<path opacity="0.9" d="M126 34H123.68L121.76 26.9293H121.196V34H119V19H121.196V24.7847H121.821L123.68 19H126L123.744 25.857L126 34Z" fill="white"/>
<path opacity="0.9" d="M128.023 33.9959C127.401 33.9959 127 33.5892 127 33.0101V19.9858C127 19.4066 127.401 19 128.023 19H132.978C133.6 19 134 19.4066 134 19.9858V33.0142C134 33.5934 133.6 34 132.978 34H128.023V33.9959ZM131.665 21.1399H129.331V31.8519H131.665V21.1399Z" fill="white"/>
<path opacity="0.9" d="M141 24.1849C141 25.0436 140.585 25.6187 139.978 25.857C140.589 26.0912 141 26.65 141 27.5292V33.014C141 33.5933 140.645 34 140.095 34H135V19H140.095C140.645 19 141 19.4067 141 19.986V24.1849ZM138.937 21.1405H137.07V24.7847H138.937V21.1405ZM137.066 31.8595H138.933V26.9293H137.066V31.8595Z" fill="white"/>
<path opacity="0.9" d="M143.905 34C143.354 34 143 33.5933 143 33.014V19.986C143 19.4067 143.354 19 143.905 19H149V23.2851H146.933V21.1405H145.062V31.8554H146.933V29.0699H149V34H143.905Z" fill="white"/>
<path opacity="0.9" d="M158 34H155.681L153.759 26.9293H153.194V34H151V19H153.194V24.7847H153.819L155.681 19H158L155.741 25.857L158 34Z" fill="white"/>
<path opacity="0.9" d="M160.022 33.9959C159.4 33.9959 159 33.5892 159 33.0101V19.9858C159 19.4066 159.4 19 160.022 19H164.977C165.599 19 166 19.4066 166 19.9858V33.0142C166 33.5934 165.599 34 164.977 34H160.022V33.9959ZM163.669 21.1399H161.334V31.8519H163.669V21.1399Z" fill="white"/>
<path opacity="0.9" d="M173.321 19H176V34H173.802V27.5702L174.155 23.2851H174.05L172.527 31.0008H170.473L168.905 23.2851H168.8L169.198 27.5702V34H167V19H169.679L171.46 27.5702H171.52L173.321 19Z" fill="white"/>
<path opacity="0.9" d="M182.429 34H179.229V31.8595H180.447L180.922 29.0739H179.229L177 19H179.41L181.168 26.9293H181.281L182.654 19H185L182.429 34Z" fill="white"/>
<path opacity="0.9" d="M92.9049 52C92.3543 52 92 51.5936 92 51.0142V37.9858C92 37.4066 92.3543 37 92.9049 37H98V41.284H95.9331V39.1399H94.0625V49.8521H95.9331V47.0671H98V51.9957H92.9049V52Z" fill="white"/>
<path opacity="0.9" d="M107 37V52H104.701V39.144H102.294V52H100V37H107Z" fill="white"/>
<path opacity="0.9" d="M109.023 52C108.401 52 108 51.5936 108 51.0142V37.9858C108 37.4066 108.401 37 109.023 37H113.978C114.6 37 115 37.4066 115 37.9858V51.0142C115 51.5936 114.6 52 113.978 52H109.023ZM112.665 39.144H110.331V49.8559H112.665V39.144Z" fill="white"/>
<path opacity="0.9" d="M118.372 47.0712V52H116V37H121.961C122.593 37 123 37.4066 123 37.9858V46.0854C123 46.6646 122.593 47.0712 121.961 47.0712H118.372ZM118.372 44.9271H120.632V39.144H118.372V44.9271Z" fill="white"/>
<path opacity="0.9" d="M124 37H130V39.144H128.031V52H125.965V39.144H124V37Z" fill="white"/>
<path opacity="0.9" d="M136.429 52H133.229V49.8559H134.447L134.922 47.0712H133.229L131 37H133.41L135.168 44.9271H135.281L136.654 37H139L136.429 52Z" fill="white"/>
</g>
<defs>
<clipPath id="clip0_175_3459">
<rect width="185" height="52" fill="white"/>
</clipPath>
</defs>
</svg>
