<svg width="1232" height="789" viewBox="0 0 1232 789" fill="none" xmlns="http://www.w3.org/2000/svg">
<path d="M560 55C560 55 574.465 55 601 67" stroke="#2D74CA" stroke-width="3" stroke-miterlimit="10"/>
<path d="M512 23L517.926 96L552.576 94.3093L558 23.8951L512 23Z" fill="#2D74CA"/>
<path d="M614 707.7V624.9L993.4 622L1177 689.8L1175.1 715L972.9 676.9L816.2 674.5L614 707.7Z" fill="#2D74CA"/>
<path d="M791 363H282V430H791V363Z" fill="#2D74CA"/>
<path d="M549 195H525V397H549V195Z" fill="#2D74CA"/>
<path d="M543.331 296H530.669C524.786 296 520 291.2 520 285.2V216.8C520 210.8 524.786 206 530.669 206H543.331C549.214 206 554 210.8 554 216.8V285.2C554 291.2 549.214 296 543.331 296Z" fill="#2D74CA"/>
<path d="M554 321H523C479.9 321 445 355.9 445 399C445 442.1 479.9 477 523 477H554C597.1 477 632 442.1 632 399C632 355.9 597 321 554 321Z" fill="#2D74CA"/>
<path d="M537 710C512.1 710 492 689.9 492 665.1V458H582V665.1C582 689.9 561.8 710 537 710Z" fill="#2D74CA"/>
<path d="M1002 458H921V622H1002V458Z" fill="#2D74CA"/>
<path d="M911 586H835V611H911V586Z" fill="#2D74CA"/>
<path d="M1056 630C1042.2 630 1031 618.9 1031 605.1V554.9C1031 541.2 1042.2 530 1056 530C1069.8 530 1081 541.1 1081 554.9V605.1C1081 618.9 1069.8 630 1056 630Z" fill="#2D74CA"/>
<path d="M1090 548H1077V614H1090V548Z" fill="#2D74CA"/>
<path d="M1120 537H1090V615H1120V537Z" fill="#2D74CA"/>
<path d="M1117 622H1083V640H1117V622Z" fill="#2D74CA"/>
<path d="M1095 486H1071V522H1095V486Z" fill="#2D74CA"/>
<path d="M1067 486H1044V522H1067V486Z" fill="#2D74CA"/>
<path d="M919 434H890V458H919V434Z" fill="#2D74CA"/>
<path d="M818 272H707V329H818V272Z" fill="#2D74CA"/>
<path d="M818 327H724V344H818V327Z" fill="#2D74CA"/>
<path d="M758 340H728V364H758V340Z" fill="#2D74CA"/>
<path d="M435 546H282V595H435V546Z" fill="#2D74CA"/>
<path d="M324 593H311V603H324V593Z" fill="#2D74CA"/>
<path d="M470 589H459V600H470V589Z" fill="#2D74CA"/>
<path d="M356.774 528H310.225C296.811 528 286 517.3 286 504C286 490.7 296.911 480 310.225 480H356.774C370.188 480 380.999 490.7 380.999 504C381.099 517.3 370.188 528 356.774 528Z" fill="#2D74CA"/>
<path d="M359 523H303V547H359V523Z" fill="#2D74CA"/>
<path d="M660 555H598V620H660V555Z" fill="#2D74CA"/>
<path d="M660 537H629V561H660V537Z" fill="#2D74CA"/>
<path d="M767 547H660V590H767V547Z" fill="#2D74CA"/>
<path d="M766 526H713V552H766V526Z" fill="#2D74CA"/>
<path d="M765.8 529H719.2C705.3 529 694 517.8 694 504C694 490.2 705.3 479 719.2 479H765.8C779.7 479 791 490.2 791 504C791 517.8 779.7 529 765.8 529Z" fill="#2D74CA"/>
<path d="M285 392H235V406H285V392Z" fill="#2D74CA"/>
<path d="M226 621L216.1 559H194.9L157.2 526.1L191.6 443.9L145.4 427L106.8 515.8C106.8 515.8 92.2 522.4 89.4 535.3C86.6 548.2 93.2 568.4 93.2 568.4L73.9 567L60 618.8L226 621Z" fill="#2D74CA"/>
<path d="M418.8 209L396 214.3L402.2 240L425 234.7L418.8 209Z" fill="#2D74CA"/>
<path d="M241.7 292L224 306.9L241.3 327L259 312.1L241.7 292Z" fill="#2D74CA"/>
<path d="M650.6 197L648 223.7L671.4 226L674 199.3L650.6 197Z" fill="#2D74CA"/>
<path d="M655.9 296L631 318.7L644.1 333L669 310.3L655.9 296Z" fill="#2D74CA"/>
<path d="M619.3 331L604 344.7L613.7 355L629 341.3L619.3 331Z" fill="#2D74CA"/>
<path d="M420.2 296L407 310.4L432.8 334L446 319.6L420.2 296Z" fill="#2D74CA"/>
<path d="M458.5 333L449 343.5L462.5 356L472 345.5L458.5 333Z" fill="#2D74CA"/>
<path d="M680.3 311L655 334.5L673.7 355L699 331.5L680.3 311Z" fill="#2D74CA"/>
<path d="M616.6 239L597 272.8L644.3 300L664 266.2L616.6 239Z" fill="#2D74CA"/>
<path d="M910.2 267L897 290.3L916.8 302L930 278.7L910.2 267Z" fill="#2D74CA"/>
<path d="M1117 482L1098 493L1109 512L1128 501L1117 482Z" fill="#2D74CA"/>
<path d="M474.3 200L436 206.3L438.7 223L477 216.7L474.3 200Z" fill="#2D74CA"/>
<path d="M708.5 202L705 218.8L743.5 227L747 210.2L708.5 202Z" fill="#2D74CA"/>
<path d="M781 443H751V469H781V443Z" fill="#2D74CA"/>
<path d="M732 443H702V469H732V443Z" fill="#2D74CA"/>
<path d="M872.6 425L845 452.6L864.4 472L892 444.4L872.6 425Z" fill="#2D74CA"/>
<path d="M915 469H873V556H915V469Z" fill="#2D74CA"/>
<path d="M448.2 495L435 517.9L469.8 538L483 515.1L448.2 495Z" fill="#2D74CA"/>
<path d="M406.3 440L384 454.3L405.7 488L428 473.7L406.3 440Z" fill="#2D74CA"/>
<path d="M669.7 440L648 473.7L670.3 488L692 454.3L669.7 440Z" fill="#2D74CA"/>
<path d="M437 469L415 491L428 504L450 482L437 469Z" fill="#2D74CA"/>
<path d="M472.9 438L451 459.9L459.1 468L481 446.1L472.9 438Z" fill="#2D74CA"/>
<path d="M635 471L622 484L644 506L657 493L635 471Z" fill="#2D74CA"/>
<path d="M599.1 439L591 447.1L612.9 469L621 460.9L599.1 439Z" fill="#2D74CA"/>
<path d="M592 315.9L578.5 310.6L562 308H513.3L495.7 311.4L483 315.8V358H592V315.9V315.9Z" fill="#2D74CA"/>
<path d="M503 198H490V278H503V198Z" fill="#2D74CA"/>
<path d="M583 227H570V277H583V227Z" fill="#2D74CA"/>
<path d="M583 208H570V224H583V208Z" fill="#2D74CA"/>
<path d="M502 291.5C502 288.5 499.5 286 496.5 286C493.5 286 491 288.5 491 291.5C491 294.5 493.5 297 496.5 297C499.5 297 502 294.5 502 291.5Z" fill="#2D74CA"/>
<path d="M582 291.5C582 288.5 579.5 286 576.5 286C573.5 286 571 288.5 571 291.5C571 294.5 573.5 297 576.5 297C579.5 297 582 294.5 582 291.5Z" fill="#2D74CA"/>
<path d="M750.362 211C748.859 216.516 752.165 222.233 757.876 223.637C763.586 225.141 769.497 221.832 771 216.315" fill="#2D74CA"/>
<path d="M338 237.69C339.904 243.281 346.015 246.276 351.626 244.479C357.237 242.582 360.343 236.591 358.439 231" fill="#2D74CA"/>
<path d="M370 443H342V469H370V443Z" fill="#2D74CA"/>
<path d="M796.2 416H787V383H796.2C805.5 383 813 390.4 813 399.5C813 408.6 805.5 416 796.2 416Z" fill="#2D74CA"/>
<path d="M850 392H808V406H845.3L850 392Z" fill="#2D74CA"/>
<path d="M1068 396H845V402H1068V396Z" fill="#2D74CA"/>
<path d="M970 301H963V463H970V301Z" fill="#2D74CA"/>
<path d="M948 378C948 375.8 946.2 374 944 374C941.8 374 940 375.8 940 378C940 380.2 941.8 382 944 382C946.2 382 948 380.2 948 378Z" fill="#2D74CA"/>
<path d="M991 377C991 374.8 989.2 373 987 373C984.8 373 983 374.8 983 377C983 379.2 984.8 381 987 381C989.2 381 991 379.2 991 377Z" fill="#2D74CA"/>
<path d="M949 420C949 417.8 947.2 416 945 416C942.8 416 941 417.8 941 420C941 422.2 942.8 424 945 424C947.2 424 949 422.2 949 420Z" fill="#2D74CA"/>
<path d="M991 421C991 418.8 989.2 417 987 417C984.8 417 983 418.8 983 421C983 423.2 984.8 425 987 425C989.2 425 991 423.2 991 421Z" fill="#2D74CA"/>
<path d="M966 360C962.1 360 959 363.2 959 367.1V371H973V367.1C973 363.2 969.8 360 966 360Z" fill="#2D74CA"/>
<path d="M1029 494H998V522H1029V494Z" fill="#2D74CA"/>
<path d="M1039 576H1024V586H1039V576Z" fill="#2D74CA"/>
<path d="M244.659 610.304L264.469 541.227C267.771 529.631 265.67 517.136 258.766 507.239L238.456 478.449C231.853 469.052 230.653 456.756 235.355 446.26L241.858 428.266V372.285L199.137 330L157.217 379.383L123 433.464L166.421 415.871C169.523 414.571 172.824 414.071 176.226 414.171L195.836 415.171C200.038 415.371 203.539 418.57 204.14 422.768L233.454 621H246.26L244.659 610.304Z" fill="#2D74CA"/>
<path d="M866.8 247L777 622.3L784.2 624L874 248.7L866.8 247Z" fill="#2D74CA"/>
<path d="M881.6 248L792 623.4L794.4 624L884 248.6L881.6 248Z" fill="#2D74CA"/>
<path d="M855.6 248L766 623.4L768.4 624L858 248.6L855.6 248Z" fill="#2D74CA"/>
<path d="M787.042 629L793.76 601.032C794.863 596.622 792.055 592.211 787.644 591.209C783.232 590.206 778.72 592.913 777.718 597.223L771 625.191L787.042 629Z" fill="#2D74CA"/>
<path d="M820 570H811V609H820V570Z" fill="#2D74CA"/>
<path d="M828 595H816V610H828V595Z" fill="#2D74CA"/>
<path d="M461 737.7L458.7 625H239L259.4 759L373 749L461 737.7Z" fill="#2D74CA"/>
<path d="M349.7 236L348 237.7L430.3 321L432 319.3L349.7 236Z" fill="#2D74CA"/>
<path d="M514 195H512V312H514V195Z" fill="#2D74CA"/>
<path d="M563 193H561V322H563V193Z" fill="#2D74CA"/>
<path d="M593 193H591V333H593V193Z" fill="#2D74CA"/>
<path d="M484 198H482V339H484V198Z" fill="#2D74CA"/>
<path d="M576 290H497V292H576V290Z" fill="#2D74CA"/>
<path d="M578 265H500V267H578V265Z" fill="#2D74CA"/>
<path d="M575 240H498V242H575V240Z" fill="#2D74CA"/>
<path d="M578 215H498V217H578V215Z" fill="#2D74CA"/>
<path d="M556.6 491H520.4C469.4 491 428 449.5 428 398.5C428 347.5 469.5 306 520.4 306H556.6C607.6 306 649 347.5 649 398.5C649 449.5 607.5 491 556.6 491ZM520.4 308.5C470.8 308.5 430.4 348.9 430.4 398.5C430.4 448.1 470.8 488.5 520.4 488.5H556.6C606.2 488.5 646.6 448.1 646.6 398.5C646.6 348.9 606.2 308.5 556.6 308.5H520.4V308.5Z" fill="#2D74CA"/>
<path d="M560.158 507H517.942C458.419 507 410 458.577 410 399.049C410 353.127 439.111 312.208 482.328 297.101L483.228 299.802C441.112 314.509 412.801 354.428 412.801 399.049C412.801 456.976 459.919 504.199 517.842 504.199H560.058C617.981 504.199 665.099 457.076 665.099 399.049C665.099 352.727 635.487 312.408 591.27 298.701L592.171 296C637.488 310.107 668 351.526 668 399.149C668.1 458.577 619.681 507 560.158 507Z" fill="#2D74CA"/>
<path d="M593 106.164L592.5 109C581.2 104.99 569.1 102.741 556.4 102.741H514.2C501.7 102.741 489.7 104.893 478.6 108.804L478 106.066C489.3 102.155 501.5 100.003 514.2 100.003H556.3C569.2 99.9053 581.5 102.154 593 106.164Z" fill="#2D74CA"/>
<path d="M593 100.164L592.5 103C581.2 98.9905 569.1 96.7413 556.4 96.7413H514.2C501.7 96.7413 489.7 98.8927 478.6 102.804L478 100.066C489.3 96.1545 501.5 94.0031 514.2 94.0031H556.3C569.2 93.9053 581.5 96.1545 593 100.164Z" fill="#2D74CA"/>
<path d="M757.1 217L655 306.8L656.9 309L759 219.2L757.1 217Z" fill="#2D74CA"/>
<path d="M762 218H759V278H762V218Z" fill="#2D74CA"/>
<path d="M667.1 297L665 298.9L688.9 325L691 323.1L667.1 297Z" fill="#2D74CA"/>
<path d="M635.1 318L617 334.9L618.9 337L637 320.1L635.1 318Z" fill="#2D74CA"/>
<path d="M641.1 324L623 340.9L624.9 343L643 326.1L641.1 324Z" fill="#2D74CA"/>
<path d="M443.7 323L442 324.8L456.3 338L458 336.2L443.7 323Z" fill="#2D74CA"/>
<path d="M438.6 328L437 329.9L450.4 343L452 341.1L438.6 328Z" fill="#2D74CA"/>
<path d="M578 220H576V290H578V220Z" fill="#2D74CA"/>
<path d="M497 271H495V290H497V271Z" fill="#2D74CA"/>
<path d="M409.8 482L408 483.7L439.2 517L441 515.3L409.8 482Z" fill="#2D74CA"/>
<path d="M453.3 460L438 474.2L439.7 476L455 461.8L453.3 460Z" fill="#2D74CA"/>
<path d="M445.7 480L444 478.2L459.3 463L461 464.8L445.7 480Z" fill="#2D74CA"/>
<path d="M616.8 467L615 468.7L636.2 491L638 489.3L616.8 467Z" fill="#2D74CA"/>
<path d="M619.7 463L618 464.7L637.3 484L639 482.3L619.7 463Z" fill="#2D74CA"/>
<path d="M634.7 515L633 513.2L666.3 481L668 482.8L634.7 515Z" fill="#2D74CA"/>
<path d="M702.3 550L650 498.8L651.7 497L704 548.2L702.3 550Z" fill="#2D74CA"/>
<path d="M420.7 488L367 522.9L368.3 525L422 490.1L420.7 488Z" fill="#2D74CA"/>
<path d="M439 487L398 548.6L400 550L441 488.4L439 487Z" fill="#2D74CA"/>
<path d="M499 546H424V548H499V546Z" fill="#2D74CA"/>
<path d="M500 593H430V595H500V593Z" fill="#2D74CA"/>
<path d="M609 579L576 592.8L577 595L610 581.2L609 579Z" fill="#2D74CA"/>
<path d="M961 579H803V581H961V579Z" fill="#2D74CA"/>
<path d="M932 570H805V572H932V570Z" fill="#2D74CA"/>
<path d="M1050 575H998V577H1050V575Z" fill="#2D74CA"/>
<path d="M1044 584H1000V586H1044V584Z" fill="#2D74CA"/>
<path d="M1048.3 538L1024 513.7L1025.7 512L1050 536.3L1048.3 538Z" fill="#2D74CA"/>
<path d="M1080.5 515L1078 515.5L1085.5 552L1088 551.5L1080.5 515Z" fill="#2D74CA"/>
<path d="M1145 544H1115V546H1145V544Z" fill="#2D74CA"/>
<path d="M1161.4 606L1110 662.7L1113.6 666L1165 609.3L1161.4 606Z" fill="#2D74CA"/>
<path d="M1000.4 465H998V433.351L998.699 433.05L1065.9 401L1067 403.203L1000.5 434.953V465H1000.4Z" fill="#2D74CA"/>
<path d="M892 443H889.5V427.5H840V425H892V443Z" fill="#2D74CA"/>
<path d="M885 451H883V479H885V451Z" fill="#2D74CA"/>
<path d="M926 463H916V451H918.5V460.6H926V463Z" fill="#2D74CA"/>
<path d="M854 362H758V364H854V362Z" fill="#2D74CA"/>
<path d="M818.5 325L818 327.3L836.5 331L837 328.7L818.5 325Z" fill="#2D74CA"/>
<path d="M833.5 347L833 349.6L857.5 355L858 352.4L833.5 347Z" fill="#2D74CA"/>
<path d="M813.5 435L813 437.5L837.5 443L838 440.4L813.5 435Z" fill="#2D74CA"/>
<path d="M798.5 496L798 498.5L822.5 504L823 501.4L798.5 496Z" fill="#2D74CA"/>
<path d="M781.5 560L781 562.5L805.5 568L806 565.4L781.5 560Z" fill="#2D74CA"/>
<path d="M774.5 593L774 595.6L798.5 601L799 598.5L774.5 593Z" fill="#2D74CA"/>
<path d="M772.5 599L772 601.5L796.5 607L797 604.4L772.5 599Z" fill="#2D74CA"/>
<path d="M844.5 297L844 299.6L868.5 305L869 302.4L844.5 297Z" fill="#2D74CA"/>
<path d="M890 554H888V594H890V554Z" fill="#2D74CA"/>
<path d="M870 571H868V579H870V571Z" fill="#2D74CA"/>
<path d="M741 428H739V495H741V428Z" fill="#2D74CA"/>
<path d="M769 455H728V457H769V455Z" fill="#2D74CA"/>
<path d="M814 427H787V429H814V427Z" fill="#2D74CA"/>
<path d="M334 424H332V519H334V424Z" fill="#2D74CA"/>
<path d="M354 453H322V455H354V453Z" fill="#2D74CA"/>
<path d="M284 411H242V413H284V411Z" fill="#2D74CA"/>
<path d="M288 384H240V386H288V384Z" fill="#2D74CA"/>
<path d="M309 428H238V430H309V428Z" fill="#2D74CA"/>
<path d="M239.7 428L238 429.8L298.3 488L300 486.2L239.7 428Z" fill="#2D74CA"/>
<path d="M265.4 429L257 514.8L259.6 515L268 429.2L265.4 429Z" fill="#2D74CA"/>
<path d="M253 614.5C253 610.4 249.6 607 245.5 607C241.4 607 238 610.4 238 614.5C238 618.6 241.4 622 245.5 622C249.6 622 253 618.6 253 614.5Z" fill="#2D74CA"/>
<path d="M286 591L247 608.8L248 611L287 593.2L286 591Z" fill="#2D74CA"/>
<path d="M303 546H261V548H303V546Z" fill="#2D74CA"/>
<path d="M291 369H253.6C249.8 369 246.2 367.4 243.6 364.7L205 324.7L206.8 323L245.4 363C247.5 365.2 250.5 366.5 253.6 366.5H291V369Z" fill="#2D74CA"/>
<path d="M246 753L226.5 621L66.8 624.4L57 737.9L147.8 749.2L246 753Z" fill="#2D74CA"/>
<path d="M495 663H459V665H495V663Z" fill="#2D74CA"/>
<path d="M613 663H577V665H613V663Z" fill="#2D74CA"/>
<path d="M96.7 550L75 552.6L75.3 555L97 552.4L96.7 550Z" fill="#2D74CA"/>
<path d="M93 501L92 503.3L117 515L118 512.7L93 501Z" fill="#2D74CA"/>
<path d="M96.9 490L96 492.3L120.1 501L121 498.7L96.9 490Z" fill="#2D74CA"/>
<path d="M196.4 412L194 412.3L216.6 580L219 579.7L196.4 412Z" fill="#2D74CA"/>
<path d="M224.5 556L216 557.6L216.5 560L225 558.4L224.5 556Z" fill="#2D74CA"/>
<path d="M217.5 506L208 507.6L208.5 510L218 508.4L217.5 506Z" fill="#2D74CA"/>
<path d="M966.5 430C949.1 430 935 415.9 935 398.5C935 381.1 949.1 367 966.5 367C983.9 367 998 381.1 998 398.5C998 415.9 983.8 430 966.5 430ZM966.5 369.5C950.5 369.5 937.5 382.5 937.5 398.5C937.5 414.5 950.5 427.5 966.5 427.5C982.5 427.5 995.5 414.5 995.5 398.5C995.5 382.5 982.5 369.5 966.5 369.5Z" fill="#2D74CA"/>
<path d="M974.171 417H958.829L948 406.2V390.8L958.829 380H974.171L985 390.8V406.1L974.171 417ZM959.832 414.5H973.168L982.594 405.1V391.8L973.168 382.4H959.832L950.406 391.8V405.1L959.832 414.5Z" fill="#2D74CA"/>
<path d="M985.3 377L977 385.3L978.7 387L987 378.7L985.3 377Z" fill="#2D74CA"/>
<path d="M945.7 378L944 379.7L952.3 388L954 386.3L945.7 378Z" fill="#2D74CA"/>
<path d="M952.2 409L944 417.2L945.8 419L954 410.8L952.2 409Z" fill="#2D74CA"/>
<path d="M978.8 411L977 412.8L985.2 421L987 419.2L978.8 411Z" fill="#2D74CA"/>
<path d="M1190 718.055H1189.9V728.166C1163.7 720.157 1021.4 679.213 858.7 679.213C774.5 679.213 693.4 696.732 607.6 715.252C505.6 737.276 400.1 760 270.2 760C93.4 760 40.2 741.18 38 740.379L40.1 734.673L42.2 728.867C42.4 728.967 44.2 729.567 48 730.568C49.4 730.969 51 731.369 52.9 731.77C75.8 737.075 138.5 747.787 270.1 747.787C398.7 747.787 503.5 725.163 604.9 703.239C607.9 702.538 610.9 701.938 613.9 701.337C697.1 683.418 776.1 667 858.6 667C999.3 667 1125 697.333 1175 711.147C1175.1 711.147 1175.2 711.248 1175.3 711.248C1176.9 711.648 1178.4 712.149 1179.9 712.549C1181.3 712.949 1182.7 713.35 1183.9 713.65C1186 714.251 1188 714.851 1189.6 715.352C1189.7 715.352 1189.7 715.352 1189.8 715.352V716.754L1190 718.055Z" fill="#9AC8FF"/>
<path d="M198.115 313L186 314.9L253.885 760L266 758.1L198.115 313Z" fill="#9AC8FF"/>
<path d="M1173.4 696L1013.3 637.8C1001.5 633.5 989.1 631.3 976.6 631.3H59V619H976.6C990.6 619 1004.4 621.4 1017.5 626.2L1177 684.2L1173.4 696Z" fill="#9AC8FF"/>
<path d="M1190 718H1184V704H1188.6L1189.7 715.3L1189.8 716.7L1190 718Z" fill="#9AC8FF"/>
<path d="M38.3 741L38 719H43V735.2L38.3 741Z" fill="#9AC8FF"/>
<path d="M48.0719 734C48.0719 733.4 46.0717 672.7 63.1736 593.2C78.7754 519.8 114.479 414.8 194.788 331.5C285.399 237.6 413.013 190 574.031 190C699.746 190 808.958 212.6 898.568 257.1C973.077 294.1 1034.58 346.5 1081.49 412.8C1177.3 548.3 1180 697.7 1180 714.3H1175.1C1175.1 697.9 1172.4 550 1077.49 415.7C1031.08 350.1 970.176 298.2 896.368 261.5C807.458 217.3 698.946 194.9 574.031 194.9C414.313 194.9 287.899 242 198.289 334.9C118.78 417.3 83.4759 521.3 67.8741 594.1C50.9722 673 52.8724 733.2 52.8724 733.8L48.0719 734Z" fill="#9AC8FF"/>
<path d="M38.0726 723C38.0726 722.4 36.0727 662.7 53.0716 584.3C68.7706 511.9 104.168 408.2 184.163 325.2C276.457 229.5 407.249 181 572.939 181C700.731 181 811.724 203.5 902.818 247.9C978.613 284.8 1041.11 337 1088.81 403.1C1125.8 454.4 1153.4 513.2 1170.7 577.8C1187.2 639.4 1189 686.2 1189 703.5H1184.1C1184.1 687.1 1181.3 539.8 1084.91 406C1037.71 340.6 975.813 288.9 900.818 252.4C810.424 208.3 700.131 186 573.039 186C408.749 186 279.157 234 187.863 328.7C144.166 374 86.1695 455.3 58.0713 585.3C41.2724 663.1 43.1722 722.3 43.1722 722.9L38.0726 723Z" fill="#9AC8FF"/>
<path d="M789 538H765V540H789V538Z" fill="#2D74CA"/>
<path d="M557.5 336H514.5C481.1 336 454 363.1 454 396.5C454 429.9 481.1 457 514.5 457H557.5C590.9 457 618 429.9 618 396.5C618 363.1 590.9 336 557.5 336Z" fill="#134178"/>
<path d="M786 366H682V424H786V366Z" fill="#134178"/>
<path d="M390 366H286V424H390V366Z" fill="#134178"/>
<path d="M926 334H868V382H926V334Z" fill="#134178"/>
<path d="M909 474H879V551H909V474Z" fill="#134178"/>
<path d="M995 465H928V552H995V465Z" fill="#134178"/>
<path d="M764 530H717V544H764V530Z" fill="#134178"/>
<path d="M354 530H307V544H354V530Z" fill="#134178"/>
<path d="M652 558H603V595H652V558Z" fill="#134178"/>
<path d="M136.4 580H119.6C108.8 580 100 571.2 100 560.4V543.6C100 532.8 108.8 524 119.6 524H136.4C147.2 524 156 532.8 156 543.6V560.4C156 571.2 147.2 580 136.4 580Z" fill="#134178"/>
<path d="M513 603H504V615H513V603Z" fill="#134178"/>
<path d="M572 603H563V615H572V603Z" fill="#134178"/>
<path d="M538.5 698C520 698 505 683.2 505 664.9V630H511.7V664.9C511.7 679.5 523.7 691.3 538.5 691.3C553.3 691.3 565.3 679.4 565.3 664.9V630H572V664.9C572 683.2 556.9 698 538.5 698Z" fill="#134178"/>
<path d="M517 631V666.9C517 678.6 526.4 688 538 688C549.6 688 559 678.5 559 666.9V631" fill="#134178"/>
<path d="M486 633H474V662H486V633Z" fill="#134178"/>
<path d="M640 644H621V683H640V644Z" fill="#134178"/>
<path d="M453 646H393V669H453V646Z" fill="#134178"/>
<path d="M484.8 613H478C478 605.8 483.8 600 491 600V606.8C487.6 606.8 484.8 609.6 484.8 613Z" fill="#134178"/>
<path d="M596 613H589.2C589.2 609.6 586.4 606.8 583 606.8V600C590.1 600 596 605.8 596 613Z" fill="#134178"/>
<path d="M483.6 671L474 672.9L478.4 695L488 693.1L483.6 671Z" fill="#134178"/>
<path d="M597 671L593 693.3L603 695L607 672.7L597 671Z" fill="#134178"/>
<path d="M828 598H817V606H828V598Z" fill="#134178"/>
<path d="M503 245H491V274H503V245Z" fill="#134178"/>
<path d="M503 203H491V232H503V203Z" fill="#134178"/>
<path d="M585 245H573V274H585V245Z" fill="#134178"/>
<path d="M215 592H195V606H215V592Z" fill="#134178"/>
<path d="M110 608H90V618H110V608Z" fill="#134178"/>
<path d="M509 494H503V511H509V494Z" fill="#134178"/>
<path d="M509 514H503V531H509V514Z" fill="#134178"/>
<path d="M509 534H503V551H509V534Z" fill="#134178"/>
<path d="M509 553H503V570H509V553Z" fill="#134178"/>
<path d="M509 573H503V590H509V573Z" fill="#134178"/>
<path d="M516.5 589.2C516.5 586.2 518.9 583.7 522 583.7V578.5C519 578.5 516.5 576 516.5 573H511V590H516.6C516.6 589.7 516.5 589.4 516.5 589.2Z" fill="#134178"/>
<path d="M516.5 569.2C516.5 566.2 518.9 563.7 522 563.7V558.5C519 558.5 516.5 556 516.5 553H511V570H516.6C516.6 569.7 516.5 569.4 516.5 569.2Z" fill="#134178"/>
<path d="M516.5 550.2C516.5 547.2 518.9 544.7 522 544.7V539.5C519 539.5 516.5 537 516.5 534H511V551H516.6C516.6 550.7 516.5 550.4 516.5 550.2Z" fill="#134178"/>
<path d="M516.5 530.2C516.5 527.2 518.9 524.7 522 524.7V519.5C519 519.5 516.5 517 516.5 514H511V531H516.6C516.6 530.7 516.5 530.4 516.5 530.2Z" fill="#134178"/>
<path d="M516.5 510.2C516.5 507.2 518.9 504.7 522 504.7V499.5C519 499.5 516.5 497 516.5 494H511V511H516.6C516.6 510.7 516.5 510.4 516.5 510.2Z" fill="#134178"/>
<path d="M573 494H567V511H573V494Z" fill="#134178"/>
<path d="M573 514H567V531H573V514Z" fill="#134178"/>
<path d="M573 534H567V551H573V534Z" fill="#134178"/>
<path d="M573 553H567V570H573V553Z" fill="#134178"/>
<path d="M573 573H567V590H573V573Z" fill="#134178"/>
<path d="M558.5 589.2C558.5 586.2 556.1 583.7 553 583.7V578.5C556 578.5 558.5 576 558.5 573H564V590H558.4C558.5 589.7 558.5 589.4 558.5 589.2Z" fill="#134178"/>
<path d="M558.5 569.2C558.5 566.2 556.1 563.7 553 563.7V558.5C556 558.5 558.5 556 558.5 553H564V570H558.4C558.5 569.7 558.5 569.4 558.5 569.2Z" fill="#134178"/>
<path d="M558.5 550.2C558.5 547.2 556.1 544.7 553 544.7V539.5C556 539.5 558.5 537 558.5 534H564V551H558.4C558.5 550.7 558.5 550.4 558.5 550.2Z" fill="#134178"/>
<path d="M558.5 530.2C558.5 527.2 556.1 524.7 553 524.7V519.5C556 519.5 558.5 517 558.5 514H564V531H558.4C558.5 530.7 558.5 530.4 558.5 530.2Z" fill="#134178"/>
<path d="M558.5 510.2C558.5 507.2 556.1 504.7 553 504.7V499.5C556 499.5 558.5 497 558.5 494H564V511H558.4C558.5 510.7 558.5 510.4 558.5 510.2Z" fill="#134178"/>
<path d="M242.9 298L230 309L240.1 321L253 310L242.9 298Z" fill="#134178"/>
<path d="M417.4 216L401 219.9L404.6 235L421 231.1L417.4 216Z" fill="#134178"/>
<path d="M472.4 204L441 209.2L442.6 219L474 213.8L472.4 204Z" fill="#134178"/>
<path d="M652.6 205L651 220.4L668.4 222L670 206.6L652.6 205Z" fill="#134178"/>
<path d="M908 277L900 290.5L915 299L923 285.5L908 277Z" fill="#134178"/>
<path d="M1114.5 486L1101 494L1109.5 509L1123 501L1114.5 486Z" fill="#134178"/>
<path d="M711 207L709 216.5L740 223L742 213.5L711 207Z" fill="#134178"/>
<path d="M537.5 681C529.5 681 523 674.5 523 666.5C523 658.5 529.5 652 537.5 652C545.5 652 552 658.5 552 666.5C552 674.5 545.5 681 537.5 681ZM537.5 654.4C530.8 654.4 525.4 659.8 525.4 666.5C525.4 673.2 530.8 678.6 537.5 678.6C544.2 678.6 549.6 673.2 549.6 666.5C549.6 659.9 544.1 654.4 537.5 654.4Z" fill="#2D74CA"/>
<path d="M525 631H523V667H525V631Z" fill="#2D74CA"/>
<path d="M552 631H550V667H552V631Z" fill="#2D74CA"/>
<path d="M525 666H515V668H525V666Z" fill="#2D74CA"/>
<path d="M561 665H551V667H561V665Z" fill="#2D74CA"/>
<path d="M1231.47 735.299C1220.58 733.799 1202.08 731.799 1202.08 731.799C1197.58 647.585 1181.88 570.672 1155.49 503.361C1131.09 441.05 1097.2 386.241 1054.91 340.434C978.121 257.32 872.94 203.611 750.863 185.008C654.08 170.305 538.801 159.204 416.524 188.408C327.14 209.812 251.254 251.819 191.065 313.329C142.674 362.737 104.181 424.748 76.486 497.76C28.7947 623.181 29.8945 738.8 29.8945 740C29.8945 740 9.89819 735.199 0 731.699C0.59989 701.694 5.79894 599.977 47.9912 488.058C77.0859 410.945 117.878 345.234 169.169 292.726C233.457 226.915 314.342 182.007 409.525 159.204C536.802 128.699 655.78 140.1 755.362 155.303C884.238 174.906 995.518 231.916 1076.9 320.03C1121.79 368.638 1157.69 426.648 1183.38 492.459C1210.88 562.771 1227.28 642.684 1231.97 730.198C1232.07 731.899 1231.87 733.699 1231.47 735.299Z" fill="#9AC8FF"/>
<path d="M508 24L514 96" stroke="#2D74CA" stroke-width="3" stroke-miterlimit="10"/>
<path d="M562 23L555 95" stroke="#2D74CA" stroke-width="3" stroke-miterlimit="10"/>
<path d="M531 101L531.4 132" stroke="#2D74CA" stroke-width="3" stroke-miterlimit="10"/>
<path d="M540 101L540.4 132" stroke="#2D74CA" stroke-width="3" stroke-miterlimit="10"/>
<path d="M408 43C408 43 477.567 0.459925 620 28.6516" stroke="#9AC8FF" stroke-width="8" stroke-miterlimit="10"/>
<path d="M402 28C402 28 478.47 -15.4741 622 14.6004" stroke="#9AC8FF" stroke-width="8" stroke-miterlimit="10"/>
<path d="M607 23L591.639 106.681L591.14 109.591L586.751 133.371C586.751 133.371 546.652 132.468 533.285 133.471C503.66 135.578 447.8 142 447.8 142L408 41.161" stroke="#9AC8FF" stroke-width="4" stroke-miterlimit="10"/>
<path d="M1190.2 718H1190V717L1190.2 718Z" fill="#9AC8FF"/>
<path d="M430.788 50.7156L427 52L452.351 126.822L456.139 125.538L430.788 50.7156Z" fill="#9AC8FF"/>
<path d="M442.788 41.7156L439 43L464.351 117.822L468.139 116.538L442.788 41.7156Z" fill="#9AC8FF"/>
<path d="M459.788 48.7156L456 50L481.351 124.822L485.139 123.538L459.788 48.7156Z" fill="#9AC8FF"/>
<path d="M244 359L217 399" stroke="white" stroke-width="2.20952" stroke-linecap="square" stroke-dasharray="12.15 12.15"/>
<path d="M244 359H423" stroke="white" stroke-width="2.20952" stroke-linecap="square" stroke-dasharray="12.15 12.15"/>
<path d="M100.631 470.172V458.972H101.911L105.991 465.084L110.071 458.972H111.351V470.172H110.087V461.1L106.007 467.1H105.943L101.863 461.116V470.172H100.631ZM117.93 470.364C116.767 470.364 115.786 469.964 114.986 469.164C114.196 468.353 113.802 467.313 113.802 466.044C113.802 464.839 114.18 463.82 114.938 462.988C115.695 462.145 116.639 461.724 117.77 461.724C118.954 461.724 119.892 462.14 120.586 462.972C121.279 463.804 121.626 464.849 121.626 466.108C121.626 466.268 121.62 466.412 121.61 466.54H115.049C115.135 467.383 115.45 468.055 115.994 468.556C116.548 469.047 117.204 469.292 117.962 469.292C118.954 469.292 119.823 468.903 120.57 468.124L121.338 468.812C120.41 469.847 119.274 470.364 117.93 470.364ZM115.049 465.548H120.378C120.303 464.748 120.036 464.087 119.578 463.564C119.13 463.031 118.516 462.764 117.738 462.764C117.034 462.764 116.431 463.025 115.93 463.548C115.428 464.071 115.135 464.737 115.049 465.548ZM125.782 470.172V462.988H122.822V461.9H129.99V462.988H127.03V470.172H125.782ZM131.782 472.732V461.9H133.014V463.564C133.846 462.337 134.902 461.724 136.182 461.724C137.238 461.724 138.161 462.119 138.95 462.908C139.74 463.687 140.134 464.732 140.134 466.044C140.134 467.335 139.74 468.375 138.95 469.164C138.161 469.953 137.238 470.348 136.182 470.348C134.881 470.348 133.825 469.761 133.014 468.588V472.732H131.782ZM135.958 469.244C136.79 469.244 137.484 468.956 138.038 468.38C138.593 467.793 138.87 467.009 138.87 466.028C138.87 465.079 138.588 464.311 138.022 463.724C137.457 463.127 136.769 462.828 135.958 462.828C135.158 462.828 134.46 463.132 133.862 463.74C133.265 464.348 132.966 465.116 132.966 466.044C132.966 466.972 133.265 467.74 133.862 468.348C134.46 468.945 135.158 469.244 135.958 469.244ZM149.271 469.1C148.439 469.943 147.41 470.364 146.183 470.364C144.957 470.364 143.933 469.943 143.111 469.1C142.301 468.257 141.895 467.239 141.895 466.044C141.895 464.86 142.306 463.847 143.127 463.004C143.959 462.151 144.989 461.724 146.215 461.724C147.442 461.724 148.466 462.145 149.287 462.988C150.109 463.831 150.519 464.849 150.519 466.044C150.519 467.228 150.103 468.247 149.271 469.1ZM146.215 469.26C147.101 469.26 147.826 468.951 148.391 468.332C148.967 467.713 149.255 466.951 149.255 466.044C149.255 465.148 148.957 464.385 148.359 463.756C147.773 463.127 147.047 462.812 146.183 462.812C145.298 462.812 144.573 463.127 144.007 463.756C143.442 464.375 143.159 465.137 143.159 466.044C143.159 466.94 143.453 467.703 144.039 468.332C144.626 468.951 145.351 469.26 146.215 469.26ZM159.532 469.516L156.94 466.092V465.964L159.532 462.556L160.476 463.084L158.316 466.012L160.476 468.972L159.532 469.516ZM163.1 469.516L160.508 466.092V465.964L163.1 462.556L164.028 463.084L161.868 466.012L164.028 468.972L163.1 469.516ZM166.553 470.172V458.972H171.321C172.633 458.972 173.609 459.303 174.249 459.964C174.729 460.465 174.969 461.073 174.969 461.788C174.969 463.004 174.377 463.868 173.193 464.38C174.793 464.86 175.593 465.772 175.593 467.116C175.593 468.065 175.225 468.812 174.489 469.356C173.753 469.9 172.766 470.172 171.529 470.172H166.553ZM167.801 469.036H171.561C172.414 469.036 173.086 468.86 173.577 468.508C174.067 468.145 174.313 467.644 174.313 467.004C174.313 466.385 174.057 465.911 173.545 465.58C173.043 465.249 172.307 465.084 171.337 465.084H167.801V469.036ZM167.801 463.964H171.113C171.891 463.964 172.515 463.788 172.985 463.436C173.454 463.084 173.689 462.583 173.689 461.932C173.689 461.367 173.47 460.924 173.033 460.604C172.606 460.273 171.998 460.108 171.209 460.108H167.801V463.964ZM184.756 469.1C183.924 469.943 182.894 470.364 181.668 470.364C180.441 470.364 179.417 469.943 178.596 469.1C177.785 468.257 177.38 467.239 177.38 466.044C177.38 464.86 177.79 463.847 178.612 463.004C179.444 462.151 180.473 461.724 181.7 461.724C182.926 461.724 183.95 462.145 184.772 462.988C185.593 463.831 186.004 464.849 186.004 466.044C186.004 467.228 185.588 468.247 184.756 469.1ZM181.7 469.26C182.585 469.26 183.31 468.951 183.876 468.332C184.452 467.713 184.74 466.951 184.74 466.044C184.74 465.148 184.441 464.385 183.844 463.756C183.257 463.127 182.532 462.812 181.668 462.812C180.782 462.812 180.057 463.127 179.492 463.756C178.926 464.375 178.644 465.137 178.644 466.044C178.644 466.94 178.937 467.703 179.524 468.332C180.11 468.951 180.836 469.26 181.7 469.26ZM188.235 472.732V461.9H189.467V463.564C190.299 462.337 191.355 461.724 192.635 461.724C193.691 461.724 194.614 462.119 195.403 462.908C196.193 463.687 196.587 464.732 196.587 466.044C196.587 467.335 196.193 468.375 195.403 469.164C194.614 469.953 193.691 470.348 192.635 470.348C191.334 470.348 190.278 469.761 189.467 468.588V472.732H188.235ZM192.411 469.244C193.243 469.244 193.937 468.956 194.491 468.38C195.046 467.793 195.323 467.009 195.323 466.028C195.323 465.079 195.041 464.311 194.475 463.724C193.91 463.127 193.222 462.828 192.411 462.828C191.611 462.828 190.913 463.132 190.315 463.74C189.718 464.348 189.419 465.116 189.419 466.044C189.419 466.972 189.718 467.74 190.315 468.348C190.913 468.945 191.611 469.244 192.411 469.244ZM205.724 469.1C204.892 469.943 203.863 470.364 202.636 470.364C201.41 470.364 200.386 469.943 199.564 469.1C198.754 468.257 198.348 467.239 198.348 466.044C198.348 464.86 198.759 463.847 199.58 463.004C200.412 462.151 201.442 461.724 202.668 461.724C203.895 461.724 204.919 462.145 205.74 462.988C206.562 463.831 206.972 464.849 206.972 466.044C206.972 467.228 206.556 468.247 205.724 469.1ZM202.668 469.26C203.554 469.26 204.279 468.951 204.844 468.332C205.42 467.713 205.708 466.951 205.708 466.044C205.708 465.148 205.41 464.385 204.812 463.756C204.226 463.127 203.5 462.812 202.636 462.812C201.751 462.812 201.026 463.127 200.46 463.756C199.895 464.375 199.612 465.137 199.612 466.044C199.612 466.94 199.906 467.703 200.492 468.332C201.079 468.951 201.804 469.26 202.668 469.26ZM213.092 470.364C211.823 470.364 210.804 469.948 210.036 469.116C209.279 468.273 208.9 467.137 208.9 465.708C208.9 465.185 208.911 464.743 208.932 464.38C208.953 464.007 208.996 463.596 209.06 463.148C209.124 462.7 209.225 462.316 209.364 461.996C209.503 461.676 209.679 461.361 209.892 461.052C210.116 460.743 210.404 460.481 210.756 460.268C211.108 460.055 211.519 459.895 211.988 459.788L216.596 458.7L216.836 459.74L212.356 460.844C211.524 461.057 210.927 461.399 210.564 461.868C210.212 462.327 210.004 462.967 209.94 463.788C210.644 462.593 211.785 461.996 213.364 461.996C214.452 461.996 215.385 462.401 216.164 463.212C216.943 464.012 217.332 464.977 217.332 466.108C217.332 467.281 216.927 468.284 216.116 469.116C215.305 469.948 214.297 470.364 213.092 470.364ZM213.124 469.26C213.967 469.26 214.665 468.961 215.22 468.364C215.775 467.756 216.052 467.015 216.052 466.14C216.052 465.276 215.764 464.54 215.188 463.932C214.623 463.324 213.924 463.02 213.092 463.02C212.249 463.02 211.551 463.324 210.996 463.932C210.441 464.529 210.164 465.265 210.164 466.14C210.164 467.004 210.447 467.74 211.012 468.348C211.588 468.956 212.292 469.26 213.124 469.26ZM219.564 470.172V461.9H220.796V465.004H223.004C223.964 465.004 224.748 465.212 225.356 465.628C225.964 466.033 226.267 466.652 226.267 467.484C226.267 468.305 225.985 468.961 225.42 469.452C224.854 469.932 224.097 470.172 223.148 470.172H219.564ZM220.796 469.084H223.036C223.665 469.084 224.15 468.951 224.492 468.684C224.844 468.417 225.02 468.028 225.02 467.516C225.02 467.047 224.838 466.689 224.476 466.444C224.124 466.188 223.628 466.06 222.988 466.06H220.796V469.084ZM231.789 470.364C230.626 470.364 229.645 469.964 228.845 469.164C228.056 468.353 227.661 467.313 227.661 466.044C227.661 464.839 228.04 463.82 228.797 462.988C229.554 462.145 230.498 461.724 231.629 461.724C232.813 461.724 233.752 462.14 234.445 462.972C235.138 463.804 235.485 464.849 235.485 466.108C235.485 466.268 235.48 466.412 235.469 466.54H228.909C228.994 467.383 229.309 468.055 229.853 468.556C230.408 469.047 231.064 469.292 231.821 469.292C232.813 469.292 233.682 468.903 234.429 468.124L235.197 468.812C234.269 469.847 233.133 470.364 231.789 470.364ZM228.909 465.548H234.237C234.162 464.748 233.896 464.087 233.437 463.564C232.989 463.031 232.376 462.764 231.597 462.764C230.893 462.764 230.29 463.025 229.789 463.548C229.288 464.071 228.994 464.737 228.909 465.548ZM237.642 470.172V461.9H241.642C242.463 461.9 243.119 462.087 243.61 462.46C244.1 462.833 244.346 463.335 244.346 463.964C244.346 464.849 243.887 465.484 242.97 465.868C244.186 466.199 244.794 466.881 244.794 467.916C244.794 468.609 244.522 469.159 243.978 469.564C243.434 469.969 242.703 470.172 241.786 470.172H237.642ZM238.874 469.116H241.626C242.212 469.116 242.676 468.993 243.018 468.748C243.359 468.503 243.53 468.161 243.53 467.724C243.53 467.319 243.348 467.004 242.986 466.78C242.634 466.556 242.127 466.444 241.466 466.444H238.874V469.116ZM238.874 465.452H241.418C241.93 465.452 242.335 465.34 242.634 465.116C242.943 464.881 243.098 464.551 243.098 464.124C243.098 463.772 242.954 463.489 242.666 463.276C242.378 463.063 241.972 462.956 241.45 462.956H238.874V465.452ZM247.017 470.172V461.9H248.249V465.004H250.457C251.417 465.004 252.201 465.212 252.809 465.628C253.417 466.033 253.721 466.652 253.721 467.484C253.721 468.305 253.438 468.961 252.873 469.452C252.307 469.932 251.55 470.172 250.601 470.172H247.017ZM248.249 469.084H250.489C251.118 469.084 251.603 468.951 251.945 468.684C252.297 468.417 252.473 468.028 252.473 467.516C252.473 467.047 252.291 466.689 251.929 466.444C251.577 466.188 251.081 466.06 250.441 466.06H248.249V469.084ZM255.209 470.172V461.9H256.441V470.172H255.209ZM263.985 470.172V461.9H269.601V462.988H265.217V470.172H263.985ZM278.256 469.1C277.424 469.943 276.394 470.364 275.168 470.364C273.941 470.364 272.917 469.943 272.096 469.1C271.285 468.257 270.88 467.239 270.88 466.044C270.88 464.86 271.29 463.847 272.112 463.004C272.944 462.151 273.973 461.724 275.2 461.724C276.426 461.724 277.45 462.145 278.272 462.988C279.093 463.831 279.504 464.849 279.504 466.044C279.504 467.228 279.088 468.247 278.256 469.1ZM275.2 469.26C276.085 469.26 276.81 468.951 277.376 468.332C277.952 467.713 278.24 466.951 278.24 466.044C278.24 465.148 277.941 464.385 277.344 463.756C276.757 463.127 276.032 462.812 275.168 462.812C274.282 462.812 273.557 463.127 272.992 463.756C272.426 464.375 272.144 465.137 272.144 466.044C272.144 466.94 272.437 467.703 273.024 468.332C273.61 468.951 274.336 469.26 275.2 469.26ZM281.735 472.732V461.9H282.967V463.564C283.799 462.337 284.855 461.724 286.135 461.724C287.191 461.724 288.114 462.119 288.903 462.908C289.693 463.687 290.087 464.732 290.087 466.044C290.087 467.335 289.693 468.375 288.903 469.164C288.114 469.953 287.191 470.348 286.135 470.348C284.834 470.348 283.778 469.761 282.967 468.588V472.732H281.735ZM285.911 469.244C286.743 469.244 287.437 468.956 287.991 468.38C288.546 467.793 288.823 467.009 288.823 466.028C288.823 465.079 288.541 464.311 287.975 463.724C287.41 463.127 286.722 462.828 285.911 462.828C285.111 462.828 284.413 463.132 283.815 463.74C283.218 464.348 282.919 465.116 282.919 466.044C282.919 466.972 283.218 467.74 283.815 468.348C284.413 468.945 285.111 469.244 285.911 469.244ZM292.36 470.172V461.9H293.592V465.004H295.8C296.76 465.004 297.544 465.212 298.152 465.628C298.76 466.033 299.064 466.652 299.064 467.484C299.064 468.305 298.782 468.961 298.216 469.452C297.651 469.932 296.894 470.172 295.944 470.172H292.36ZM293.592 469.084H295.832C296.462 469.084 296.947 468.951 297.288 468.684C297.64 468.417 297.816 468.028 297.816 467.516C297.816 467.047 297.635 466.689 297.272 466.444C296.92 466.188 296.424 466.06 295.784 466.06H293.592V469.084ZM300.552 470.172V461.9H301.784V470.172H300.552ZM305.028 469.516L304.1 468.988L306.26 466.044L304.1 463.1L305.028 462.556L307.62 465.964V466.092L305.028 469.516ZM308.596 469.516L307.652 468.988L309.812 466.044L307.652 463.1L308.596 462.556L311.188 465.964V466.092L308.596 469.516Z" fill="white"/>
<g clip-path="url(#clip0_335_5367)">
<path d="M204.5 446C216.926 446 227 435.926 227 423.5C227 411.074 216.926 401 204.5 401C192.074 401 182 411.074 182 423.5C182 435.926 192.074 446 204.5 446Z" fill="#F32735"/>
<path fill-rule="evenodd" clip-rule="evenodd" d="M215.211 429.485L209.138 414L204 423.053L198.883 414L192.789 429.485H191V431.833H200.194V429.485H198.821L200.152 425.629L204 432L207.848 425.629L209.179 429.485H207.806V431.833H217V429.485H215.211Z" fill="white"/>
</g>
<path d="M544.764 783V771.8H546.044L550.124 777.912L554.204 771.8H555.484V783H554.22V773.928L550.14 779.928H550.076L545.996 773.944V783H544.764ZM567.79 785.496V783H558.654V771.8H559.918V781.848H566.318V771.8H567.582V781.848H569.038L568.846 785.496H567.79ZM570.889 783V771.8H572.153V778.488L578.585 771.8H580.217L575.417 776.696L580.425 783H578.841L574.537 777.576L572.153 779.992V783H570.889ZM588.962 782.344L586.37 778.92V778.792L588.962 775.384L589.906 775.912L587.746 778.84L589.906 781.8L588.962 782.344ZM592.53 782.344L589.938 778.92V778.792L592.53 775.384L593.458 775.912L591.298 778.84L593.458 781.8L592.53 782.344ZM595.774 783.128C595.273 783.128 594.788 783.037 594.318 782.856L594.574 781.832C594.809 781.939 595.14 781.992 595.566 781.992C595.78 781.992 595.972 781.96 596.142 781.896C596.313 781.821 596.516 781.629 596.75 781.32C596.985 781 597.177 780.568 597.326 780.024C597.476 779.469 597.604 778.664 597.71 777.608C597.828 776.541 597.886 775.283 597.886 773.832V771.8H605.134V783H603.87V772.952H599.102V774.168C599.102 775.683 599.038 776.995 598.91 778.104C598.793 779.213 598.633 780.088 598.43 780.728C598.238 781.357 597.988 781.859 597.678 782.232C597.38 782.605 597.081 782.851 596.782 782.968C596.494 783.075 596.158 783.128 595.774 783.128ZM609.367 785.608C608.77 785.608 608.183 785.469 607.607 785.192L608.023 784.216C608.418 784.419 608.85 784.52 609.319 784.52C609.692 784.52 610.007 784.403 610.263 784.168C610.519 783.944 610.77 783.544 611.015 782.968L607.255 774.728H608.615L611.623 781.624L614.279 774.728H615.591L612.119 783.272C611.767 784.115 611.378 784.712 610.951 785.064C610.524 785.427 609.996 785.608 609.367 785.608ZM616.484 783L619.876 778.264L616.66 774.728H618.148L622.356 779.528V774.728H623.588V779.528L627.796 774.728H629.284L626.068 778.264L629.46 783H628.02L625.268 779.144L623.588 780.984V783H622.356V780.984L620.676 779.144L617.924 783H616.484ZM631.149 783V774.728H632.381V778.296H637.149V774.728H638.381V783H637.149V779.384H632.381V783H631.149ZM641.134 783V774.728H642.366V781.272L647.278 774.728H648.478V783H647.246V776.456L642.318 783H641.134ZM651.228 783V774.728H652.46V779.496L656.988 774.728H658.508L655.052 778.312L658.604 783H657.148L654.204 779.208L652.46 781V783H651.228ZM660.306 783V774.728H661.538V781.272L666.45 774.728H667.65V783H666.418V776.456L661.49 783H660.306ZM670.895 782.344L669.967 781.816L672.127 778.872L669.967 775.928L670.895 775.384L673.487 778.792V778.92L670.895 782.344ZM674.463 782.344L673.519 781.816L675.679 778.872L673.519 775.928L674.463 775.384L677.055 778.792V778.92L674.463 782.344Z" fill="white"/>
<g clip-path="url(#clip1_335_5367)">
<path d="M609.5 759C621.926 759 632 748.926 632 736.5C632 724.074 621.926 714 609.5 714C597.074 714 587 724.074 587 736.5C587 748.926 597.074 759 609.5 759Z" fill="#F32735"/>
<path fill-rule="evenodd" clip-rule="evenodd" d="M620.211 742.485L614.138 727L609 736.053L603.883 727L597.789 742.485H596V744.833H605.194V742.485H603.821L605.152 738.629L609 745L612.848 738.629L614.179 742.485H612.806V744.833H622V742.485H620.211Z" fill="white"/>
</g>
<path d="M699.842 784V772.8H701.122L705.202 778.912L709.282 772.8H710.562V784H709.298V774.928L705.218 780.928H705.154L701.074 774.944V784H699.842ZM717.14 784.192C715.978 784.192 714.996 783.792 714.196 782.992C713.407 782.181 713.012 781.141 713.012 779.872C713.012 778.667 713.391 777.648 714.148 776.816C714.906 775.973 715.85 775.552 716.98 775.552C718.164 775.552 719.103 775.968 719.796 776.8C720.49 777.632 720.836 778.677 720.836 779.936C720.836 780.096 720.831 780.24 720.82 780.368H714.26C714.346 781.211 714.66 781.883 715.204 782.384C715.759 782.875 716.415 783.12 717.172 783.12C718.164 783.12 719.034 782.731 719.78 781.952L720.548 782.64C719.62 783.675 718.484 784.192 717.14 784.192ZM714.26 779.376H719.588C719.514 778.576 719.247 777.915 718.788 777.392C718.34 776.859 717.727 776.592 716.948 776.592C716.244 776.592 715.642 776.853 715.14 777.376C714.639 777.899 714.346 778.565 714.26 779.376ZM724.993 784V776.816H722.033V775.728H729.201V776.816H726.241V784H724.993ZM730.993 786.56V775.728H732.225V777.392C733.057 776.165 734.113 775.552 735.393 775.552C736.449 775.552 737.372 775.947 738.161 776.736C738.951 777.515 739.345 778.56 739.345 779.872C739.345 781.163 738.951 782.203 738.161 782.992C737.372 783.781 736.449 784.176 735.393 784.176C734.092 784.176 733.036 783.589 732.225 782.416V786.56H730.993ZM735.169 783.072C736.001 783.072 736.695 782.784 737.249 782.208C737.804 781.621 738.081 780.837 738.081 779.856C738.081 778.907 737.799 778.139 737.233 777.552C736.668 776.955 735.98 776.656 735.169 776.656C734.369 776.656 733.671 776.96 733.073 777.568C732.476 778.176 732.177 778.944 732.177 779.872C732.177 780.8 732.476 781.568 733.073 782.176C733.671 782.773 734.369 783.072 735.169 783.072ZM748.482 782.928C747.65 783.771 746.621 784.192 745.394 784.192C744.168 784.192 743.144 783.771 742.322 782.928C741.512 782.085 741.106 781.067 741.106 779.872C741.106 778.688 741.517 777.675 742.338 776.832C743.17 775.979 744.2 775.552 745.426 775.552C746.653 775.552 747.677 775.973 748.498 776.816C749.32 777.659 749.73 778.677 749.73 779.872C749.73 781.056 749.314 782.075 748.482 782.928ZM745.426 783.088C746.312 783.088 747.037 782.779 747.602 782.16C748.178 781.541 748.466 780.779 748.466 779.872C748.466 778.976 748.168 778.213 747.57 777.584C746.984 776.955 746.258 776.64 745.394 776.64C744.509 776.64 743.784 776.955 743.218 777.584C742.653 778.203 742.37 778.965 742.37 779.872C742.37 780.768 742.664 781.531 743.25 782.16C743.837 782.779 744.562 783.088 745.426 783.088ZM758.743 783.344L756.151 779.92V779.792L758.743 776.384L759.687 776.912L757.527 779.84L759.687 782.8L758.743 783.344ZM762.311 783.344L759.719 779.92V779.792L762.311 776.384L763.239 776.912L761.079 779.84L763.239 782.8L762.311 783.344ZM770.884 784.192C769.273 784.192 767.934 783.637 766.868 782.528C765.801 781.408 765.268 780.032 765.268 778.4C765.268 776.789 765.806 775.424 766.884 774.304C767.961 773.173 769.31 772.608 770.932 772.608C771.87 772.608 772.67 772.763 773.332 773.072C773.993 773.371 774.638 773.819 775.268 774.416L774.436 775.312C773.358 774.288 772.185 773.776 770.916 773.776C769.678 773.776 768.644 774.219 767.812 775.104C766.99 775.989 766.58 777.088 766.58 778.4C766.58 779.701 766.996 780.8 767.828 781.696C768.66 782.581 769.689 783.024 770.916 783.024C771.641 783.024 772.281 782.891 772.836 782.624C773.39 782.357 773.956 781.952 774.532 781.408L775.364 782.288C774.734 782.917 774.073 783.392 773.38 783.712C772.686 784.032 771.854 784.192 770.884 784.192ZM777.368 784V775.728H784.536V784H783.304V776.816H778.6V784H777.368ZM794.154 782.928C793.322 783.771 792.293 784.192 791.066 784.192C789.839 784.192 788.815 783.771 787.994 782.928C787.183 782.085 786.778 781.067 786.778 779.872C786.778 778.688 787.189 777.675 788.01 776.832C788.842 775.979 789.871 775.552 791.098 775.552C792.325 775.552 793.349 775.973 794.17 776.816C794.991 777.659 795.402 778.677 795.402 779.872C795.402 781.056 794.986 782.075 794.154 782.928ZM791.098 783.088C791.983 783.088 792.709 782.779 793.274 782.16C793.85 781.541 794.138 780.779 794.138 779.872C794.138 778.976 793.839 778.213 793.242 777.584C792.655 776.955 791.93 776.64 791.066 776.64C790.181 776.64 789.455 776.955 788.89 777.584C788.325 778.203 788.042 778.965 788.042 779.872C788.042 780.768 788.335 781.531 788.922 782.16C789.509 782.779 790.234 783.088 791.098 783.088ZM797.634 786.56V775.728H798.866V777.392C799.698 776.165 800.754 775.552 802.034 775.552C803.09 775.552 804.012 775.947 804.802 776.736C805.591 777.515 805.986 778.56 805.986 779.872C805.986 781.163 805.591 782.203 804.802 782.992C804.012 783.781 803.09 784.176 802.034 784.176C800.732 784.176 799.676 783.589 798.866 782.416V786.56H797.634ZM801.81 783.072C802.642 783.072 803.335 782.784 803.89 782.208C804.444 781.621 804.722 780.837 804.722 779.856C804.722 778.907 804.439 778.139 803.874 777.552C803.308 776.955 802.62 776.656 801.81 776.656C801.01 776.656 800.311 776.96 799.714 777.568C799.116 778.176 798.818 778.944 798.818 779.872C798.818 780.8 799.116 781.568 799.714 782.176C800.311 782.773 801.01 783.072 801.81 783.072ZM810.259 784V776.816H807.299V775.728H814.467V776.816H811.507V784H810.259ZM816.259 784V775.728H817.491V782.272L822.403 775.728H823.603V784H822.371V777.456L817.443 784H816.259ZM826.353 784V775.728H830.353C831.174 775.728 831.83 775.915 832.321 776.288C832.811 776.661 833.057 777.163 833.057 777.792C833.057 778.677 832.598 779.312 831.681 779.696C832.897 780.027 833.505 780.709 833.505 781.744C833.505 782.437 833.233 782.987 832.689 783.392C832.145 783.797 831.414 784 830.497 784H826.353ZM827.585 782.944H830.337C830.923 782.944 831.387 782.821 831.729 782.576C832.07 782.331 832.241 781.989 832.241 781.552C832.241 781.147 832.059 780.832 831.697 780.608C831.345 780.384 830.838 780.272 830.177 780.272H827.585V782.944ZM827.585 779.28H830.129C830.641 779.28 831.046 779.168 831.345 778.944C831.654 778.709 831.809 778.379 831.809 777.952C831.809 777.6 831.665 777.317 831.377 777.104C831.089 776.891 830.683 776.784 830.161 776.784H827.585V779.28ZM835.728 784V775.728H836.96V779.296H841.728V775.728H842.96V784H841.728V780.384H836.96V784H835.728ZM848.176 784.176C847.333 784.176 846.608 783.947 846 783.488C845.392 783.029 845.088 782.389 845.088 781.568C845.088 780.704 845.408 780.037 846.048 779.568C846.688 779.099 847.547 778.864 848.624 778.864C849.477 778.864 850.32 778.981 851.152 779.216V778.96C851.152 778.235 850.939 777.68 850.512 777.296C850.085 776.912 849.483 776.72 848.704 776.72C847.893 776.72 847.056 776.917 846.192 777.312L845.824 776.304C846.848 775.835 847.851 775.6 848.832 775.6C850.005 775.6 850.896 775.904 851.504 776.512C852.08 777.088 852.368 777.899 852.368 778.944V784H851.152V782.768C850.416 783.707 849.424 784.176 848.176 784.176ZM848.416 783.184C849.184 783.184 849.835 782.976 850.368 782.56C850.901 782.144 851.168 781.611 851.168 780.96V780.192C850.357 779.957 849.552 779.84 848.752 779.84C847.995 779.84 847.403 779.995 846.976 780.304C846.549 780.603 846.336 781.013 846.336 781.536C846.336 782.037 846.533 782.437 846.928 782.736C847.333 783.035 847.829 783.184 848.416 783.184ZM854.242 784L856.77 780.8C856.119 780.651 855.586 780.357 855.17 779.92C854.764 779.483 854.562 778.944 854.562 778.304C854.562 777.536 854.839 776.917 855.394 776.448C855.948 775.968 856.711 775.728 857.682 775.728H861.57V784H860.338V780.992H858.05C857.954 781.12 857.623 781.557 857.058 782.304C856.492 783.051 856.06 783.616 855.762 784H854.242ZM857.778 779.952H860.338V776.816H857.746C857.138 776.816 856.658 776.955 856.306 777.232C855.964 777.499 855.794 777.872 855.794 778.352C855.794 778.843 855.975 779.232 856.338 779.52C856.711 779.808 857.191 779.952 857.778 779.952ZM864.817 783.344L863.889 782.816L866.049 779.872L863.889 776.928L864.817 776.384L867.409 779.792V779.92L864.817 783.344ZM868.385 783.344L867.441 782.816L869.601 779.872L867.441 776.928L868.385 776.384L870.977 779.792V779.92L868.385 783.344Z" fill="white"/>
<g clip-path="url(#clip2_335_5367)">
<path d="M784.5 760C796.926 760 807 749.926 807 737.5C807 725.074 796.926 715 784.5 715C772.074 715 762 725.074 762 737.5C762 749.926 772.074 760 784.5 760Z" fill="#F32735"/>
<path fill-rule="evenodd" clip-rule="evenodd" d="M795.211 743.485L789.138 728L784 737.053L778.883 728L772.789 743.485H771V745.833H780.194V743.485H778.821L780.152 739.629L784 746L787.848 739.629L789.179 743.485H787.806V745.833H797V743.485H795.211Z" fill="white"/>
</g>
<rect x="495" y="131.358" width="8" height="82.0449" rx="4" fill="#F32735"/>
<rect width="8.00028" height="61.0312" rx="4.00014" transform="matrix(0.967022 -0.254694 0.254272 0.967133 481 82.3314)" fill="#F32735"/>
<path d="M503.584 123V111.8H504.848V118.488L511.28 111.8H512.912L508.112 116.696L513.12 123H511.536L507.232 117.576L504.848 119.992V123H503.584ZM517.34 123.176C516.497 123.176 515.772 122.947 515.164 122.488C514.556 122.029 514.252 121.389 514.252 120.568C514.252 119.704 514.572 119.037 515.212 118.568C515.852 118.099 516.711 117.864 517.788 117.864C518.641 117.864 519.484 117.981 520.316 118.216V117.96C520.316 117.235 520.103 116.68 519.676 116.296C519.249 115.912 518.647 115.72 517.868 115.72C517.057 115.72 516.22 115.917 515.356 116.312L514.988 115.304C516.012 114.835 517.015 114.6 517.996 114.6C519.169 114.6 520.06 114.904 520.668 115.512C521.244 116.088 521.532 116.899 521.532 117.944V123H520.316V121.768C519.58 122.707 518.588 123.176 517.34 123.176ZM517.58 122.184C518.348 122.184 518.999 121.976 519.532 121.56C520.065 121.144 520.332 120.611 520.332 119.96V119.192C519.521 118.957 518.716 118.84 517.916 118.84C517.159 118.84 516.567 118.995 516.14 119.304C515.713 119.603 515.5 120.013 515.5 120.536C515.5 121.037 515.697 121.437 516.092 121.736C516.497 122.035 516.993 122.184 517.58 122.184ZM524.142 123V114.728H525.374V118.296H530.142V114.728H531.374V123H530.142V119.384H525.374V123H524.142ZM536.59 123.176C535.747 123.176 535.022 122.947 534.414 122.488C533.806 122.029 533.502 121.389 533.502 120.568C533.502 119.704 533.822 119.037 534.462 118.568C535.102 118.099 535.961 117.864 537.038 117.864C537.891 117.864 538.734 117.981 539.566 118.216V117.96C539.566 117.235 539.353 116.68 538.926 116.296C538.499 115.912 537.897 115.72 537.118 115.72C536.307 115.72 535.47 115.917 534.606 116.312L534.238 115.304C535.262 114.835 536.265 114.6 537.246 114.6C538.419 114.6 539.31 114.904 539.918 115.512C540.494 116.088 540.782 116.899 540.782 117.944V123H539.566V121.768C538.83 122.707 537.838 123.176 536.59 123.176ZM536.83 122.184C537.598 122.184 538.249 121.976 538.782 121.56C539.315 121.144 539.582 120.611 539.582 119.96V119.192C538.771 118.957 537.966 118.84 537.166 118.84C536.409 118.84 535.817 118.995 535.39 119.304C534.963 119.603 534.75 120.013 534.75 120.536C534.75 121.037 534.947 121.437 535.342 121.736C535.747 122.035 536.243 122.184 536.83 122.184ZM545.392 123V115.816H542.432V114.728H549.6V115.816H546.64V123H545.392ZM551.392 123V114.728H552.624V118.296H557.392V114.728H558.624V123H557.392V119.384H552.624V123H551.392ZM563.84 123.176C562.997 123.176 562.272 122.947 561.664 122.488C561.056 122.029 560.752 121.389 560.752 120.568C560.752 119.704 561.072 119.037 561.712 118.568C562.352 118.099 563.211 117.864 564.288 117.864C565.141 117.864 565.984 117.981 566.816 118.216V117.96C566.816 117.235 566.603 116.68 566.176 116.296C565.749 115.912 565.147 115.72 564.368 115.72C563.557 115.72 562.72 115.917 561.856 116.312L561.488 115.304C562.512 114.835 563.515 114.6 564.496 114.6C565.669 114.6 566.56 114.904 567.168 115.512C567.744 116.088 568.032 116.899 568.032 117.944V123H566.816V121.768C566.08 122.707 565.088 123.176 563.84 123.176ZM564.08 122.184C564.848 122.184 565.499 121.976 566.032 121.56C566.565 121.144 566.832 120.611 566.832 119.96V119.192C566.021 118.957 565.216 118.84 564.416 118.84C563.659 118.84 563.067 118.995 562.64 119.304C562.213 119.603 562 120.013 562 120.536C562 121.037 562.197 121.437 562.592 121.736C562.997 122.035 563.493 122.184 564.08 122.184ZM569.906 123L572.434 119.8C571.783 119.651 571.25 119.357 570.834 118.92C570.428 118.483 570.226 117.944 570.226 117.304C570.226 116.536 570.503 115.917 571.058 115.448C571.612 114.968 572.375 114.728 573.346 114.728H577.234V123H576.002V119.992H573.714C573.618 120.12 573.287 120.557 572.722 121.304C572.156 122.051 571.724 122.616 571.426 123H569.906ZM573.442 118.952H576.002V115.816H573.41C572.802 115.816 572.322 115.955 571.97 116.232C571.628 116.499 571.458 116.872 571.458 117.352C571.458 117.843 571.639 118.232 572.002 118.52C572.375 118.808 572.855 118.952 573.442 118.952ZM583.566 125.064V121.912H584.462C585.198 120.557 585.566 118.643 585.566 116.168V114.728H591.454V121.912H592.702L592.51 125.064H591.486V123H584.798L584.574 125.064H583.566ZM585.774 121.912H590.222V115.816H586.75V116.968C586.75 119.048 586.425 120.696 585.774 121.912ZM601.256 121.928C600.424 122.771 599.394 123.192 598.168 123.192C596.941 123.192 595.917 122.771 595.096 121.928C594.285 121.085 593.88 120.067 593.88 118.872C593.88 117.688 594.29 116.675 595.112 115.832C595.944 114.979 596.973 114.552 598.2 114.552C599.426 114.552 600.45 114.973 601.272 115.816C602.093 116.659 602.504 117.677 602.504 118.872C602.504 120.056 602.088 121.075 601.256 121.928ZM598.2 122.088C599.085 122.088 599.81 121.779 600.376 121.16C600.952 120.541 601.24 119.779 601.24 118.872C601.24 117.976 600.941 117.213 600.344 116.584C599.757 115.955 599.032 115.64 598.168 115.64C597.282 115.64 596.557 115.955 595.992 116.584C595.426 117.203 595.144 117.965 595.144 118.872C595.144 119.768 595.437 120.531 596.024 121.16C596.61 121.779 597.336 122.088 598.2 122.088ZM604.735 125.56V114.728H605.967V116.392C606.799 115.165 607.855 114.552 609.135 114.552C610.191 114.552 611.114 114.947 611.903 115.736C612.693 116.515 613.087 117.56 613.087 118.872C613.087 120.163 612.693 121.203 611.903 121.992C611.114 122.781 610.191 123.176 609.135 123.176C607.834 123.176 606.778 122.589 605.967 121.416V125.56H604.735ZM608.911 122.072C609.743 122.072 610.437 121.784 610.991 121.208C611.546 120.621 611.823 119.837 611.823 118.856C611.823 117.907 611.541 117.139 610.975 116.552C610.41 115.955 609.722 115.656 608.911 115.656C608.111 115.656 607.413 115.96 606.815 116.568C606.218 117.176 605.919 117.944 605.919 118.872C605.919 119.8 606.218 120.568 606.815 121.176C607.413 121.773 608.111 122.072 608.911 122.072ZM622.224 121.928C621.392 122.771 620.363 123.192 619.136 123.192C617.91 123.192 616.886 122.771 616.064 121.928C615.254 121.085 614.848 120.067 614.848 118.872C614.848 117.688 615.259 116.675 616.08 115.832C616.912 114.979 617.942 114.552 619.168 114.552C620.395 114.552 621.419 114.973 622.24 115.816C623.062 116.659 623.472 117.677 623.472 118.872C623.472 120.056 623.056 121.075 622.224 121.928ZM619.168 122.088C620.054 122.088 620.779 121.779 621.344 121.16C621.92 120.541 622.208 119.779 622.208 118.872C622.208 117.976 621.91 117.213 621.312 116.584C620.726 115.955 620 115.64 619.136 115.64C618.251 115.64 617.526 115.955 616.96 116.584C616.395 117.203 616.112 117.965 616.112 118.872C616.112 119.768 616.406 120.531 616.992 121.16C617.579 121.779 618.304 122.088 619.168 122.088ZM625.704 123V114.728H631.32V115.816H626.936V123H625.704ZM635.574 123.176C634.732 123.176 634.006 122.947 633.398 122.488C632.79 122.029 632.486 121.389 632.486 120.568C632.486 119.704 632.806 119.037 633.446 118.568C634.086 118.099 634.945 117.864 636.022 117.864C636.876 117.864 637.718 117.981 638.55 118.216V117.96C638.55 117.235 638.337 116.68 637.91 116.296C637.484 115.912 636.881 115.72 636.102 115.72C635.292 115.72 634.454 115.917 633.59 116.312L633.222 115.304C634.246 114.835 635.249 114.6 636.23 114.6C637.404 114.6 638.294 114.904 638.902 115.512C639.478 116.088 639.766 116.899 639.766 117.944V123H638.55V121.768C637.814 122.707 636.822 123.176 635.574 123.176ZM635.814 122.184C636.582 122.184 637.233 121.976 637.766 121.56C638.3 121.144 638.566 120.611 638.566 119.96V119.192C637.756 118.957 636.95 118.84 636.15 118.84C635.393 118.84 634.801 118.995 634.374 119.304C633.948 119.603 633.734 120.013 633.734 120.536C633.734 121.037 633.932 121.437 634.326 121.736C634.732 122.035 635.228 122.184 635.814 122.184Z" fill="white"/>
<rect x="405" y="385" width="46" height="16" rx="5" fill="#AF1917"/>
<rect x="398" y="385" width="14" height="32" rx="5" fill="#AF1917"/>
<path d="M370.088 452H339.913C336.647 452 334 454.276 334 457.083V483.03C334 485.838 336.647 488.115 339.913 488.115H370.088C373.353 488.115 376 485.838 376 483.03V457.083C376 454.276 373.353 452 370.088 452Z" fill="#AF1917"/>
<rect x="282" y="421" width="111" height="9.02864" rx="4.51432" fill="#AF1917"/>
<defs>
<clipPath id="clip0_335_5367">
<rect width="45" height="45" fill="white" transform="translate(182 401)"/>
</clipPath>
<clipPath id="clip1_335_5367">
<rect width="45" height="45" fill="white" transform="translate(587 714)"/>
</clipPath>
<clipPath id="clip2_335_5367">
<rect width="45" height="45" fill="white" transform="translate(762 715)"/>
</clipPath>
</defs>
</svg>
