<svg width="1232" height="787" viewBox="0 0 1232 787" fill="none" xmlns="http://www.w3.org/2000/svg">
<path d="M560 55C560 55 574.465 55 601 67" stroke="#2D74CA" stroke-width="3" stroke-miterlimit="10"/>
<path d="M512 23L517.926 96L552.576 94.3093L558 23.8951L512 23Z" fill="#2D74CA"/>
<path d="M614 707.7V624.9L993.4 622L1177 689.8L1175.1 715L972.9 676.9L816.2 674.5L614 707.7Z" fill="#2D74CA"/>
<path d="M791 363H282V430H791V363Z" fill="#2D74CA"/>
<path d="M549 195H525V397H549V195Z" fill="#2D74CA"/>
<path d="M543.331 296H530.669C524.786 296 520 291.2 520 285.2V216.8C520 210.8 524.786 206 530.669 206H543.331C549.214 206 554 210.8 554 216.8V285.2C554 291.2 549.214 296 543.331 296Z" fill="#2D74CA"/>
<path d="M554 321H523C479.9 321 445 355.9 445 399C445 442.1 479.9 477 523 477H554C597.1 477 632 442.1 632 399C632 355.9 597 321 554 321Z" fill="#2D74CA"/>
<path d="M537 710C512.1 710 492 689.9 492 665.1V458H582V665.1C582 689.9 561.8 710 537 710Z" fill="#2D74CA"/>
<path d="M1002 458H921V622H1002V458Z" fill="#2D74CA"/>
<path d="M911 586H835V611H911V586Z" fill="#2D74CA"/>
<path d="M1056 630C1042.2 630 1031 618.9 1031 605.1V554.9C1031 541.2 1042.2 530 1056 530C1069.8 530 1081 541.1 1081 554.9V605.1C1081 618.9 1069.8 630 1056 630Z" fill="#2D74CA"/>
<path d="M1090 548H1077V614H1090V548Z" fill="#2D74CA"/>
<path d="M1120 537H1090V615H1120V537Z" fill="#2D74CA"/>
<path d="M1117 622H1083V640H1117V622Z" fill="#2D74CA"/>
<path d="M1095 486H1071V522H1095V486Z" fill="#2D74CA"/>
<path d="M1067 486H1044V522H1067V486Z" fill="#2D74CA"/>
<path d="M919 434H890V458H919V434Z" fill="#2D74CA"/>
<path d="M818 272H707V329H818V272Z" fill="#2D74CA"/>
<path d="M818 327H724V344H818V327Z" fill="#2D74CA"/>
<path d="M758 340H728V364H758V340Z" fill="#2D74CA"/>
<path d="M435 546H282V595H435V546Z" fill="#2D74CA"/>
<path d="M324 593H311V603H324V593Z" fill="#2D74CA"/>
<path d="M470 589H459V600H470V589Z" fill="#2D74CA"/>
<path d="M356.774 528H310.225C296.811 528 286 517.3 286 504C286 490.7 296.911 480 310.225 480H356.774C370.188 480 380.999 490.7 380.999 504C381.099 517.3 370.188 528 356.774 528Z" fill="#2D74CA"/>
<path d="M359 523H303V547H359V523Z" fill="#2D74CA"/>
<path d="M660 555H598V620H660V555Z" fill="#2D74CA"/>
<path d="M660 537H629V561H660V537Z" fill="#2D74CA"/>
<path d="M767 547H660V590H767V547Z" fill="#2D74CA"/>
<path d="M766 526H713V552H766V526Z" fill="#2D74CA"/>
<path d="M765.8 529H719.2C705.3 529 694 517.8 694 504C694 490.2 705.3 479 719.2 479H765.8C779.7 479 791 490.2 791 504C791 517.8 779.7 529 765.8 529Z" fill="#2D74CA"/>
<path d="M285 392H235V406H285V392Z" fill="#2D74CA"/>
<path d="M226 621L216.1 559H194.9L157.2 526.1L191.6 443.9L145.4 427L106.8 515.8C106.8 515.8 92.2 522.4 89.4 535.3C86.6 548.2 93.2 568.4 93.2 568.4L73.9 567L60 618.8L226 621Z" fill="#2D74CA"/>
<path d="M418.8 209L396 214.3L402.2 240L425 234.7L418.8 209Z" fill="#2D74CA"/>
<path d="M241.7 292L224 306.9L241.3 327L259 312.1L241.7 292Z" fill="#2D74CA"/>
<path d="M650.6 197L648 223.7L671.4 226L674 199.3L650.6 197Z" fill="#2D74CA"/>
<path d="M655.9 296L631 318.7L644.1 333L669 310.3L655.9 296Z" fill="#2D74CA"/>
<path d="M619.3 331L604 344.7L613.7 355L629 341.3L619.3 331Z" fill="#2D74CA"/>
<path d="M420.2 296L407 310.4L432.8 334L446 319.6L420.2 296Z" fill="#2D74CA"/>
<path d="M458.5 333L449 343.5L462.5 356L472 345.5L458.5 333Z" fill="#2D74CA"/>
<path d="M680.3 311L655 334.5L673.7 355L699 331.5L680.3 311Z" fill="#2D74CA"/>
<path d="M616.6 239L597 272.8L644.3 300L664 266.2L616.6 239Z" fill="#2D74CA"/>
<path d="M910.2 267L897 290.3L916.8 302L930 278.7L910.2 267Z" fill="#2D74CA"/>
<path d="M1117 482L1098 493L1109 512L1128 501L1117 482Z" fill="#2D74CA"/>
<path d="M474.3 200L436 206.3L438.7 223L477 216.7L474.3 200Z" fill="#2D74CA"/>
<path d="M708.5 202L705 218.8L743.5 227L747 210.2L708.5 202Z" fill="#2D74CA"/>
<path d="M781 443H751V469H781V443Z" fill="#2D74CA"/>
<path d="M732 443H702V469H732V443Z" fill="#2D74CA"/>
<path d="M872.6 425L845 452.6L864.4 472L892 444.4L872.6 425Z" fill="#2D74CA"/>
<path d="M915 469H873V556H915V469Z" fill="#2D74CA"/>
<path d="M448.2 495L435 517.9L469.8 538L483 515.1L448.2 495Z" fill="#2D74CA"/>
<path d="M406.3 440L384 454.3L405.7 488L428 473.7L406.3 440Z" fill="#2D74CA"/>
<path d="M669.7 440L648 473.7L670.3 488L692 454.3L669.7 440Z" fill="#2D74CA"/>
<path d="M437 469L415 491L428 504L450 482L437 469Z" fill="#2D74CA"/>
<path d="M472.9 438L451 459.9L459.1 468L481 446.1L472.9 438Z" fill="#2D74CA"/>
<path d="M635 471L622 484L644 506L657 493L635 471Z" fill="#2D74CA"/>
<path d="M599.1 439L591 447.1L612.9 469L621 460.9L599.1 439Z" fill="#2D74CA"/>
<path d="M592 315.9L578.5 310.6L562 308H513.3L495.7 311.4L483 315.8V358H592V315.9Z" fill="#2D74CA"/>
<path d="M503 198H490V278H503V198Z" fill="#2D74CA"/>
<path d="M583 227H570V277H583V227Z" fill="#2D74CA"/>
<path d="M583 208H570V224H583V208Z" fill="#2D74CA"/>
<path d="M502 291.5C502 288.5 499.5 286 496.5 286C493.5 286 491 288.5 491 291.5C491 294.5 493.5 297 496.5 297C499.5 297 502 294.5 502 291.5Z" fill="#2D74CA"/>
<path d="M582 291.5C582 288.5 579.5 286 576.5 286C573.5 286 571 288.5 571 291.5C571 294.5 573.5 297 576.5 297C579.5 297 582 294.5 582 291.5Z" fill="#2D74CA"/>
<path d="M750.362 211C748.859 216.516 752.165 222.233 757.876 223.637C763.586 225.141 769.497 221.832 771 216.315" fill="#2D74CA"/>
<path d="M338 237.69C339.904 243.281 346.015 246.276 351.626 244.479C357.237 242.582 360.343 236.591 358.439 231" fill="#2D74CA"/>
<path d="M370 443H342V469H370V443Z" fill="#2D74CA"/>
<path d="M796.2 416H787V383H796.2C805.5 383 813 390.4 813 399.5C813 408.6 805.5 416 796.2 416Z" fill="#2D74CA"/>
<path d="M850 392H808V406H845.3L850 392Z" fill="#2D74CA"/>
<path d="M1068 396H845V402H1068V396Z" fill="#2D74CA"/>
<path d="M970 301H963V463H970V301Z" fill="#2D74CA"/>
<path d="M948 378C948 375.8 946.2 374 944 374C941.8 374 940 375.8 940 378C940 380.2 941.8 382 944 382C946.2 382 948 380.2 948 378Z" fill="#2D74CA"/>
<path d="M991 377C991 374.8 989.2 373 987 373C984.8 373 983 374.8 983 377C983 379.2 984.8 381 987 381C989.2 381 991 379.2 991 377Z" fill="#2D74CA"/>
<path d="M949 420C949 417.8 947.2 416 945 416C942.8 416 941 417.8 941 420C941 422.2 942.8 424 945 424C947.2 424 949 422.2 949 420Z" fill="#2D74CA"/>
<path d="M991 421C991 418.8 989.2 417 987 417C984.8 417 983 418.8 983 421C983 423.2 984.8 425 987 425C989.2 425 991 423.2 991 421Z" fill="#2D74CA"/>
<path d="M966 360C962.1 360 959 363.2 959 367.1V371H973V367.1C973 363.2 969.8 360 966 360Z" fill="#2D74CA"/>
<path d="M1029 494H998V522H1029V494Z" fill="#2D74CA"/>
<path d="M1039 576H1024V586H1039V576Z" fill="#2D74CA"/>
<path d="M244.659 610.304L264.469 541.227C267.771 529.631 265.67 517.136 258.766 507.239L238.456 478.449C231.853 469.052 230.653 456.756 235.355 446.26L241.858 428.266V372.285L199.137 330L157.217 379.383L123 433.464L166.421 415.871C169.523 414.571 172.824 414.071 176.226 414.171L195.836 415.171C200.038 415.371 203.539 418.57 204.14 422.768L233.454 621H246.26L244.659 610.304Z" fill="#2D74CA"/>
<path d="M866.8 247L777 622.3L784.2 624L874 248.7L866.8 247Z" fill="#2D74CA"/>
<path d="M881.6 248L792 623.4L794.4 624L884 248.6L881.6 248Z" fill="#2D74CA"/>
<path d="M855.6 248L766 623.4L768.4 624L858 248.6L855.6 248Z" fill="#2D74CA"/>
<path d="M787.042 629L793.76 601.032C794.863 596.622 792.055 592.211 787.644 591.209C783.232 590.206 778.72 592.913 777.718 597.223L771 625.191L787.042 629Z" fill="#2D74CA"/>
<path d="M820 570H811V609H820V570Z" fill="#2D74CA"/>
<path d="M828 595H816V610H828V595Z" fill="#2D74CA"/>
<path d="M461 737.7L458.7 625H239L259.4 759L373 749L461 737.7Z" fill="#2D74CA"/>
<path d="M349.7 236L348 237.7L430.3 321L432 319.3L349.7 236Z" fill="#2D74CA"/>
<path d="M514 195H512V312H514V195Z" fill="#2D74CA"/>
<path d="M563 193H561V322H563V193Z" fill="#2D74CA"/>
<path d="M593 193H591V333H593V193Z" fill="#2D74CA"/>
<path d="M484 198H482V339H484V198Z" fill="#2D74CA"/>
<path d="M576 290H497V292H576V290Z" fill="#2D74CA"/>
<path d="M578 265H500V267H578V265Z" fill="#2D74CA"/>
<path d="M575 240H498V242H575V240Z" fill="#2D74CA"/>
<path d="M578 215H498V217H578V215Z" fill="#2D74CA"/>
<path d="M556.6 491H520.4C469.4 491 428 449.5 428 398.5C428 347.5 469.5 306 520.4 306H556.6C607.6 306 649 347.5 649 398.5C649 449.5 607.5 491 556.6 491ZM520.4 308.5C470.8 308.5 430.4 348.9 430.4 398.5C430.4 448.1 470.8 488.5 520.4 488.5H556.6C606.2 488.5 646.6 448.1 646.6 398.5C646.6 348.9 606.2 308.5 556.6 308.5H520.4Z" fill="#2D74CA"/>
<path d="M560.158 507H517.942C458.419 507 410 458.577 410 399.049C410 353.127 439.111 312.208 482.328 297.101L483.228 299.802C441.112 314.509 412.801 354.428 412.801 399.049C412.801 456.976 459.919 504.199 517.842 504.199H560.058C617.981 504.199 665.099 457.076 665.099 399.049C665.099 352.727 635.487 312.408 591.27 298.701L592.171 296C637.488 310.107 668 351.526 668 399.149C668.1 458.577 619.681 507 560.158 507Z" fill="#2D74CA"/>
<path d="M593 106.164L592.5 109C581.2 104.99 569.1 102.741 556.4 102.741H514.2C501.7 102.741 489.7 104.893 478.6 108.804L478 106.066C489.3 102.155 501.5 100.003 514.2 100.003H556.3C569.2 99.9053 581.5 102.154 593 106.164Z" fill="#2D74CA"/>
<path d="M593 100.164L592.5 103C581.2 98.9905 569.1 96.7413 556.4 96.7413H514.2C501.7 96.7413 489.7 98.8927 478.6 102.804L478 100.066C489.3 96.1545 501.5 94.0031 514.2 94.0031H556.3C569.2 93.9053 581.5 96.1545 593 100.164Z" fill="#2D74CA"/>
<path d="M757.1 217L655 306.8L656.9 309L759 219.2L757.1 217Z" fill="#2D74CA"/>
<path d="M762 218H759V278H762V218Z" fill="#2D74CA"/>
<path d="M667.1 297L665 298.9L688.9 325L691 323.1L667.1 297Z" fill="#2D74CA"/>
<path d="M635.1 318L617 334.9L618.9 337L637 320.1L635.1 318Z" fill="#2D74CA"/>
<path d="M641.1 324L623 340.9L624.9 343L643 326.1L641.1 324Z" fill="#2D74CA"/>
<path d="M443.7 323L442 324.8L456.3 338L458 336.2L443.7 323Z" fill="#2D74CA"/>
<path d="M438.6 328L437 329.9L450.4 343L452 341.1L438.6 328Z" fill="#2D74CA"/>
<path d="M578 220H576V290H578V220Z" fill="#2D74CA"/>
<path d="M497 271H495V290H497V271Z" fill="#2D74CA"/>
<path d="M409.8 482L408 483.7L439.2 517L441 515.3L409.8 482Z" fill="#2D74CA"/>
<path d="M453.3 460L438 474.2L439.7 476L455 461.8L453.3 460Z" fill="#2D74CA"/>
<path d="M445.7 480L444 478.2L459.3 463L461 464.8L445.7 480Z" fill="#2D74CA"/>
<path d="M616.8 467L615 468.7L636.2 491L638 489.3L616.8 467Z" fill="#2D74CA"/>
<path d="M619.7 463L618 464.7L637.3 484L639 482.3L619.7 463Z" fill="#2D74CA"/>
<path d="M634.7 515L633 513.2L666.3 481L668 482.8L634.7 515Z" fill="#2D74CA"/>
<path d="M702.3 550L650 498.8L651.7 497L704 548.2L702.3 550Z" fill="#2D74CA"/>
<path d="M420.7 488L367 522.9L368.3 525L422 490.1L420.7 488Z" fill="#2D74CA"/>
<path d="M439 487L398 548.6L400 550L441 488.4L439 487Z" fill="#2D74CA"/>
<path d="M499 546H424V548H499V546Z" fill="#2D74CA"/>
<path d="M500 593H430V595H500V593Z" fill="#2D74CA"/>
<path d="M609 579L576 592.8L577 595L610 581.2L609 579Z" fill="#2D74CA"/>
<path d="M961 579H803V581H961V579Z" fill="#2D74CA"/>
<path d="M932 570H805V572H932V570Z" fill="#2D74CA"/>
<path d="M1050 575H998V577H1050V575Z" fill="#2D74CA"/>
<path d="M1044 584H1000V586H1044V584Z" fill="#2D74CA"/>
<path d="M1048.3 538L1024 513.7L1025.7 512L1050 536.3L1048.3 538Z" fill="#2D74CA"/>
<path d="M1080.5 515L1078 515.5L1085.5 552L1088 551.5L1080.5 515Z" fill="#2D74CA"/>
<path d="M1145 544H1115V546H1145V544Z" fill="#2D74CA"/>
<path d="M1161.4 606L1110 662.7L1113.6 666L1165 609.3L1161.4 606Z" fill="#2D74CA"/>
<path d="M1000.4 465H998V433.351L998.699 433.05L1065.9 401L1067 403.203L1000.5 434.953V465H1000.4Z" fill="#2D74CA"/>
<path d="M892 443H889.5V427.5H840V425H892V443Z" fill="#2D74CA"/>
<path d="M885 451H883V479H885V451Z" fill="#2D74CA"/>
<path d="M926 463H916V451H918.5V460.6H926V463Z" fill="#2D74CA"/>
<path d="M854 362H758V364H854V362Z" fill="#2D74CA"/>
<path d="M818.5 325L818 327.3L836.5 331L837 328.7L818.5 325Z" fill="#2D74CA"/>
<path d="M833.5 347L833 349.6L857.5 355L858 352.4L833.5 347Z" fill="#2D74CA"/>
<path d="M813.5 435L813 437.5L837.5 443L838 440.4L813.5 435Z" fill="#2D74CA"/>
<path d="M798.5 496L798 498.5L822.5 504L823 501.4L798.5 496Z" fill="#2D74CA"/>
<path d="M781.5 560L781 562.5L805.5 568L806 565.4L781.5 560Z" fill="#2D74CA"/>
<path d="M774.5 593L774 595.6L798.5 601L799 598.5L774.5 593Z" fill="#2D74CA"/>
<path d="M772.5 599L772 601.5L796.5 607L797 604.4L772.5 599Z" fill="#2D74CA"/>
<path d="M844.5 297L844 299.6L868.5 305L869 302.4L844.5 297Z" fill="#2D74CA"/>
<path d="M890 554H888V594H890V554Z" fill="#2D74CA"/>
<path d="M870 571H868V579H870V571Z" fill="#2D74CA"/>
<path d="M741 428H739V495H741V428Z" fill="#2D74CA"/>
<path d="M769 455H728V457H769V455Z" fill="#2D74CA"/>
<path d="M814 427H787V429H814V427Z" fill="#2D74CA"/>
<path d="M334 424H332V519H334V424Z" fill="#2D74CA"/>
<path d="M354 453H322V455H354V453Z" fill="#2D74CA"/>
<path d="M284 411H242V413H284V411Z" fill="#2D74CA"/>
<path d="M288 384H240V386H288V384Z" fill="#2D74CA"/>
<path d="M309 428H238V430H309V428Z" fill="#2D74CA"/>
<path d="M239.7 428L238 429.8L298.3 488L300 486.2L239.7 428Z" fill="#2D74CA"/>
<path d="M265.4 429L257 514.8L259.6 515L268 429.2L265.4 429Z" fill="#2D74CA"/>
<path d="M253 614.5C253 610.4 249.6 607 245.5 607C241.4 607 238 610.4 238 614.5C238 618.6 241.4 622 245.5 622C249.6 622 253 618.6 253 614.5Z" fill="#2D74CA"/>
<path d="M286 591L247 608.8L248 611L287 593.2L286 591Z" fill="#2D74CA"/>
<path d="M303 546H261V548H303V546Z" fill="#2D74CA"/>
<path d="M291 369H253.6C249.8 369 246.2 367.4 243.6 364.7L205 324.7L206.8 323L245.4 363C247.5 365.2 250.5 366.5 253.6 366.5H291V369Z" fill="#2D74CA"/>
<path d="M246 753L226.5 621L66.8 624.4L57 737.9L147.8 749.2L246 753Z" fill="#2D74CA"/>
<path d="M495 663H459V665H495V663Z" fill="#2D74CA"/>
<path d="M613 663H577V665H613V663Z" fill="#2D74CA"/>
<path d="M96.7 550L75 552.6L75.3 555L97 552.4L96.7 550Z" fill="#2D74CA"/>
<path d="M93 501L92 503.3L117 515L118 512.7L93 501Z" fill="#2D74CA"/>
<path d="M96.9 490L96 492.3L120.1 501L121 498.7L96.9 490Z" fill="#2D74CA"/>
<path d="M196.4 412L194 412.3L216.6 580L219 579.7L196.4 412Z" fill="#2D74CA"/>
<path d="M224.5 556L216 557.6L216.5 560L225 558.4L224.5 556Z" fill="#2D74CA"/>
<path d="M217.5 506L208 507.6L208.5 510L218 508.4L217.5 506Z" fill="#2D74CA"/>
<path d="M966.5 430C949.1 430 935 415.9 935 398.5C935 381.1 949.1 367 966.5 367C983.9 367 998 381.1 998 398.5C998 415.9 983.8 430 966.5 430ZM966.5 369.5C950.5 369.5 937.5 382.5 937.5 398.5C937.5 414.5 950.5 427.5 966.5 427.5C982.5 427.5 995.5 414.5 995.5 398.5C995.5 382.5 982.5 369.5 966.5 369.5Z" fill="#2D74CA"/>
<path d="M974.171 417H958.829L948 406.2V390.8L958.829 380H974.171L985 390.8V406.1L974.171 417ZM959.832 414.5H973.168L982.594 405.1V391.8L973.168 382.4H959.832L950.406 391.8V405.1L959.832 414.5Z" fill="#2D74CA"/>
<path d="M985.3 377L977 385.3L978.7 387L987 378.7L985.3 377Z" fill="#2D74CA"/>
<path d="M945.7 378L944 379.7L952.3 388L954 386.3L945.7 378Z" fill="#2D74CA"/>
<path d="M952.2 409L944 417.2L945.8 419L954 410.8L952.2 409Z" fill="#2D74CA"/>
<path d="M978.8 411L977 412.8L985.2 421L987 419.2L978.8 411Z" fill="#2D74CA"/>
<path d="M1190 718.055H1189.9V728.166C1163.7 720.157 1021.4 679.213 858.7 679.213C774.5 679.213 693.4 696.732 607.6 715.252C505.6 737.276 400.1 760 270.2 760C93.4 760 40.2 741.18 38 740.379L40.1 734.673L42.2 728.867C42.4 728.967 44.2 729.567 48 730.568C49.4 730.969 51 731.369 52.9 731.77C75.8 737.075 138.5 747.787 270.1 747.787C398.7 747.787 503.5 725.163 604.9 703.239C607.9 702.538 610.9 701.938 613.9 701.337C697.1 683.418 776.1 667 858.6 667C999.3 667 1125 697.333 1175 711.147C1175.1 711.147 1175.2 711.248 1175.3 711.248C1176.9 711.648 1178.4 712.149 1179.9 712.549C1181.3 712.949 1182.7 713.35 1183.9 713.65C1186 714.251 1188 714.851 1189.6 715.352C1189.7 715.352 1189.7 715.352 1189.8 715.352V716.754L1190 718.055Z" fill="#9AC8FF"/>
<path d="M198.115 313L186 314.9L253.885 760L266 758.1L198.115 313Z" fill="#9AC8FF"/>
<path d="M1173.4 696L1013.3 637.8C1001.5 633.5 989.1 631.3 976.6 631.3H59V619H976.6C990.6 619 1004.4 621.4 1017.5 626.2L1177 684.2L1173.4 696Z" fill="#9AC8FF"/>
<path d="M1190 718H1184V704H1188.6L1189.7 715.3L1189.8 716.7L1190 718Z" fill="#9AC8FF"/>
<path d="M38.3 741L38 719H43V735.2L38.3 741Z" fill="#9AC8FF"/>
<path d="M48.0719 734C48.0719 733.4 46.0717 672.7 63.1736 593.2C78.7754 519.8 114.479 414.8 194.788 331.5C285.399 237.6 413.013 190 574.031 190C699.746 190 808.958 212.6 898.568 257.1C973.077 294.1 1034.58 346.5 1081.49 412.8C1177.3 548.3 1180 697.7 1180 714.3H1175.1C1175.1 697.9 1172.4 550 1077.49 415.7C1031.08 350.1 970.176 298.2 896.368 261.5C807.458 217.3 698.946 194.9 574.031 194.9C414.313 194.9 287.899 242 198.289 334.9C118.78 417.3 83.4759 521.3 67.8741 594.1C50.9722 673 52.8724 733.2 52.8724 733.8L48.0719 734Z" fill="#9AC8FF"/>
<path d="M38.0726 723C38.0726 722.4 36.0727 662.7 53.0716 584.3C68.7706 511.9 104.168 408.2 184.163 325.2C276.458 229.5 407.249 181 572.939 181C700.731 181 811.724 203.5 902.818 247.9C978.613 284.8 1041.11 337 1088.81 403.1C1125.8 454.4 1153.4 513.2 1170.7 577.8C1187.2 639.4 1189 686.2 1189 703.5H1184.1C1184.1 687.1 1181.3 539.8 1084.91 406C1037.71 340.6 975.813 288.9 900.818 252.4C810.424 208.3 700.131 186 573.039 186C408.749 186 279.157 234 187.863 328.7C144.166 374 86.1695 455.3 58.0713 585.3C41.2724 663.1 43.1722 722.3 43.1722 722.9L38.0726 723Z" fill="#9AC8FF"/>
<path d="M789 538H765V540H789V538Z" fill="#2D74CA"/>
<path d="M557.5 336H514.5C481.1 336 454 363.1 454 396.5C454 429.9 481.1 457 514.5 457H557.5C590.9 457 618 429.9 618 396.5C618 363.1 590.9 336 557.5 336Z" fill="#134178"/>
<path d="M786 366H682V424H786V366Z" fill="#134178"/>
<path d="M390 366H286V424H390V366Z" fill="#134178"/>
<path d="M926 334H868V382H926V334Z" fill="#134178"/>
<path d="M909 474H879V551H909V474Z" fill="#134178"/>
<path d="M995 465H928V552H995V465Z" fill="#134178"/>
<path d="M764 530H717V544H764V530Z" fill="#134178"/>
<path d="M354 530H307V544H354V530Z" fill="#134178"/>
<path d="M652 558H603V595H652V558Z" fill="#134178"/>
<path d="M136.4 580H119.6C108.8 580 100 571.2 100 560.4V543.6C100 532.8 108.8 524 119.6 524H136.4C147.2 524 156 532.8 156 543.6V560.4C156 571.2 147.2 580 136.4 580Z" fill="#134178"/>
<path d="M513 603H504V615H513V603Z" fill="#134178"/>
<path d="M572 603H563V615H572V603Z" fill="#134178"/>
<path d="M538.5 698C520 698 505 683.2 505 664.9V630H511.7V664.9C511.7 679.5 523.7 691.3 538.5 691.3C553.3 691.3 565.3 679.4 565.3 664.9V630H572V664.9C572 683.2 556.9 698 538.5 698Z" fill="#134178"/>
<path d="M517 631V666.9C517 678.6 526.4 688 538 688C549.6 688 559 678.5 559 666.9V631" fill="#134178"/>
<path d="M486 633H474V662H486V633Z" fill="#134178"/>
<path d="M640 644H621V683H640V644Z" fill="#134178"/>
<path d="M453 646H393V669H453V646Z" fill="#134178"/>
<path d="M484.8 613H478C478 605.8 483.8 600 491 600V606.8C487.6 606.8 484.8 609.6 484.8 613Z" fill="#134178"/>
<path d="M596 613H589.2C589.2 609.6 586.4 606.8 583 606.8V600C590.1 600 596 605.8 596 613Z" fill="#134178"/>
<path d="M483.6 671L474 672.9L478.4 695L488 693.1L483.6 671Z" fill="#134178"/>
<path d="M597 671L593 693.3L603 695L607 672.7L597 671Z" fill="#134178"/>
<path d="M828 598H817V606H828V598Z" fill="#134178"/>
<path d="M503 245H491V274H503V245Z" fill="#134178"/>
<path d="M503 203H491V232H503V203Z" fill="#134178"/>
<path d="M585 245H573V274H585V245Z" fill="#134178"/>
<path d="M215 592H195V606H215V592Z" fill="#134178"/>
<path d="M110 608H90V618H110V608Z" fill="#134178"/>
<path d="M509 494H503V511H509V494Z" fill="#134178"/>
<path d="M509 514H503V531H509V514Z" fill="#134178"/>
<path d="M509 534H503V551H509V534Z" fill="#134178"/>
<path d="M509 553H503V570H509V553Z" fill="#134178"/>
<path d="M509 573H503V590H509V573Z" fill="#134178"/>
<path d="M516.5 589.2C516.5 586.2 518.9 583.7 522 583.7V578.5C519 578.5 516.5 576 516.5 573H511V590H516.6C516.6 589.7 516.5 589.4 516.5 589.2Z" fill="#134178"/>
<path d="M516.5 569.2C516.5 566.2 518.9 563.7 522 563.7V558.5C519 558.5 516.5 556 516.5 553H511V570H516.6C516.6 569.7 516.5 569.4 516.5 569.2Z" fill="#134178"/>
<path d="M516.5 550.2C516.5 547.2 518.9 544.7 522 544.7V539.5C519 539.5 516.5 537 516.5 534H511V551H516.6C516.6 550.7 516.5 550.4 516.5 550.2Z" fill="#134178"/>
<path d="M516.5 530.2C516.5 527.2 518.9 524.7 522 524.7V519.5C519 519.5 516.5 517 516.5 514H511V531H516.6C516.6 530.7 516.5 530.4 516.5 530.2Z" fill="#134178"/>
<path d="M516.5 510.2C516.5 507.2 518.9 504.7 522 504.7V499.5C519 499.5 516.5 497 516.5 494H511V511H516.6C516.6 510.7 516.5 510.4 516.5 510.2Z" fill="#134178"/>
<path d="M573 494H567V511H573V494Z" fill="#134178"/>
<path d="M573 514H567V531H573V514Z" fill="#134178"/>
<path d="M573 534H567V551H573V534Z" fill="#134178"/>
<path d="M573 553H567V570H573V553Z" fill="#134178"/>
<path d="M573 573H567V590H573V573Z" fill="#134178"/>
<path d="M558.5 589.2C558.5 586.2 556.1 583.7 553 583.7V578.5C556 578.5 558.5 576 558.5 573H564V590H558.4C558.5 589.7 558.5 589.4 558.5 589.2Z" fill="#134178"/>
<path d="M558.5 569.2C558.5 566.2 556.1 563.7 553 563.7V558.5C556 558.5 558.5 556 558.5 553H564V570H558.4C558.5 569.7 558.5 569.4 558.5 569.2Z" fill="#134178"/>
<path d="M558.5 550.2C558.5 547.2 556.1 544.7 553 544.7V539.5C556 539.5 558.5 537 558.5 534H564V551H558.4C558.5 550.7 558.5 550.4 558.5 550.2Z" fill="#134178"/>
<path d="M558.5 530.2C558.5 527.2 556.1 524.7 553 524.7V519.5C556 519.5 558.5 517 558.5 514H564V531H558.4C558.5 530.7 558.5 530.4 558.5 530.2Z" fill="#134178"/>
<path d="M558.5 510.2C558.5 507.2 556.1 504.7 553 504.7V499.5C556 499.5 558.5 497 558.5 494H564V511H558.4C558.5 510.7 558.5 510.4 558.5 510.2Z" fill="#134178"/>
<path d="M242.9 298L230 309L240.1 321L253 310L242.9 298Z" fill="#134178"/>
<path d="M417.4 216L401 219.9L404.6 235L421 231.1L417.4 216Z" fill="#134178"/>
<path d="M472.4 204L441 209.2L442.6 219L474 213.8L472.4 204Z" fill="#134178"/>
<path d="M652.6 205L651 220.4L668.4 222L670 206.6L652.6 205Z" fill="#134178"/>
<path d="M908 277L900 290.5L915 299L923 285.5L908 277Z" fill="#134178"/>
<path d="M1114.5 486L1101 494L1109.5 509L1123 501L1114.5 486Z" fill="#134178"/>
<path d="M711 207L709 216.5L740 223L742 213.5L711 207Z" fill="#134178"/>
<path d="M537.5 681C529.5 681 523 674.5 523 666.5C523 658.5 529.5 652 537.5 652C545.5 652 552 658.5 552 666.5C552 674.5 545.5 681 537.5 681ZM537.5 654.4C530.8 654.4 525.4 659.8 525.4 666.5C525.4 673.2 530.8 678.6 537.5 678.6C544.2 678.6 549.6 673.2 549.6 666.5C549.6 659.9 544.1 654.4 537.5 654.4Z" fill="#2D74CA"/>
<path d="M525 631H523V667H525V631Z" fill="#2D74CA"/>
<path d="M552 631H550V667H552V631Z" fill="#2D74CA"/>
<path d="M525 666H515V668H525V666Z" fill="#2D74CA"/>
<path d="M561 665H551V667H561V665Z" fill="#2D74CA"/>
<path d="M1231.47 735.299C1220.58 733.799 1202.08 731.799 1202.08 731.799C1197.58 647.585 1181.88 570.672 1155.49 503.361C1131.09 441.05 1097.2 386.241 1054.91 340.434C978.121 257.32 872.94 203.611 750.863 185.008C654.08 170.305 538.801 159.204 416.524 188.408C327.14 209.812 251.254 251.819 191.065 313.329C142.674 362.737 104.181 424.748 76.486 497.76C28.7947 623.181 29.8945 738.8 29.8945 740C29.8945 740 9.89819 735.199 0 731.699C0.59989 701.694 5.79894 599.977 47.9912 488.058C77.0859 410.945 117.878 345.234 169.169 292.726C233.457 226.915 314.342 182.007 409.525 159.204C536.802 128.699 655.78 140.1 755.362 155.303C884.238 174.906 995.518 231.916 1076.9 320.03C1121.79 368.638 1157.69 426.648 1183.38 492.459C1210.88 562.771 1227.28 642.684 1231.97 730.198C1232.07 731.899 1231.87 733.699 1231.47 735.299Z" fill="#9AC8FF"/>
<path d="M508 24L514 96" stroke="#2D74CA" stroke-width="3" stroke-miterlimit="10"/>
<path d="M562 23L555 95" stroke="#2D74CA" stroke-width="3" stroke-miterlimit="10"/>
<path d="M531 101L531.4 132" stroke="#2D74CA" stroke-width="3" stroke-miterlimit="10"/>
<path d="M540 101L540.4 132" stroke="#2D74CA" stroke-width="3" stroke-miterlimit="10"/>
<path d="M408 43C408 43 477.567 0.459925 620 28.6516" stroke="#9AC8FF" stroke-width="8" stroke-miterlimit="10"/>
<path d="M402 28C402 28 478.47 -15.4741 622 14.6004" stroke="#9AC8FF" stroke-width="8" stroke-miterlimit="10"/>
<path d="M607 23L591.639 106.681L591.14 109.591L586.751 133.371C586.751 133.371 546.652 132.468 533.285 133.471C503.66 135.578 447.8 142 447.8 142L408 41.161" stroke="#9AC8FF" stroke-width="4" stroke-miterlimit="10"/>
<path d="M1190.2 718H1190V717L1190.2 718Z" fill="#9AC8FF"/>
<path d="M430.788 50.7156L427 52L452.351 126.822L456.139 125.538L430.788 50.7156Z" fill="#9AC8FF"/>
<path d="M442.788 41.7156L439 43L464.351 117.822L468.139 116.538L442.788 41.7156Z" fill="#9AC8FF"/>
<path d="M459.788 48.7156L456 50L481.351 124.822L485.139 123.538L459.788 48.7156Z" fill="#9AC8FF"/>
<path d="M120.294 469.172V460.072H121.334L124.649 465.038L127.964 460.072H129.004V469.172H127.977V461.801L124.662 466.676H124.61L121.295 461.814V469.172H120.294ZM134.349 469.328C133.404 469.328 132.607 469.003 131.957 468.353C131.316 467.694 130.995 466.849 130.995 465.818C130.995 464.839 131.303 464.011 131.918 463.335C132.533 462.65 133.3 462.308 134.219 462.308C135.181 462.308 135.944 462.646 136.507 463.322C137.07 463.998 137.352 464.847 137.352 465.87C137.352 466 137.348 466.117 137.339 466.221H132.009C132.078 466.906 132.334 467.452 132.776 467.859C133.227 468.258 133.76 468.457 134.375 468.457C135.181 468.457 135.887 468.141 136.494 467.508L137.118 468.067C136.364 468.908 135.441 469.328 134.349 469.328ZM132.009 465.415H136.338C136.277 464.765 136.061 464.228 135.688 463.803C135.324 463.37 134.826 463.153 134.193 463.153C133.621 463.153 133.131 463.365 132.724 463.79C132.317 464.215 132.078 464.756 132.009 465.415ZM140.729 469.172V463.335H138.324V462.451H144.148V463.335H141.743V469.172H140.729ZM145.604 471.252V462.451H146.605V463.803C147.281 462.806 148.139 462.308 149.179 462.308C150.037 462.308 150.787 462.629 151.428 463.27C152.07 463.903 152.39 464.752 152.39 465.818C152.39 466.867 152.07 467.712 151.428 468.353C150.787 468.994 150.037 469.315 149.179 469.315C148.122 469.315 147.264 468.838 146.605 467.885V471.252H145.604ZM148.997 468.418C149.673 468.418 150.237 468.184 150.687 467.716C151.138 467.239 151.363 466.602 151.363 465.805C151.363 465.034 151.134 464.41 150.674 463.933C150.215 463.448 149.656 463.205 148.997 463.205C148.347 463.205 147.78 463.452 147.294 463.946C146.809 464.44 146.566 465.064 146.566 465.818C146.566 466.572 146.809 467.196 147.294 467.69C147.78 468.175 148.347 468.418 148.997 468.418ZM159.814 468.301C159.138 468.986 158.302 469.328 157.305 469.328C156.308 469.328 155.476 468.986 154.809 468.301C154.15 467.616 153.821 466.789 153.821 465.818C153.821 464.856 154.155 464.033 154.822 463.348C155.498 462.655 156.334 462.308 157.331 462.308C158.328 462.308 159.16 462.65 159.827 463.335C160.494 464.02 160.828 464.847 160.828 465.818C160.828 466.78 160.49 467.608 159.814 468.301ZM157.331 468.431C158.05 468.431 158.64 468.18 159.099 467.677C159.567 467.174 159.801 466.555 159.801 465.818C159.801 465.09 159.558 464.47 159.073 463.959C158.596 463.448 158.007 463.192 157.305 463.192C156.586 463.192 155.996 463.448 155.537 463.959C155.078 464.462 154.848 465.081 154.848 465.818C154.848 466.546 155.086 467.166 155.563 467.677C156.04 468.18 156.629 468.431 157.331 468.431ZM168.151 468.639L166.045 465.857V465.753L168.151 462.984L168.918 463.413L167.163 465.792L168.918 468.197L168.151 468.639ZM171.05 468.639L168.944 465.857V465.753L171.05 462.984L171.804 463.413L170.049 465.792L171.804 468.197L171.05 468.639ZM173.855 469.172V460.072H177.729C178.795 460.072 179.588 460.341 180.108 460.878C180.498 461.285 180.693 461.779 180.693 462.36C180.693 463.348 180.212 464.05 179.25 464.466C180.55 464.856 181.2 465.597 181.2 466.689C181.2 467.46 180.901 468.067 180.303 468.509C179.705 468.951 178.904 469.172 177.898 469.172H173.855ZM174.869 468.249H177.924C178.618 468.249 179.164 468.106 179.562 467.82C179.961 467.525 180.16 467.118 180.16 466.598C180.16 466.095 179.952 465.71 179.536 465.441C179.129 465.172 178.531 465.038 177.742 465.038H174.869V468.249ZM174.869 464.128H177.56C178.193 464.128 178.7 463.985 179.081 463.699C179.463 463.413 179.653 463.006 179.653 462.477C179.653 462.018 179.476 461.658 179.12 461.398C178.774 461.129 178.28 460.995 177.638 460.995H174.869V464.128ZM188.645 468.301C187.969 468.986 187.133 469.328 186.136 469.328C185.14 469.328 184.308 468.986 183.64 468.301C182.982 467.616 182.652 466.789 182.652 465.818C182.652 464.856 182.986 464.033 183.653 463.348C184.329 462.655 185.166 462.308 186.162 462.308C187.159 462.308 187.991 462.65 188.658 463.335C189.326 464.02 189.659 464.847 189.659 465.818C189.659 466.78 189.321 467.608 188.645 468.301ZM186.162 468.431C186.882 468.431 187.471 468.18 187.93 467.677C188.398 467.174 188.632 466.555 188.632 465.818C188.632 465.09 188.39 464.47 187.904 463.959C187.428 463.448 186.838 463.192 186.136 463.192C185.417 463.192 184.828 463.448 184.368 463.959C183.909 464.462 183.679 465.081 183.679 465.818C183.679 466.546 183.918 467.166 184.394 467.677C184.871 468.18 185.46 468.431 186.162 468.431ZM191.472 471.252V462.451H192.473V463.803C193.149 462.806 194.007 462.308 195.047 462.308C195.905 462.308 196.655 462.629 197.296 463.27C197.938 463.903 198.258 464.752 198.258 465.818C198.258 466.867 197.938 467.712 197.296 468.353C196.655 468.994 195.905 469.315 195.047 469.315C193.99 469.315 193.132 468.838 192.473 467.885V471.252H191.472ZM194.865 468.418C195.541 468.418 196.105 468.184 196.555 467.716C197.006 467.239 197.231 466.602 197.231 465.805C197.231 465.034 197.002 464.41 196.542 463.933C196.083 463.448 195.524 463.205 194.865 463.205C194.215 463.205 193.648 463.452 193.162 463.946C192.677 464.44 192.434 465.064 192.434 465.818C192.434 466.572 192.677 467.196 193.162 467.69C193.648 468.175 194.215 468.418 194.865 468.418ZM205.682 468.301C205.006 468.986 204.17 469.328 203.173 469.328C202.177 469.328 201.345 468.986 200.677 468.301C200.019 467.616 199.689 466.789 199.689 465.818C199.689 464.856 200.023 464.033 200.69 463.348C201.366 462.655 202.203 462.308 203.199 462.308C204.196 462.308 205.028 462.65 205.695 463.335C206.363 464.02 206.696 464.847 206.696 465.818C206.696 466.78 206.358 467.608 205.682 468.301ZM203.199 468.431C203.919 468.431 204.508 468.18 204.967 467.677C205.435 467.174 205.669 466.555 205.669 465.818C205.669 465.09 205.427 464.47 204.941 463.959C204.465 463.448 203.875 463.192 203.173 463.192C202.454 463.192 201.865 463.448 201.405 463.959C200.946 464.462 200.716 465.081 200.716 465.818C200.716 466.546 200.955 467.166 201.431 467.677C201.908 468.18 202.497 468.431 203.199 468.431ZM211.669 469.328C210.637 469.328 209.81 468.99 209.186 468.314C208.57 467.629 208.263 466.706 208.263 465.545C208.263 465.12 208.271 464.761 208.289 464.466C208.306 464.163 208.341 463.829 208.393 463.465C208.445 463.101 208.527 462.789 208.64 462.529C208.752 462.269 208.895 462.013 209.069 461.762C209.251 461.511 209.485 461.298 209.771 461.125C210.057 460.952 210.39 460.822 210.772 460.735L214.516 459.851L214.711 460.696L211.071 461.593C210.395 461.766 209.909 462.044 209.615 462.425C209.329 462.798 209.16 463.318 209.108 463.985C209.68 463.014 210.607 462.529 211.89 462.529C212.774 462.529 213.532 462.858 214.165 463.517C214.797 464.167 215.114 464.951 215.114 465.87C215.114 466.823 214.784 467.638 214.126 468.314C213.467 468.99 212.648 469.328 211.669 469.328ZM211.695 468.431C212.379 468.431 212.947 468.188 213.398 467.703C213.848 467.209 214.074 466.607 214.074 465.896C214.074 465.194 213.84 464.596 213.372 464.102C212.912 463.608 212.345 463.361 211.669 463.361C210.984 463.361 210.416 463.608 209.966 464.102C209.515 464.587 209.29 465.185 209.29 465.896C209.29 466.598 209.519 467.196 209.979 467.69C210.447 468.184 211.019 468.431 211.695 468.431ZM216.927 469.172V462.451H217.928V464.973H219.722C220.502 464.973 221.139 465.142 221.633 465.48C222.127 465.809 222.374 466.312 222.374 466.988C222.374 467.655 222.144 468.188 221.685 468.587C221.225 468.977 220.61 469.172 219.839 469.172H216.927ZM217.928 468.288H219.748C220.259 468.288 220.653 468.18 220.931 467.963C221.217 467.746 221.36 467.43 221.36 467.014C221.36 466.633 221.212 466.342 220.918 466.143C220.632 465.935 220.229 465.831 219.709 465.831H217.928V468.288ZM226.86 469.328C225.915 469.328 225.118 469.003 224.468 468.353C223.826 467.694 223.506 466.849 223.506 465.818C223.506 464.839 223.813 464.011 224.429 463.335C225.044 462.65 225.811 462.308 226.73 462.308C227.692 462.308 228.454 462.646 229.018 463.322C229.581 463.998 229.863 464.847 229.863 465.87C229.863 466 229.858 466.117 229.85 466.221H224.52C224.589 466.906 224.845 467.452 225.287 467.859C225.737 468.258 226.27 468.457 226.886 468.457C227.692 468.457 228.398 468.141 229.005 467.508L229.629 468.067C228.875 468.908 227.952 469.328 226.86 469.328ZM224.52 465.415H228.849C228.788 464.765 228.571 464.228 228.199 463.803C227.835 463.37 227.336 463.153 226.704 463.153C226.132 463.153 225.642 463.365 225.235 463.79C224.827 464.215 224.589 464.756 224.52 465.415ZM231.615 469.172V462.451H234.865C235.532 462.451 236.065 462.603 236.464 462.906C236.863 463.209 237.062 463.617 237.062 464.128C237.062 464.847 236.689 465.363 235.944 465.675C236.932 465.944 237.426 466.498 237.426 467.339C237.426 467.902 237.205 468.349 236.763 468.678C236.321 469.007 235.727 469.172 234.982 469.172H231.615ZM232.616 468.314H234.852C235.329 468.314 235.706 468.214 235.983 468.015C236.26 467.816 236.399 467.538 236.399 467.183C236.399 466.854 236.252 466.598 235.957 466.416C235.671 466.234 235.259 466.143 234.722 466.143H232.616V468.314ZM232.616 465.337H234.683C235.099 465.337 235.428 465.246 235.671 465.064C235.922 464.873 236.048 464.605 236.048 464.258C236.048 463.972 235.931 463.742 235.697 463.569C235.463 463.396 235.134 463.309 234.709 463.309H232.616V465.337ZM239.232 469.172V462.451H240.233V464.973H242.027C242.807 464.973 243.444 465.142 243.938 465.48C244.432 465.809 244.679 466.312 244.679 466.988C244.679 467.655 244.45 468.188 243.99 468.587C243.531 468.977 242.916 469.172 242.144 469.172H239.232ZM240.233 468.288H242.053C242.565 468.288 242.959 468.18 243.236 467.963C243.522 467.746 243.665 467.43 243.665 467.014C243.665 466.633 243.518 466.342 243.223 466.143C242.937 465.935 242.534 465.831 242.014 465.831H240.233V468.288ZM245.888 469.172V462.451H246.889V469.172H245.888ZM253.019 469.172V462.451H257.582V463.335H254.02V469.172H253.019ZM264.614 468.301C263.938 468.986 263.102 469.328 262.105 469.328C261.108 469.328 260.276 468.986 259.609 468.301C258.95 467.616 258.621 466.789 258.621 465.818C258.621 464.856 258.955 464.033 259.622 463.348C260.298 462.655 261.134 462.308 262.131 462.308C263.128 462.308 263.96 462.65 264.627 463.335C265.294 464.02 265.628 464.847 265.628 465.818C265.628 466.78 265.29 467.608 264.614 468.301ZM262.131 468.431C262.85 468.431 263.44 468.18 263.899 467.677C264.367 467.174 264.601 466.555 264.601 465.818C264.601 465.09 264.358 464.47 263.873 463.959C263.396 463.448 262.807 463.192 262.105 463.192C261.386 463.192 260.796 463.448 260.337 463.959C259.878 464.462 259.648 465.081 259.648 465.818C259.648 466.546 259.886 467.166 260.363 467.677C260.84 468.18 261.429 468.431 262.131 468.431ZM267.441 471.252V462.451H268.442V463.803C269.118 462.806 269.976 462.308 271.016 462.308C271.874 462.308 272.624 462.629 273.265 463.27C273.907 463.903 274.227 464.752 274.227 465.818C274.227 466.867 273.907 467.712 273.265 468.353C272.624 468.994 271.874 469.315 271.016 469.315C269.959 469.315 269.101 468.838 268.442 467.885V471.252H267.441ZM270.834 468.418C271.51 468.418 272.074 468.184 272.524 467.716C272.975 467.239 273.2 466.602 273.2 465.805C273.2 465.034 272.971 464.41 272.511 463.933C272.052 463.448 271.493 463.205 270.834 463.205C270.184 463.205 269.617 463.452 269.131 463.946C268.646 464.44 268.403 465.064 268.403 465.818C268.403 466.572 268.646 467.196 269.131 467.69C269.617 468.175 270.184 468.418 270.834 468.418ZM276.074 469.172V462.451H277.075V464.973H278.869C279.649 464.973 280.286 465.142 280.78 465.48C281.274 465.809 281.521 466.312 281.521 466.988C281.521 467.655 281.291 468.188 280.832 468.587C280.373 468.977 279.757 469.172 278.986 469.172H276.074ZM277.075 468.288H278.895C279.406 468.288 279.801 468.18 280.078 467.963C280.364 467.746 280.507 467.43 280.507 467.014C280.507 466.633 280.36 466.342 280.065 466.143C279.779 465.935 279.376 465.831 278.856 465.831H277.075V468.288ZM282.73 469.172V462.451H283.731V469.172H282.73ZM286.367 468.639L285.613 468.21L287.368 465.818L285.613 463.426L286.367 462.984L288.473 465.753V465.857L286.367 468.639ZM289.266 468.639L288.499 468.21L290.254 465.818L288.499 463.426L289.266 462.984L291.372 465.753V465.857L289.266 468.639Z" fill="white"/>
<g clip-path="url(#clip0_442_656)">
<path d="M204.5 446C216.926 446 227 435.926 227 423.5C227 411.074 216.926 401 204.5 401C192.074 401 182 411.074 182 423.5C182 435.926 192.074 446 204.5 446Z" fill="#F32735"/>
<path fill-rule="evenodd" clip-rule="evenodd" d="M215.211 429.485L209.138 414L204 423.053L198.883 414L192.789 429.485H191V431.833H200.194V429.485H198.821L200.152 425.629L204 432L207.848 425.629L209.179 429.485H207.806V431.833H217V429.485H215.211Z" fill="white"/>
</g>
<path d="M556.589 782V772.9H557.629L560.944 777.866L564.259 772.9H565.299V782H564.272V774.629L560.957 779.504H560.905L557.59 774.642V782H556.589ZM575.298 784.028V782H567.875V772.9H568.902V781.064H574.102V772.9H575.129V781.064H576.312L576.156 784.028H575.298ZM577.816 782V772.9H578.843V778.334L584.069 772.9H585.395L581.495 776.878L585.564 782H584.277L580.78 777.593L578.843 779.556V782H577.816ZM592.5 781.467L590.394 778.685V778.581L592.5 775.812L593.267 776.241L591.512 778.62L593.267 781.025L592.5 781.467ZM595.399 781.467L593.293 778.685V778.581L595.399 775.812L596.153 776.241L594.398 778.62L596.153 781.025L595.399 781.467ZM598.035 782.104C597.628 782.104 597.234 782.03 596.852 781.883L597.06 781.051C597.251 781.138 597.52 781.181 597.866 781.181C598.04 781.181 598.196 781.155 598.334 781.103C598.473 781.042 598.638 780.886 598.828 780.635C599.019 780.375 599.175 780.024 599.296 779.582C599.418 779.131 599.522 778.477 599.608 777.619C599.704 776.752 599.751 775.73 599.751 774.551V772.9H605.64V782H604.613V773.836H600.739V774.824C600.739 776.055 600.687 777.121 600.583 778.022C600.488 778.923 600.358 779.634 600.193 780.154C600.037 780.665 599.834 781.073 599.582 781.376C599.34 781.679 599.097 781.879 598.854 781.974C598.62 782.061 598.347 782.104 598.035 782.104ZM609.079 784.119C608.594 784.119 608.117 784.006 607.649 783.781L607.987 782.988C608.308 783.153 608.659 783.235 609.04 783.235C609.344 783.235 609.599 783.14 609.807 782.949C610.015 782.767 610.219 782.442 610.418 781.974L607.363 775.279H608.468L610.912 780.882L613.07 775.279H614.136L611.315 782.221C611.029 782.906 610.713 783.391 610.366 783.677C610.02 783.972 609.591 784.119 609.079 784.119ZM614.862 782L617.618 778.152L615.005 775.279H616.214L619.633 779.179V775.279H620.634V779.179L624.053 775.279H625.262L622.649 778.152L625.405 782H624.235L621.999 778.867L620.634 780.362V782H619.633V780.362L618.268 778.867L616.032 782H614.862ZM626.778 782V775.279H627.779V778.178H631.653V775.279H632.654V782H631.653V779.062H627.779V782H626.778ZM634.89 782V775.279H635.891V780.596L639.882 775.279H640.857V782H639.856V776.683L635.852 782H634.89ZM643.091 782V775.279H644.092V779.153L647.771 775.279H649.006L646.198 778.191L649.084 782H647.901L645.509 778.919L644.092 780.375V782H643.091ZM650.467 782V775.279H651.468V780.596L655.459 775.279H656.434V782H655.433V776.683L651.429 782H650.467ZM659.071 781.467L658.317 781.038L660.072 778.646L658.317 776.254L659.071 775.812L661.177 778.581V778.685L659.071 781.467ZM661.97 781.467L661.203 781.038L662.958 778.646L661.203 776.254L661.97 775.812L664.076 778.581V778.685L661.97 781.467Z" fill="white"/>
<g clip-path="url(#clip1_442_656)">
<path d="M609.5 759C621.926 759 632 748.926 632 736.5C632 724.074 621.926 714 609.5 714C597.074 714 587 724.074 587 736.5C587 748.926 597.074 759 609.5 759Z" fill="#F32735"/>
<path fill-rule="evenodd" clip-rule="evenodd" d="M620.211 742.485L614.138 727L609 736.053L603.883 727L597.789 742.485H596V744.833H605.194V742.485H603.821L605.152 738.629L609 745L612.848 738.629L614.179 742.485H612.806V744.833H622V742.485H620.211Z" fill="white"/>
</g>
<path d="M716.309 783V773.9H717.349L720.664 778.866L723.979 773.9H725.019V783H723.992V775.629L720.677 780.504H720.625L717.31 775.642V783H716.309ZM730.364 783.156C729.419 783.156 728.622 782.831 727.972 782.181C727.331 781.522 727.01 780.677 727.01 779.646C727.01 778.667 727.318 777.839 727.933 777.163C728.548 776.478 729.315 776.136 730.234 776.136C731.196 776.136 731.959 776.474 732.522 777.15C733.085 777.826 733.367 778.675 733.367 779.698C733.367 779.828 733.363 779.945 733.354 780.049H728.024C728.093 780.734 728.349 781.28 728.791 781.687C729.242 782.086 729.775 782.285 730.39 782.285C731.196 782.285 731.902 781.969 732.509 781.336L733.133 781.895C732.379 782.736 731.456 783.156 730.364 783.156ZM728.024 779.243H732.353C732.292 778.593 732.076 778.056 731.703 777.631C731.339 777.198 730.841 776.981 730.208 776.981C729.636 776.981 729.146 777.193 728.739 777.618C728.332 778.043 728.093 778.584 728.024 779.243ZM736.744 783V777.163H734.339V776.279H740.163V777.163H737.758V783H736.744ZM741.619 785.08V776.279H742.62V777.631C743.296 776.634 744.154 776.136 745.194 776.136C746.052 776.136 746.802 776.457 747.443 777.098C748.085 777.731 748.405 778.58 748.405 779.646C748.405 780.695 748.085 781.54 747.443 782.181C746.802 782.822 746.052 783.143 745.194 783.143C744.137 783.143 743.279 782.666 742.62 781.713V785.08H741.619ZM745.012 782.246C745.688 782.246 746.252 782.012 746.702 781.544C747.153 781.067 747.378 780.43 747.378 779.633C747.378 778.862 747.149 778.238 746.689 777.761C746.23 777.276 745.671 777.033 745.012 777.033C744.362 777.033 743.795 777.28 743.309 777.774C742.824 778.268 742.581 778.892 742.581 779.646C742.581 780.4 742.824 781.024 743.309 781.518C743.795 782.003 744.362 782.246 745.012 782.246ZM755.829 782.129C755.153 782.814 754.317 783.156 753.32 783.156C752.324 783.156 751.492 782.814 750.824 782.129C750.166 781.444 749.836 780.617 749.836 779.646C749.836 778.684 750.17 777.861 750.837 777.176C751.513 776.483 752.35 776.136 753.346 776.136C754.343 776.136 755.175 776.478 755.842 777.163C756.51 777.848 756.843 778.675 756.843 779.646C756.843 780.608 756.505 781.436 755.829 782.129ZM753.346 782.259C754.066 782.259 754.655 782.008 755.114 781.505C755.582 781.002 755.816 780.383 755.816 779.646C755.816 778.918 755.574 778.298 755.088 777.787C754.612 777.276 754.022 777.02 753.32 777.02C752.601 777.02 752.012 777.276 751.552 777.787C751.093 778.29 750.863 778.909 750.863 779.646C750.863 780.374 751.102 780.994 751.578 781.505C752.055 782.008 752.644 782.259 753.346 782.259ZM764.166 782.467L762.06 779.685V779.581L764.166 776.812L764.933 777.241L763.178 779.62L764.933 782.025L764.166 782.467ZM767.065 782.467L764.959 779.685V779.581L767.065 776.812L767.819 777.241L766.064 779.62L767.819 782.025L767.065 782.467ZM774.03 783.156C772.722 783.156 771.634 782.705 770.767 781.804C769.901 780.894 769.467 779.776 769.467 778.45C769.467 777.141 769.905 776.032 770.78 775.122C771.656 774.203 772.752 773.744 774.069 773.744C774.832 773.744 775.482 773.87 776.019 774.121C776.557 774.364 777.081 774.728 777.592 775.213L776.916 775.941C776.041 775.109 775.088 774.693 774.056 774.693C773.051 774.693 772.21 775.053 771.534 775.772C770.867 776.491 770.533 777.384 770.533 778.45C770.533 779.507 770.871 780.4 771.547 781.128C772.223 781.847 773.06 782.207 774.056 782.207C774.646 782.207 775.166 782.099 775.616 781.882C776.067 781.665 776.526 781.336 776.994 780.894L777.67 781.609C777.159 782.12 776.622 782.506 776.058 782.766C775.495 783.026 774.819 783.156 774.03 783.156ZM779.299 783V776.279H785.123V783H784.122V777.163H780.3V783H779.299ZM792.938 782.129C792.262 782.814 791.425 783.156 790.429 783.156C789.432 783.156 788.6 782.814 787.933 782.129C787.274 781.444 786.945 780.617 786.945 779.646C786.945 778.684 787.278 777.861 787.946 777.176C788.622 776.483 789.458 776.136 790.455 776.136C791.451 776.136 792.283 776.478 792.951 777.163C793.618 777.848 793.952 778.675 793.952 779.646C793.952 780.608 793.614 781.436 792.938 782.129ZM790.455 782.259C791.174 782.259 791.763 782.008 792.223 781.505C792.691 781.002 792.925 780.383 792.925 779.646C792.925 778.918 792.682 778.298 792.197 777.787C791.72 777.276 791.131 777.02 790.429 777.02C789.709 777.02 789.12 777.276 788.661 777.787C788.201 778.29 787.972 778.909 787.972 779.646C787.972 780.374 788.21 780.994 788.687 781.505C789.163 782.008 789.753 782.259 790.455 782.259ZM795.765 785.08V776.279H796.766V777.631C797.442 776.634 798.3 776.136 799.34 776.136C800.198 776.136 800.948 776.457 801.589 777.098C802.23 777.731 802.551 778.58 802.551 779.646C802.551 780.695 802.23 781.54 801.589 782.181C800.948 782.822 800.198 783.143 799.34 783.143C798.283 783.143 797.425 782.666 796.766 781.713V785.08H795.765ZM799.158 782.246C799.834 782.246 800.397 782.012 800.848 781.544C801.299 781.067 801.524 780.43 801.524 779.633C801.524 778.862 801.294 778.238 800.835 777.761C800.376 777.276 799.817 777.033 799.158 777.033C798.508 777.033 797.94 777.28 797.455 777.774C796.97 778.268 796.727 778.892 796.727 779.646C796.727 780.4 796.97 781.024 797.455 781.518C797.94 782.003 798.508 782.246 799.158 782.246ZM806.023 783V777.163H803.618V776.279H809.442V777.163H807.037V783H806.023ZM810.898 783V776.279H811.899V781.596L815.89 776.279H816.865V783H815.864V777.683L811.86 783H810.898ZM819.099 783V776.279H822.349C823.016 776.279 823.549 776.431 823.948 776.734C824.347 777.037 824.546 777.445 824.546 777.956C824.546 778.675 824.173 779.191 823.428 779.503C824.416 779.772 824.91 780.326 824.91 781.167C824.91 781.73 824.689 782.177 824.247 782.506C823.805 782.835 823.211 783 822.466 783H819.099ZM820.1 782.142H822.336C822.813 782.142 823.19 782.042 823.467 781.843C823.744 781.644 823.883 781.366 823.883 781.011C823.883 780.682 823.736 780.426 823.441 780.244C823.155 780.062 822.743 779.971 822.206 779.971H820.1V782.142ZM820.1 779.165H822.167C822.583 779.165 822.912 779.074 823.155 778.892C823.406 778.701 823.532 778.433 823.532 778.086C823.532 777.8 823.415 777.57 823.181 777.397C822.947 777.224 822.618 777.137 822.193 777.137H820.1V779.165ZM826.716 783V776.279H827.717V779.178H831.591V776.279H832.592V783H831.591V780.062H827.717V783H826.716ZM836.83 783.143C836.146 783.143 835.556 782.957 835.062 782.584C834.568 782.211 834.321 781.691 834.321 781.024C834.321 780.322 834.581 779.78 835.101 779.399C835.621 779.018 836.319 778.827 837.194 778.827C837.888 778.827 838.572 778.922 839.248 779.113V778.905C839.248 778.316 839.075 777.865 838.728 777.553C838.382 777.241 837.892 777.085 837.259 777.085C836.601 777.085 835.92 777.245 835.218 777.566L834.919 776.747C835.751 776.366 836.566 776.175 837.363 776.175C838.317 776.175 839.04 776.422 839.534 776.916C840.002 777.384 840.236 778.043 840.236 778.892V783H839.248V781.999C838.65 782.762 837.844 783.143 836.83 783.143ZM837.025 782.337C837.649 782.337 838.178 782.168 838.611 781.83C839.045 781.492 839.261 781.059 839.261 780.53V779.906C838.603 779.715 837.948 779.62 837.298 779.62C836.683 779.62 836.202 779.746 835.855 779.997C835.509 780.24 835.335 780.573 835.335 780.998C835.335 781.405 835.496 781.73 835.816 781.973C836.146 782.216 836.549 782.337 837.025 782.337ZM841.759 783L843.813 780.4C843.284 780.279 842.851 780.04 842.513 779.685C842.183 779.33 842.019 778.892 842.019 778.372C842.019 777.748 842.244 777.245 842.695 776.864C843.145 776.474 843.765 776.279 844.554 776.279H847.713V783H846.712V780.556H844.853C844.775 780.66 844.506 781.015 844.047 781.622C843.587 782.229 843.236 782.688 842.994 783H841.759ZM844.632 779.711H846.712V777.163H844.606C844.112 777.163 843.722 777.276 843.436 777.501C843.158 777.718 843.02 778.021 843.02 778.411C843.02 778.81 843.167 779.126 843.462 779.36C843.765 779.594 844.155 779.711 844.632 779.711ZM850.352 782.467L849.598 782.038L851.353 779.646L849.598 777.254L850.352 776.812L852.458 779.581V779.685L850.352 782.467ZM853.251 782.467L852.484 782.038L854.239 779.646L852.484 777.254L853.251 776.812L855.357 779.581V779.685L853.251 782.467Z" fill="white"/>
<g clip-path="url(#clip2_442_656)">
<path d="M784.5 760C796.926 760 807 749.926 807 737.5C807 725.074 796.926 715 784.5 715C772.074 715 762 725.074 762 737.5C762 749.926 772.074 760 784.5 760Z" fill="#F32735"/>
<path fill-rule="evenodd" clip-rule="evenodd" d="M795.211 743.485L789.138 728L784 737.053L778.883 728L772.789 743.485H771V745.833H780.194V743.485H778.821L780.152 739.629L784 746L787.848 739.629L789.179 743.485H787.806V745.833H797V743.485H795.211Z" fill="white"/>
</g>
<rect x="495" y="131.358" width="8" height="82.0449" rx="4" fill="#F32735"/>
<rect width="8.00028" height="61.0312" rx="4.00014" transform="matrix(0.967022 -0.254694 0.254272 0.967133 481 82.3315)" fill="#F32735"/>
<path d="M516.318 122V112.9H517.345V118.334L522.571 112.9H523.897L519.997 116.878L524.066 122H522.779L519.282 117.593L517.345 119.556V122H516.318ZM527.495 122.143C526.81 122.143 526.221 121.957 525.727 121.584C525.233 121.211 524.986 120.691 524.986 120.024C524.986 119.322 525.246 118.78 525.766 118.399C526.286 118.018 526.984 117.827 527.859 117.827C528.552 117.827 529.237 117.922 529.913 118.113V117.905C529.913 117.316 529.74 116.865 529.393 116.553C529.046 116.241 528.557 116.085 527.924 116.085C527.265 116.085 526.585 116.245 525.883 116.566L525.584 115.747C526.416 115.366 527.231 115.175 528.028 115.175C528.981 115.175 529.705 115.422 530.199 115.916C530.667 116.384 530.901 117.043 530.901 117.892V122H529.913V120.999C529.315 121.762 528.509 122.143 527.495 122.143ZM527.69 121.337C528.314 121.337 528.843 121.168 529.276 120.83C529.709 120.492 529.926 120.059 529.926 119.53V118.906C529.267 118.715 528.613 118.62 527.963 118.62C527.348 118.62 526.867 118.746 526.52 118.997C526.173 119.24 526 119.573 526 119.998C526 120.405 526.16 120.73 526.481 120.973C526.81 121.216 527.213 121.337 527.69 121.337ZM533.021 122V115.279H534.022V118.178H537.896V115.279H538.897V122H537.896V119.062H534.022V122H533.021ZM543.136 122.143C542.451 122.143 541.862 121.957 541.368 121.584C540.874 121.211 540.627 120.691 540.627 120.024C540.627 119.322 540.887 118.78 541.407 118.399C541.927 118.018 542.624 117.827 543.5 117.827C544.193 117.827 544.878 117.922 545.554 118.113V117.905C545.554 117.316 545.38 116.865 545.034 116.553C544.687 116.241 544.197 116.085 543.565 116.085C542.906 116.085 542.226 116.245 541.524 116.566L541.225 115.747C542.057 115.366 542.871 115.175 543.669 115.175C544.622 115.175 545.346 115.422 545.84 115.916C546.308 116.384 546.542 117.043 546.542 117.892V122H545.554V120.999C544.956 121.762 544.15 122.143 543.136 122.143ZM543.331 121.337C543.955 121.337 544.483 121.168 544.917 120.83C545.35 120.492 545.567 120.059 545.567 119.53V118.906C544.908 118.715 544.254 118.62 543.604 118.62C542.988 118.62 542.507 118.746 542.161 118.997C541.814 119.24 541.641 119.573 541.641 119.998C541.641 120.405 541.801 120.73 542.122 120.973C542.451 121.216 542.854 121.337 543.331 121.337ZM550.287 122V116.163H547.882V115.279H553.706V116.163H551.301V122H550.287ZM555.162 122V115.279H556.163V118.178H560.037V115.279H561.038V122H560.037V119.062H556.163V122H555.162ZM565.276 122.143C564.592 122.143 564.002 121.957 563.508 121.584C563.014 121.211 562.767 120.691 562.767 120.024C562.767 119.322 563.027 118.78 563.547 118.399C564.067 118.018 564.765 117.827 565.64 117.827C566.334 117.827 567.018 117.922 567.694 118.113V117.905C567.694 117.316 567.521 116.865 567.174 116.553C566.828 116.241 566.338 116.085 565.705 116.085C565.047 116.085 564.366 116.245 563.664 116.566L563.365 115.747C564.197 115.366 565.012 115.175 565.809 115.175C566.763 115.175 567.486 115.422 567.98 115.916C568.448 116.384 568.682 117.043 568.682 117.892V122H567.694V120.999C567.096 121.762 566.29 122.143 565.276 122.143ZM565.471 121.337C566.095 121.337 566.624 121.168 567.057 120.83C567.491 120.492 567.707 120.059 567.707 119.53V118.906C567.049 118.715 566.394 118.62 565.744 118.62C565.129 118.62 564.648 118.746 564.301 118.997C563.955 119.24 563.781 119.573 563.781 119.998C563.781 120.405 563.942 120.73 564.262 120.973C564.592 121.216 564.995 121.337 565.471 121.337ZM570.205 122L572.259 119.4C571.73 119.279 571.297 119.04 570.959 118.685C570.629 118.33 570.465 117.892 570.465 117.372C570.465 116.748 570.69 116.245 571.141 115.864C571.591 115.474 572.211 115.279 573 115.279H576.159V122H575.158V119.556H573.299C573.221 119.66 572.952 120.015 572.493 120.622C572.033 121.229 571.682 121.688 571.44 122H570.205ZM573.078 118.711H575.158V116.163H573.052C572.558 116.163 572.168 116.276 571.882 116.501C571.604 116.718 571.466 117.021 571.466 117.411C571.466 117.81 571.613 118.126 571.908 118.36C572.211 118.594 572.601 118.711 573.078 118.711ZM581.304 123.677V121.116H582.032C582.63 120.015 582.929 118.46 582.929 116.449V115.279H587.713V121.116H588.727L588.571 123.677H587.739V122H582.305L582.123 123.677H581.304ZM583.098 121.116H586.712V116.163H583.891V117.099C583.891 118.789 583.626 120.128 583.098 121.116ZM595.676 121.129C595 121.814 594.164 122.156 593.167 122.156C592.171 122.156 591.339 121.814 590.671 121.129C590.013 120.444 589.683 119.617 589.683 118.646C589.683 117.684 590.017 116.861 590.684 116.176C591.36 115.483 592.197 115.136 593.193 115.136C594.19 115.136 595.022 115.478 595.689 116.163C596.357 116.848 596.69 117.675 596.69 118.646C596.69 119.608 596.352 120.436 595.676 121.129ZM593.193 121.259C593.913 121.259 594.502 121.008 594.961 120.505C595.429 120.002 595.663 119.383 595.663 118.646C595.663 117.918 595.421 117.298 594.935 116.787C594.459 116.276 593.869 116.02 593.167 116.02C592.448 116.02 591.859 116.276 591.399 116.787C590.94 117.29 590.71 117.909 590.71 118.646C590.71 119.374 590.949 119.994 591.425 120.505C591.902 121.008 592.491 121.259 593.193 121.259ZM598.504 124.08V115.279H599.505V116.631C600.181 115.634 601.039 115.136 602.079 115.136C602.937 115.136 603.686 115.457 604.328 116.098C604.969 116.731 605.29 117.58 605.29 118.646C605.29 119.695 604.969 120.54 604.328 121.181C603.686 121.822 602.937 122.143 602.079 122.143C601.021 122.143 600.163 121.666 599.505 120.713V124.08H598.504ZM601.897 121.246C602.573 121.246 603.136 121.012 603.587 120.544C604.037 120.067 604.263 119.43 604.263 118.633C604.263 117.862 604.033 117.238 603.574 116.761C603.114 116.276 602.555 116.033 601.897 116.033C601.247 116.033 600.679 116.28 600.194 116.774C599.708 117.268 599.466 117.892 599.466 118.646C599.466 119.4 599.708 120.024 600.194 120.518C600.679 121.003 601.247 121.246 601.897 121.246ZM612.714 121.129C612.038 121.814 611.201 122.156 610.205 122.156C609.208 122.156 608.376 121.814 607.709 121.129C607.05 120.444 606.721 119.617 606.721 118.646C606.721 117.684 607.054 116.861 607.722 116.176C608.398 115.483 609.234 115.136 610.231 115.136C611.227 115.136 612.059 115.478 612.727 116.163C613.394 116.848 613.728 117.675 613.728 118.646C613.728 119.608 613.39 120.436 612.714 121.129ZM610.231 121.259C610.95 121.259 611.539 121.008 611.999 120.505C612.467 120.002 612.701 119.383 612.701 118.646C612.701 117.918 612.458 117.298 611.973 116.787C611.496 116.276 610.907 116.02 610.205 116.02C609.485 116.02 608.896 116.276 608.437 116.787C607.977 117.29 607.748 117.909 607.748 118.646C607.748 119.374 607.986 119.994 608.463 120.505C608.939 121.008 609.529 121.259 610.231 121.259ZM615.541 122V115.279H620.104V116.163H616.542V122H615.541ZM623.56 122.143C622.876 122.143 622.286 121.957 621.792 121.584C621.298 121.211 621.051 120.691 621.051 120.024C621.051 119.322 621.311 118.78 621.831 118.399C622.351 118.018 623.049 117.827 623.924 117.827C624.618 117.827 625.302 117.922 625.978 118.113V117.905C625.978 117.316 625.805 116.865 625.458 116.553C625.112 116.241 624.622 116.085 623.989 116.085C623.331 116.085 622.65 116.245 621.948 116.566L621.649 115.747C622.481 115.366 623.296 115.175 624.093 115.175C625.047 115.175 625.77 115.422 626.264 115.916C626.732 116.384 626.966 117.043 626.966 117.892V122H625.978V120.999C625.38 121.762 624.574 122.143 623.56 122.143ZM623.755 121.337C624.379 121.337 624.908 121.168 625.341 120.83C625.775 120.492 625.991 120.059 625.991 119.53V118.906C625.333 118.715 624.678 118.62 624.028 118.62C623.413 118.62 622.932 118.746 622.585 118.997C622.239 119.24 622.065 119.573 622.065 119.998C622.065 120.405 622.226 120.73 622.546 120.973C622.876 121.216 623.279 121.337 623.755 121.337Z" fill="white"/>
<path d="M565.44 162.08V153.279H566.441V154.631C567.117 153.634 567.975 153.136 569.015 153.136C569.873 153.136 570.623 153.457 571.264 154.098C571.906 154.731 572.226 155.58 572.226 156.646C572.226 157.695 571.906 158.54 571.264 159.181C570.623 159.822 569.873 160.143 569.015 160.143C567.958 160.143 567.1 159.666 566.441 158.713V162.08H565.44ZM568.833 159.246C569.509 159.246 570.073 159.012 570.523 158.544C570.974 158.067 571.199 157.43 571.199 156.633C571.199 155.862 570.97 155.238 570.51 154.761C570.051 154.276 569.492 154.033 568.833 154.033C568.183 154.033 567.616 154.28 567.13 154.774C566.645 155.268 566.402 155.892 566.402 156.646C566.402 157.4 566.645 158.024 567.13 158.518C567.616 159.003 568.183 159.246 568.833 159.246ZM573.956 160V158.635H575.152V160H573.956ZM581.326 160V150.9H582.366L585.681 155.866L588.996 150.9H590.036V160H589.009V152.629L585.694 157.504H585.642L582.327 152.642V160H581.326ZM598.02 159.129C597.344 159.814 596.508 160.156 595.511 160.156C594.515 160.156 593.683 159.814 593.015 159.129C592.357 158.444 592.027 157.617 592.027 156.646C592.027 155.684 592.361 154.861 593.028 154.176C593.704 153.483 594.541 153.136 595.537 153.136C596.534 153.136 597.366 153.478 598.033 154.163C598.701 154.848 599.034 155.675 599.034 156.646C599.034 157.608 598.696 158.436 598.02 159.129ZM595.537 159.259C596.257 159.259 596.846 159.008 597.305 158.505C597.773 158.002 598.007 157.383 598.007 156.646C598.007 155.918 597.765 155.298 597.279 154.787C596.803 154.276 596.213 154.02 595.511 154.02C594.792 154.02 594.203 154.276 593.743 154.787C593.284 155.29 593.054 155.909 593.054 156.646C593.054 157.374 593.293 157.994 593.769 158.505C594.246 159.008 594.835 159.259 595.537 159.259ZM603.876 160.156C602.906 160.156 602.087 159.814 601.419 159.129C600.761 158.436 600.431 157.608 600.431 156.646C600.431 155.684 600.761 154.861 601.419 154.176C602.087 153.483 602.906 153.136 603.876 153.136C604.916 153.136 605.813 153.535 606.567 154.332L605.93 155.008C605.306 154.349 604.617 154.02 603.863 154.02C603.187 154.02 602.615 154.276 602.147 154.787C601.688 155.29 601.458 155.909 601.458 156.646C601.458 157.374 601.692 157.994 602.16 158.505C602.637 159.008 603.226 159.259 603.928 159.259C604.648 159.259 605.324 158.921 605.956 158.245L606.619 158.856C605.839 159.723 604.925 160.156 603.876 160.156ZM608.274 160V153.279H609.275V157.153L612.954 153.279H614.189L611.381 156.191L614.267 160H613.084L610.692 156.919L609.275 158.375V160H608.274ZM615.65 160V153.279H618.9C619.568 153.279 620.101 153.431 620.499 153.734C620.898 154.037 621.097 154.445 621.097 154.956C621.097 155.675 620.725 156.191 619.979 156.503C620.967 156.772 621.461 157.326 621.461 158.167C621.461 158.73 621.24 159.177 620.798 159.506C620.356 159.835 619.763 160 619.017 160H615.65ZM616.651 159.142H618.887C619.364 159.142 619.741 159.042 620.018 158.843C620.296 158.644 620.434 158.366 620.434 158.011C620.434 157.682 620.287 157.426 619.992 157.244C619.706 157.062 619.295 156.971 618.757 156.971H616.651V159.142ZM616.651 156.165H618.718C619.134 156.165 619.464 156.074 619.706 155.892C619.958 155.701 620.083 155.433 620.083 155.086C620.083 154.8 619.966 154.57 619.732 154.397C619.498 154.224 619.169 154.137 618.744 154.137H616.651V156.165ZM625.269 160.143C624.585 160.143 623.995 159.957 623.501 159.584C623.007 159.211 622.76 158.691 622.76 158.024C622.76 157.322 623.02 156.78 623.54 156.399C624.06 156.018 624.758 155.827 625.633 155.827C626.327 155.827 627.011 155.922 627.687 156.113V155.905C627.687 155.316 627.514 154.865 627.167 154.553C626.821 154.241 626.331 154.085 625.698 154.085C625.04 154.085 624.359 154.245 623.657 154.566L623.358 153.747C624.19 153.366 625.005 153.175 625.802 153.175C626.756 153.175 627.479 153.422 627.973 153.916C628.441 154.384 628.675 155.043 628.675 155.892V160H627.687V158.999C627.089 159.762 626.283 160.143 625.269 160.143ZM625.464 159.337C626.088 159.337 626.617 159.168 627.05 158.83C627.484 158.492 627.7 158.059 627.7 157.53V156.906C627.042 156.715 626.387 156.62 625.737 156.62C625.122 156.62 624.641 156.746 624.294 156.997C623.948 157.24 623.774 157.573 623.774 157.998C623.774 158.405 623.935 158.73 624.255 158.973C624.585 159.216 624.988 159.337 625.464 159.337Z" fill="#003078"/>
<path d="M467.061 391V381.9H473.587V382.836H468.088V385.631H470.779C471.802 385.631 472.634 385.856 473.275 386.307C473.917 386.749 474.237 387.408 474.237 388.283C474.237 389.158 473.934 389.83 473.327 390.298C472.729 390.766 471.915 391 470.883 391H467.061ZM468.088 390.064H470.805C472.409 390.064 473.21 389.453 473.21 388.231C473.21 387.668 472.994 387.247 472.56 386.97C472.127 386.684 471.525 386.541 470.753 386.541H468.088V390.064ZM481.674 390.129C480.998 390.814 480.161 391.156 479.165 391.156C478.168 391.156 477.336 390.814 476.669 390.129C476.01 389.444 475.681 388.617 475.681 387.646C475.681 386.684 476.014 385.861 476.682 385.176C477.358 384.483 478.194 384.136 479.191 384.136C480.187 384.136 481.019 384.478 481.687 385.163C482.354 385.848 482.688 386.675 482.688 387.646C482.688 388.608 482.35 389.436 481.674 390.129ZM479.191 390.259C479.91 390.259 480.499 390.008 480.959 389.505C481.427 389.002 481.661 388.383 481.661 387.646C481.661 386.918 481.418 386.298 480.933 385.787C480.456 385.276 479.867 385.02 479.165 385.02C478.445 385.02 477.856 385.276 477.397 385.787C476.937 386.29 476.708 386.909 476.708 387.646C476.708 388.374 476.946 388.994 477.423 389.505C477.899 390.008 478.489 390.259 479.191 390.259ZM484.176 391.104C483.916 391.104 483.647 391.069 483.37 391L483.487 390.142C483.686 390.203 483.846 390.233 483.968 390.233C484.158 390.233 484.314 390.211 484.436 390.168C484.557 390.116 484.687 389.99 484.826 389.791C484.973 389.583 485.086 389.293 485.164 388.92C485.242 388.547 485.307 388.019 485.359 387.334C485.419 386.649 485.45 385.817 485.45 384.838V384.279H490.208V391H489.207V385.163H486.399V385.319C486.399 386.342 486.36 387.213 486.282 387.932C486.204 388.651 486.104 389.215 485.983 389.622C485.87 390.029 485.71 390.346 485.502 390.571C485.294 390.796 485.09 390.939 484.891 391C484.7 391.069 484.462 391.104 484.176 391.104ZM492.448 391V384.279H493.449V386.801H495.243C496.023 386.801 496.66 386.97 497.154 387.308C497.648 387.637 497.895 388.14 497.895 388.816C497.895 389.483 497.665 390.016 497.206 390.415C496.747 390.805 496.131 391 495.36 391H492.448ZM493.449 390.116H495.269C495.78 390.116 496.175 390.008 496.452 389.791C496.738 389.574 496.881 389.258 496.881 388.842C496.881 388.461 496.734 388.17 496.439 387.971C496.153 387.763 495.75 387.659 495.23 387.659H493.449V390.116ZM499.443 391V384.279H500.444V390.116H503.72V384.279H504.721V390.116H507.997V384.279H509.011V391H499.443ZM513.252 391.143C512.567 391.143 511.978 390.957 511.484 390.584C510.99 390.211 510.743 389.691 510.743 389.024C510.743 388.322 511.003 387.78 511.523 387.399C512.043 387.018 512.741 386.827 513.616 386.827C514.309 386.827 514.994 386.922 515.67 387.113V386.905C515.67 386.316 515.497 385.865 515.15 385.553C514.803 385.241 514.314 385.085 513.681 385.085C513.022 385.085 512.342 385.245 511.64 385.566L511.341 384.747C512.173 384.366 512.988 384.175 513.785 384.175C514.738 384.175 515.462 384.422 515.956 384.916C516.424 385.384 516.658 386.043 516.658 386.892V391H515.67V389.999C515.072 390.762 514.266 391.143 513.252 391.143ZM513.447 390.337C514.071 390.337 514.6 390.168 515.033 389.83C515.466 389.492 515.683 389.059 515.683 388.53V387.906C515.024 387.715 514.37 387.62 513.72 387.62C513.105 387.62 512.624 387.746 512.277 387.997C511.93 388.24 511.757 388.573 511.757 388.998C511.757 389.405 511.917 389.73 512.238 389.973C512.567 390.216 512.97 390.337 513.447 390.337ZM518.18 391L520.234 388.4C519.705 388.279 519.272 388.04 518.934 387.685C518.605 387.33 518.44 386.892 518.44 386.372C518.44 385.748 518.665 385.245 519.116 384.864C519.567 384.474 520.186 384.279 520.975 384.279H524.134V391H523.133V388.556H521.274C521.196 388.66 520.927 389.015 520.468 389.622C520.009 390.229 519.658 390.688 519.415 391H518.18ZM521.053 387.711H523.133V385.163H521.027C520.533 385.163 520.143 385.276 519.857 385.501C519.58 385.718 519.441 386.021 519.441 386.411C519.441 386.81 519.588 387.126 519.883 387.36C520.186 387.594 520.576 387.711 521.053 387.711ZM533.296 391.156C532.326 391.156 531.507 390.814 530.839 390.129C530.181 389.436 529.851 388.608 529.851 387.646C529.851 386.684 530.181 385.861 530.839 385.176C531.507 384.483 532.326 384.136 533.296 384.136C534.336 384.136 535.233 384.535 535.987 385.332L535.35 386.008C534.726 385.349 534.037 385.02 533.283 385.02C532.607 385.02 532.035 385.276 531.567 385.787C531.108 386.29 530.878 386.909 530.878 387.646C530.878 388.374 531.112 388.994 531.58 389.505C532.057 390.008 532.646 390.259 533.348 390.259C534.068 390.259 534.744 389.921 535.376 389.245L536.039 389.856C535.259 390.723 534.345 391.156 533.296 391.156ZM537.694 391V384.279H543.518V391H542.517V385.163H538.695V391H537.694ZM551.333 390.129C550.657 390.814 549.82 391.156 548.824 391.156C547.827 391.156 546.995 390.814 546.328 390.129C545.669 389.444 545.34 388.617 545.34 387.646C545.34 386.684 545.673 385.861 546.341 385.176C547.017 384.483 547.853 384.136 548.85 384.136C549.846 384.136 550.678 384.478 551.346 385.163C552.013 385.848 552.347 386.675 552.347 387.646C552.347 388.608 552.009 389.436 551.333 390.129ZM548.85 390.259C549.569 390.259 550.158 390.008 550.618 389.505C551.086 389.002 551.32 388.383 551.32 387.646C551.32 386.918 551.077 386.298 550.592 385.787C550.115 385.276 549.526 385.02 548.824 385.02C548.104 385.02 547.515 385.276 547.056 385.787C546.596 386.29 546.367 386.909 546.367 387.646C546.367 388.374 546.605 388.994 547.082 389.505C547.558 390.008 548.148 390.259 548.85 390.259ZM554.16 393.08V384.279H555.161V385.631C555.837 384.634 556.695 384.136 557.735 384.136C558.593 384.136 559.343 384.457 559.984 385.098C560.625 385.731 560.946 386.58 560.946 387.646C560.946 388.695 560.625 389.54 559.984 390.181C559.343 390.822 558.593 391.143 557.735 391.143C556.678 391.143 555.82 390.666 555.161 389.713V393.08H554.16ZM557.553 390.246C558.229 390.246 558.792 390.012 559.243 389.544C559.694 389.067 559.919 388.43 559.919 387.633C559.919 386.862 559.689 386.238 559.23 385.761C558.771 385.276 558.212 385.033 557.553 385.033C556.903 385.033 556.335 385.28 555.85 385.774C555.365 386.268 555.122 386.892 555.122 387.646C555.122 388.4 555.365 389.024 555.85 389.518C556.335 390.003 556.903 390.246 557.553 390.246ZM564.418 391V385.163H562.013V384.279H567.837V385.163H565.432V391H564.418ZM569.293 391V384.279H570.294V389.596L574.285 384.279H575.26V391H574.259V385.683L570.255 391H569.293ZM577.494 391V384.279H580.744C581.411 384.279 581.944 384.431 582.343 384.734C582.742 385.037 582.941 385.445 582.941 385.956C582.941 386.675 582.568 387.191 581.823 387.503C582.811 387.772 583.305 388.326 583.305 389.167C583.305 389.73 583.084 390.177 582.642 390.506C582.2 390.835 581.606 391 580.861 391H577.494ZM578.495 390.142H580.731C581.208 390.142 581.585 390.042 581.862 389.843C582.139 389.644 582.278 389.366 582.278 389.011C582.278 388.682 582.131 388.426 581.836 388.244C581.55 388.062 581.138 387.971 580.601 387.971H578.495V390.142ZM578.495 387.165H580.562C580.978 387.165 581.307 387.074 581.55 386.892C581.801 386.701 581.927 386.433 581.927 386.086C581.927 385.8 581.81 385.57 581.576 385.397C581.342 385.224 581.013 385.137 580.588 385.137H578.495V387.165ZM585.111 391V384.279H586.112V387.178H589.986V384.279H590.987V391H589.986V388.062H586.112V391H585.111ZM595.225 391.143C594.541 391.143 593.951 390.957 593.457 390.584C592.963 390.211 592.716 389.691 592.716 389.024C592.716 388.322 592.976 387.78 593.496 387.399C594.016 387.018 594.714 386.827 595.589 386.827C596.283 386.827 596.967 386.922 597.643 387.113V386.905C597.643 386.316 597.47 385.865 597.123 385.553C596.777 385.241 596.287 385.085 595.654 385.085C594.996 385.085 594.315 385.245 593.613 385.566L593.314 384.747C594.146 384.366 594.961 384.175 595.758 384.175C596.712 384.175 597.435 384.422 597.929 384.916C598.397 385.384 598.631 386.043 598.631 386.892V391H597.643V389.999C597.045 390.762 596.239 391.143 595.225 391.143ZM595.42 390.337C596.044 390.337 596.573 390.168 597.006 389.83C597.44 389.492 597.656 389.059 597.656 388.53V387.906C596.998 387.715 596.343 387.62 595.693 387.62C595.078 387.62 594.597 387.746 594.25 387.997C593.904 388.24 593.73 388.573 593.73 388.998C593.73 389.405 593.891 389.73 594.211 389.973C594.541 390.216 594.944 390.337 595.42 390.337ZM600.154 391L602.208 388.4C601.679 388.279 601.246 388.04 600.908 387.685C600.578 387.33 600.414 386.892 600.414 386.372C600.414 385.748 600.639 385.245 601.09 384.864C601.54 384.474 602.16 384.279 602.949 384.279H606.108V391H605.107V388.556H603.248C603.17 388.66 602.901 389.015 602.442 389.622C601.982 390.229 601.631 390.688 601.389 391H600.154ZM603.027 387.711H605.107V385.163H603.001C602.507 385.163 602.117 385.276 601.831 385.501C601.553 385.718 601.415 386.021 601.415 386.411C601.415 386.81 601.562 387.126 601.857 387.36C602.16 387.594 602.55 387.711 603.027 387.711ZM519.872 407.143C519.188 407.143 518.598 406.957 518.104 406.584C517.61 406.211 517.363 405.691 517.363 405.024C517.363 404.322 517.623 403.78 518.143 403.399C518.663 403.018 519.361 402.827 520.236 402.827C520.93 402.827 521.614 402.922 522.29 403.113V402.905C522.29 402.316 522.117 401.865 521.77 401.553C521.424 401.241 520.934 401.085 520.301 401.085C519.643 401.085 518.962 401.245 518.26 401.566L517.961 400.747C518.793 400.366 519.608 400.175 520.405 400.175C521.359 400.175 522.082 400.422 522.576 400.916C523.044 401.384 523.278 402.043 523.278 402.892V407H522.29V405.999C521.692 406.762 520.886 407.143 519.872 407.143ZM520.067 406.337C520.691 406.337 521.22 406.168 521.653 405.83C522.087 405.492 522.303 405.059 522.303 404.53V403.906C521.645 403.715 520.99 403.62 520.34 403.62C519.725 403.62 519.244 403.746 518.897 403.997C518.551 404.24 518.377 404.573 518.377 404.998C518.377 405.405 518.538 405.73 518.858 405.973C519.188 406.216 519.591 406.337 520.067 406.337ZM525.399 409.08V400.279H526.4V401.631C527.076 400.634 527.934 400.136 528.974 400.136C529.832 400.136 530.581 400.457 531.223 401.098C531.864 401.731 532.185 402.58 532.185 403.646C532.185 404.695 531.864 405.54 531.223 406.181C530.581 406.822 529.832 407.143 528.974 407.143C527.916 407.143 527.058 406.666 526.4 405.713V409.08H525.399ZM528.792 406.246C529.468 406.246 530.031 406.012 530.482 405.544C530.932 405.067 531.158 404.43 531.158 403.633C531.158 402.862 530.928 402.238 530.469 401.761C530.009 401.276 529.45 401.033 528.792 401.033C528.142 401.033 527.574 401.28 527.089 401.774C526.603 402.268 526.361 402.892 526.361 403.646C526.361 404.4 526.603 405.024 527.089 405.518C527.574 406.003 528.142 406.246 528.792 406.246ZM536.97 407.156C536.025 407.156 535.228 406.831 534.578 406.181C533.936 405.522 533.616 404.677 533.616 403.646C533.616 402.667 533.923 401.839 534.539 401.163C535.154 400.478 535.921 400.136 536.84 400.136C537.802 400.136 538.564 400.474 539.128 401.15C539.691 401.826 539.973 402.675 539.973 403.698C539.973 403.828 539.968 403.945 539.96 404.049H534.63C534.699 404.734 534.955 405.28 535.397 405.687C535.847 406.086 536.38 406.285 536.996 406.285C537.802 406.285 538.508 405.969 539.115 405.336L539.739 405.895C538.985 406.736 538.062 407.156 536.97 407.156ZM534.63 403.243H538.959C538.898 402.593 538.681 402.056 538.309 401.631C537.945 401.198 537.446 400.981 536.814 400.981C536.242 400.981 535.752 401.193 535.345 401.618C534.937 402.043 534.699 402.584 534.63 403.243ZM541.725 407V400.279H542.726V403.178H546.6V400.279H547.601V407H546.6V404.062H542.726V407H541.725ZM551.839 407.143C551.155 407.143 550.565 406.957 550.071 406.584C549.577 406.211 549.33 405.691 549.33 405.024C549.33 404.322 549.59 403.78 550.11 403.399C550.63 403.018 551.328 402.827 552.203 402.827C552.897 402.827 553.581 402.922 554.257 403.113V402.905C554.257 402.316 554.084 401.865 553.737 401.553C553.391 401.241 552.901 401.085 552.268 401.085C551.61 401.085 550.929 401.245 550.227 401.566L549.928 400.747C550.76 400.366 551.575 400.175 552.372 400.175C553.326 400.175 554.049 400.422 554.543 400.916C555.011 401.384 555.245 402.043 555.245 402.892V407H554.257V405.999C553.659 406.762 552.853 407.143 551.839 407.143ZM552.034 406.337C552.658 406.337 553.187 406.168 553.62 405.83C554.054 405.492 554.27 405.059 554.27 404.53V403.906C553.612 403.715 552.957 403.62 552.307 403.62C551.692 403.62 551.211 403.746 550.864 403.997C550.518 404.24 550.344 404.573 550.344 404.998C550.344 405.405 550.505 405.73 550.825 405.973C551.155 406.216 551.558 406.337 552.034 406.337Z" fill="white"/>
<path d="M289.885 388L294.032 378.835H294.994L299.141 388H298.036L296.97 385.595H292.017L290.938 388H289.885ZM292.42 384.672H296.567L294.5 380.031L292.42 384.672ZM300.767 388V381.279H301.768V385.153L305.447 381.279H306.682L303.874 384.191L306.76 388H305.577L303.185 384.919L301.768 386.375V388H300.767ZM308.143 388V381.279H311.393C312.06 381.279 312.593 381.431 312.992 381.734C313.391 382.037 313.59 382.445 313.59 382.956C313.59 383.675 313.217 384.191 312.472 384.503C313.46 384.772 313.954 385.326 313.954 386.167C313.954 386.73 313.733 387.177 313.291 387.506C312.849 387.835 312.255 388 311.51 388H308.143ZM309.144 387.142H311.38C311.857 387.142 312.234 387.042 312.511 386.843C312.788 386.644 312.927 386.366 312.927 386.011C312.927 385.682 312.78 385.426 312.485 385.244C312.199 385.062 311.787 384.971 311.25 384.971H309.144V387.142ZM309.144 384.165H311.211C311.627 384.165 311.956 384.074 312.199 383.892C312.45 383.701 312.576 383.433 312.576 383.086C312.576 382.8 312.459 382.57 312.225 382.397C311.991 382.224 311.662 382.137 311.237 382.137H309.144V384.165ZM317.762 388.143C317.077 388.143 316.488 387.957 315.994 387.584C315.5 387.211 315.253 386.691 315.253 386.024C315.253 385.322 315.513 384.78 316.033 384.399C316.553 384.018 317.251 383.827 318.126 383.827C318.819 383.827 319.504 383.922 320.18 384.113V383.905C320.18 383.316 320.007 382.865 319.66 382.553C319.313 382.241 318.824 382.085 318.191 382.085C317.532 382.085 316.852 382.245 316.15 382.566L315.851 381.747C316.683 381.366 317.498 381.175 318.295 381.175C319.248 381.175 319.972 381.422 320.466 381.916C320.934 382.384 321.168 383.043 321.168 383.892V388H320.18V386.999C319.582 387.762 318.776 388.143 317.762 388.143ZM317.957 387.337C318.581 387.337 319.11 387.168 319.543 386.83C319.976 386.492 320.193 386.059 320.193 385.53V384.906C319.534 384.715 318.88 384.62 318.23 384.62C317.615 384.62 317.134 384.746 316.787 384.997C316.44 385.24 316.267 385.573 316.267 385.998C316.267 386.405 316.427 386.73 316.748 386.973C317.077 387.216 317.48 387.337 317.957 387.337ZM323.288 388V381.279H324.289V385.153L327.968 381.279H329.203L326.395 384.191L329.281 388H328.098L325.706 384.919L324.289 386.375V388H323.288ZM336.241 387.129C335.565 387.814 334.729 388.156 333.732 388.156C332.736 388.156 331.904 387.814 331.236 387.129C330.578 386.444 330.248 385.617 330.248 384.646C330.248 383.684 330.582 382.861 331.249 382.176C331.925 381.483 332.762 381.136 333.758 381.136C334.755 381.136 335.587 381.478 336.254 382.163C336.922 382.848 337.255 383.675 337.255 384.646C337.255 385.608 336.917 386.436 336.241 387.129ZM333.758 387.259C334.478 387.259 335.067 387.008 335.526 386.505C335.994 386.002 336.228 385.383 336.228 384.646C336.228 383.918 335.986 383.298 335.5 382.787C335.024 382.276 334.434 382.02 333.732 382.02C333.013 382.02 332.424 382.276 331.964 382.787C331.505 383.29 331.275 383.909 331.275 384.646C331.275 385.374 331.514 385.994 331.99 386.505C332.467 387.008 333.056 387.259 333.758 387.259ZM339.069 388V381.279H340.018L342.527 384.815L345.036 381.279H345.998V388H344.984V382.878L342.501 386.284L340.044 382.878V388H339.069ZM348.235 388V381.279H354.059V388H353.058V382.163H349.236V388H348.235ZM355.971 388.104C355.711 388.104 355.443 388.069 355.165 388L355.282 387.142C355.482 387.203 355.642 387.233 355.763 387.233C355.954 387.233 356.11 387.211 356.231 387.168C356.353 387.116 356.483 386.99 356.621 386.791C356.769 386.583 356.881 386.293 356.959 385.92C357.037 385.547 357.102 385.019 357.154 384.334C357.215 383.649 357.245 382.817 357.245 381.838V381.279H362.003V388H361.002V382.163H358.194V382.319C358.194 383.342 358.155 384.213 358.077 384.932C357.999 385.651 357.9 386.215 357.778 386.622C357.666 387.029 357.505 387.346 357.297 387.571C357.089 387.796 356.886 387.939 356.686 388C356.496 388.069 356.257 388.104 355.971 388.104ZM367.181 388.156C366.237 388.156 365.439 387.831 364.789 387.181C364.148 386.522 363.827 385.677 363.827 384.646C363.827 383.667 364.135 382.839 364.75 382.163C365.366 381.478 366.133 381.136 367.051 381.136C368.013 381.136 368.776 381.474 369.339 382.15C369.903 382.826 370.184 383.675 370.184 384.698C370.184 384.828 370.18 384.945 370.171 385.049H364.841C364.911 385.734 365.166 386.28 365.608 386.687C366.059 387.086 366.592 387.285 367.207 387.285C368.013 387.285 368.72 386.969 369.326 386.336L369.95 386.895C369.196 387.736 368.273 388.156 367.181 388.156ZM364.841 384.243H369.17C369.11 383.593 368.893 383.056 368.52 382.631C368.156 382.198 367.658 381.981 367.025 381.981C366.453 381.981 365.964 382.193 365.556 382.618C365.149 383.043 364.911 383.584 364.841 384.243ZM371.937 388V381.279H372.938V385.153L376.617 381.279H377.852L375.044 384.191L377.93 388H376.747L374.355 384.919L372.938 386.375V388H371.937ZM382.342 388.156C381.371 388.156 380.552 387.814 379.885 387.129C379.226 386.436 378.897 385.608 378.897 384.646C378.897 383.684 379.226 382.861 379.885 382.176C380.552 381.483 381.371 381.136 382.342 381.136C383.382 381.136 384.279 381.535 385.033 382.332L384.396 383.008C383.772 382.349 383.083 382.02 382.329 382.02C381.653 382.02 381.081 382.276 380.613 382.787C380.153 383.29 379.924 383.909 379.924 384.646C379.924 385.374 380.158 385.994 380.626 386.505C381.102 387.008 381.692 387.259 382.394 387.259C383.113 387.259 383.789 386.921 384.422 386.245L385.085 386.856C384.305 387.723 383.39 388.156 382.342 388.156ZM308.302 404.104C307.894 404.104 307.5 404.03 307.119 403.883L307.327 403.051C307.517 403.138 307.786 403.181 308.133 403.181C308.306 403.181 308.462 403.155 308.601 403.103C308.739 403.042 308.904 402.886 309.095 402.635C309.285 402.375 309.441 402.024 309.563 401.582C309.684 401.131 309.788 400.477 309.875 399.619C309.97 398.752 310.018 397.73 310.018 396.551V394.9H315.907V404H314.88V395.836H311.006V396.824C311.006 398.055 310.954 399.121 310.85 400.022C310.754 400.923 310.624 401.634 310.46 402.154C310.304 402.665 310.1 403.073 309.849 403.376C309.606 403.679 309.363 403.879 309.121 403.974C308.887 404.061 308.614 404.104 308.302 404.104ZM319.346 406.119C318.86 406.119 318.384 406.006 317.916 405.781L318.254 404.988C318.574 405.153 318.925 405.235 319.307 405.235C319.61 405.235 319.866 405.14 320.074 404.949C320.282 404.767 320.485 404.442 320.685 403.974L317.63 397.279H318.735L321.179 402.882L323.337 397.279H324.403L321.582 404.221C321.296 404.906 320.979 405.391 320.633 405.677C320.286 405.972 319.857 406.119 319.346 406.119ZM325.128 404L327.884 400.152L325.271 397.279H326.48L329.899 401.179V397.279H330.9V401.179L334.319 397.279H335.528L332.915 400.152L335.671 404H334.501L332.265 400.867L330.9 402.362V404H329.899V402.362L328.534 400.867L326.298 404H325.128ZM337.044 404V397.279H338.045V400.178H341.919V397.279H342.92V404H341.919V401.062H338.045V404H337.044ZM345.156 404V397.279H346.157V402.596L350.148 397.279H351.123V404H350.122V398.683L346.118 404H345.156ZM353.357 404V397.279H354.358V401.153L358.037 397.279H359.272L356.464 400.191L359.35 404H358.167L355.775 400.919L354.358 402.375V404H353.357ZM360.733 404V397.279H361.734V402.596L365.725 397.279H366.7V404H365.699V398.683L361.695 404H360.733Z" fill="white"/>
<path d="M343.95 510C343.7 511.69 342.26 513 340.5 513H339V511H342C341.93 509.72 342.26 507.04 341.53 505.95C340.56 503.9 337.83 503.56 335.93 503.05C335 503 334 502 333.84 501H331C330.72 501 330.5 500.78 330.5 500.5C330.5 500.22 330.72 500 331 500H333.5V499H331C330.72 499 330.5 498.78 330.5 498.5C330.5 498.22 330.72 498 331 498H333.5V495H325.03V511H328V513H324V515H340.5C343.36 515 345.72 512.8 346 510H343.95ZM337 513H330V511H337V513Z" fill="white"/>
<rect x="405" y="385" width="46" height="16" rx="5" fill="#AF1917"/>
<rect x="398" y="385" width="14" height="32" rx="5" fill="#AF1917"/>
<path d="M370.088 452H339.913C336.647 452 334 454.276 334 457.083V483.03C334 485.838 336.647 488.115 339.913 488.115H370.088C373.353 488.115 376 485.838 376 483.03V457.083C376 454.276 373.353 452 370.088 452Z" fill="#AF1917"/>
<rect x="282" y="421" width="111" height="9.02864" rx="4.51432" fill="#AF1917"/>
<defs>
<clipPath id="clip0_442_656">
<rect width="45" height="45" fill="white" transform="translate(182 401)"/>
</clipPath>
<clipPath id="clip1_442_656">
<rect width="45" height="45" fill="white" transform="translate(587 714)"/>
</clipPath>
<clipPath id="clip2_442_656">
<rect width="45" height="45" fill="white" transform="translate(762 715)"/>
</clipPath>
</defs>
</svg>
