<svg width="1232" height="788" viewBox="0 0 1232 788" fill="none" xmlns="http://www.w3.org/2000/svg">
<path d="M560 55C560 55 574.465 55 601 67" stroke="#2D74CA" stroke-width="3" stroke-miterlimit="10"/>
<path d="M512 23L517.926 96L552.576 94.3093L558 23.8951L512 23Z" fill="#2D74CA"/>
<path d="M614 707.7V624.9L993.4 622L1177 689.8L1175.1 715L972.9 676.9L816.2 674.5L614 707.7Z" fill="#2D74CA"/>
<path d="M791 363H282V430H791V363Z" fill="#2D74CA"/>
<path d="M549 195H525V397H549V195Z" fill="#2D74CA"/>
<path d="M543.331 296H530.669C524.786 296 520 291.2 520 285.2V216.8C520 210.8 524.786 206 530.669 206H543.331C549.214 206 554 210.8 554 216.8V285.2C554 291.2 549.214 296 543.331 296Z" fill="#2D74CA"/>
<path d="M554 321H523C479.9 321 445 355.9 445 399C445 442.1 479.9 477 523 477H554C597.1 477 632 442.1 632 399C632 355.9 597 321 554 321Z" fill="#2D74CA"/>
<path d="M537 710C512.1 710 492 689.9 492 665.1V458H582V665.1C582 689.9 561.8 710 537 710Z" fill="#2D74CA"/>
<path d="M1002 458H921V622H1002V458Z" fill="#2D74CA"/>
<path d="M911 586H835V611H911V586Z" fill="#2D74CA"/>
<path d="M1056 630C1042.2 630 1031 618.9 1031 605.1V554.9C1031 541.2 1042.2 530 1056 530C1069.8 530 1081 541.1 1081 554.9V605.1C1081 618.9 1069.8 630 1056 630Z" fill="#2D74CA"/>
<path d="M1090 548H1077V614H1090V548Z" fill="#2D74CA"/>
<path d="M1120 537H1090V615H1120V537Z" fill="#2D74CA"/>
<path d="M1117 622H1083V640H1117V622Z" fill="#2D74CA"/>
<path d="M1095 486H1071V522H1095V486Z" fill="#2D74CA"/>
<path d="M1067 486H1044V522H1067V486Z" fill="#2D74CA"/>
<path d="M919 434H890V458H919V434Z" fill="#2D74CA"/>
<path d="M818 272H707V329H818V272Z" fill="#2D74CA"/>
<path d="M818 327H724V344H818V327Z" fill="#2D74CA"/>
<path d="M758 340H728V364H758V340Z" fill="#2D74CA"/>
<path d="M435 546H282V595H435V546Z" fill="#2D74CA"/>
<path d="M324 593H311V603H324V593Z" fill="#2D74CA"/>
<path d="M470 589H459V600H470V589Z" fill="#2D74CA"/>
<path d="M356.774 528H310.225C296.811 528 286 517.3 286 504C286 490.7 296.911 480 310.225 480H356.774C370.188 480 380.999 490.7 380.999 504C381.099 517.3 370.188 528 356.774 528Z" fill="#2D74CA"/>
<path d="M359 523H303V547H359V523Z" fill="#2D74CA"/>
<path d="M660 555H598V620H660V555Z" fill="#2D74CA"/>
<path d="M660 537H629V561H660V537Z" fill="#2D74CA"/>
<path d="M767 547H660V590H767V547Z" fill="#2D74CA"/>
<path d="M766 526H713V552H766V526Z" fill="#2D74CA"/>
<path d="M765.8 529H719.2C705.3 529 694 517.8 694 504C694 490.2 705.3 479 719.2 479H765.8C779.7 479 791 490.2 791 504C791 517.8 779.7 529 765.8 529Z" fill="#2D74CA"/>
<path d="M285 392H235V406H285V392Z" fill="#2D74CA"/>
<path d="M226 621L216.1 559H194.9L157.2 526.1L191.6 443.9L145.4 427L106.8 515.8C106.8 515.8 92.2 522.4 89.4 535.3C86.6 548.2 93.2 568.4 93.2 568.4L73.9 567L60 618.8L226 621Z" fill="#2D74CA"/>
<path d="M418.8 209L396 214.3L402.2 240L425 234.7L418.8 209Z" fill="#2D74CA"/>
<path d="M241.7 292L224 306.9L241.3 327L259 312.1L241.7 292Z" fill="#2D74CA"/>
<path d="M650.6 197L648 223.7L671.4 226L674 199.3L650.6 197Z" fill="#2D74CA"/>
<path d="M655.9 296L631 318.7L644.1 333L669 310.3L655.9 296Z" fill="#2D74CA"/>
<path d="M619.3 331L604 344.7L613.7 355L629 341.3L619.3 331Z" fill="#2D74CA"/>
<path d="M420.2 296L407 310.4L432.8 334L446 319.6L420.2 296Z" fill="#2D74CA"/>
<path d="M458.5 333L449 343.5L462.5 356L472 345.5L458.5 333Z" fill="#2D74CA"/>
<path d="M680.3 311L655 334.5L673.7 355L699 331.5L680.3 311Z" fill="#2D74CA"/>
<path d="M616.6 239L597 272.8L644.3 300L664 266.2L616.6 239Z" fill="#2D74CA"/>
<path d="M910.2 267L897 290.3L916.8 302L930 278.7L910.2 267Z" fill="#2D74CA"/>
<path d="M1117 482L1098 493L1109 512L1128 501L1117 482Z" fill="#2D74CA"/>
<path d="M474.3 200L436 206.3L438.7 223L477 216.7L474.3 200Z" fill="#2D74CA"/>
<path d="M708.5 202L705 218.8L743.5 227L747 210.2L708.5 202Z" fill="#2D74CA"/>
<path d="M781 443H751V469H781V443Z" fill="#2D74CA"/>
<path d="M732 443H702V469H732V443Z" fill="#2D74CA"/>
<path d="M872.6 425L845 452.6L864.4 472L892 444.4L872.6 425Z" fill="#2D74CA"/>
<path d="M915 469H873V556H915V469Z" fill="#2D74CA"/>
<path d="M448.2 495L435 517.9L469.8 538L483 515.1L448.2 495Z" fill="#2D74CA"/>
<path d="M406.3 440L384 454.3L405.7 488L428 473.7L406.3 440Z" fill="#2D74CA"/>
<path d="M669.7 440L648 473.7L670.3 488L692 454.3L669.7 440Z" fill="#2D74CA"/>
<path d="M437 469L415 491L428 504L450 482L437 469Z" fill="#2D74CA"/>
<path d="M472.9 438L451 459.9L459.1 468L481 446.1L472.9 438Z" fill="#2D74CA"/>
<path d="M635 471L622 484L644 506L657 493L635 471Z" fill="#2D74CA"/>
<path d="M599.1 439L591 447.1L612.9 469L621 460.9L599.1 439Z" fill="#2D74CA"/>
<path d="M592 315.9L578.5 310.6L562 308H513.3L495.7 311.4L483 315.8V358H592V315.9V315.9Z" fill="#2D74CA"/>
<path d="M503 198H490V278H503V198Z" fill="#2D74CA"/>
<path d="M583 227H570V277H583V227Z" fill="#2D74CA"/>
<path d="M583 208H570V224H583V208Z" fill="#2D74CA"/>
<path d="M502 291.5C502 288.5 499.5 286 496.5 286C493.5 286 491 288.5 491 291.5C491 294.5 493.5 297 496.5 297C499.5 297 502 294.5 502 291.5Z" fill="#2D74CA"/>
<path d="M582 291.5C582 288.5 579.5 286 576.5 286C573.5 286 571 288.5 571 291.5C571 294.5 573.5 297 576.5 297C579.5 297 582 294.5 582 291.5Z" fill="#2D74CA"/>
<path d="M750.362 211C748.859 216.516 752.165 222.233 757.876 223.637C763.586 225.141 769.497 221.832 771 216.315" fill="#2D74CA"/>
<path d="M338 237.69C339.904 243.281 346.015 246.276 351.626 244.479C357.237 242.582 360.343 236.591 358.439 231" fill="#2D74CA"/>
<path d="M370 443H342V469H370V443Z" fill="#2D74CA"/>
<path d="M796.2 416H787V383H796.2C805.5 383 813 390.4 813 399.5C813 408.6 805.5 416 796.2 416Z" fill="#2D74CA"/>
<path d="M850 392H808V406H845.3L850 392Z" fill="#2D74CA"/>
<path d="M1068 396H845V402H1068V396Z" fill="#2D74CA"/>
<path d="M970 301H963V463H970V301Z" fill="#2D74CA"/>
<path d="M948 378C948 375.8 946.2 374 944 374C941.8 374 940 375.8 940 378C940 380.2 941.8 382 944 382C946.2 382 948 380.2 948 378Z" fill="#2D74CA"/>
<path d="M991 377C991 374.8 989.2 373 987 373C984.8 373 983 374.8 983 377C983 379.2 984.8 381 987 381C989.2 381 991 379.2 991 377Z" fill="#2D74CA"/>
<path d="M949 420C949 417.8 947.2 416 945 416C942.8 416 941 417.8 941 420C941 422.2 942.8 424 945 424C947.2 424 949 422.2 949 420Z" fill="#2D74CA"/>
<path d="M991 421C991 418.8 989.2 417 987 417C984.8 417 983 418.8 983 421C983 423.2 984.8 425 987 425C989.2 425 991 423.2 991 421Z" fill="#2D74CA"/>
<path d="M966 360C962.1 360 959 363.2 959 367.1V371H973V367.1C973 363.2 969.8 360 966 360Z" fill="#2D74CA"/>
<path d="M1029 494H998V522H1029V494Z" fill="#2D74CA"/>
<path d="M1039 576H1024V586H1039V576Z" fill="#2D74CA"/>
<path d="M244.659 610.304L264.469 541.227C267.771 529.631 265.67 517.136 258.766 507.239L238.456 478.449C231.853 469.052 230.653 456.756 235.355 446.26L241.858 428.266V372.285L199.137 330L157.217 379.383L123 433.464L166.421 415.871C169.523 414.571 172.824 414.071 176.226 414.171L195.836 415.171C200.038 415.371 203.539 418.57 204.14 422.768L233.454 621H246.26L244.659 610.304Z" fill="#2D74CA"/>
<path d="M866.8 247L777 622.3L784.2 624L874 248.7L866.8 247Z" fill="#2D74CA"/>
<path d="M881.6 248L792 623.4L794.4 624L884 248.6L881.6 248Z" fill="#2D74CA"/>
<path d="M855.6 248L766 623.4L768.4 624L858 248.6L855.6 248Z" fill="#2D74CA"/>
<path d="M787.042 629L793.76 601.032C794.863 596.622 792.055 592.211 787.644 591.209C783.232 590.206 778.72 592.913 777.718 597.223L771 625.191L787.042 629Z" fill="#2D74CA"/>
<path d="M820 570H811V609H820V570Z" fill="#2D74CA"/>
<path d="M828 595H816V610H828V595Z" fill="#2D74CA"/>
<path d="M461 737.7L458.7 625H239L259.4 759L373 749L461 737.7Z" fill="#2D74CA"/>
<path d="M349.7 236L348 237.7L430.3 321L432 319.3L349.7 236Z" fill="#2D74CA"/>
<path d="M514 195H512V312H514V195Z" fill="#2D74CA"/>
<path d="M563 193H561V322H563V193Z" fill="#2D74CA"/>
<path d="M593 193H591V333H593V193Z" fill="#2D74CA"/>
<path d="M484 198H482V339H484V198Z" fill="#2D74CA"/>
<path d="M576 290H497V292H576V290Z" fill="#2D74CA"/>
<path d="M578 265H500V267H578V265Z" fill="#2D74CA"/>
<path d="M575 240H498V242H575V240Z" fill="#2D74CA"/>
<path d="M578 215H498V217H578V215Z" fill="#2D74CA"/>
<path d="M556.6 491H520.4C469.4 491 428 449.5 428 398.5C428 347.5 469.5 306 520.4 306H556.6C607.6 306 649 347.5 649 398.5C649 449.5 607.5 491 556.6 491ZM520.4 308.5C470.8 308.5 430.4 348.9 430.4 398.5C430.4 448.1 470.8 488.5 520.4 488.5H556.6C606.2 488.5 646.6 448.1 646.6 398.5C646.6 348.9 606.2 308.5 556.6 308.5H520.4V308.5Z" fill="#2D74CA"/>
<path d="M560.158 507H517.942C458.419 507 410 458.577 410 399.049C410 353.127 439.111 312.208 482.328 297.101L483.228 299.802C441.112 314.509 412.801 354.428 412.801 399.049C412.801 456.976 459.919 504.199 517.842 504.199H560.058C617.981 504.199 665.099 457.076 665.099 399.049C665.099 352.727 635.487 312.408 591.27 298.701L592.171 296C637.488 310.107 668 351.526 668 399.149C668.1 458.577 619.681 507 560.158 507Z" fill="#2D74CA"/>
<path d="M593 106.164L592.5 109C581.2 104.99 569.1 102.741 556.4 102.741H514.2C501.7 102.741 489.7 104.893 478.6 108.804L478 106.066C489.3 102.155 501.5 100.003 514.2 100.003H556.3C569.2 99.9053 581.5 102.154 593 106.164Z" fill="#2D74CA"/>
<path d="M593 100.164L592.5 103C581.2 98.9905 569.1 96.7413 556.4 96.7413H514.2C501.7 96.7413 489.7 98.8927 478.6 102.804L478 100.066C489.3 96.1545 501.5 94.0031 514.2 94.0031H556.3C569.2 93.9053 581.5 96.1545 593 100.164Z" fill="#2D74CA"/>
<path d="M757.1 217L655 306.8L656.9 309L759 219.2L757.1 217Z" fill="#2D74CA"/>
<path d="M762 218H759V278H762V218Z" fill="#2D74CA"/>
<path d="M667.1 297L665 298.9L688.9 325L691 323.1L667.1 297Z" fill="#2D74CA"/>
<path d="M635.1 318L617 334.9L618.9 337L637 320.1L635.1 318Z" fill="#2D74CA"/>
<path d="M641.1 324L623 340.9L624.9 343L643 326.1L641.1 324Z" fill="#2D74CA"/>
<path d="M443.7 323L442 324.8L456.3 338L458 336.2L443.7 323Z" fill="#2D74CA"/>
<path d="M438.6 328L437 329.9L450.4 343L452 341.1L438.6 328Z" fill="#2D74CA"/>
<path d="M578 220H576V290H578V220Z" fill="#2D74CA"/>
<path d="M497 271H495V290H497V271Z" fill="#2D74CA"/>
<path d="M409.8 482L408 483.7L439.2 517L441 515.3L409.8 482Z" fill="#2D74CA"/>
<path d="M453.3 460L438 474.2L439.7 476L455 461.8L453.3 460Z" fill="#2D74CA"/>
<path d="M445.7 480L444 478.2L459.3 463L461 464.8L445.7 480Z" fill="#2D74CA"/>
<path d="M616.8 467L615 468.7L636.2 491L638 489.3L616.8 467Z" fill="#2D74CA"/>
<path d="M619.7 463L618 464.7L637.3 484L639 482.3L619.7 463Z" fill="#2D74CA"/>
<path d="M634.7 515L633 513.2L666.3 481L668 482.8L634.7 515Z" fill="#2D74CA"/>
<path d="M702.3 550L650 498.8L651.7 497L704 548.2L702.3 550Z" fill="#2D74CA"/>
<path d="M420.7 488L367 522.9L368.3 525L422 490.1L420.7 488Z" fill="#2D74CA"/>
<path d="M439 487L398 548.6L400 550L441 488.4L439 487Z" fill="#2D74CA"/>
<path d="M499 546H424V548H499V546Z" fill="#2D74CA"/>
<path d="M500 593H430V595H500V593Z" fill="#2D74CA"/>
<path d="M609 579L576 592.8L577 595L610 581.2L609 579Z" fill="#2D74CA"/>
<path d="M961 579H803V581H961V579Z" fill="#2D74CA"/>
<path d="M932 570H805V572H932V570Z" fill="#2D74CA"/>
<path d="M1050 575H998V577H1050V575Z" fill="#2D74CA"/>
<path d="M1044 584H1000V586H1044V584Z" fill="#2D74CA"/>
<path d="M1048.3 538L1024 513.7L1025.7 512L1050 536.3L1048.3 538Z" fill="#2D74CA"/>
<path d="M1080.5 515L1078 515.5L1085.5 552L1088 551.5L1080.5 515Z" fill="#2D74CA"/>
<path d="M1145 544H1115V546H1145V544Z" fill="#2D74CA"/>
<path d="M1161.4 606L1110 662.7L1113.6 666L1165 609.3L1161.4 606Z" fill="#2D74CA"/>
<path d="M1000.4 465H998V433.351L998.699 433.05L1065.9 401L1067 403.203L1000.5 434.953V465H1000.4Z" fill="#2D74CA"/>
<path d="M892 443H889.5V427.5H840V425H892V443Z" fill="#2D74CA"/>
<path d="M885 451H883V479H885V451Z" fill="#2D74CA"/>
<path d="M926 463H916V451H918.5V460.6H926V463Z" fill="#2D74CA"/>
<path d="M854 362H758V364H854V362Z" fill="#2D74CA"/>
<path d="M818.5 325L818 327.3L836.5 331L837 328.7L818.5 325Z" fill="#2D74CA"/>
<path d="M833.5 347L833 349.6L857.5 355L858 352.4L833.5 347Z" fill="#2D74CA"/>
<path d="M813.5 435L813 437.5L837.5 443L838 440.4L813.5 435Z" fill="#2D74CA"/>
<path d="M798.5 496L798 498.5L822.5 504L823 501.4L798.5 496Z" fill="#2D74CA"/>
<path d="M781.5 560L781 562.5L805.5 568L806 565.4L781.5 560Z" fill="#2D74CA"/>
<path d="M774.5 593L774 595.6L798.5 601L799 598.5L774.5 593Z" fill="#2D74CA"/>
<path d="M772.5 599L772 601.5L796.5 607L797 604.4L772.5 599Z" fill="#2D74CA"/>
<path d="M844.5 297L844 299.6L868.5 305L869 302.4L844.5 297Z" fill="#2D74CA"/>
<path d="M890 554H888V594H890V554Z" fill="#2D74CA"/>
<path d="M870 571H868V579H870V571Z" fill="#2D74CA"/>
<path d="M741 428H739V495H741V428Z" fill="#2D74CA"/>
<path d="M769 455H728V457H769V455Z" fill="#2D74CA"/>
<path d="M814 427H787V429H814V427Z" fill="#2D74CA"/>
<path d="M334 424H332V519H334V424Z" fill="#2D74CA"/>
<path d="M354 453H322V455H354V453Z" fill="#2D74CA"/>
<path d="M284 411H242V413H284V411Z" fill="#2D74CA"/>
<path d="M288 384H240V386H288V384Z" fill="#2D74CA"/>
<path d="M309 428H238V430H309V428Z" fill="#2D74CA"/>
<path d="M239.7 428L238 429.8L298.3 488L300 486.2L239.7 428Z" fill="#2D74CA"/>
<path d="M265.4 429L257 514.8L259.6 515L268 429.2L265.4 429Z" fill="#2D74CA"/>
<path d="M253 614.5C253 610.4 249.6 607 245.5 607C241.4 607 238 610.4 238 614.5C238 618.6 241.4 622 245.5 622C249.6 622 253 618.6 253 614.5Z" fill="#2D74CA"/>
<path d="M286 591L247 608.8L248 611L287 593.2L286 591Z" fill="#2D74CA"/>
<path d="M303 546H261V548H303V546Z" fill="#2D74CA"/>
<path d="M291 369H253.6C249.8 369 246.2 367.4 243.6 364.7L205 324.7L206.8 323L245.4 363C247.5 365.2 250.5 366.5 253.6 366.5H291V369Z" fill="#2D74CA"/>
<path d="M246 753L226.5 621L66.8 624.4L57 737.9L147.8 749.2L246 753Z" fill="#2D74CA"/>
<path d="M495 663H459V665H495V663Z" fill="#2D74CA"/>
<path d="M613 663H577V665H613V663Z" fill="#2D74CA"/>
<path d="M96.7 550L75 552.6L75.3 555L97 552.4L96.7 550Z" fill="#2D74CA"/>
<path d="M93 501L92 503.3L117 515L118 512.7L93 501Z" fill="#2D74CA"/>
<path d="M96.9 490L96 492.3L120.1 501L121 498.7L96.9 490Z" fill="#2D74CA"/>
<path d="M196.4 412L194 412.3L216.6 580L219 579.7L196.4 412Z" fill="#2D74CA"/>
<path d="M224.5 556L216 557.6L216.5 560L225 558.4L224.5 556Z" fill="#2D74CA"/>
<path d="M217.5 506L208 507.6L208.5 510L218 508.4L217.5 506Z" fill="#2D74CA"/>
<path d="M966.5 430C949.1 430 935 415.9 935 398.5C935 381.1 949.1 367 966.5 367C983.9 367 998 381.1 998 398.5C998 415.9 983.8 430 966.5 430ZM966.5 369.5C950.5 369.5 937.5 382.5 937.5 398.5C937.5 414.5 950.5 427.5 966.5 427.5C982.5 427.5 995.5 414.5 995.5 398.5C995.5 382.5 982.5 369.5 966.5 369.5Z" fill="#2D74CA"/>
<path d="M974.171 417H958.829L948 406.2V390.8L958.829 380H974.171L985 390.8V406.1L974.171 417ZM959.832 414.5H973.168L982.594 405.1V391.8L973.168 382.4H959.832L950.406 391.8V405.1L959.832 414.5Z" fill="#2D74CA"/>
<path d="M985.3 377L977 385.3L978.7 387L987 378.7L985.3 377Z" fill="#2D74CA"/>
<path d="M945.7 378L944 379.7L952.3 388L954 386.3L945.7 378Z" fill="#2D74CA"/>
<path d="M952.2 409L944 417.2L945.8 419L954 410.8L952.2 409Z" fill="#2D74CA"/>
<path d="M978.8 411L977 412.8L985.2 421L987 419.2L978.8 411Z" fill="#2D74CA"/>
<path d="M1190 718.055H1189.9V728.166C1163.7 720.157 1021.4 679.213 858.7 679.213C774.5 679.213 693.4 696.732 607.6 715.252C505.6 737.276 400.1 760 270.2 760C93.4 760 40.2 741.18 38 740.379L40.1 734.673L42.2 728.867C42.4 728.967 44.2 729.567 48 730.568C49.4 730.969 51 731.369 52.9 731.77C75.8 737.075 138.5 747.787 270.1 747.787C398.7 747.787 503.5 725.163 604.9 703.239C607.9 702.538 610.9 701.938 613.9 701.337C697.1 683.418 776.1 667 858.6 667C999.3 667 1125 697.333 1175 711.147C1175.1 711.147 1175.2 711.248 1175.3 711.248C1176.9 711.648 1178.4 712.149 1179.9 712.549C1181.3 712.949 1182.7 713.35 1183.9 713.65C1186 714.251 1188 714.851 1189.6 715.352C1189.7 715.352 1189.7 715.352 1189.8 715.352V716.754L1190 718.055Z" fill="#9AC8FF"/>
<path d="M198.115 313L186 314.9L253.885 760L266 758.1L198.115 313Z" fill="#9AC8FF"/>
<path d="M1173.4 696L1013.3 637.8C1001.5 633.5 989.1 631.3 976.6 631.3H59V619H976.6C990.6 619 1004.4 621.4 1017.5 626.2L1177 684.2L1173.4 696Z" fill="#9AC8FF"/>
<path d="M1190 718H1184V704H1188.6L1189.7 715.3L1189.8 716.7L1190 718Z" fill="#9AC8FF"/>
<path d="M38.3 741L38 719H43V735.2L38.3 741Z" fill="#9AC8FF"/>
<path d="M48.0719 734C48.0719 733.4 46.0717 672.7 63.1736 593.2C78.7754 519.8 114.479 414.8 194.788 331.5C285.399 237.6 413.013 190 574.031 190C699.746 190 808.958 212.6 898.568 257.1C973.077 294.1 1034.58 346.5 1081.49 412.8C1177.3 548.3 1180 697.7 1180 714.3H1175.1C1175.1 697.9 1172.4 550 1077.49 415.7C1031.08 350.1 970.176 298.2 896.368 261.5C807.458 217.3 698.946 194.9 574.031 194.9C414.313 194.9 287.899 242 198.289 334.9C118.78 417.3 83.4759 521.3 67.8741 594.1C50.9722 673 52.8724 733.2 52.8724 733.8L48.0719 734Z" fill="#9AC8FF"/>
<path d="M38.0726 723C38.0726 722.4 36.0727 662.7 53.0716 584.3C68.7706 511.9 104.168 408.2 184.163 325.2C276.457 229.5 407.249 181 572.939 181C700.731 181 811.724 203.5 902.818 247.9C978.613 284.8 1041.11 337 1088.81 403.1C1125.8 454.4 1153.4 513.2 1170.7 577.8C1187.2 639.4 1189 686.2 1189 703.5H1184.1C1184.1 687.1 1181.3 539.8 1084.91 406C1037.71 340.6 975.813 288.9 900.818 252.4C810.424 208.3 700.131 186 573.039 186C408.749 186 279.157 234 187.863 328.7C144.166 374 86.1695 455.3 58.0713 585.3C41.2724 663.1 43.1722 722.3 43.1722 722.9L38.0726 723Z" fill="#9AC8FF"/>
<path d="M789 538H765V540H789V538Z" fill="#2D74CA"/>
<path d="M557.5 336H514.5C481.1 336 454 363.1 454 396.5C454 429.9 481.1 457 514.5 457H557.5C590.9 457 618 429.9 618 396.5C618 363.1 590.9 336 557.5 336Z" fill="#134178"/>
<path d="M786 366H682V424H786V366Z" fill="#134178"/>
<path d="M390 366H286V424H390V366Z" fill="#134178"/>
<path d="M926 334H868V382H926V334Z" fill="#134178"/>
<path d="M909 474H879V551H909V474Z" fill="#134178"/>
<path d="M995 465H928V552H995V465Z" fill="#134178"/>
<path d="M764 530H717V544H764V530Z" fill="#134178"/>
<path d="M354 530H307V544H354V530Z" fill="#134178"/>
<path d="M652 558H603V595H652V558Z" fill="#134178"/>
<path d="M136.4 580H119.6C108.8 580 100 571.2 100 560.4V543.6C100 532.8 108.8 524 119.6 524H136.4C147.2 524 156 532.8 156 543.6V560.4C156 571.2 147.2 580 136.4 580Z" fill="#134178"/>
<path d="M513 603H504V615H513V603Z" fill="#134178"/>
<path d="M572 603H563V615H572V603Z" fill="#134178"/>
<path d="M538.5 698C520 698 505 683.2 505 664.9V630H511.7V664.9C511.7 679.5 523.7 691.3 538.5 691.3C553.3 691.3 565.3 679.4 565.3 664.9V630H572V664.9C572 683.2 556.9 698 538.5 698Z" fill="#134178"/>
<path d="M517 631V666.9C517 678.6 526.4 688 538 688C549.6 688 559 678.5 559 666.9V631" fill="#134178"/>
<path d="M486 633H474V662H486V633Z" fill="#134178"/>
<path d="M640 644H621V683H640V644Z" fill="#134178"/>
<path d="M453 646H393V669H453V646Z" fill="#134178"/>
<path d="M484.8 613H478C478 605.8 483.8 600 491 600V606.8C487.6 606.8 484.8 609.6 484.8 613Z" fill="#134178"/>
<path d="M596 613H589.2C589.2 609.6 586.4 606.8 583 606.8V600C590.1 600 596 605.8 596 613Z" fill="#134178"/>
<path d="M483.6 671L474 672.9L478.4 695L488 693.1L483.6 671Z" fill="#134178"/>
<path d="M597 671L593 693.3L603 695L607 672.7L597 671Z" fill="#134178"/>
<path d="M828 598H817V606H828V598Z" fill="#134178"/>
<path d="M503 245H491V274H503V245Z" fill="#134178"/>
<path d="M503 203H491V232H503V203Z" fill="#134178"/>
<path d="M585 245H573V274H585V245Z" fill="#134178"/>
<path d="M215 592H195V606H215V592Z" fill="#134178"/>
<path d="M110 608H90V618H110V608Z" fill="#134178"/>
<path d="M509 494H503V511H509V494Z" fill="#134178"/>
<path d="M509 514H503V531H509V514Z" fill="#134178"/>
<path d="M509 534H503V551H509V534Z" fill="#134178"/>
<path d="M509 553H503V570H509V553Z" fill="#134178"/>
<path d="M509 573H503V590H509V573Z" fill="#134178"/>
<path d="M516.5 589.2C516.5 586.2 518.9 583.7 522 583.7V578.5C519 578.5 516.5 576 516.5 573H511V590H516.6C516.6 589.7 516.5 589.4 516.5 589.2Z" fill="#134178"/>
<path d="M516.5 569.2C516.5 566.2 518.9 563.7 522 563.7V558.5C519 558.5 516.5 556 516.5 553H511V570H516.6C516.6 569.7 516.5 569.4 516.5 569.2Z" fill="#134178"/>
<path d="M516.5 550.2C516.5 547.2 518.9 544.7 522 544.7V539.5C519 539.5 516.5 537 516.5 534H511V551H516.6C516.6 550.7 516.5 550.4 516.5 550.2Z" fill="#134178"/>
<path d="M516.5 530.2C516.5 527.2 518.9 524.7 522 524.7V519.5C519 519.5 516.5 517 516.5 514H511V531H516.6C516.6 530.7 516.5 530.4 516.5 530.2Z" fill="#134178"/>
<path d="M516.5 510.2C516.5 507.2 518.9 504.7 522 504.7V499.5C519 499.5 516.5 497 516.5 494H511V511H516.6C516.6 510.7 516.5 510.4 516.5 510.2Z" fill="#134178"/>
<path d="M573 494H567V511H573V494Z" fill="#134178"/>
<path d="M573 514H567V531H573V514Z" fill="#134178"/>
<path d="M573 534H567V551H573V534Z" fill="#134178"/>
<path d="M573 553H567V570H573V553Z" fill="#134178"/>
<path d="M573 573H567V590H573V573Z" fill="#134178"/>
<path d="M558.5 589.2C558.5 586.2 556.1 583.7 553 583.7V578.5C556 578.5 558.5 576 558.5 573H564V590H558.4C558.5 589.7 558.5 589.4 558.5 589.2Z" fill="#134178"/>
<path d="M558.5 569.2C558.5 566.2 556.1 563.7 553 563.7V558.5C556 558.5 558.5 556 558.5 553H564V570H558.4C558.5 569.7 558.5 569.4 558.5 569.2Z" fill="#134178"/>
<path d="M558.5 550.2C558.5 547.2 556.1 544.7 553 544.7V539.5C556 539.5 558.5 537 558.5 534H564V551H558.4C558.5 550.7 558.5 550.4 558.5 550.2Z" fill="#134178"/>
<path d="M558.5 530.2C558.5 527.2 556.1 524.7 553 524.7V519.5C556 519.5 558.5 517 558.5 514H564V531H558.4C558.5 530.7 558.5 530.4 558.5 530.2Z" fill="#134178"/>
<path d="M558.5 510.2C558.5 507.2 556.1 504.7 553 504.7V499.5C556 499.5 558.5 497 558.5 494H564V511H558.4C558.5 510.7 558.5 510.4 558.5 510.2Z" fill="#134178"/>
<path d="M242.9 298L230 309L240.1 321L253 310L242.9 298Z" fill="#134178"/>
<path d="M417.4 216L401 219.9L404.6 235L421 231.1L417.4 216Z" fill="#134178"/>
<path d="M472.4 204L441 209.2L442.6 219L474 213.8L472.4 204Z" fill="#134178"/>
<path d="M652.6 205L651 220.4L668.4 222L670 206.6L652.6 205Z" fill="#134178"/>
<path d="M908 277L900 290.5L915 299L923 285.5L908 277Z" fill="#134178"/>
<path d="M1114.5 486L1101 494L1109.5 509L1123 501L1114.5 486Z" fill="#134178"/>
<path d="M711 207L709 216.5L740 223L742 213.5L711 207Z" fill="#134178"/>
<path d="M537.5 681C529.5 681 523 674.5 523 666.5C523 658.5 529.5 652 537.5 652C545.5 652 552 658.5 552 666.5C552 674.5 545.5 681 537.5 681ZM537.5 654.4C530.8 654.4 525.4 659.8 525.4 666.5C525.4 673.2 530.8 678.6 537.5 678.6C544.2 678.6 549.6 673.2 549.6 666.5C549.6 659.9 544.1 654.4 537.5 654.4Z" fill="#2D74CA"/>
<path d="M525 631H523V667H525V631Z" fill="#2D74CA"/>
<path d="M552 631H550V667H552V631Z" fill="#2D74CA"/>
<path d="M525 666H515V668H525V666Z" fill="#2D74CA"/>
<path d="M561 665H551V667H561V665Z" fill="#2D74CA"/>
<path d="M1231.47 735.299C1220.58 733.799 1202.08 731.799 1202.08 731.799C1197.58 647.585 1181.88 570.672 1155.49 503.361C1131.09 441.05 1097.2 386.241 1054.91 340.434C978.121 257.32 872.94 203.611 750.863 185.008C654.08 170.305 538.801 159.204 416.524 188.408C327.14 209.812 251.254 251.819 191.065 313.329C142.674 362.737 104.181 424.748 76.486 497.76C28.7947 623.181 29.8945 738.8 29.8945 740C29.8945 740 9.89819 735.199 0 731.699C0.59989 701.694 5.79894 599.977 47.9912 488.058C77.0859 410.945 117.878 345.234 169.169 292.726C233.457 226.915 314.342 182.007 409.525 159.204C536.802 128.699 655.78 140.1 755.362 155.303C884.238 174.906 995.518 231.916 1076.9 320.03C1121.79 368.638 1157.69 426.648 1183.38 492.459C1210.88 562.771 1227.28 642.684 1231.97 730.198C1232.07 731.899 1231.87 733.699 1231.47 735.299Z" fill="#9AC8FF"/>
<path d="M508 24L514 96" stroke="#2D74CA" stroke-width="3" stroke-miterlimit="10"/>
<path d="M562 23L555 95" stroke="#2D74CA" stroke-width="3" stroke-miterlimit="10"/>
<path d="M531 101L531.4 132" stroke="#2D74CA" stroke-width="3" stroke-miterlimit="10"/>
<path d="M540 101L540.4 132" stroke="#2D74CA" stroke-width="3" stroke-miterlimit="10"/>
<path d="M408 43C408 43 477.567 0.459925 620 28.6516" stroke="#9AC8FF" stroke-width="8" stroke-miterlimit="10"/>
<path d="M402 28C402 28 478.47 -15.4741 622 14.6004" stroke="#9AC8FF" stroke-width="8" stroke-miterlimit="10"/>
<path d="M607 23L591.639 106.681L591.14 109.591L586.751 133.371C586.751 133.371 546.652 132.468 533.285 133.471C503.66 135.578 447.8 142 447.8 142L408 41.161" stroke="#9AC8FF" stroke-width="4" stroke-miterlimit="10"/>
<path d="M1190.2 718H1190V717L1190.2 718Z" fill="#9AC8FF"/>
<path d="M430.788 50.7156L427 52L452.351 126.822L456.139 125.538L430.788 50.7156Z" fill="#9AC8FF"/>
<path d="M442.788 41.7156L439 43L464.351 117.822L468.139 116.538L442.788 41.7156Z" fill="#9AC8FF"/>
<path d="M459.788 48.7156L456 50L481.351 124.822L485.139 123.538L459.788 48.7156Z" fill="#9AC8FF"/>
<path d="M113.74 469.172V459.372H114.86L118.43 464.72L122 459.372H123.12V469.172H122.014V461.234L118.444 466.484H118.388L114.818 461.248V469.172H113.74ZM128.876 469.34C127.858 469.34 127 468.99 126.3 468.29C125.609 467.581 125.264 466.671 125.264 465.56C125.264 464.505 125.595 463.614 126.258 462.886C126.92 462.149 127.746 461.78 128.736 461.78C129.772 461.78 130.593 462.144 131.2 462.872C131.806 463.6 132.11 464.515 132.11 465.616C132.11 465.756 132.105 465.882 132.096 465.994H126.356C126.43 466.731 126.706 467.319 127.182 467.758C127.667 468.187 128.241 468.402 128.904 468.402C129.772 468.402 130.532 468.061 131.186 467.38L131.858 467.982C131.046 468.887 130.052 469.34 128.876 469.34ZM126.356 465.126H131.018C130.952 464.426 130.719 463.847 130.318 463.39C129.926 462.923 129.389 462.69 128.708 462.69C128.092 462.69 127.564 462.919 127.126 463.376C126.687 463.833 126.43 464.417 126.356 465.126ZM135.747 469.172V462.886H133.157V461.934H139.429V462.886H136.839V469.172H135.747ZM140.997 471.412V461.934H142.075V463.39C142.803 462.317 143.727 461.78 144.847 461.78C145.771 461.78 146.578 462.125 147.269 462.816C147.96 463.497 148.305 464.412 148.305 465.56C148.305 466.689 147.96 467.599 147.269 468.29C146.578 468.981 145.771 469.326 144.847 469.326C143.708 469.326 142.784 468.813 142.075 467.786V471.412H140.997ZM144.651 468.36C145.379 468.36 145.986 468.108 146.471 467.604C146.956 467.091 147.199 466.405 147.199 465.546C147.199 464.715 146.952 464.043 146.457 463.53C145.962 463.007 145.36 462.746 144.651 462.746C143.951 462.746 143.34 463.012 142.817 463.544C142.294 464.076 142.033 464.748 142.033 465.56C142.033 466.372 142.294 467.044 142.817 467.576C143.34 468.099 143.951 468.36 144.651 468.36ZM156.3 468.234C155.572 468.971 154.671 469.34 153.598 469.34C152.525 469.34 151.629 468.971 150.91 468.234C150.201 467.497 149.846 466.605 149.846 465.56C149.846 464.524 150.205 463.637 150.924 462.9C151.652 462.153 152.553 461.78 153.626 461.78C154.699 461.78 155.595 462.149 156.314 462.886C157.033 463.623 157.392 464.515 157.392 465.56C157.392 466.596 157.028 467.487 156.3 468.234ZM153.626 468.374C154.401 468.374 155.035 468.103 155.53 467.562C156.034 467.021 156.286 466.353 156.286 465.56C156.286 464.776 156.025 464.109 155.502 463.558C154.989 463.007 154.354 462.732 153.598 462.732C152.823 462.732 152.189 463.007 151.694 463.558C151.199 464.099 150.952 464.767 150.952 465.56C150.952 466.344 151.209 467.011 151.722 467.562C152.235 468.103 152.87 468.374 153.626 468.374ZM165.278 468.598L163.01 465.602V465.49L165.278 462.508L166.104 462.97L164.214 465.532L166.104 468.122L165.278 468.598ZM168.4 468.598L166.132 465.602V465.49L168.4 462.508L169.212 462.97L167.322 465.532L169.212 468.122L168.4 468.598ZM171.421 469.172V459.372H175.593C176.741 459.372 177.595 459.661 178.155 460.24C178.575 460.679 178.785 461.211 178.785 461.836C178.785 462.9 178.267 463.656 177.231 464.104C178.631 464.524 179.331 465.322 179.331 466.498C179.331 467.329 179.009 467.982 178.365 468.458C177.721 468.934 176.858 469.172 175.775 469.172H171.421ZM172.513 468.178H175.803C176.55 468.178 177.138 468.024 177.567 467.716C177.996 467.399 178.211 466.96 178.211 466.4C178.211 465.859 177.987 465.443 177.539 465.154C177.1 464.865 176.456 464.72 175.607 464.72H172.513V468.178ZM172.513 463.74H175.411C176.092 463.74 176.638 463.586 177.049 463.278C177.46 462.97 177.665 462.531 177.665 461.962C177.665 461.467 177.474 461.08 177.091 460.8C176.718 460.511 176.186 460.366 175.495 460.366H172.513V463.74ZM187.349 468.234C186.621 468.971 185.72 469.34 184.647 469.34C183.573 469.34 182.677 468.971 181.959 468.234C181.249 467.497 180.895 466.605 180.895 465.56C180.895 464.524 181.254 463.637 181.973 462.9C182.701 462.153 183.601 461.78 184.675 461.78C185.748 461.78 186.644 462.149 187.363 462.886C188.081 463.623 188.441 464.515 188.441 465.56C188.441 466.596 188.077 467.487 187.349 468.234ZM184.675 468.374C185.449 468.374 186.084 468.103 186.579 467.562C187.083 467.021 187.335 466.353 187.335 465.56C187.335 464.776 187.073 464.109 186.551 463.558C186.037 463.007 185.403 462.732 184.647 462.732C183.872 462.732 183.237 463.007 182.743 463.558C182.248 464.099 182.001 464.767 182.001 465.56C182.001 466.344 182.257 467.011 182.771 467.562C183.284 468.103 183.919 468.374 184.675 468.374ZM190.393 471.412V461.934H191.471V463.39C192.199 462.317 193.123 461.78 194.243 461.78C195.167 461.78 195.975 462.125 196.665 462.816C197.356 463.497 197.701 464.412 197.701 465.56C197.701 466.689 197.356 467.599 196.665 468.29C195.975 468.981 195.167 469.326 194.243 469.326C193.105 469.326 192.181 468.813 191.471 467.786V471.412H190.393ZM194.047 468.36C194.775 468.36 195.382 468.108 195.867 467.604C196.353 467.091 196.595 466.405 196.595 465.546C196.595 464.715 196.348 464.043 195.853 463.53C195.359 463.007 194.757 462.746 194.047 462.746C193.347 462.746 192.736 463.012 192.213 463.544C191.691 464.076 191.429 464.748 191.429 465.56C191.429 466.372 191.691 467.044 192.213 467.576C192.736 468.099 193.347 468.36 194.047 468.36ZM205.696 468.234C204.968 468.971 204.068 469.34 202.994 469.34C201.921 469.34 201.025 468.971 200.306 468.234C199.597 467.497 199.242 466.605 199.242 465.56C199.242 464.524 199.602 463.637 200.32 462.9C201.048 462.153 201.949 461.78 203.022 461.78C204.096 461.78 204.992 462.149 205.71 462.886C206.429 463.623 206.788 464.515 206.788 465.56C206.788 466.596 206.424 467.487 205.696 468.234ZM203.022 468.374C203.797 468.374 204.432 468.103 204.926 467.562C205.43 467.021 205.682 466.353 205.682 465.56C205.682 464.776 205.421 464.109 204.898 463.558C204.385 463.007 203.75 462.732 202.994 462.732C202.22 462.732 201.585 463.007 201.09 463.558C200.596 464.099 200.348 464.767 200.348 465.56C200.348 466.344 200.605 467.011 201.118 467.562C201.632 468.103 202.266 468.374 203.022 468.374ZM212.143 469.34C211.032 469.34 210.141 468.976 209.469 468.248C208.806 467.511 208.475 466.517 208.475 465.266C208.475 464.809 208.484 464.421 208.503 464.104C208.522 463.777 208.559 463.418 208.615 463.026C208.671 462.634 208.76 462.298 208.881 462.018C209.002 461.738 209.156 461.463 209.343 461.192C209.539 460.921 209.791 460.693 210.099 460.506C210.407 460.319 210.766 460.179 211.177 460.086L215.209 459.134L215.419 460.044L211.499 461.01C210.771 461.197 210.248 461.495 209.931 461.906C209.623 462.307 209.441 462.867 209.385 463.586C210.001 462.541 211 462.018 212.381 462.018C213.333 462.018 214.15 462.373 214.831 463.082C215.512 463.782 215.853 464.627 215.853 465.616C215.853 466.643 215.498 467.52 214.789 468.248C214.08 468.976 213.198 469.34 212.143 469.34ZM212.171 468.374C212.908 468.374 213.52 468.113 214.005 467.59C214.49 467.058 214.733 466.409 214.733 465.644C214.733 464.888 214.481 464.244 213.977 463.712C213.482 463.18 212.871 462.914 212.143 462.914C211.406 462.914 210.794 463.18 210.309 463.712C209.824 464.235 209.581 464.879 209.581 465.644C209.581 466.4 209.828 467.044 210.323 467.576C210.827 468.108 211.443 468.374 212.171 468.374ZM217.806 469.172V461.934H218.884V464.65H220.816C221.656 464.65 222.342 464.832 222.874 465.196C223.406 465.551 223.672 466.092 223.672 466.82C223.672 467.539 223.424 468.113 222.93 468.542C222.435 468.962 221.772 469.172 220.942 469.172H217.806ZM218.884 468.22H220.844C221.394 468.22 221.819 468.103 222.118 467.87C222.426 467.637 222.58 467.296 222.58 466.848C222.58 466.437 222.421 466.125 222.104 465.91C221.796 465.686 221.362 465.574 220.802 465.574H218.884V468.22ZM228.503 469.34C227.485 469.34 226.627 468.99 225.927 468.29C225.236 467.581 224.891 466.671 224.891 465.56C224.891 464.505 225.222 463.614 225.885 462.886C226.547 462.149 227.373 461.78 228.363 461.78C229.399 461.78 230.22 462.144 230.827 462.872C231.433 463.6 231.737 464.515 231.737 465.616C231.737 465.756 231.732 465.882 231.723 465.994H225.983C226.057 466.731 226.333 467.319 226.809 467.758C227.294 468.187 227.868 468.402 228.531 468.402C229.399 468.402 230.159 468.061 230.813 467.38L231.485 467.982C230.673 468.887 229.679 469.34 228.503 469.34ZM225.983 465.126H230.645C230.579 464.426 230.346 463.847 229.945 463.39C229.553 462.923 229.016 462.69 228.335 462.69C227.719 462.69 227.191 462.919 226.753 463.376C226.314 463.833 226.057 464.417 225.983 465.126ZM233.624 469.172V461.934H237.124C237.843 461.934 238.417 462.097 238.846 462.424C239.275 462.751 239.49 463.189 239.49 463.74C239.49 464.515 239.089 465.07 238.286 465.406C239.35 465.695 239.882 466.293 239.882 467.198C239.882 467.805 239.644 468.285 239.168 468.64C238.692 468.995 238.053 469.172 237.25 469.172H233.624ZM234.702 468.248H237.11C237.623 468.248 238.029 468.141 238.328 467.926C238.627 467.711 238.776 467.413 238.776 467.03C238.776 466.675 238.617 466.4 238.3 466.204C237.992 466.008 237.549 465.91 236.97 465.91H234.702V468.248ZM234.702 465.042H236.928C237.376 465.042 237.731 464.944 237.992 464.748C238.263 464.543 238.398 464.253 238.398 463.88C238.398 463.572 238.272 463.325 238.02 463.138C237.768 462.951 237.413 462.858 236.956 462.858H234.702V465.042ZM241.827 469.172V461.934H242.905V464.65H244.837C245.677 464.65 246.363 464.832 246.895 465.196C247.427 465.551 247.693 466.092 247.693 466.82C247.693 467.539 247.446 468.113 246.951 468.542C246.456 468.962 245.794 469.172 244.963 469.172H241.827ZM242.905 468.22H244.865C245.416 468.22 245.84 468.103 246.139 467.87C246.447 467.637 246.601 467.296 246.601 466.848C246.601 466.437 246.442 466.125 246.125 465.91C245.817 465.686 245.383 465.574 244.823 465.574H242.905V468.22ZM248.995 469.172V461.934H250.073V469.172H248.995ZM256.675 469.172V461.934H261.589V462.886H257.753V469.172H256.675ZM269.161 468.234C268.433 468.971 267.533 469.34 266.459 469.34C265.386 469.34 264.49 468.971 263.771 468.234C263.062 467.497 262.707 466.605 262.707 465.56C262.707 464.524 263.067 463.637 263.785 462.9C264.513 462.153 265.414 461.78 266.487 461.78C267.561 461.78 268.457 462.149 269.175 462.886C269.894 463.623 270.253 464.515 270.253 465.56C270.253 466.596 269.889 467.487 269.161 468.234ZM266.487 468.374C267.262 468.374 267.897 468.103 268.391 467.562C268.895 467.021 269.147 466.353 269.147 465.56C269.147 464.776 268.886 464.109 268.363 463.558C267.85 463.007 267.215 462.732 266.459 462.732C265.685 462.732 265.05 463.007 264.555 463.558C264.061 464.099 263.813 464.767 263.813 465.56C263.813 466.344 264.07 467.011 264.583 467.562C265.097 468.103 265.731 468.374 266.487 468.374ZM272.206 471.412V461.934H273.284V463.39C274.012 462.317 274.936 461.78 276.056 461.78C276.98 461.78 277.787 462.125 278.478 462.816C279.169 463.497 279.514 464.412 279.514 465.56C279.514 466.689 279.169 467.599 278.478 468.29C277.787 468.981 276.98 469.326 276.056 469.326C274.917 469.326 273.993 468.813 273.284 467.786V471.412H272.206ZM275.86 468.36C276.588 468.36 277.195 468.108 277.68 467.604C278.165 467.091 278.408 466.405 278.408 465.546C278.408 464.715 278.161 464.043 277.666 463.53C277.171 463.007 276.569 462.746 275.86 462.746C275.16 462.746 274.549 463.012 274.026 463.544C273.503 464.076 273.242 464.748 273.242 465.56C273.242 466.372 273.503 467.044 274.026 467.576C274.549 468.099 275.16 468.36 275.86 468.36ZM281.503 469.172V461.934H282.581V464.65H284.513C285.353 464.65 286.039 464.832 286.571 465.196C287.103 465.551 287.369 466.092 287.369 466.82C287.369 467.539 287.121 468.113 286.627 468.542C286.132 468.962 285.469 469.172 284.639 469.172H281.503ZM282.581 468.22H284.541C285.091 468.22 285.516 468.103 285.815 467.87C286.123 467.637 286.277 467.296 286.277 466.848C286.277 466.437 286.118 466.125 285.801 465.91C285.493 465.686 285.059 465.574 284.499 465.574H282.581V468.22ZM288.671 469.172V461.934H289.749V469.172H288.671ZM292.587 468.598L291.775 468.136L293.665 465.56L291.775 462.984L292.587 462.508L294.855 465.49V465.602L292.587 468.598ZM295.709 468.598L294.883 468.136L296.773 465.56L294.883 462.984L295.709 462.508L297.977 465.49V465.602L295.709 468.598Z" fill="white"/>
<g clip-path="url(#clip0_442_654)">
<path d="M204.5 446C216.926 446 227 435.926 227 423.5C227 411.074 216.926 401 204.5 401C192.074 401 182 411.074 182 423.5C182 435.926 192.074 446 204.5 446Z" fill="#F32735"/>
<path fill-rule="evenodd" clip-rule="evenodd" d="M215.211 429.485L209.138 414L204 423.053L198.883 414L192.789 429.485H191V431.833H200.194V429.485H198.821L200.152 425.629L204 432L207.848 425.629L209.179 429.485H207.806V431.833H217V429.485H215.211Z" fill="white"/>
</g>
<path d="M552.481 782V772.2H553.601L557.171 777.548L560.741 772.2H561.861V782H560.755V774.062L557.185 779.312H557.129L553.559 774.076V782H552.481ZM572.629 784.184V782H564.635V772.2H565.741V780.992H571.341V772.2H572.447V780.992H573.721L573.553 784.184H572.629ZM575.34 782V772.2H576.446V778.052L582.074 772.2H583.502L579.302 776.484L583.684 782H582.298L578.532 777.254L576.446 779.368V782H575.34ZM591.154 781.426L588.886 778.43V778.318L591.154 775.336L591.98 775.798L590.09 778.36L591.98 780.95L591.154 781.426ZM594.276 781.426L592.008 778.43V778.318L594.276 775.336L595.088 775.798L593.198 778.36L595.088 780.95L594.276 781.426ZM597.115 782.112C596.676 782.112 596.252 782.033 595.841 781.874L596.065 780.978C596.27 781.071 596.56 781.118 596.933 781.118C597.12 781.118 597.288 781.09 597.437 781.034C597.586 780.969 597.764 780.801 597.969 780.53C598.174 780.25 598.342 779.872 598.473 779.396C598.604 778.911 598.716 778.206 598.809 777.282C598.912 776.349 598.963 775.247 598.963 773.978V772.2H605.305V782H604.199V773.208H600.027V774.272C600.027 775.597 599.971 776.745 599.859 777.716C599.756 778.687 599.616 779.452 599.439 780.012C599.271 780.563 599.052 781.001 598.781 781.328C598.52 781.655 598.258 781.869 597.997 781.972C597.745 782.065 597.451 782.112 597.115 782.112ZM609.009 784.282C608.486 784.282 607.973 784.161 607.469 783.918L607.833 783.064C608.178 783.241 608.556 783.33 608.967 783.33C609.293 783.33 609.569 783.227 609.793 783.022C610.017 782.826 610.236 782.476 610.451 781.972L607.161 774.762H608.351L610.983 780.796L613.307 774.762H614.455L611.417 782.238C611.109 782.975 610.768 783.498 610.395 783.806C610.021 784.123 609.559 784.282 609.009 784.282ZM615.236 782L618.204 777.856L615.39 774.762H616.692L620.374 778.962V774.762H621.452V778.962L625.134 774.762H626.436L623.622 777.856L626.59 782H625.33L622.922 778.626L621.452 780.236V782H620.374V780.236L618.904 778.626L616.496 782H615.236ZM628.068 782V774.762H629.146V777.884H633.318V774.762H634.396V782H633.318V778.836H629.146V782H628.068ZM636.805 782V774.762H637.883V780.488L642.181 774.762H643.231V782H642.153V776.274L637.841 782H636.805ZM645.637 782V774.762H646.715V778.934L650.677 774.762H652.007L648.983 777.898L652.091 782H650.817L648.241 778.682L646.715 780.25V782H645.637ZM653.58 782V774.762H654.658V780.488L658.956 774.762H660.006V782H658.928V776.274L654.616 782H653.58ZM662.846 781.426L662.034 780.964L663.924 778.388L662.034 775.812L662.846 775.336L665.114 778.318V778.43L662.846 781.426ZM665.968 781.426L665.142 780.964L667.032 778.388L665.142 775.812L665.968 775.336L668.236 778.318V778.43L665.968 781.426Z" fill="white"/>
<g clip-path="url(#clip1_442_654)">
<path d="M609.5 759C621.926 759 632 748.926 632 736.5C632 724.074 621.926 714 609.5 714C597.074 714 587 724.074 587 736.5C587 748.926 597.074 759 609.5 759Z" fill="#F32735"/>
<path fill-rule="evenodd" clip-rule="evenodd" d="M620.211 742.485L614.138 727L609 736.053L603.883 727L597.789 742.485H596V744.833H605.194V742.485H603.821L605.152 738.629L609 745L612.848 738.629L614.179 742.485H612.806V744.833H622V742.485H620.211Z" fill="white"/>
</g>
<path d="M710.487 783V773.2H711.607L715.177 778.548L718.747 773.2H719.867V783H718.761V775.062L715.191 780.312H715.135L711.565 775.076V783H710.487ZM725.623 783.168C724.606 783.168 723.747 782.818 723.047 782.118C722.356 781.409 722.011 780.499 722.011 779.388C722.011 778.333 722.342 777.442 723.005 776.714C723.668 775.977 724.494 775.608 725.483 775.608C726.519 775.608 727.34 775.972 727.947 776.7C728.554 777.428 728.857 778.343 728.857 779.444C728.857 779.584 728.852 779.71 728.843 779.822H723.103C723.178 780.559 723.453 781.147 723.929 781.586C724.414 782.015 724.988 782.23 725.651 782.23C726.519 782.23 727.28 781.889 727.933 781.208L728.605 781.81C727.793 782.715 726.799 783.168 725.623 783.168ZM723.103 778.954H727.765C727.7 778.254 727.466 777.675 727.065 777.218C726.673 776.751 726.136 776.518 725.455 776.518C724.839 776.518 724.312 776.747 723.873 777.204C723.434 777.661 723.178 778.245 723.103 778.954ZM732.494 783V776.714H729.904V775.762H736.176V776.714H733.586V783H732.494ZM737.744 785.24V775.762H738.822V777.218C739.55 776.145 740.474 775.608 741.594 775.608C742.518 775.608 743.325 775.953 744.016 776.644C744.707 777.325 745.052 778.24 745.052 779.388C745.052 780.517 744.707 781.427 744.016 782.118C743.325 782.809 742.518 783.154 741.594 783.154C740.455 783.154 739.531 782.641 738.822 781.614V785.24H737.744ZM741.398 782.188C742.126 782.188 742.733 781.936 743.218 781.432C743.703 780.919 743.946 780.233 743.946 779.374C743.946 778.543 743.699 777.871 743.204 777.358C742.709 776.835 742.107 776.574 741.398 776.574C740.698 776.574 740.087 776.84 739.564 777.372C739.041 777.904 738.78 778.576 738.78 779.388C738.78 780.2 739.041 780.872 739.564 781.404C740.087 781.927 740.698 782.188 741.398 782.188ZM753.047 782.062C752.319 782.799 751.418 783.168 750.345 783.168C749.272 783.168 748.376 782.799 747.657 782.062C746.948 781.325 746.593 780.433 746.593 779.388C746.593 778.352 746.952 777.465 747.671 776.728C748.399 775.981 749.3 775.608 750.373 775.608C751.446 775.608 752.342 775.977 753.061 776.714C753.78 777.451 754.139 778.343 754.139 779.388C754.139 780.424 753.775 781.315 753.047 782.062ZM750.373 782.202C751.148 782.202 751.782 781.931 752.277 781.39C752.781 780.849 753.033 780.181 753.033 779.388C753.033 778.604 752.772 777.937 752.249 777.386C751.736 776.835 751.101 776.56 750.345 776.56C749.57 776.56 748.936 776.835 748.441 777.386C747.946 777.927 747.699 778.595 747.699 779.388C747.699 780.172 747.956 780.839 748.469 781.39C748.982 781.931 749.617 782.202 750.373 782.202ZM762.025 782.426L759.757 779.43V779.318L762.025 776.336L762.851 776.798L760.961 779.36L762.851 781.95L762.025 782.426ZM765.147 782.426L762.879 779.43V779.318L765.147 776.336L765.959 776.798L764.069 779.36L765.959 781.95L765.147 782.426ZM772.648 783.168C771.239 783.168 770.068 782.683 769.134 781.712C768.201 780.732 767.734 779.528 767.734 778.1C767.734 776.691 768.206 775.496 769.148 774.516C770.091 773.527 771.272 773.032 772.69 773.032C773.512 773.032 774.212 773.167 774.79 773.438C775.369 773.699 775.934 774.091 776.484 774.614L775.756 775.398C774.814 774.502 773.787 774.054 772.676 774.054C771.594 774.054 770.688 774.441 769.96 775.216C769.242 775.991 768.882 776.952 768.882 778.1C768.882 779.239 769.246 780.2 769.974 780.984C770.702 781.759 771.603 782.146 772.676 782.146C773.311 782.146 773.871 782.029 774.356 781.796C774.842 781.563 775.336 781.208 775.84 780.732L776.568 781.502C776.018 782.053 775.439 782.468 774.832 782.748C774.226 783.028 773.498 783.168 772.648 783.168ZM778.322 783V775.762H784.594V783H783.516V776.714H779.4V783H778.322ZM793.01 782.062C792.282 782.799 791.381 783.168 790.308 783.168C789.234 783.168 788.338 782.799 787.62 782.062C786.91 781.325 786.556 780.433 786.556 779.388C786.556 778.352 786.915 777.465 787.634 776.728C788.362 775.981 789.262 775.608 790.336 775.608C791.409 775.608 792.305 775.977 793.024 776.714C793.742 777.451 794.102 778.343 794.102 779.388C794.102 780.424 793.738 781.315 793.01 782.062ZM790.336 782.202C791.11 782.202 791.745 781.931 792.24 781.39C792.744 780.849 792.996 780.181 792.996 779.388C792.996 778.604 792.734 777.937 792.212 777.386C791.698 776.835 791.064 776.56 790.308 776.56C789.533 776.56 788.898 776.835 788.404 777.386C787.909 777.927 787.662 778.595 787.662 779.388C787.662 780.172 787.918 780.839 788.432 781.39C788.945 781.931 789.58 782.202 790.336 782.202ZM796.055 785.24V775.762H797.133V777.218C797.861 776.145 798.785 775.608 799.905 775.608C800.829 775.608 801.636 775.953 802.327 776.644C803.017 777.325 803.363 778.24 803.363 779.388C803.363 780.517 803.017 781.427 802.327 782.118C801.636 782.809 800.829 783.154 799.905 783.154C798.766 783.154 797.842 782.641 797.133 781.614V785.24H796.055ZM799.709 782.188C800.437 782.188 801.043 781.936 801.529 781.432C802.014 780.919 802.257 780.233 802.257 779.374C802.257 778.543 802.009 777.871 801.515 777.358C801.02 776.835 800.418 776.574 799.709 776.574C799.009 776.574 798.397 776.84 797.875 777.372C797.352 777.904 797.091 778.576 797.091 779.388C797.091 780.2 797.352 780.872 797.875 781.404C798.397 781.927 799.009 782.188 799.709 782.188ZM807.101 783V776.714H804.511V775.762H810.783V776.714H808.193V783H807.101ZM812.351 783V775.762H813.429V781.488L817.727 775.762H818.777V783H817.699V777.274L813.387 783H812.351ZM821.183 783V775.762H824.683C825.402 775.762 825.976 775.925 826.405 776.252C826.835 776.579 827.049 777.017 827.049 777.568C827.049 778.343 826.648 778.898 825.845 779.234C826.909 779.523 827.441 780.121 827.441 781.026C827.441 781.633 827.203 782.113 826.727 782.468C826.251 782.823 825.612 783 824.809 783H821.183ZM822.261 782.076H824.669C825.183 782.076 825.589 781.969 825.887 781.754C826.186 781.539 826.335 781.241 826.335 780.858C826.335 780.503 826.177 780.228 825.859 780.032C825.551 779.836 825.108 779.738 824.529 779.738H822.261V782.076ZM822.261 778.87H824.487C824.935 778.87 825.29 778.772 825.551 778.576C825.822 778.371 825.957 778.081 825.957 777.708C825.957 777.4 825.831 777.153 825.579 776.966C825.327 776.779 824.973 776.686 824.515 776.686H822.261V778.87ZM829.387 783V775.762H830.465V778.884H834.637V775.762H835.715V783H834.637V779.836H830.465V783H829.387ZM840.279 783.154C839.542 783.154 838.907 782.953 838.375 782.552C837.843 782.151 837.577 781.591 837.577 780.872C837.577 780.116 837.857 779.533 838.417 779.122C838.977 778.711 839.728 778.506 840.671 778.506C841.418 778.506 842.155 778.609 842.883 778.814V778.59C842.883 777.955 842.696 777.47 842.323 777.134C841.95 776.798 841.422 776.63 840.741 776.63C840.032 776.63 839.299 776.803 838.543 777.148L838.221 776.266C839.117 775.855 839.994 775.65 840.853 775.65C841.88 775.65 842.659 775.916 843.191 776.448C843.695 776.952 843.947 777.661 843.947 778.576V783H842.883V781.922C842.239 782.743 841.371 783.154 840.279 783.154ZM840.489 782.286C841.161 782.286 841.73 782.104 842.197 781.74C842.664 781.376 842.897 780.909 842.897 780.34V779.668C842.188 779.463 841.483 779.36 840.783 779.36C840.12 779.36 839.602 779.495 839.229 779.766C838.856 780.027 838.669 780.387 838.669 780.844C838.669 781.283 838.842 781.633 839.187 781.894C839.542 782.155 839.976 782.286 840.489 782.286ZM845.586 783L847.798 780.2C847.229 780.069 846.762 779.813 846.398 779.43C846.044 779.047 845.866 778.576 845.866 778.016C845.866 777.344 846.109 776.803 846.594 776.392C847.08 775.972 847.747 775.762 848.596 775.762H851.998V783H850.92V780.368H848.918C848.834 780.48 848.545 780.863 848.05 781.516C847.556 782.169 847.178 782.664 846.916 783H845.586ZM848.68 779.458H850.92V776.714H848.652C848.12 776.714 847.7 776.835 847.392 777.078C847.094 777.311 846.944 777.638 846.944 778.058C846.944 778.487 847.103 778.828 847.42 779.08C847.747 779.332 848.167 779.458 848.68 779.458ZM854.84 782.426L854.028 781.964L855.918 779.388L854.028 776.812L854.84 776.336L857.108 779.318V779.43L854.84 782.426ZM857.962 782.426L857.136 781.964L859.026 779.388L857.136 776.812L857.962 776.336L860.23 779.318V779.43L857.962 782.426Z" fill="white"/>
<g clip-path="url(#clip2_442_654)">
<path d="M784.5 760C796.926 760 807 749.926 807 737.5C807 725.074 796.926 715 784.5 715C772.074 715 762 725.074 762 737.5C762 749.926 772.074 760 784.5 760Z" fill="#F32735"/>
<path fill-rule="evenodd" clip-rule="evenodd" d="M795.211 743.485L789.138 728L784 737.053L778.883 728L772.789 743.485H771V745.833H780.194V743.485H778.821L780.152 739.629L784 746L787.848 739.629L789.179 743.485H787.806V745.833H797V743.485H795.211Z" fill="white"/>
</g>
<rect x="581" y="482" width="8" height="109" rx="4" fill="#F32735"/>
<path d="M511.574 122V112.2H512.68V118.052L518.308 112.2H519.736L515.536 116.484L519.918 122H518.532L514.766 117.254L512.68 119.368V122H511.574ZM523.61 122.154C522.873 122.154 522.238 121.953 521.706 121.552C521.174 121.151 520.908 120.591 520.908 119.872C520.908 119.116 521.188 118.533 521.748 118.122C522.308 117.711 523.059 117.506 524.002 117.506C524.749 117.506 525.486 117.609 526.214 117.814V117.59C526.214 116.955 526.027 116.47 525.654 116.134C525.281 115.798 524.753 115.63 524.072 115.63C523.363 115.63 522.63 115.803 521.874 116.148L521.552 115.266C522.448 114.855 523.325 114.65 524.184 114.65C525.211 114.65 525.99 114.916 526.522 115.448C527.026 115.952 527.278 116.661 527.278 117.576V122H526.214V120.922C525.57 121.743 524.702 122.154 523.61 122.154ZM523.82 121.286C524.492 121.286 525.061 121.104 525.528 120.74C525.995 120.376 526.228 119.909 526.228 119.34V118.668C525.519 118.463 524.814 118.36 524.114 118.36C523.451 118.36 522.933 118.495 522.56 118.766C522.187 119.027 522 119.387 522 119.844C522 120.283 522.173 120.633 522.518 120.894C522.873 121.155 523.307 121.286 523.82 121.286ZM529.561 122V114.762H530.639V117.884H534.811V114.762H535.889V122H534.811V118.836H530.639V122H529.561ZM540.454 122.154C539.716 122.154 539.082 121.953 538.55 121.552C538.018 121.151 537.752 120.591 537.752 119.872C537.752 119.116 538.032 118.533 538.592 118.122C539.152 117.711 539.903 117.506 540.846 117.506C541.592 117.506 542.33 117.609 543.058 117.814V117.59C543.058 116.955 542.871 116.47 542.498 116.134C542.124 115.798 541.597 115.63 540.916 115.63C540.206 115.63 539.474 115.803 538.718 116.148L538.396 115.266C539.292 114.855 540.169 114.65 541.028 114.65C542.054 114.65 542.834 114.916 543.366 115.448C543.87 115.952 544.122 116.661 544.122 117.576V122H543.058V120.922C542.414 121.743 541.546 122.154 540.454 122.154ZM540.664 121.286C541.336 121.286 541.905 121.104 542.372 120.74C542.838 120.376 543.072 119.909 543.072 119.34V118.668C542.362 118.463 541.658 118.36 540.958 118.36C540.295 118.36 539.777 118.495 539.404 118.766C539.03 119.027 538.844 119.387 538.844 119.844C538.844 120.283 539.016 120.633 539.362 120.894C539.716 121.155 540.15 121.286 540.664 121.286ZM548.155 122V115.714H545.565V114.762H551.837V115.714H549.247V122H548.155ZM553.405 122V114.762H554.483V117.884H558.655V114.762H559.733V122H558.655V118.836H554.483V122H553.405ZM564.298 122.154C563.56 122.154 562.926 121.953 562.394 121.552C561.862 121.151 561.596 120.591 561.596 119.872C561.596 119.116 561.876 118.533 562.436 118.122C562.996 117.711 563.747 117.506 564.69 117.506C565.436 117.506 566.174 117.609 566.902 117.814V117.59C566.902 116.955 566.715 116.47 566.342 116.134C565.968 115.798 565.441 115.63 564.76 115.63C564.05 115.63 563.318 115.803 562.562 116.148L562.24 115.266C563.136 114.855 564.013 114.65 564.872 114.65C565.898 114.65 566.678 114.916 567.21 115.448C567.714 115.952 567.966 116.661 567.966 117.576V122H566.902V120.922C566.258 121.743 565.39 122.154 564.298 122.154ZM564.508 121.286C565.18 121.286 565.749 121.104 566.216 120.74C566.682 120.376 566.916 119.909 566.916 119.34V118.668C566.206 118.463 565.502 118.36 564.802 118.36C564.139 118.36 563.621 118.495 563.248 118.766C562.874 119.027 562.688 119.387 562.688 119.844C562.688 120.283 562.86 120.633 563.206 120.894C563.56 121.155 563.994 121.286 564.508 121.286ZM569.605 122L571.817 119.2C571.248 119.069 570.781 118.813 570.417 118.43C570.062 118.047 569.885 117.576 569.885 117.016C569.885 116.344 570.128 115.803 570.613 115.392C571.098 114.972 571.766 114.762 572.615 114.762H576.017V122H574.939V119.368H572.937C572.853 119.48 572.564 119.863 572.069 120.516C571.574 121.169 571.196 121.664 570.935 122H569.605ZM572.699 118.458H574.939V115.714H572.671C572.139 115.714 571.719 115.835 571.411 116.078C571.112 116.311 570.963 116.638 570.963 117.058C570.963 117.487 571.122 117.828 571.439 118.08C571.766 118.332 572.186 118.458 572.699 118.458ZM581.558 123.806V121.048H582.342C582.986 119.863 583.308 118.187 583.308 116.022V114.762H588.46V121.048H589.552L589.384 123.806H588.488V122H582.636L582.44 123.806H581.558ZM583.49 121.048H587.382V115.714H584.344V116.722C584.344 118.542 584.059 119.984 583.49 121.048ZM597.036 121.062C596.308 121.799 595.408 122.168 594.334 122.168C593.261 122.168 592.365 121.799 591.646 121.062C590.937 120.325 590.582 119.433 590.582 118.388C590.582 117.352 590.942 116.465 591.66 115.728C592.388 114.981 593.289 114.608 594.362 114.608C595.436 114.608 596.332 114.977 597.05 115.714C597.769 116.451 598.128 117.343 598.128 118.388C598.128 119.424 597.764 120.315 597.036 121.062ZM594.362 121.202C595.137 121.202 595.772 120.931 596.266 120.39C596.77 119.849 597.022 119.181 597.022 118.388C597.022 117.604 596.761 116.937 596.238 116.386C595.725 115.835 595.09 115.56 594.334 115.56C593.56 115.56 592.925 115.835 592.43 116.386C591.936 116.927 591.688 117.595 591.688 118.388C591.688 119.172 591.945 119.839 592.458 120.39C592.972 120.931 593.606 121.202 594.362 121.202ZM600.081 124.24V114.762H601.159V116.218C601.887 115.145 602.811 114.608 603.931 114.608C604.855 114.608 605.662 114.953 606.353 115.644C607.044 116.325 607.389 117.24 607.389 118.388C607.389 119.517 607.044 120.427 606.353 121.118C605.662 121.809 604.855 122.154 603.931 122.154C602.792 122.154 601.868 121.641 601.159 120.614V124.24H600.081ZM603.735 121.188C604.463 121.188 605.07 120.936 605.555 120.432C606.04 119.919 606.283 119.233 606.283 118.374C606.283 117.543 606.036 116.871 605.541 116.358C605.046 115.835 604.444 115.574 603.735 115.574C603.035 115.574 602.424 115.84 601.901 116.372C601.378 116.904 601.117 117.576 601.117 118.388C601.117 119.2 601.378 119.872 601.901 120.404C602.424 120.927 603.035 121.188 603.735 121.188ZM615.384 121.062C614.656 121.799 613.755 122.168 612.682 122.168C611.608 122.168 610.712 121.799 609.994 121.062C609.284 120.325 608.93 119.433 608.93 118.388C608.93 117.352 609.289 116.465 610.008 115.728C610.736 114.981 611.636 114.608 612.71 114.608C613.783 114.608 614.679 114.977 615.398 115.714C616.116 116.451 616.476 117.343 616.476 118.388C616.476 119.424 616.112 120.315 615.384 121.062ZM612.71 121.202C613.484 121.202 614.119 120.931 614.614 120.39C615.118 119.849 615.37 119.181 615.37 118.388C615.37 117.604 615.108 116.937 614.586 116.386C614.072 115.835 613.438 115.56 612.682 115.56C611.907 115.56 611.272 115.835 610.778 116.386C610.283 116.927 610.036 117.595 610.036 118.388C610.036 119.172 610.292 119.839 610.806 120.39C611.319 120.931 611.954 121.202 612.71 121.202ZM618.429 122V114.762H623.343V115.714H619.507V122H618.429ZM627.065 122.154C626.328 122.154 625.693 121.953 625.161 121.552C624.629 121.151 624.363 120.591 624.363 119.872C624.363 119.116 624.643 118.533 625.203 118.122C625.763 117.711 626.514 117.506 627.457 117.506C628.204 117.506 628.941 117.609 629.669 117.814V117.59C629.669 116.955 629.482 116.47 629.109 116.134C628.736 115.798 628.208 115.63 627.527 115.63C626.818 115.63 626.085 115.803 625.329 116.148L625.007 115.266C625.903 114.855 626.78 114.65 627.639 114.65C628.666 114.65 629.445 114.916 629.977 115.448C630.481 115.952 630.733 116.661 630.733 117.576V122H629.669V120.922C629.025 121.743 628.157 122.154 627.065 122.154ZM627.275 121.286C627.947 121.286 628.516 121.104 628.983 120.74C629.45 120.376 629.683 119.909 629.683 119.34V118.668C628.974 118.463 628.269 118.36 627.569 118.36C626.906 118.36 626.388 118.495 626.015 118.766C625.642 119.027 625.455 119.387 625.455 119.844C625.455 120.283 625.628 120.633 625.973 120.894C626.328 121.155 626.762 121.286 627.275 121.286Z" fill="white"/>
<path d="M563.513 162.24V152.762H564.591V154.218C565.319 153.145 566.243 152.608 567.363 152.608C568.287 152.608 569.094 152.953 569.785 153.644C570.475 154.325 570.821 155.24 570.821 156.388C570.821 157.517 570.475 158.427 569.785 159.118C569.094 159.809 568.287 160.154 567.363 160.154C566.224 160.154 565.3 159.641 564.591 158.614V162.24H563.513ZM567.167 159.188C567.895 159.188 568.501 158.936 568.987 158.432C569.472 157.919 569.715 157.233 569.715 156.374C569.715 155.543 569.467 154.871 568.973 154.358C568.478 153.835 567.876 153.574 567.167 153.574C566.467 153.574 565.855 153.84 565.333 154.372C564.81 154.904 564.549 155.576 564.549 156.388C564.549 157.2 564.81 157.872 565.333 158.404C565.855 158.927 566.467 159.188 567.167 159.188ZM572.683 160V158.53H573.971V160H572.683ZM580.62 160V150.2H581.74L585.31 155.548L588.88 150.2H590V160H588.894V152.062L585.324 157.312H585.268L581.698 152.076V160H580.62ZM598.599 159.062C597.871 159.799 596.97 160.168 595.897 160.168C594.823 160.168 593.927 159.799 593.209 159.062C592.499 158.325 592.145 157.433 592.145 156.388C592.145 155.352 592.504 154.465 593.223 153.728C593.951 152.981 594.851 152.608 595.925 152.608C596.998 152.608 597.894 152.977 598.613 153.714C599.331 154.451 599.691 155.343 599.691 156.388C599.691 157.424 599.327 158.315 598.599 159.062ZM595.925 159.202C596.699 159.202 597.334 158.931 597.829 158.39C598.333 157.849 598.585 157.181 598.585 156.388C598.585 155.604 598.323 154.937 597.801 154.386C597.287 153.835 596.653 153.56 595.897 153.56C595.122 153.56 594.487 153.835 593.993 154.386C593.498 154.927 593.251 155.595 593.251 156.388C593.251 157.172 593.507 157.839 594.021 158.39C594.534 158.931 595.169 159.202 595.925 159.202ZM604.905 160.168C603.86 160.168 602.978 159.799 602.259 159.062C601.55 158.315 601.195 157.424 601.195 156.388C601.195 155.352 601.55 154.465 602.259 153.728C602.978 152.981 603.86 152.608 604.905 152.608C606.025 152.608 606.991 153.037 607.803 153.896L607.117 154.624C606.445 153.915 605.703 153.56 604.891 153.56C604.163 153.56 603.547 153.835 603.043 154.386C602.549 154.927 602.301 155.595 602.301 156.388C602.301 157.172 602.553 157.839 603.057 158.39C603.571 158.931 604.205 159.202 604.961 159.202C605.736 159.202 606.464 158.838 607.145 158.11L607.859 158.768C607.019 159.701 606.035 160.168 604.905 160.168ZM609.642 160V152.762H610.72V156.934L614.682 152.762H616.012L612.988 155.898L616.096 160H614.822L612.246 156.682L610.72 158.25V160H609.642ZM617.585 160V152.762H621.085C621.804 152.762 622.378 152.925 622.807 153.252C623.236 153.579 623.451 154.017 623.451 154.568C623.451 155.343 623.05 155.898 622.247 156.234C623.311 156.523 623.843 157.121 623.843 158.026C623.843 158.633 623.605 159.113 623.129 159.468C622.653 159.823 622.014 160 621.211 160H617.585ZM618.663 159.076H621.071C621.584 159.076 621.99 158.969 622.289 158.754C622.588 158.539 622.737 158.241 622.737 157.858C622.737 157.503 622.578 157.228 622.261 157.032C621.953 156.836 621.51 156.738 620.931 156.738H618.663V159.076ZM618.663 155.87H620.889C621.337 155.87 621.692 155.772 621.953 155.576C622.224 155.371 622.359 155.081 622.359 154.708C622.359 154.4 622.233 154.153 621.981 153.966C621.729 153.779 621.374 153.686 620.917 153.686H618.663V155.87ZM627.944 160.154C627.207 160.154 626.572 159.953 626.04 159.552C625.508 159.151 625.242 158.591 625.242 157.872C625.242 157.116 625.522 156.533 626.082 156.122C626.642 155.711 627.393 155.506 628.336 155.506C629.083 155.506 629.82 155.609 630.548 155.814V155.59C630.548 154.955 630.361 154.47 629.988 154.134C629.615 153.798 629.087 153.63 628.406 153.63C627.697 153.63 626.964 153.803 626.208 154.148L625.886 153.266C626.782 152.855 627.659 152.65 628.518 152.65C629.545 152.65 630.324 152.916 630.856 153.448C631.36 153.952 631.612 154.661 631.612 155.576V160H630.548V158.922C629.904 159.743 629.036 160.154 627.944 160.154ZM628.154 159.286C628.826 159.286 629.395 159.104 629.862 158.74C630.329 158.376 630.562 157.909 630.562 157.34V156.668C629.853 156.463 629.148 156.36 628.448 156.36C627.785 156.36 627.267 156.495 626.894 156.766C626.521 157.027 626.334 157.387 626.334 157.844C626.334 158.283 626.507 158.633 626.852 158.894C627.207 159.155 627.641 159.286 628.154 159.286Z" fill="#003078"/>
<path d="M461.72 390V380.2H468.748V381.208H462.826V384.218H465.724C466.825 384.218 467.721 384.461 468.412 384.946C469.103 385.422 469.448 386.131 469.448 387.074C469.448 388.017 469.121 388.74 468.468 389.244C467.824 389.748 466.947 390 465.836 390H461.72ZM462.826 388.992H465.752C467.479 388.992 468.342 388.334 468.342 387.018C468.342 386.411 468.109 385.959 467.642 385.66C467.175 385.352 466.527 385.198 465.696 385.198H462.826V388.992ZM477.456 389.062C476.728 389.799 475.827 390.168 474.754 390.168C473.681 390.168 472.785 389.799 472.066 389.062C471.357 388.325 471.002 387.433 471.002 386.388C471.002 385.352 471.361 384.465 472.08 383.728C472.808 382.981 473.709 382.608 474.782 382.608C475.855 382.608 476.751 382.977 477.47 383.714C478.189 384.451 478.548 385.343 478.548 386.388C478.548 387.424 478.184 388.315 477.456 389.062ZM474.782 389.202C475.557 389.202 476.191 388.931 476.686 388.39C477.19 387.849 477.442 387.181 477.442 386.388C477.442 385.604 477.181 384.937 476.658 384.386C476.145 383.835 475.51 383.56 474.754 383.56C473.979 383.56 473.345 383.835 472.85 384.386C472.355 384.927 472.108 385.595 472.108 386.388C472.108 387.172 472.365 387.839 472.878 388.39C473.391 388.931 474.026 389.202 474.782 389.202ZM480.151 390.112C479.871 390.112 479.582 390.075 479.283 390L479.409 389.076C479.624 389.141 479.796 389.174 479.927 389.174C480.132 389.174 480.3 389.151 480.431 389.104C480.562 389.048 480.702 388.913 480.851 388.698C481.01 388.474 481.131 388.161 481.215 387.76C481.299 387.359 481.369 386.789 481.425 386.052C481.49 385.315 481.523 384.419 481.523 383.364V382.762H486.647V390H485.569V383.714H482.545V383.882C482.545 384.983 482.503 385.921 482.419 386.696C482.335 387.471 482.228 388.077 482.097 388.516C481.976 388.955 481.803 389.295 481.579 389.538C481.355 389.781 481.136 389.935 480.921 390C480.716 390.075 480.459 390.112 480.151 390.112ZM489.059 390V382.762H490.137V385.478H492.069C492.909 385.478 493.595 385.66 494.127 386.024C494.659 386.379 494.925 386.92 494.925 387.648C494.925 388.367 494.678 388.941 494.183 389.37C493.689 389.79 493.026 390 492.195 390H489.059ZM490.137 389.048H492.097C492.648 389.048 493.073 388.931 493.371 388.698C493.679 388.465 493.833 388.124 493.833 387.676C493.833 387.265 493.675 386.953 493.357 386.738C493.049 386.514 492.615 386.402 492.055 386.402H490.137V389.048ZM496.593 390V382.762H497.671V389.048H501.199V382.762H502.277V389.048H505.805V382.762H506.897V390H496.593ZM511.464 390.154C510.726 390.154 510.092 389.953 509.56 389.552C509.028 389.151 508.762 388.591 508.762 387.872C508.762 387.116 509.042 386.533 509.602 386.122C510.162 385.711 510.913 385.506 511.856 385.506C512.602 385.506 513.34 385.609 514.068 385.814V385.59C514.068 384.955 513.881 384.47 513.508 384.134C513.134 383.798 512.607 383.63 511.926 383.63C511.216 383.63 510.484 383.803 509.728 384.148L509.406 383.266C510.302 382.855 511.179 382.65 512.038 382.65C513.064 382.65 513.844 382.916 514.376 383.448C514.88 383.952 515.132 384.661 515.132 385.576V390H514.068V388.922C513.424 389.743 512.556 390.154 511.464 390.154ZM511.674 389.286C512.346 389.286 512.915 389.104 513.382 388.74C513.848 388.376 514.082 387.909 514.082 387.34V386.668C513.372 386.463 512.668 386.36 511.968 386.36C511.305 386.36 510.787 386.495 510.414 386.766C510.04 387.027 509.854 387.387 509.854 387.844C509.854 388.283 510.026 388.633 510.372 388.894C510.726 389.155 511.16 389.286 511.674 389.286ZM516.771 390L518.983 387.2C518.414 387.069 517.947 386.813 517.583 386.43C517.228 386.047 517.051 385.576 517.051 385.016C517.051 384.344 517.294 383.803 517.779 383.392C518.264 382.972 518.932 382.762 519.781 382.762H523.183V390H522.105V387.368H520.103C520.019 387.48 519.73 387.863 519.235 388.516C518.74 389.169 518.362 389.664 518.101 390H516.771ZM519.865 386.458H522.105V383.714H519.837C519.305 383.714 518.885 383.835 518.577 384.078C518.278 384.311 518.129 384.638 518.129 385.058C518.129 385.487 518.288 385.828 518.605 386.08C518.932 386.332 519.352 386.458 519.865 386.458ZM533.05 390.168C532.005 390.168 531.123 389.799 530.404 389.062C529.695 388.315 529.34 387.424 529.34 386.388C529.34 385.352 529.695 384.465 530.404 383.728C531.123 382.981 532.005 382.608 533.05 382.608C534.17 382.608 535.136 383.037 535.948 383.896L535.262 384.624C534.59 383.915 533.848 383.56 533.036 383.56C532.308 383.56 531.692 383.835 531.188 384.386C530.693 384.927 530.446 385.595 530.446 386.388C530.446 387.172 530.698 387.839 531.202 388.39C531.715 388.931 532.35 389.202 533.106 389.202C533.881 389.202 534.609 388.838 535.29 388.11L536.004 388.768C535.164 389.701 534.179 390.168 533.05 390.168ZM537.786 390V382.762H544.058V390H542.98V383.714H538.864V390H537.786ZM552.474 389.062C551.746 389.799 550.845 390.168 549.772 390.168C548.698 390.168 547.802 389.799 547.084 389.062C546.374 388.325 546.02 387.433 546.02 386.388C546.02 385.352 546.379 384.465 547.098 383.728C547.826 382.981 548.726 382.608 549.8 382.608C550.873 382.608 551.769 382.977 552.488 383.714C553.206 384.451 553.566 385.343 553.566 386.388C553.566 387.424 553.202 388.315 552.474 389.062ZM549.8 389.202C550.574 389.202 551.209 388.931 551.704 388.39C552.208 387.849 552.46 387.181 552.46 386.388C552.46 385.604 552.198 384.937 551.676 384.386C551.162 383.835 550.528 383.56 549.772 383.56C548.997 383.56 548.362 383.835 547.868 384.386C547.373 384.927 547.126 385.595 547.126 386.388C547.126 387.172 547.382 387.839 547.896 388.39C548.409 388.931 549.044 389.202 549.8 389.202ZM555.518 392.24V382.762H556.596V384.218C557.324 383.145 558.248 382.608 559.368 382.608C560.292 382.608 561.1 382.953 561.79 383.644C562.481 384.325 562.826 385.24 562.826 386.388C562.826 387.517 562.481 388.427 561.79 389.118C561.1 389.809 560.292 390.154 559.368 390.154C558.23 390.154 557.306 389.641 556.596 388.614V392.24H555.518ZM559.172 389.188C559.9 389.188 560.507 388.936 560.992 388.432C561.478 387.919 561.72 387.233 561.72 386.374C561.72 385.543 561.473 384.871 560.978 384.358C560.484 383.835 559.882 383.574 559.172 383.574C558.472 383.574 557.861 383.84 557.338 384.372C556.816 384.904 556.554 385.576 556.554 386.388C556.554 387.2 556.816 387.872 557.338 388.404C557.861 388.927 558.472 389.188 559.172 389.188ZM566.565 390V383.714H563.975V382.762H570.247V383.714H567.657V390H566.565ZM571.815 390V382.762H572.893V388.488L577.191 382.762H578.241V390H577.163V384.274L572.851 390H571.815ZM580.647 390V382.762H584.147C584.866 382.762 585.44 382.925 585.869 383.252C586.299 383.579 586.513 384.017 586.513 384.568C586.513 385.343 586.112 385.898 585.309 386.234C586.373 386.523 586.905 387.121 586.905 388.026C586.905 388.633 586.667 389.113 586.191 389.468C585.715 389.823 585.076 390 584.273 390H580.647ZM581.725 389.076H584.133C584.647 389.076 585.053 388.969 585.351 388.754C585.65 388.539 585.799 388.241 585.799 387.858C585.799 387.503 585.641 387.228 585.323 387.032C585.015 386.836 584.572 386.738 583.993 386.738H581.725V389.076ZM581.725 385.87H583.951C584.399 385.87 584.754 385.772 585.015 385.576C585.286 385.371 585.421 385.081 585.421 384.708C585.421 384.4 585.295 384.153 585.043 383.966C584.791 383.779 584.437 383.686 583.979 383.686H581.725V385.87ZM588.85 390V382.762H589.928V385.884H594.1V382.762H595.178V390H594.1V386.836H589.928V390H588.85ZM599.743 390.154C599.005 390.154 598.371 389.953 597.839 389.552C597.307 389.151 597.041 388.591 597.041 387.872C597.041 387.116 597.321 386.533 597.881 386.122C598.441 385.711 599.192 385.506 600.135 385.506C600.881 385.506 601.619 385.609 602.347 385.814V385.59C602.347 384.955 602.16 384.47 601.787 384.134C601.413 383.798 600.886 383.63 600.205 383.63C599.495 383.63 598.763 383.803 598.007 384.148L597.685 383.266C598.581 382.855 599.458 382.65 600.317 382.65C601.343 382.65 602.123 382.916 602.655 383.448C603.159 383.952 603.411 384.661 603.411 385.576V390H602.347V388.922C601.703 389.743 600.835 390.154 599.743 390.154ZM599.953 389.286C600.625 389.286 601.194 389.104 601.661 388.74C602.127 388.376 602.361 387.909 602.361 387.34V386.668C601.651 386.463 600.947 386.36 600.247 386.36C599.584 386.36 599.066 386.495 598.693 386.766C598.319 387.027 598.133 387.387 598.133 387.844C598.133 388.283 598.305 388.633 598.651 388.894C599.005 389.155 599.439 389.286 599.953 389.286ZM605.05 390L607.262 387.2C606.693 387.069 606.226 386.813 605.862 386.43C605.508 386.047 605.33 385.576 605.33 385.016C605.33 384.344 605.573 383.803 606.058 383.392C606.544 382.972 607.211 382.762 608.06 382.762H611.462V390H610.384V387.368H608.382C608.298 387.48 608.009 387.863 607.514 388.516C607.02 389.169 606.642 389.664 606.38 390H605.05ZM608.144 386.458H610.384V383.714H608.116C607.584 383.714 607.164 383.835 606.856 384.078C606.558 384.311 606.408 384.638 606.408 385.058C606.408 385.487 606.567 385.828 606.884 386.08C607.211 386.332 607.631 386.458 608.144 386.458ZM518.593 407.154C517.856 407.154 517.221 406.953 516.689 406.552C516.157 406.151 515.891 405.591 515.891 404.872C515.891 404.116 516.171 403.533 516.731 403.122C517.291 402.711 518.043 402.506 518.985 402.506C519.732 402.506 520.469 402.609 521.197 402.814V402.59C521.197 401.955 521.011 401.47 520.637 401.134C520.264 400.798 519.737 400.63 519.055 400.63C518.346 400.63 517.613 400.803 516.857 401.148L516.535 400.266C517.431 399.855 518.309 399.65 519.167 399.65C520.194 399.65 520.973 399.916 521.505 400.448C522.009 400.952 522.261 401.661 522.261 402.576V407H521.197V405.922C520.553 406.743 519.685 407.154 518.593 407.154ZM518.803 406.286C519.475 406.286 520.045 406.104 520.511 405.74C520.978 405.376 521.211 404.909 521.211 404.34V403.668C520.502 403.463 519.797 403.36 519.097 403.36C518.435 403.36 517.917 403.495 517.543 403.766C517.17 404.027 516.983 404.387 516.983 404.844C516.983 405.283 517.156 405.633 517.501 405.894C517.856 406.155 518.29 406.286 518.803 406.286ZM524.545 409.24V399.762H525.623V401.218C526.351 400.145 527.275 399.608 528.395 399.608C529.319 399.608 530.126 399.953 530.817 400.644C531.507 401.325 531.853 402.24 531.853 403.388C531.853 404.517 531.507 405.427 530.817 406.118C530.126 406.809 529.319 407.154 528.395 407.154C527.256 407.154 526.332 406.641 525.623 405.614V409.24H524.545ZM528.199 406.188C528.927 406.188 529.533 405.936 530.019 405.432C530.504 404.919 530.747 404.233 530.747 403.374C530.747 402.543 530.499 401.871 530.005 401.358C529.51 400.835 528.908 400.574 528.199 400.574C527.499 400.574 526.887 400.84 526.365 401.372C525.842 401.904 525.581 402.576 525.581 403.388C525.581 404.2 525.842 404.872 526.365 405.404C526.887 405.927 527.499 406.188 528.199 406.188ZM537.006 407.168C535.988 407.168 535.13 406.818 534.43 406.118C533.739 405.409 533.394 404.499 533.394 403.388C533.394 402.333 533.725 401.442 534.388 400.714C535.05 399.977 535.876 399.608 536.866 399.608C537.902 399.608 538.723 399.972 539.33 400.7C539.936 401.428 540.24 402.343 540.24 403.444C540.24 403.584 540.235 403.71 540.226 403.822H534.486C534.56 404.559 534.836 405.147 535.312 405.586C535.797 406.015 536.371 406.23 537.034 406.23C537.902 406.23 538.662 405.889 539.316 405.208L539.988 405.81C539.176 406.715 538.182 407.168 537.006 407.168ZM534.486 402.954H539.148C539.082 402.254 538.849 401.675 538.448 401.218C538.056 400.751 537.519 400.518 536.838 400.518C536.222 400.518 535.694 400.747 535.256 401.204C534.817 401.661 534.56 402.245 534.486 402.954ZM542.127 407V399.762H543.205V402.884H547.377V399.762H548.455V407H547.377V403.836H543.205V407H542.127ZM553.019 407.154C552.282 407.154 551.647 406.953 551.115 406.552C550.583 406.151 550.317 405.591 550.317 404.872C550.317 404.116 550.597 403.533 551.157 403.122C551.717 402.711 552.469 402.506 553.411 402.506C554.158 402.506 554.895 402.609 555.623 402.814V402.59C555.623 401.955 555.437 401.47 555.063 401.134C554.69 400.798 554.163 400.63 553.481 400.63C552.772 400.63 552.039 400.803 551.283 401.148L550.961 400.266C551.857 399.855 552.735 399.65 553.593 399.65C554.62 399.65 555.399 399.916 555.931 400.448C556.435 400.952 556.687 401.661 556.687 402.576V407H555.623V405.922C554.979 406.743 554.111 407.154 553.019 407.154ZM553.229 406.286C553.901 406.286 554.471 406.104 554.937 405.74C555.404 405.376 555.637 404.909 555.637 404.34V403.668C554.928 403.463 554.223 403.36 553.523 403.36C552.861 403.36 552.343 403.495 551.969 403.766C551.596 404.027 551.409 404.387 551.409 404.844C551.409 405.283 551.582 405.633 551.927 405.894C552.282 406.155 552.716 406.286 553.229 406.286Z" fill="white"/>
<path d="M286.223 387L290.689 377.13H291.725L296.191 387H295.001L293.853 384.41H288.519L287.357 387H286.223ZM288.953 383.416H293.419L291.193 378.418L288.953 383.416ZM297.941 387V379.762H299.019V383.934L302.981 379.762H304.311L301.287 382.898L304.395 387H303.121L300.545 383.682L299.019 385.25V387H297.941ZM305.885 387V379.762H309.385C310.103 379.762 310.677 379.925 311.107 380.252C311.536 380.579 311.751 381.017 311.751 381.568C311.751 382.343 311.349 382.898 310.547 383.234C311.611 383.523 312.143 384.121 312.143 385.026C312.143 385.633 311.905 386.113 311.429 386.468C310.953 386.823 310.313 387 309.511 387H305.885ZM306.963 386.076H309.371C309.884 386.076 310.29 385.969 310.589 385.754C310.887 385.539 311.037 385.241 311.037 384.858C311.037 384.503 310.878 384.228 310.561 384.032C310.253 383.836 309.809 383.738 309.231 383.738H306.963V386.076ZM306.963 382.87H309.189C309.637 382.87 309.991 382.772 310.253 382.576C310.523 382.371 310.659 382.081 310.659 381.708C310.659 381.4 310.533 381.153 310.281 380.966C310.029 380.779 309.674 380.686 309.217 380.686H306.963V382.87ZM316.244 387.154C315.506 387.154 314.872 386.953 314.34 386.552C313.808 386.151 313.542 385.591 313.542 384.872C313.542 384.116 313.822 383.533 314.382 383.122C314.942 382.711 315.693 382.506 316.636 382.506C317.382 382.506 318.12 382.609 318.848 382.814V382.59C318.848 381.955 318.661 381.47 318.288 381.134C317.914 380.798 317.387 380.63 316.706 380.63C315.996 380.63 315.264 380.803 314.508 381.148L314.186 380.266C315.082 379.855 315.959 379.65 316.818 379.65C317.844 379.65 318.624 379.916 319.156 380.448C319.66 380.952 319.912 381.661 319.912 382.576V387H318.848V385.922C318.204 386.743 317.336 387.154 316.244 387.154ZM316.454 386.286C317.126 386.286 317.695 386.104 318.162 385.74C318.628 385.376 318.862 384.909 318.862 384.34V383.668C318.152 383.463 317.448 383.36 316.748 383.36C316.085 383.36 315.567 383.495 315.194 383.766C314.82 384.027 314.634 384.387 314.634 384.844C314.634 385.283 314.806 385.633 315.152 385.894C315.506 386.155 315.94 386.286 316.454 386.286ZM322.195 387V379.762H323.273V383.934L327.235 379.762H328.565L325.541 382.898L328.649 387H327.375L324.799 383.682L323.273 385.25V387H322.195ZM336.145 386.062C335.417 386.799 334.516 387.168 333.443 387.168C332.369 387.168 331.473 386.799 330.755 386.062C330.045 385.325 329.691 384.433 329.691 383.388C329.691 382.352 330.05 381.465 330.769 380.728C331.497 379.981 332.397 379.608 333.471 379.608C334.544 379.608 335.44 379.977 336.159 380.714C336.877 381.451 337.237 382.343 337.237 383.388C337.237 384.424 336.873 385.315 336.145 386.062ZM333.471 386.202C334.245 386.202 334.88 385.931 335.375 385.39C335.879 384.849 336.131 384.181 336.131 383.388C336.131 382.604 335.869 381.937 335.347 381.386C334.833 380.835 334.199 380.56 333.443 380.56C332.668 380.56 332.033 380.835 331.539 381.386C331.044 381.927 330.797 382.595 330.797 383.388C330.797 384.172 331.053 384.839 331.567 385.39C332.08 385.931 332.715 386.202 333.471 386.202ZM339.189 387V379.762H340.211L342.913 383.57L345.615 379.762H346.651V387H345.559V381.484L342.885 385.152L340.239 381.484V387H339.189ZM349.06 387V379.762H355.332V387H354.254V380.714H350.138V387H349.06ZM357.392 387.112C357.112 387.112 356.823 387.075 356.524 387L356.65 386.076C356.865 386.141 357.037 386.174 357.168 386.174C357.373 386.174 357.541 386.151 357.672 386.104C357.803 386.048 357.943 385.913 358.092 385.698C358.251 385.474 358.372 385.161 358.456 384.76C358.54 384.359 358.61 383.789 358.666 383.052C358.731 382.315 358.764 381.419 358.764 380.364V379.762H363.888V387H362.81V380.714H359.786V380.882C359.786 381.983 359.744 382.921 359.66 383.696C359.576 384.471 359.469 385.077 359.338 385.516C359.217 385.955 359.044 386.295 358.82 386.538C358.596 386.781 358.377 386.935 358.162 387C357.957 387.075 357.7 387.112 357.392 387.112ZM369.465 387.168C368.447 387.168 367.589 386.818 366.889 386.118C366.198 385.409 365.853 384.499 365.853 383.388C365.853 382.333 366.184 381.442 366.847 380.714C367.509 379.977 368.335 379.608 369.325 379.608C370.361 379.608 371.182 379.972 371.789 380.7C372.395 381.428 372.699 382.343 372.699 383.444C372.699 383.584 372.694 383.71 372.685 383.822H366.945C367.019 384.559 367.295 385.147 367.771 385.586C368.256 386.015 368.83 386.23 369.493 386.23C370.361 386.23 371.121 385.889 371.775 385.208L372.447 385.81C371.635 386.715 370.641 387.168 369.465 387.168ZM366.945 382.954H371.607C371.541 382.254 371.308 381.675 370.907 381.218C370.515 380.751 369.978 380.518 369.297 380.518C368.681 380.518 368.153 380.747 367.715 381.204C367.276 381.661 367.019 382.245 366.945 382.954ZM374.586 387V379.762H375.664V383.934L379.626 379.762H380.956L377.932 382.898L381.04 387H379.766L377.19 383.682L375.664 385.25V387H374.586ZM385.791 387.168C384.746 387.168 383.864 386.799 383.145 386.062C382.436 385.315 382.081 384.424 382.081 383.388C382.081 382.352 382.436 381.465 383.145 380.728C383.864 379.981 384.746 379.608 385.791 379.608C386.911 379.608 387.877 380.037 388.689 380.896L388.003 381.624C387.331 380.915 386.589 380.56 385.777 380.56C385.049 380.56 384.433 380.835 383.929 381.386C383.435 381.927 383.187 382.595 383.187 383.388C383.187 384.172 383.439 384.839 383.943 385.39C384.457 385.931 385.091 386.202 385.847 386.202C386.622 386.202 387.35 385.838 388.031 385.11L388.745 385.768C387.905 386.701 386.921 387.168 385.791 387.168ZM306.056 404.112C305.617 404.112 305.192 404.033 304.782 403.874L305.006 402.978C305.211 403.071 305.5 403.118 305.874 403.118C306.06 403.118 306.228 403.09 306.378 403.034C306.527 402.969 306.704 402.801 306.91 402.53C307.115 402.25 307.283 401.872 307.414 401.396C307.544 400.911 307.656 400.206 307.75 399.282C307.852 398.349 307.904 397.247 307.904 395.978V394.2H314.246V404H313.14V395.208H308.968V396.272C308.968 397.597 308.912 398.745 308.8 399.716C308.697 400.687 308.557 401.452 308.38 402.012C308.212 402.563 307.992 403.001 307.722 403.328C307.46 403.655 307.199 403.869 306.938 403.972C306.686 404.065 306.392 404.112 306.056 404.112ZM317.949 406.282C317.426 406.282 316.913 406.161 316.409 405.918L316.773 405.064C317.118 405.241 317.496 405.33 317.907 405.33C318.234 405.33 318.509 405.227 318.733 405.022C318.957 404.826 319.176 404.476 319.391 403.972L316.101 396.762H317.291L319.923 402.796L322.247 396.762H323.395L320.357 404.238C320.049 404.975 319.708 405.498 319.335 405.806C318.962 406.123 318.5 406.282 317.949 406.282ZM324.176 404L327.144 399.856L324.33 396.762H325.632L329.314 400.962V396.762H330.392V400.962L334.074 396.762H335.376L332.562 399.856L335.53 404H334.27L331.862 400.626L330.392 402.236V404H329.314V402.236L327.844 400.626L325.436 404H324.176ZM337.009 404V396.762H338.087V399.884H342.259V396.762H343.337V404H342.259V400.836H338.087V404H337.009ZM345.745 404V396.762H346.823V402.488L351.121 396.762H352.171V404H351.093V398.274L346.781 404H345.745ZM354.577 404V396.762H355.655V400.934L359.617 396.762H360.947L357.923 399.898L361.031 404H359.757L357.181 400.682L355.655 402.25V404H354.577ZM362.52 404V396.762H363.598V402.488L367.896 396.762H368.946V404H367.868V398.274L363.556 404H362.52Z" fill="white"/>
<path d="M343.95 510C343.7 511.69 342.26 513 340.5 513H339V511H342C341.93 509.72 342.26 507.04 341.53 505.95C340.56 503.9 337.83 503.56 335.93 503.05C335 503 334 502 333.84 501H331C330.72 501 330.5 500.78 330.5 500.5C330.5 500.22 330.72 500 331 500H333.5V499H331C330.72 499 330.5 498.78 330.5 498.5C330.5 498.22 330.72 498 331 498H333.5V495H325.03V511H328V513H324V515H340.5C343.36 515 345.72 512.8 346 510H343.95ZM337 513H330V511H337V513Z" fill="white"/>
<rect x="405" y="385" width="46" height="16" rx="5" fill="#AF1917"/>
<rect x="398" y="385" width="14" height="32" rx="5" fill="#AF1917"/>
<path d="M370.088 452H339.913C336.647 452 334 454.276 334 457.083V483.03C334 485.838 336.647 488.115 339.913 488.115H370.088C373.353 488.115 376 485.838 376 483.03V457.083C376 454.276 373.353 452 370.088 452Z" fill="#AF1917"/>
<rect x="282" y="421" width="111" height="9.02864" rx="4.51432" fill="#AF1917"/>
<defs>
<clipPath id="clip0_442_654">
<rect width="45" height="45" fill="white" transform="translate(182 401)"/>
</clipPath>
<clipPath id="clip1_442_654">
<rect width="45" height="45" fill="white" transform="translate(587 714)"/>
</clipPath>
<clipPath id="clip2_442_654">
<rect width="45" height="45" fill="white" transform="translate(762 715)"/>
</clipPath>
</defs>
</svg>
