<svg xmlns="http://www.w3.org/2000/svg" xmlns:xlink="http://www.w3.org/1999/xlink"><defs>
<clipPath id="clip0_175_2712">
<rect width="39" height="39" fill="inherit" transform="translate(40 40) rotate(-180)"/>
</clipPath>

<clipPath id="clip0_175_2724">
<rect width="45" height="45" fill="inherit"/>
</clipPath>
</defs><symbol id="icon-arrow-full" viewBox="0 0 19 19">
<path fill-rule="evenodd" clip-rule="evenodd" d="M1.9 0C0.850658 0 0 0.850658 0 1.9C0 2.94935 0.850658 3.8 1.9 3.8H12.5128L1.18967 15.1232C0.447679 15.8651 0.447679 17.0682 1.18967 17.8101C1.93167 18.5521 3.13469 18.5521 3.87668 17.8101L15.2 6.48681V17.1C15.2 18.1494 16.0506 19 17.1 19C18.1494 19 19 18.1494 19 17.1V3.16667C19 1.41776 17.5822 0 15.8333 0H1.9Z" fill="inherit"/>
</symbol><symbol id="icon-arrow-left" viewBox="0 0 40 40">
<g clip-path="url(#clip0_175_2712)">
<path d="M1.00003 20.5002L5.10529 24.6055L24.6052 5.10552L20.5 1.00026L1.00003 20.5002Z" fill="inherit"/>
<path d="M5.10538 16.3947L1.00012 20.5L20.5001 40L24.6053 35.8947L5.10538 16.3947Z" fill="inherit"/>
</g>

</symbol><symbol id="icon-arrow-right" viewBox="0 0 40 40">
<path d="M38.9999 19.4998L34.8947 15.3945L15.3947 34.8945L19.5 38.9997L38.9999 19.4998Z" fill="inherit"/>
<path d="M34.8946 23.6053L38.9999 19.5L19.4999 4.50902e-05L15.3947 4.1053L34.8946 23.6053Z" fill="inherit"/>
</symbol><symbol id="icon-calendar" viewBox="0 0 20 20">
<path d="M0 6.25H20V17C20 18.6569 18.6569 20 17 20H3C1.34315 20 0 18.6569 0 17V6.25Z" fill="inherit"/>
<path d="M5 0.625C5 0.45924 4.93415 0.300269 4.81694 0.183058C4.69973 0.065848 4.54076 0 4.375 0C4.20924 0 4.05027 0.065848 3.93306 0.183058C3.81585 0.300269 3.75 0.45924 3.75 0.625V1.25H2.5C1.83696 1.25 1.20107 1.51339 0.732233 1.98223C0.263392 2.45107 0 3.08696 0 3.75L0 5H20V3.75C20 3.08696 19.7366 2.45107 19.2678 1.98223C18.7989 1.51339 18.163 1.25 17.5 1.25H16.25V0.625C16.25 0.45924 16.1842 0.300269 16.0669 0.183058C15.9497 0.065848 15.7908 0 15.625 0C15.4592 0 15.3003 0.065848 15.1831 0.183058C15.0658 0.300269 15 0.45924 15 0.625V1.25H5V0.625Z" fill="inherit"/>
</symbol><symbol id="icon-medal" viewBox="0 0 45 45">
<path d="M32.3636 16.4074C32.3636 18.3448 31.7851 20.2386 30.7013 21.8495C29.6175 23.4604 28.077 24.7159 26.2746 25.4573C24.4723 26.1987 22.4891 26.3927 20.5757 26.0147C18.6623 25.6367 16.9048 24.7038 15.5254 23.3339C14.1459 21.9639 13.2065 20.2185 12.8259 18.3184C12.4453 16.4182 12.6406 14.4487 13.3872 12.6588C14.1337 10.8689 15.398 9.33903 17.0201 8.26268C18.6421 7.18633 20.5492 6.61184 22.5 6.61184C25.116 6.61184 27.6248 7.64386 29.4746 9.48088C31.3244 11.3179 32.3636 13.8094 32.3636 16.4074ZM38 16.4074C38.0003 18.6748 37.4951 20.9142 36.5205 22.9647C35.546 25.0152 34.1264 26.826 32.3636 28.267V41.5959C32.3636 41.967 32.2152 42.323 31.9509 42.5854C31.6867 42.8478 31.3283 42.9953 30.9545 42.9953C30.7359 42.9907 30.5204 42.9431 30.3204 42.8553L22.5 38.9546L14.6795 42.8553C14.4636 42.9612 14.2239 43.0104 13.9834 42.9982C13.7429 42.9859 13.5096 42.9127 13.3057 42.7854C13.1001 42.6614 12.9304 42.4867 12.8131 42.2783C12.6958 42.0698 12.6349 41.8347 12.6364 41.5959V28.267C10.6212 26.6161 9.05897 24.4861 8.09467 22.0751C7.13038 19.664 6.79534 17.05 7.12068 14.4759C7.44603 11.9018 8.4212 9.45116 9.95561 7.35156C11.49 5.25196 13.5339 3.57155 15.8973 2.46644C18.2608 1.36133 20.8672 0.86737 23.4743 1.03044C26.0815 1.19352 28.6048 2.00834 30.81 3.39921C33.0151 4.79008 34.8306 6.71188 36.0876 8.98607C37.3446 11.2603 38.0024 13.8131 38 16.4074ZM35.1818 16.4074C35.1818 13.9165 34.438 11.4815 33.0445 9.41038C31.651 7.33926 29.6704 5.72502 27.3531 4.77179C25.0358 3.81856 22.4859 3.56915 20.0259 4.05511C17.5659 4.54106 15.3062 5.74055 13.5326 7.50189C11.759 9.26322 10.5512 11.5073 10.0619 13.9504C9.57253 16.3934 9.82367 18.9257 10.7835 21.227C11.7434 23.5283 13.3688 25.4953 15.4544 26.8791C17.5399 28.263 19.9918 29.0016 22.5 29.0016C25.862 28.997 29.085 27.6686 31.4622 25.3078C33.8395 22.9469 35.1772 19.7462 35.1818 16.4074Z" fill="inherit"/>
</symbol><symbol id="icon-metro" viewBox="0 0 45 45">
<g clip-path="url(#clip0_175_2724)">
<path d="M22.5 45C34.9264 45 45 34.9264 45 22.5C45 10.0736 34.9264 0 22.5 0C10.0736 0 0 10.0736 0 22.5C0 34.9264 10.0736 45 22.5 45Z" fill="#F32735"/>
<path fill-rule="evenodd" clip-rule="evenodd" d="M33.2112 28.4853L27.1375 13L22 22.0526L16.8834 13L10.7888 28.4853H9V30.8326H18.1936V28.4853H16.8207L18.1518 24.6295L22 31L25.8482 24.6295L27.1793 28.4853H25.8064V30.8326H35V28.4853H33.2112Z" fill="inherit"/>
</g>

</symbol><symbol id="icon-minus" viewBox="0 0 30 5">
<rect width="30" height="5" rx="2.5" fill="inherit"/>
</symbol><symbol id="icon-pin" viewBox="0 0 16 20">
<path d="M8 10C8.55 10 9.021 9.804 9.413 9.412C9.80433 9.02067 10 8.55 10 8C10 7.45 9.80433 6.979 9.413 6.587C9.021 6.19567 8.55 6 8 6C7.45 6 6.97933 6.19567 6.588 6.587C6.196 6.979 6 7.45 6 8C6 8.55 6.196 9.02067 6.588 9.412C6.97933 9.804 7.45 10 8 10ZM8 20C5.31667 17.7167 3.31267 15.5957 1.988 13.637C0.662667 11.679 0 9.86667 0 8.2C0 5.7 0.804333 3.70833 2.413 2.225C4.021 0.741667 5.88333 0 8 0C10.1167 0 11.979 0.741667 13.587 2.225C15.1957 3.70833 16 5.7 16 8.2C16 9.86667 15.3377 11.679 14.013 13.637C12.6877 15.5957 10.6833 17.7167 8 20Z" fill="inherit"/>
</symbol><symbol id="icon-plus" viewBox="0 0 30 30">
<rect y="13" width="30" height="5" rx="2.5" fill="inherit"/>
<rect x="18" width="30" height="5" rx="2.5" transform="rotate(90 18 0)" fill="inherit"/>
</symbol><symbol id="icon-running-man" viewBox="0 0 45 45">
<path d="M24.8233 43.0435V31.8504L20.843 28.1193L18.9476 36.3276L5.86951 33.7159L6.62766 29.9849L15.7255 31.8504L18.7581 16.7397L15.3464 18.0455V24.3883H11.5556V15.6204L19.0424 12.449C20.148 11.9826 20.9618 11.6791 21.4837 11.5386C22.0042 11.3993 22.4857 11.3297 22.9279 11.3297C23.5913 11.3297 24.2073 11.5007 24.7759 11.8427C25.3445 12.1847 25.8026 12.6355 26.1501 13.1952L28.0455 16.18C28.8668 17.4859 29.98 18.5585 31.3851 19.398C32.7915 20.2375 34.395 20.6573 36.1956 20.6573V24.3883C34.1107 24.3883 32.1603 23.9605 30.3446 23.1048C28.5275 22.2504 27.003 21.1236 25.771 19.7245L24.6338 25.3211L28.6141 29.0521V43.0435H24.8233ZM25.771 10.3969C24.7285 10.3969 23.8365 10.0313 23.0947 9.29997C22.3517 8.56993 21.9802 7.69189 21.9802 6.66586C21.9802 5.63982 22.3517 4.76116 23.0947 4.02987C23.8365 3.29983 24.7285 2.93481 25.771 2.93481C26.8135 2.93481 27.7062 3.29983 28.4492 4.02987C29.1909 4.76116 29.5618 5.63982 29.5618 6.66586C29.5618 7.69189 29.1909 8.56993 28.4492 9.29997C27.7062 10.0313 26.8135 10.3969 25.771 10.3969Z" fill="inherit"/>
</symbol><symbol id="icon-skate" viewBox="0 0 45 45">
<path d="M37.4591 30.25C37.0273 33.2075 34.54 35.5 31.5 35.5H28.9091V32H34.0909C33.97 29.76 34.54 25.07 33.2791 23.1625C31.6036 19.575 26.8882 18.98 23.6064 18.0875C22 18 20.2727 16.25 19.9964 14.5H15.0909C14.6073 14.5 14.2273 14.115 14.2273 13.625C14.2273 13.135 14.6073 12.75 15.0909 12.75H19.4091V11H15.0909C14.6073 11 14.2273 10.615 14.2273 10.125C14.2273 9.635 14.6073 9.25 15.0909 9.25H19.4091V4H4.77909V32H9.90909V35.5H3V39H31.5C36.44 39 40.5164 35.15 41 30.25H37.4591ZM25.4545 35.5H13.3636V32H25.4545V35.5Z" fill="inherit"/>
</symbol><symbol id="icon-star" viewBox="0 0 45 45">
<path d="M43.0435 16.8673L28.2727 15.5904L22.5 1.95654L16.7273 15.611L1.95654 16.8673L13.1733 26.6087L9.80415 41.087L22.5 33.4051L35.1959 41.087L31.8473 26.6087L43.0435 16.8673ZM22.5 29.5538V10.4005L26.013 18.7208L35.011 19.5035L28.1906 25.4348L30.2449 34.2495L22.5 29.5538Z" fill="inherit"/>
</symbol><symbol id="icon-time" viewBox="0 0 20 20">
<path d="M9.99 0C4.47 0 0 4.48 0 10C0 15.52 4.47 20 9.99 20C15.52 20 20 15.52 20 10C20 4.48 15.52 0 9.99 0ZM14 14C13.9075 14.0927 13.7976 14.1663 13.6766 14.2164C13.5557 14.2666 13.426 14.2924 13.295 14.2924C13.164 14.2924 13.0343 14.2666 12.9134 14.2164C12.7924 14.1663 12.6825 14.0927 12.59 14L9.3 10.71C9.20551 10.6174 9.13034 10.5069 9.07885 10.3851C9.02735 10.2632 9.00055 10.1323 9 10V6C9 5.45 9.45 5 10 5C10.55 5 11 5.45 11 6V9.59L14 12.59C14.39 12.98 14.39 13.61 14 14Z" fill="inherit"/>
</symbol></svg>