<svg width="217" height="19" viewBox="0 0 217 19" fill="none" xmlns="http://www.w3.org/2000/svg">
<path d="M2.72 15.16C2.09333 15.16 1.48667 15.0467 0.9 14.82L1.22 13.54C1.51333 13.6733 1.92667 13.74 2.46 13.74C2.72667 13.74 2.96667 13.7 3.18 13.62C3.39333 13.5267 3.64667 13.2867 3.94 12.9C4.23333 12.5 4.47333 11.96 4.66 11.28C4.84667 10.5867 5.00667 9.58 5.14 8.26C5.28667 6.92667 5.36 5.35333 5.36 3.54V0.999999H14.42V15H12.84V2.44H6.88V3.96C6.88 5.85333 6.8 7.49333 6.64 8.88C6.49333 10.2667 6.29333 11.36 6.04 12.16C5.8 12.9467 5.48667 13.5733 5.1 14.04C4.72667 14.5067 4.35333 14.8133 3.98 14.96C3.62 15.0933 3.2 15.16 2.72 15.16ZM30.0106 13.12C28.664 14.5333 26.9506 15.24 24.8706 15.24C22.7906 15.24 21.084 14.5333 19.7506 13.12C18.4173 11.7067 17.7506 10 17.7506 8C17.7506 6.01333 18.424 4.31333 19.7706 2.9C21.1173 1.47333 22.8306 0.76 24.9106 0.76C26.9906 0.76 28.6973 1.46667 30.0306 2.88C31.364 4.29333 32.0306 6 32.0306 8C32.0306 9.98667 31.3573 11.6933 30.0106 13.12ZM20.9506 12.1C22.004 13.22 23.324 13.78 24.9106 13.78C26.4973 13.78 27.804 13.2267 28.8306 12.12C29.8706 11 30.3906 9.62667 30.3906 8C30.3906 6.38667 29.864 5.02 28.8106 3.9C27.7706 2.78 26.4573 2.22 24.8706 2.22C23.284 2.22 21.9706 2.78 20.9306 3.9C19.904 5.00667 19.3906 6.37333 19.3906 8C19.3906 9.61333 19.9106 10.98 20.9506 12.1ZM35.3628 15V0.999999H44.3028V2.44H36.9428V15H35.3628ZM58.7802 13.12C57.4335 14.5333 55.7202 15.24 53.6402 15.24C51.5602 15.24 49.8535 14.5333 48.5202 13.12C47.1868 11.7067 46.5202 10 46.5202 8C46.5202 6.01333 47.1935 4.31333 48.5402 2.9C49.8868 1.47333 51.6002 0.76 53.6802 0.76C55.7602 0.76 57.4668 1.46667 58.8002 2.88C60.1335 4.29333 60.8002 6 60.8002 8C60.8002 9.98667 60.1268 11.6933 58.7802 13.12ZM49.7202 12.1C50.7735 13.22 52.0935 13.78 53.6802 13.78C55.2668 13.78 56.5735 13.2267 57.6002 12.12C58.6402 11 59.1602 9.62667 59.1602 8C59.1602 6.38667 58.6335 5.02 57.5802 3.9C56.5402 2.78 55.2268 2.22 53.6402 2.22C52.0535 2.22 50.7402 2.78 49.7002 3.9C48.6735 5.00667 48.1602 6.37333 48.1602 8C48.1602 9.61333 48.6802 10.98 49.7202 12.1ZM70.1284 15V0.999999H79.0684V2.44H71.7084V15H70.1284ZM93.5458 13.12C92.1991 14.5333 90.4858 15.24 88.4058 15.24C86.3258 15.24 84.6191 14.5333 83.2858 13.12C81.9524 11.7067 81.2858 10 81.2858 8C81.2858 6.01333 81.9591 4.31333 83.3058 2.9C84.6524 1.47333 86.3658 0.76 88.4458 0.76C90.5258 0.76 92.2324 1.46667 93.5658 2.88C94.8991 4.29333 95.5658 6 95.5658 8C95.5658 9.98667 94.8924 11.6933 93.5458 13.12ZM84.4858 12.1C85.5391 13.22 86.8591 13.78 88.4458 13.78C90.0324 13.78 91.3391 13.2267 92.3658 12.12C93.4058 11 93.9258 9.62667 93.9258 8C93.9258 6.38667 93.3991 5.02 92.3458 3.9C91.3058 2.78 89.9924 2.22 88.4058 2.22C86.8191 2.22 85.5058 2.78 84.4658 3.9C83.4391 5.00667 82.9258 6.37333 82.9258 8C82.9258 9.61333 83.4458 10.98 84.4858 12.1ZM98.898 15V0.999999H100.478V7.22H108.558V0.999999H110.138V15H108.558V8.7H100.478V15H98.898ZM114.093 15V0.999999H115.673V9.36L123.713 0.999999H125.753L119.753 7.12L126.013 15H124.033L118.653 8.22L115.673 11.24V15H114.093ZM127.268 15L133.648 0.899999H135.128L141.508 15H139.808L138.168 11.3H130.548L128.888 15H127.268ZM131.168 9.88H137.548L134.368 2.74L131.168 9.88ZM154.905 15.24C152.665 15.24 150.718 14.4867 149.065 12.98L150.005 11.88C151.418 13.2133 153.058 13.88 154.925 13.88C155.818 13.88 156.585 13.6333 157.225 13.14C157.865 12.6333 158.185 11.98 158.185 11.18C158.185 10.3133 157.838 9.66667 157.145 9.24C156.452 8.81333 155.538 8.6 154.405 8.6H152.865V7.3H154.405C155.418 7.3 156.238 7.06667 156.865 6.6C157.505 6.12 157.825 5.47333 157.825 4.66C157.825 3.94 157.525 3.34667 156.925 2.88C156.338 2.4 155.585 2.16 154.665 2.16C153.092 2.16 151.718 2.68667 150.545 3.74L149.625 2.64C150.358 2.01333 151.118 1.54667 151.905 1.24C152.705 0.933333 153.638 0.779999 154.705 0.779999C156.092 0.779999 157.225 1.13333 158.105 1.84C158.985 2.54667 159.425 3.44 159.425 4.52C159.425 6.10667 158.572 7.20667 156.865 7.82C157.758 8.08667 158.472 8.50667 159.005 9.08C159.538 9.65333 159.805 10.38 159.805 11.26C159.805 12.3933 159.345 13.34 158.425 14.1C157.518 14.86 156.345 15.24 154.905 15.24ZM162.98 15V0.999999H168.94C170.58 0.999999 171.8 1.41333 172.6 2.24C173.2 2.86667 173.5 3.62667 173.5 4.52C173.5 6.04 172.76 7.12 171.28 7.76C173.28 8.36 174.28 9.5 174.28 11.18C174.28 12.3667 173.82 13.3 172.9 13.98C171.98 14.66 170.747 15 169.2 15H162.98ZM164.54 13.58H169.24C170.307 13.58 171.147 13.36 171.76 12.92C172.373 12.4667 172.68 11.84 172.68 11.04C172.68 10.2667 172.36 9.67333 171.72 9.26C171.093 8.84667 170.173 8.64 168.96 8.64H164.54V13.58ZM164.54 7.24H168.68C169.653 7.24 170.433 7.02 171.02 6.58C171.607 6.14 171.9 5.51333 171.9 4.7C171.9 3.99333 171.627 3.44 171.08 3.04C170.547 2.62667 169.787 2.42 168.8 2.42H164.54V7.24ZM177.414 15V0.999999H187.534V2.44H178.994V7.22H186.634V8.66H178.994V13.56H187.634V15H177.414ZM195.452 15.24C193.212 15.24 191.265 14.4867 189.612 12.98L190.552 11.88C191.965 13.2133 193.605 13.88 195.472 13.88C196.365 13.88 197.132 13.6333 197.772 13.14C198.412 12.6333 198.732 11.98 198.732 11.18C198.732 10.3133 198.385 9.66667 197.692 9.24C196.999 8.81333 196.085 8.6 194.952 8.6H193.412V7.3H194.952C195.965 7.3 196.785 7.06667 197.412 6.6C198.052 6.12 198.372 5.47333 198.372 4.66C198.372 3.94 198.072 3.34667 197.472 2.88C196.885 2.4 196.132 2.16 195.212 2.16C193.639 2.16 192.265 2.68667 191.092 3.74L190.172 2.64C190.905 2.01333 191.665 1.54667 192.452 1.24C193.252 0.933333 194.185 0.779999 195.252 0.779999C196.639 0.779999 197.772 1.13333 198.652 1.84C199.532 2.54667 199.972 3.44 199.972 4.52C199.972 6.10667 199.119 7.20667 197.412 7.82C198.305 8.08667 199.019 8.50667 199.552 9.08C200.085 9.65333 200.352 10.38 200.352 11.26C200.352 12.3933 199.892 13.34 198.972 14.1C198.065 14.86 196.892 15.24 195.452 15.24ZM201.747 18.12V13.56H203.187C204.6 11.3067 205.307 7.93333 205.307 3.44V0.999999H214.467V13.56H216.287L216.047 18.12H214.727V15H203.367L203.087 18.12H201.747ZM204.967 13.56H212.887V2.44H206.827V4.26C206.827 6.1 206.66 7.87333 206.327 9.58C205.994 11.2867 205.54 12.6133 204.967 13.56Z" fill="white"/>
</svg>
