<svg width="184" height="53" viewBox="0 0 184 53" fill="none" xmlns="http://www.w3.org/2000/svg">
<g clip-path="url(#clip0_175_3482)">
<path d="M9.93419 20.5215V17.4153H14.0366V20.5215V20.7574V21.1506C14.0366 26.498 11.5832 31.3736 7.6819 34.873C5.51006 36.7997 2.8958 38.3331 0 39.3554V35.3449C1.76965 34.5585 3.37843 33.5362 4.74589 32.278C7.92322 29.4077 9.89397 25.4757 9.89397 21.1506V20.7574V20.5215H9.93419ZM29.9634 20.5215V17.4153H34.0658V20.5215V20.7574V21.1506C34.0658 25.4757 36.0366 29.447 39.2139 32.278C40.5814 33.5362 42.2303 34.5585 44 35.3449V39.3554C41.1042 38.3724 38.4899 36.839 36.3181 34.9123C32.3766 31.3736 29.9634 26.5374 29.9634 21.19V20.7968V20.5215ZM0 45.8824C4.70567 44.7028 8.88848 42.4223 12.2669 39.3947C14.8007 37.1142 16.8519 34.4405 18.2998 31.4523C19.2249 33.9294 20.4717 36.2099 22 38.3724C23.4881 36.4851 24.6545 34.0473 25.7404 31.4523C27.1883 34.4405 29.2395 37.1142 31.7331 39.3947C35.1115 42.4223 39.2943 44.6635 44 45.8824V42.0291C40.4205 40.9675 37.2431 39.1195 34.6289 36.7997C30.245 32.8678 27.5503 27.481 27.5503 21.5045V5.02979H23.4479V21.5045C23.4479 24.4141 22.925 27.7956 22 30.43C21.075 27.7956 20.5521 24.4141 20.5521 21.5045V5.02979H16.4497V21.5045C16.4497 27.4417 13.755 32.8678 9.37111 36.7997C6.75686 39.1588 3.57952 40.9675 0 42.0291V45.8824H0ZM17.9378 37.1929C16.8921 38.5297 15.7258 39.7879 14.4388 40.9675C10.4973 44.5062 5.55027 47.062 0 48.2809V52.0555C6.67642 50.7973 12.6691 47.7697 17.3346 43.5626C18.34 42.6582 19.2651 41.7146 20.1499 40.7316L20.0293 40.535L19.989 40.5743L20.0293 40.535C19.2651 39.4341 18.5814 38.3331 17.9378 37.1929ZM23.9707 40.8495C24.8154 41.7932 25.7002 42.6975 26.6654 43.5626C31.3309 47.7697 37.3236 50.758 44 52.0555V48.2809C38.4497 47.062 33.5027 44.5062 29.5612 40.9675C28.3144 39.8666 27.1883 38.6477 26.1828 37.3895C25.5795 38.4511 24.936 39.5127 24.2121 40.535L24.2523 40.5743L24.2121 40.535C24.1316 40.6136 24.0512 40.7316 23.9707 40.8495Z" fill="white"/>
<path d="M61.3668 19.7957C62.2876 15.1488 63.4888 9.91127 64.0493 5.22503H68.7736V27.0416H65.6908V18.378L66.0511 10.5807C65.6107 13.1011 63.8891 22.3554 61.6871 26.766H61.3668H61.0465C58.8445 22.316 57.1229 13.1011 56.6825 10.5807L57.0428 18.378V27.0023H54V5.18565H58.7244C59.2448 9.91127 60.4459 15.1094 61.3668 19.7957ZM132.512 9.00553V9.91127V11.6834C132.512 13.4161 131.752 14.6763 130.551 15.5033C131.832 16.4878 132.512 17.9842 132.512 19.8351V26.9629C130.391 26.9629 128.229 26.9629 126.107 26.9629H122.583V5.14627H126.107C128.229 5.14627 130.391 5.14627 132.512 5.14627V9.00553ZM126.107 17.236V23.8518H128.989C128.989 22.4342 128.989 21.0165 128.989 19.5988C129.029 17.3935 127.428 17.1966 126.107 17.236ZM126.107 8.2573V14.1249C127.428 14.2037 128.989 14.1249 128.989 11.8803V9.91127V8.2573H126.107ZM113.215 26.9629H109.691V5.14627H113.215H116.538H120.101V26.9629H116.538H113.215ZM116.538 8.2573H113.255V23.8518H116.538V8.2573ZM74.7792 26.9629H71.2559V5.14627H74.7792H78.1022H81.6655V26.9629H78.1022H74.7792ZM78.1022 8.2573H74.8192V23.8518H78.1022V8.2573ZM138.358 26.9629H134.835V5.14627H138.358H141.681H145.244V13.8887H141.681V8.2573H138.358V23.8518H141.681V18.2205H145.244V26.9629H141.681H138.358ZM87.6711 26.9629H84.1478V5.14627H87.6711H90.9941H94.5574V13.8887H90.9941V8.2573H87.6711V23.8518H90.9941V18.2205H94.5574V26.9629H90.9941H87.6711ZM151.29 27.0023H147.767V5.18565H151.29V13.7311H151.89C153.812 13.7311 154.413 11.7621 154.413 10.3051V5.18565H157.936V10.1869C157.936 12.471 157.055 14.2037 155.293 15.3457C157.175 16.6059 157.936 18.1811 157.936 20.5045V27.0416H154.413V20.347C154.413 18.9293 153.692 17.236 151.93 17.236H151.33V27.0023H151.29ZM182.559 2.58656H174.832V0.0268555H182.559V2.58656ZM173.35 27.0023V5.18565H176.473V17.9448L180.076 5.18565H184V27.0023H180.837V11.8409L176.513 27.0416L173.35 27.0023ZM160.218 27.0023V5.18565H163.341V17.9448L166.944 5.18565H170.868V27.0023H167.705V11.8409L163.381 27.0416L160.218 27.0023ZM100.603 27.0023H97.0798V5.18565H100.603V13.7311H101.204C103.125 13.7311 103.726 11.7621 103.726 10.3051V5.18565H107.249V10.1869C107.249 12.471 106.368 14.2037 104.607 15.3457C106.488 16.6059 107.249 18.1811 107.249 20.5045V27.0416H103.726V20.347C103.726 18.9293 103.005 17.236 101.244 17.236H100.643V27.0023H100.603Z" fill="white"/>
<path d="M70.284 52.0158H66.7804V30.0435H77.1321V52.0158H73.5886V33.2164H70.284V52.0158ZM57.4638 52.0158H54V30.0435H57.5037H60.8082H64.3517V38.8483H60.8082V33.2164H57.5037V48.9223H60.8082V43.2507H64.3517V52.0555H60.8082H57.4638V52.0158ZM83.144 52.0158H79.6403V30.0435H83.144H86.4486H89.992V52.0158H86.4486H83.144ZM86.4486 33.2164H83.1838V48.9223H86.4486V33.2164ZM103.21 30.0435H114V33.1767H110.337V52.0158H106.833V33.2164H103.171V30.0435H103.21ZM102.255 37.6981V38.6103V40.3951C102.255 43.7663 100.423 46.146 97.0392 46.146H95.8845V52.0555H92.3809V30.0435C95.6855 30.0435 98.9502 30.0435 102.255 30.0435V37.6981ZM95.8845 33.2164V43.0127C97.1984 43.092 98.7512 42.8541 98.7512 40.633V38.65V33.2164H95.8845Z" fill="white"/>
</g>
<defs>
<clipPath id="clip0_175_3482">
<rect width="184" height="52.0285" fill="white" transform="translate(0 0.0268555)"/>
</clipPath>
</defs>
</svg>
