<svg width="188" height="79" viewBox="0 0 188 79" fill="none" xmlns="http://www.w3.org/2000/svg">
<path d="M29.7035 12.2189C26.4043 13.2538 23.121 14.3967 19.851 15.6475C16.581 16.901 13.3509 18.2888 10.1634 19.8135C8.89789 20.4139 7.61915 21.038 6.32976 21.691C5.03772 22.3441 3.8148 23.0525 2.661 23.8135H2.57859L1.42479 21.3645C2.1931 20.4402 3.16878 19.5554 4.35182 18.7101C5.53221 17.8674 6.79766 17.0774 8.14287 16.3427C9.48809 15.608 10.836 14.9286 12.1838 14.3019C13.529 13.6778 14.7812 13.1169 15.935 12.6271C19.6729 11.0497 23.4639 9.64618 27.3135 8.42168C31.1604 7.19718 35.0631 6.09381 39.0189 5.11421C43.2513 4.02664 47.5368 3.07338 51.8782 2.25704C56.2196 1.44071 60.5902 0.813977 64.9874 0.379477C66.0295 0.271511 67.295 0.176711 68.7784 0.0924441C70.2619 0.0108108 71.7879 -0.0155225 73.3538 0.0108108C74.9196 0.0397775 76.4297 0.160911 77.8892 0.379477C79.3434 0.598044 80.5397 0.979877 81.4755 1.52234L86.0934 6.25971V6.34134L80.4041 5.52501C79.3035 5.30908 78.0965 5.19848 76.7779 5.19848C76.007 5.14581 75.2121 5.13001 74.3852 5.15898C73.5611 5.18794 72.737 5.19848 71.9128 5.19848C69.8791 5.30908 67.8586 5.43021 65.8541 5.56714C63.8469 5.70408 61.8264 5.85418 59.7953 6.01744C56.0042 6.45458 52.3195 6.94438 48.7491 7.48684C47.4305 7.76071 46.056 8.04511 44.6284 8.34531C43.1981 8.64551 41.8529 9.01154 40.5875 9.44868C39.5427 10.3203 38.5271 11.1788 37.5381 12.0214C36.5492 12.8667 33.0054 15.9556 26.9041 21.2908C23.9345 23.903 20.9809 26.4626 18.0405 28.9669C15.1002 31.4712 12.0642 33.9755 8.9298 36.4798L6.12771 39.0105L1.75445 44.0665H1.67203C1.6162 43.8505 1.49391 43.4266 1.29984 42.7998C1.10577 42.1757 0.901061 41.5069 0.683063 40.7985C0.462405 40.0901 0.281626 39.4239 0.146041 38.7972C0.00779812 38.1731 -0.0320797 37.7754 0.0237492 37.6122C0.0237492 37.5595 0.406576 37.204 1.17755 36.5509C1.94586 35.8979 2.89495 35.0815 4.02217 34.1019C5.14938 33.1223 6.3723 32.0743 7.69093 30.9577C9.00955 29.8412 10.2591 28.78 11.4421 27.774C12.6225 26.7681 13.654 25.8965 14.534 25.1618C15.4113 24.4271 15.9616 23.9768 16.1822 23.8135C18.4898 21.9096 20.7709 19.9899 23.0253 18.057C25.277 16.1268 27.5022 14.1781 29.7035 12.2189Z" fill="white"/>
<path d="M35.2414 35.5394C35.8449 35.4867 36.4218 35.3761 36.9721 35.2129C37.5197 35.0496 38.0435 34.8337 38.5379 34.5598C38.9766 34.2886 39.4046 34.0437 39.8167 33.8251C40.2288 33.6092 40.6275 33.3906 41.0104 33.172C41.6138 32.7928 41.9727 32.6559 42.0817 32.7639C42.1907 32.8745 42.4938 33.1457 42.9883 33.5802C43.0973 33.6908 43.0441 33.8541 42.8235 34.07L42.0817 34.5598C41.4756 35.0496 40.8296 35.5552 40.1437 36.0713C39.4551 36.5901 38.7426 37.0246 38.0009 37.3775C37.2592 37.733 36.4749 37.9621 35.6508 38.0727C34.8266 38.1833 34.0025 38.0463 33.1784 37.6645C32.6839 38.1016 32.091 38.5914 31.4051 39.1339C30.7166 39.679 30.0041 40.1003 29.2624 40.4005C28.5206 40.7007 27.7789 40.7955 27.0372 40.6876C26.2954 40.5796 25.6494 40.1161 25.0991 39.2998L23.1212 36.4426C22.6267 35.7369 22.4752 34.9311 22.6692 34.0331C22.8606 33.1352 23.2036 32.2504 23.6981 31.3787C24.1926 30.5071 24.7695 29.6908 25.4288 28.9297C26.0881 28.1687 26.665 27.5709 27.1595 27.1338C27.872 26.4281 28.6137 25.7592 29.3873 25.1325C30.1556 24.5084 30.9798 23.9764 31.8597 23.5393C32.4632 23.2681 33.1225 23.0074 33.8377 22.7625C34.5502 22.5176 35.2121 22.5044 35.8156 22.723H35.898L40.0214 27.2154C40.2394 27.4893 40.1862 28.0186 39.8566 28.8086C39.5269 29.5986 39.0723 30.4413 38.4954 31.3392C37.9185 32.2372 37.3124 33.0957 36.6823 33.912C36.0522 34.7231 35.571 35.2682 35.2414 35.5394ZM31.3679 36.3557C30.7086 35.5394 30.3789 34.6414 30.3789 33.6618C30.3789 32.6822 30.5145 31.729 30.791 30.8047C30.2407 31.5683 29.7196 32.3425 29.2251 33.1325C28.7307 33.9225 28.2893 34.7257 27.9065 35.542C27.7975 35.7606 27.6726 36.0608 27.5343 36.44C27.3961 36.8218 27.4652 37.122 27.7417 37.338C28.0713 37.6118 28.5392 37.6513 29.1427 37.4591C29.7462 37.2695 30.1849 37.0904 30.4614 36.9298C30.6262 36.8218 30.791 36.7244 30.9558 36.6428C31.1207 36.5611 31.2563 36.4663 31.3679 36.3557ZM32.8514 34.968C33.0162 34.8047 33.3193 34.4518 33.7579 33.9067C34.1966 33.3643 34.6352 32.7507 35.0765 32.0687C35.5152 31.3893 35.9406 30.6941 36.3553 29.9857C36.7674 29.2773 37.0279 28.6664 37.1396 28.1476C37.2486 27.6315 37.1661 27.2497 36.8923 27.0048C36.6158 26.7599 36.0682 26.7467 35.244 26.9653C35.0234 27.2918 34.6804 27.8211 34.2125 28.5584C33.7446 29.2931 33.3326 30.0568 32.9763 30.8442C32.6174 31.6342 32.3861 32.411 32.2745 33.172C32.1628 33.9357 32.3569 34.5335 32.8514 34.968Z" fill="white"/>
<path d="M56.0177 30.2334C56.5654 29.6909 56.9509 29.3091 57.1715 29.0905C57.3363 28.9272 57.7192 28.5322 58.3253 27.9055C58.9288 27.2814 59.5881 26.6283 60.3033 25.9463C61.0157 25.2669 61.675 24.6533 62.2812 24.1082C62.8847 23.5658 63.2702 23.2919 63.435 23.2919C63.7088 23.2919 64.081 23.4947 64.5489 23.9028C65.0168 24.311 65.3332 24.598 65.498 24.7613C65.7187 24.9799 66.035 25.3459 66.4471 25.8647C66.8592 26.3834 67.0107 26.7784 66.9017 27.0497L66.7369 27.2129C66.681 27.4315 66.5588 27.6079 66.3647 27.7422C66.1706 27.8792 65.9925 28.0293 65.8303 28.1925L63.3579 30.6415L59.3994 35.2946L57.4214 37.4987C58.0807 37.3908 58.849 37.159 59.729 36.8035C60.6063 36.4507 61.4996 36.0688 62.4088 35.6607C63.3154 35.2525 64.1794 34.818 65.0062 34.3545C65.8303 33.8937 66.5162 33.4961 67.0665 33.1695C67.67 32.7903 68.0289 32.6534 68.1379 32.7614C68.2469 32.872 68.55 33.1432 69.0445 33.5777C69.0445 33.633 68.9886 33.7963 68.8796 34.0675L68.1379 34.5573C67.4228 35.1024 66.4896 35.7686 65.3358 36.5586C64.182 37.3486 62.9724 38.0833 61.7096 38.7627C60.4442 39.4448 59.1814 39.9741 57.9186 40.3559C56.6531 40.7377 55.5817 40.7641 54.7044 40.4375C54.3189 40.4375 53.9068 40.14 53.4682 39.5396C53.0269 38.9418 52.753 38.5047 52.6441 38.2334C52.4234 37.9069 52.2027 37.4856 51.9847 36.9668C51.7641 36.4507 51.6551 36.0004 51.6551 35.6185C51.6551 35.4026 51.9289 34.9655 52.4792 34.3124C52.753 33.9332 53.0561 33.5514 53.3858 33.1695C53.0003 33.1169 52.6148 33.0879 52.232 33.0879C50.8575 33.0879 49.4831 33.1169 48.1113 33.1695L41.7627 40.3559C41.5979 40.5192 41.4038 40.506 41.1858 40.3164C40.9652 40.1268 40.7312 39.8951 40.4866 39.6212C40.2394 39.35 40.0187 39.0629 39.8273 38.7627C39.6359 38.4652 39.511 38.2861 39.4551 38.2308C39.2903 37.9043 39.0829 37.4829 38.8357 36.9642C38.5884 36.448 38.4927 35.9977 38.5486 35.6159C38.5486 35.4 38.7958 34.9628 39.2903 34.3098C39.7848 33.6567 40.3484 32.9773 40.9811 32.2689C41.6138 31.5632 42.2173 30.9101 42.7942 30.3097C43.3711 29.712 43.7672 29.3038 43.9879 29.0852C44.1527 28.922 44.5356 28.527 45.1417 27.9002C45.7452 27.2761 46.4072 26.6231 47.1196 25.941C47.8321 25.2616 48.4914 24.6481 49.0976 24.103C49.7011 23.5605 50.0866 23.2866 50.2514 23.2866C50.5252 23.2866 50.8974 23.4894 51.3653 23.8976C51.8305 24.3057 52.1762 24.5928 52.3941 24.756C52.6148 25.0299 52.862 25.3275 53.1359 25.654C53.4097 25.9805 53.6038 26.3071 53.7128 26.6336L50.7459 30.0648H51.7348C52.3383 30.0648 52.9578 30.078 53.5905 30.1043C54.2206 30.1333 54.8958 30.1728 55.611 30.2281H56.0177V30.2334Z" fill="white"/>
<path d="M73.8245 29.9041L85.2827 23.7C85.5566 23.592 85.8464 23.5104 86.1468 23.4551C86.4472 23.4024 86.6811 23.5104 86.846 23.7816L89.3184 26.9679V27.0496L78.6843 31.0496L81.6539 37.0115C82.8608 36.6323 83.879 36.2241 84.7032 35.787C85.5805 35.3525 86.4339 34.918 87.258 34.4808C88.0822 34.0463 88.8797 33.6092 89.6507 33.1747C90.2542 32.7955 90.6104 32.6586 90.7221 32.7665C90.8311 32.8771 91.1342 33.1484 91.6286 33.5829C91.6286 33.6382 91.5728 33.8014 91.4638 34.0727L90.7221 34.5625C89.5683 35.4341 88.4677 36.2636 87.4229 37.0536C86.3781 37.8436 85.2934 38.5362 84.1662 39.1366C83.039 39.737 81.8453 40.1715 80.5798 40.4427C79.3144 40.7166 77.9133 40.7692 76.374 40.606C76.2092 40.7166 76.0018 40.5796 75.7573 40.1978C75.51 39.8186 75.2761 39.3815 75.0554 38.8917C74.8348 38.4019 74.6433 37.941 74.4785 37.5039C74.3137 37.0694 74.2047 36.7982 74.1489 36.6876C73.7075 35.6553 73.2955 34.5098 72.9126 33.259L70.4402 34.3202H70.3578L64.7536 40.527C64.6978 40.5823 64.6154 40.5559 64.5064 40.4453C63.9561 40.2294 63.4217 39.6553 62.898 38.731C62.3769 37.8067 62.143 37.0431 62.1988 36.4453C62.1988 36.2294 62.8581 35.4104 64.1767 33.9963C65.4954 32.5822 67.1437 30.8653 69.1243 28.8508C71.1022 26.8363 73.2583 24.6848 75.5951 22.3991C77.9293 20.1134 79.6201 18.4386 80.6649 17.3773C81.707 16.3161 82.2839 15.7842 82.3956 15.7842C82.5604 15.7842 82.821 16.0027 83.1799 16.4372C83.5361 16.8744 83.8658 17.3642 84.1688 17.9066C84.4719 18.4517 84.6925 18.981 84.8281 19.4998C84.9637 20.0186 84.9504 20.3293 84.7856 20.4399C83.0815 21.8013 81.8453 22.8626 81.077 23.6236L73.8245 29.9041Z" fill="white"/>
<path d="M100.779 36.519L98.8837 37.9884C98.2776 38.3702 97.5917 38.7784 96.8233 39.2129C96.0524 39.65 95.2708 39.9476 94.4732 40.1108C93.6756 40.2741 92.9339 40.2346 92.248 39.9871C91.5595 39.7422 91.0251 39.1576 90.6396 38.2306L89.2386 34.802C88.9621 34.149 88.893 33.4696 89.0312 32.7612C89.1668 32.0555 89.43 31.3734 89.8155 30.7204C90.1983 30.0673 90.6529 29.4537 91.174 28.8823C91.6977 28.3109 92.2055 27.8079 92.7 27.3708C93.1945 26.9363 93.7846 26.4201 94.4732 25.8197C95.1591 25.222 95.8875 24.6769 96.6585 24.1871C97.4268 23.6973 98.2111 23.3023 99.0086 23.0021C99.8062 22.7045 100.588 22.6071 101.359 22.715C102.513 22.8783 103.557 23.505 104.493 24.5926C105.426 25.6828 106.224 26.6887 106.883 27.613C107.048 27.4498 107.378 27.1101 107.872 26.5913C108.367 26.0752 108.901 25.5432 109.478 24.9981C110.055 24.4557 110.605 23.9659 111.126 23.5287C111.647 23.0942 111.964 22.8757 112.075 22.8757C112.349 22.8757 112.721 23.0811 113.189 23.4866C113.654 23.8948 113.973 24.1818 114.138 24.3451C114.303 24.5083 114.604 24.8349 115.045 25.3247C115.484 25.8145 115.648 26.1963 115.539 26.4675C115.539 26.5781 115.51 26.6598 115.457 26.7124C115.345 26.8757 115.196 27.0521 115.002 27.2444C114.808 27.4366 114.63 27.613 114.465 27.7763C113.476 28.5926 112.679 29.409 112.075 30.2253L107.952 34.7178L106.056 37.0035C106.716 36.8955 107.487 36.6638 108.364 36.3083C109.241 35.9554 110.124 35.5604 111.001 35.1233C111.879 34.6888 112.732 34.2543 113.556 33.8172C114.38 33.3827 115.095 33.0008 115.699 32.6743C116.302 32.2398 116.659 32.0897 116.77 32.224C116.879 32.3609 117.209 32.6743 117.759 33.1641C117.812 33.2747 117.759 33.409 117.594 33.5723C117.318 33.8461 117.071 34.0094 116.853 34.0621C116.138 34.6072 115.204 35.2734 114.048 36.0634C112.894 36.8534 111.671 37.5881 110.379 38.2675C109.087 38.9495 107.808 39.4788 106.546 39.8607C105.28 40.2425 104.209 40.2688 103.331 39.9423C103.111 39.9423 102.877 39.808 102.63 39.5341C102.382 39.2629 102.135 38.9495 101.888 38.594C101.641 38.2412 101.42 37.8593 101.229 37.4512C101.04 37.0509 100.891 36.7375 100.779 36.519ZM94.0213 34.8047C93.4709 35.5683 93.2636 36.1108 93.4018 36.4373C93.5374 36.7639 93.8272 36.9561 94.2658 37.0088C94.7045 37.0641 95.2282 37.0088 95.8317 36.8455C96.4352 36.6822 96.9297 36.4926 97.3152 36.2741L99.0459 35.2945C99.2639 35.1312 99.8301 34.6282 100.737 33.7829C101.643 32.9403 102.467 32.0423 103.209 31.089C103.951 30.1358 104.419 29.2931 104.61 28.5584C104.802 27.8237 104.32 27.484 103.167 27.5367C103.058 27.4814 102.988 27.4682 102.962 27.4945C102.933 27.5235 102.864 27.5367 102.755 27.5367C102.148 27.7552 101.367 28.1897 100.404 28.8428C99.442 29.4959 98.6577 30.041 98.0542 30.4755C97.3391 31.0759 96.6399 31.7553 95.9514 32.5163C95.2708 33.2826 94.6247 34.0436 94.0213 34.8047Z" fill="white"/>
<path d="M94.6008 70.5892C92.1816 72.659 89.6267 74.426 86.9336 75.898C84.2432 77.3674 81.3295 78.4023 78.1951 79.0027C77.9212 78.8394 77.5756 78.4602 77.1662 77.8598C76.7542 77.2621 76.3979 76.6222 76.0948 75.9401C75.7944 75.2607 75.6296 74.6208 75.6004 74.0204C75.5738 73.4227 75.8343 73.0408 76.3846 72.8776C76.6053 72.9882 76.919 73.054 77.3337 73.0803C77.7458 73.1093 78.1712 73.1093 78.6125 73.0803C79.0538 73.054 79.4765 73.0119 79.8912 72.9592C80.3033 72.9065 80.6196 72.8512 80.8403 72.7959C83.3686 72.3061 85.8968 71.0553 88.4251 69.0408C90.6237 67.3002 92.2719 65.1751 93.3726 62.6708C93.4284 62.6708 93.455 62.6444 93.455 62.5891C92.9047 62.5891 92.4235 62.5075 92.0114 62.3442C91.5993 62.181 91.2271 61.8834 90.8975 61.4463C90.7327 61.1197 90.6104 60.7932 90.5253 60.4667C90.4429 60.1401 90.3179 59.8426 90.1531 59.5687C89.8793 59.2975 89.8234 59.1342 89.9883 59.0789C90.0441 58.863 90.2222 58.6997 90.5226 58.5891C90.8257 58.4811 91.182 58.3837 91.594 58.3021C92.0061 58.2204 92.3889 58.1678 92.7478 58.1388C93.1041 58.1125 93.338 58.0967 93.447 58.0967C94.6008 57.9887 95.6164 57.6885 96.4963 57.1987C96.935 56.9275 97.3205 56.6009 97.6501 56.2191L98.8863 54.1783C100.04 52.6536 100.699 51.537 100.864 50.8313C100.973 50.1256 100.769 49.7016 100.245 49.5647C99.7211 49.4304 98.9661 49.5225 97.9771 49.8517C97.3178 50.0703 96.6293 50.3415 95.9168 50.668C94.872 51.595 93.6624 52.4929 92.2906 53.3619C92.2347 53.4172 92.0699 53.4304 91.7961 53.4014C91.5196 53.3751 91.259 53.3198 91.0118 53.2382C90.7646 53.1565 90.5439 53.0486 90.3525 52.9116C90.1584 52.7773 90.1185 52.6246 90.2302 52.4613C91.493 51.537 92.9765 50.2836 94.6806 48.7062C94.9012 48.4903 95.1192 48.327 95.3399 48.2164V48.1348C95.5047 48.0268 95.6961 47.9188 95.9168 47.8082C96.7409 47.3737 97.6209 47.0314 98.554 46.7865C99.4872 46.5416 100.394 46.46 101.274 46.5416C102.151 46.6232 102.84 47.0446 103.334 47.8082L105.312 50.6654C105.806 51.3738 105.958 52.1769 105.764 53.0749C105.57 53.9729 105.227 54.8577 104.735 55.7293C104.35 56.3824 103.911 57.0354 103.416 57.6885C101.933 59.595 100.668 60.7906 99.6228 61.2804C98.1473 65.47 96.4698 68.5747 94.6008 70.5892Z" fill="white"/>
<path d="M125.514 50.7442L126.586 53.1116C126.804 53.7647 126.846 54.4177 126.71 55.0708C126.572 55.7239 126.312 56.3638 125.926 56.9905C125.541 57.6172 125.102 58.215 124.608 58.7864C124.113 59.3579 123.645 59.8345 123.207 60.2163C124.251 59.7818 125.267 59.3052 126.256 58.7864C127.245 58.2703 128.207 57.712 129.14 57.1116C129.744 56.7324 130.116 56.5955 130.254 56.7035C130.39 56.8141 130.709 57.0853 131.203 57.5198C131.203 57.5751 131.148 57.7384 131.039 58.0096L130.297 58.4994C129.526 59.0445 128.635 59.6712 127.617 60.377C126.599 61.0853 125.527 61.7516 124.403 62.3783C123.276 63.005 122.148 63.5212 121.024 63.9293C119.897 64.3375 118.894 64.5429 118.014 64.5429C117.685 64.5429 117.204 64.5429 116.571 64.5429C115.938 64.5429 115.279 64.5297 114.593 64.5008C113.904 64.4744 113.274 64.4323 112.697 64.3796C112.121 64.327 111.722 64.2427 111.504 64.1347L108.369 59.3974C106.774 61.0853 105.238 62.7733 103.751 64.4613C103.698 64.5719 103.587 64.5429 103.422 64.3796C103.148 64.2717 102.874 64.0531 102.598 63.7266C102.324 63.4 102.061 63.0314 101.813 62.6232C101.566 62.215 101.375 61.8069 101.237 61.3987C101.101 60.9905 101.058 60.6508 101.112 60.377C101.112 60.161 101.771 59.3421 103.09 57.928C104.408 56.5139 106.056 54.7969 108.037 52.7824C110.015 50.7679 112.171 48.6165 114.508 46.3308C116.845 44.045 119.014 41.9357 121.021 40.0029C123.026 38.07 124.73 36.4637 126.134 35.1839C127.535 33.9067 128.29 33.2642 128.401 33.2642C128.566 33.2642 128.827 33.4827 129.186 33.9172C129.542 34.3544 129.885 34.8442 130.214 35.3866C130.323 35.6052 130.432 35.8501 130.544 36.1213C131.586 36.6111 132.522 37.9173 133.346 40.0424C133.016 41.6224 132.506 43.1444 131.82 44.6138C131.132 46.0832 130.281 47.3499 129.265 48.4111C128.25 49.4723 127.027 50.2492 125.597 50.739H125.514V50.7442ZM121.641 53.1116C121.806 52.8957 121.984 52.6086 122.178 52.2531C122.369 51.9003 122.356 51.6132 122.135 51.3947C121.97 51.1787 121.723 51.055 121.393 51.026C121.064 50.9997 120.705 51.0128 120.322 51.0681C119.937 51.1234 119.551 51.2182 119.168 51.3552C118.783 51.4921 118.509 51.5869 118.344 51.6422L116.613 52.7034C116.502 52.814 116.215 53.0721 115.747 53.4776C115.279 53.8858 114.771 54.3756 114.221 54.947C113.67 55.5185 113.136 56.1189 112.615 56.743C112.091 57.3697 111.695 57.9543 111.419 58.4994C111.142 59.0445 111.076 59.479 111.211 59.8055C111.347 60.1321 111.801 60.2953 112.572 60.2953H112.902C113.615 60.0794 114.441 59.6554 115.375 59.0287C116.308 58.4046 117.079 57.8437 117.682 57.3539C118.395 56.7561 119.112 56.0873 119.825 55.3526C120.54 54.6231 121.146 53.8753 121.641 53.1116ZM128.401 39.7211C126.862 40.9193 125.379 42.1701 123.948 43.4762C121.694 45.546 119.524 47.6132 117.435 49.683C118.038 49.3038 118.714 48.9483 119.455 48.6218C120.197 48.2952 120.926 48.0793 121.641 47.9687C121.914 47.916 122.164 47.8871 122.382 47.8871C123.207 47.5605 123.975 47.0154 124.69 46.2544C125.57 45.3301 126.338 44.2399 126.998 42.9891C127.66 41.7356 128.125 40.648 128.401 39.7211Z" fill="white"/>
<path d="M136.398 56.7061C135.188 58.3388 134.513 59.5106 134.378 60.2164C134.239 60.9247 134.433 61.3461 134.955 61.483C135.476 61.6199 136.233 61.5251 137.222 61.196C138.211 60.8694 139.256 60.4481 140.357 59.9293C141.455 59.4132 142.499 58.8813 143.488 58.3362C144.477 57.7937 145.219 57.3829 145.716 57.1117C146.264 56.7325 146.594 56.6087 146.705 56.743C146.814 56.8799 147.117 57.138 147.612 57.5172C147.665 57.5725 147.612 57.7358 147.447 58.007L146.705 58.4968C145.881 59.1499 145.028 59.7766 144.15 60.3744C143.27 60.9748 142.364 61.5462 141.431 62.0887C140.88 62.4152 140.181 62.797 139.328 63.2315C138.474 63.6687 137.581 64.0084 136.648 64.2533C135.712 64.4982 134.806 64.5798 133.928 64.4982C133.048 64.4165 132.362 63.9952 131.865 63.2315L129.887 60.3744C129.393 59.6686 129.241 58.8628 129.433 57.9649C129.624 57.0669 129.97 56.1821 130.464 55.3105C130.959 54.4388 131.536 53.6225 132.195 52.8615C132.854 52.1004 133.431 51.5027 133.926 51.0655C134.638 50.3598 135.38 49.6909 136.151 49.0642C136.919 48.4401 137.717 47.9082 138.541 47.471C139.144 47.1998 139.82 46.9391 140.561 46.6942C141.303 46.4493 141.976 46.4361 142.582 46.6547L146.703 51.1472C146.812 51.2578 146.838 51.4052 146.785 51.5975C146.729 51.7897 146.62 51.9925 146.455 52.211C146.29 52.4296 146.11 52.6192 145.921 52.7825C145.727 52.9457 145.605 53.0563 145.549 53.109C144.725 54.0886 143.613 54.8654 142.21 55.4369C140.809 56.0083 139.474 56.348 138.211 56.4586L136.398 56.7061ZM143.486 51.3973C143.43 51.2341 143.265 51.0998 142.991 50.9892C142.55 50.8259 142.071 50.8654 141.548 51.1103C141.024 51.3552 140.503 51.6949 139.982 52.132C139.458 52.5692 138.977 53.03 138.538 53.5198C138.097 54.0096 137.767 54.4178 137.549 54.7443C138.594 54.5284 139.721 54.1465 140.931 53.6014C142.141 53.059 142.991 52.3243 143.486 51.3973ZM142.991 41.5171C142.88 41.7356 142.701 42.049 142.457 42.4572C142.21 42.8653 141.907 43.234 141.55 43.5605C141.191 43.8871 140.835 44.132 140.479 44.2952C140.12 44.4585 139.78 44.4058 139.45 44.132C139.394 44.024 139.243 43.8607 138.995 43.6422C138.748 43.4236 138.528 43.2077 138.336 42.9891C138.142 42.7705 137.993 42.5388 137.884 42.2939C137.773 42.049 137.802 41.8726 137.967 41.762L140.274 39.313C140.383 39.1497 140.604 39.1365 140.934 39.2708C141.263 39.4078 141.593 39.6105 141.923 39.8844C142.252 40.1583 142.526 40.4427 142.747 40.7402C142.965 41.0404 143.047 41.3011 142.991 41.5171ZM149.587 41.4354C149.531 41.654 149.38 41.9674 149.135 42.3755C148.888 42.7837 148.585 43.1524 148.229 43.4789C147.87 43.8054 147.5 44.0503 147.115 44.2136C146.729 44.3769 146.399 44.3242 146.126 44.0503C146.017 43.9424 145.852 43.7791 145.631 43.5605C145.41 43.342 145.206 43.126 145.012 42.9075C144.818 42.6915 144.669 42.4572 144.56 42.2123C144.448 41.9674 144.448 41.7909 144.56 41.6803L146.95 39.2313C147.006 39.0681 147.21 39.0549 147.569 39.1918C147.925 39.3288 148.255 39.5315 148.558 39.8028C148.859 40.0766 149.135 40.361 149.382 40.6612C149.63 40.9588 149.699 41.2195 149.587 41.4354Z" fill="white"/>
<path d="M151.977 70.5892C149.558 72.659 147.003 74.426 144.31 75.898C141.619 77.3674 138.706 78.4023 135.571 79.0027C135.297 78.8394 134.952 78.4602 134.542 77.8598C134.13 77.2621 133.774 76.6222 133.471 75.9401C133.171 75.2607 133.006 74.6208 132.977 74.0204C132.95 73.4227 133.211 73.0408 133.761 72.8776C133.982 72.9882 134.295 73.054 134.71 73.0803C135.122 73.1093 135.547 73.1093 135.989 73.0803C136.43 73.054 136.853 73.0119 137.267 72.9592C137.68 72.9065 137.999 72.8512 138.217 72.7959C140.745 72.3061 143.273 71.0553 145.801 69.0408C148 67.3002 149.648 65.1751 150.749 62.6708C150.805 62.6708 150.831 62.6444 150.831 62.5891C150.281 62.5891 149.8 62.5075 149.388 62.3442C148.976 62.181 148.603 61.8834 148.274 61.4463C148.109 61.1197 147.987 60.7932 147.902 60.4667C147.819 60.1401 147.694 59.8426 147.529 59.5687C147.255 59.2975 147.2 59.1342 147.364 59.0789C147.42 58.863 147.598 58.6997 147.899 58.5891C148.202 58.4811 148.558 58.3837 148.97 58.3021C149.382 58.2204 149.765 58.1678 150.124 58.1388C150.48 58.1125 150.714 58.0967 150.823 58.0967C151.977 57.9887 152.993 57.6885 153.873 57.1987C154.311 56.9275 154.697 56.6009 155.026 56.2191L156.263 54.1783C157.416 52.6536 158.076 51.537 158.24 50.8313C158.349 50.1256 158.145 49.7016 157.621 49.5647C157.097 49.4304 156.342 49.5225 155.353 49.8517C154.694 50.0703 154.005 50.3415 153.293 50.668C152.248 51.595 151.039 52.4929 149.667 53.3619C149.611 53.4172 149.446 53.4304 149.172 53.4014C148.896 53.3751 148.635 53.3198 148.388 53.2382C148.141 53.1565 147.92 53.0486 147.729 52.9116C147.535 52.7773 147.495 52.6246 147.606 52.4613C148.869 51.537 150.353 50.2836 152.057 48.7062C152.277 48.4903 152.495 48.327 152.716 48.2164V48.1348C152.881 48.0268 153.072 47.9188 153.293 47.8082C154.117 47.3737 154.997 47.0314 155.93 46.7865C156.863 46.5416 157.77 46.46 158.65 46.5416C159.527 46.6232 160.216 47.0446 160.71 47.8082L162.688 50.6654C163.183 51.3738 163.334 52.1769 163.14 53.0749C162.946 53.9729 162.603 54.8577 162.111 55.7293C161.726 56.3824 161.287 57.0354 160.793 57.6885C159.309 59.595 158.044 60.7906 156.999 61.2804C155.523 65.47 153.846 68.5747 151.977 70.5892Z" fill="white"/>
<path d="M171.02 63.1578C170.47 63.4843 169.853 63.7977 169.164 64.0979C168.476 64.3981 167.803 64.5613 167.144 64.5877C166.485 64.6166 165.878 64.4929 165.331 64.219C164.781 63.9478 164.342 63.4027 164.012 62.5863L162.611 59.3184C162.335 58.6653 162.281 57.9859 162.446 57.2775C162.611 56.5718 162.885 55.8634 163.27 55.1551C163.653 54.4467 164.108 53.8068 164.632 53.2354C165.153 52.6639 165.634 52.161 166.073 51.7238C166.567 51.2893 167.157 50.7837 167.846 50.2123C168.532 49.6409 169.26 49.1089 170.031 48.6191C170.799 48.1293 171.584 47.7343 172.381 47.4341C173.179 47.1366 173.96 47.0128 174.731 47.0655C175.885 47.284 176.943 47.9108 177.906 48.943C178.868 49.9779 179.65 50.9575 180.256 51.8818C180.803 51.1208 181.37 50.3308 181.947 49.5145C182.523 48.6981 183.143 47.8818 183.802 47.0655C184.02 46.8495 184.379 46.889 184.874 47.1892C185.368 47.4894 185.863 47.9108 186.357 48.4559C186.852 49.001 187.277 49.5303 187.636 50.049C187.992 50.5678 188.09 50.9075 187.926 51.0708C185.233 54.5547 182.579 57.9701 179.969 61.3197C177.358 64.6693 174.349 67.7582 170.943 70.589C168.524 72.6588 165.956 74.4258 163.233 75.8978C160.514 77.3672 157.587 78.4021 154.455 79.0025C154.237 78.8393 153.918 78.4601 153.506 77.8597C153.094 77.2619 152.751 76.622 152.474 75.94C152.2 75.2606 152.049 74.6207 152.02 74.0203C151.993 73.4225 152.227 73.0407 152.721 72.8774C152.942 72.988 153.258 73.0538 153.671 73.0802C154.083 73.1091 154.508 73.1091 154.949 73.0802C155.391 73.0538 155.813 73.0117 156.228 72.959C156.64 72.9064 156.956 72.8511 157.177 72.7958C158.496 72.5798 159.788 72.1295 161.053 71.4475C162.316 70.7681 163.539 69.9781 164.722 69.0801C165.902 68.1822 167.03 67.2157 168.101 66.1808C169.164 65.1459 170.14 64.1374 171.02 63.1578ZM167.476 59.2367C166.926 60.0004 166.721 60.556 166.857 60.9115C166.992 61.267 167.282 61.4698 167.723 61.5251C168.162 61.5804 168.673 61.5251 169.249 61.3618C169.826 61.1986 170.334 60.9826 170.775 60.7088L172.424 59.7292C172.642 59.5659 173.208 59.0629 174.115 58.2176C175.021 57.375 175.859 56.477 176.63 55.5237C177.398 54.5705 177.879 53.7146 178.073 52.951C178.265 52.1899 177.786 51.8344 176.63 51.8897C176.465 51.8897 176.326 51.9187 176.217 51.9714C175.558 52.1346 174.747 52.5428 173.785 53.1959C172.823 53.8489 172.038 54.4204 171.435 54.9102C170.775 55.5106 170.087 56.19 169.374 56.951C168.657 57.7147 168.024 58.4757 167.476 59.2367Z" fill="white"/>
</svg>
