<svg width="1232" height="789" viewBox="0 0 1232 789" fill="none" xmlns="http://www.w3.org/2000/svg">
<path d="M560 55C560 55 574.465 55 601 67" stroke="#2D74CA" stroke-width="3" stroke-miterlimit="10"/>
<path d="M512 23L517.926 96L552.576 94.3093L558 23.8951L512 23Z" fill="#2D74CA"/>
<path d="M614 707.7V624.9L993.4 622L1177 689.8L1175.1 715L972.9 676.9L816.2 674.5L614 707.7Z" fill="#2D74CA"/>
<path d="M791 363H282V430H791V363Z" fill="#2D74CA"/>
<path d="M549 195H525V397H549V195Z" fill="#2D74CA"/>
<path d="M543.331 296H530.669C524.786 296 520 291.2 520 285.2V216.8C520 210.8 524.786 206 530.669 206H543.331C549.214 206 554 210.8 554 216.8V285.2C554 291.2 549.214 296 543.331 296Z" fill="#2D74CA"/>
<path d="M554 321H523C479.9 321 445 355.9 445 399C445 442.1 479.9 477 523 477H554C597.1 477 632 442.1 632 399C632 355.9 597 321 554 321Z" fill="#2D74CA"/>
<path d="M537 710C512.1 710 492 689.9 492 665.1V458H582V665.1C582 689.9 561.8 710 537 710Z" fill="#2D74CA"/>
<path d="M1002 458H921V622H1002V458Z" fill="#2D74CA"/>
<path d="M911 586H835V611H911V586Z" fill="#2D74CA"/>
<path d="M1056 630C1042.2 630 1031 618.9 1031 605.1V554.9C1031 541.2 1042.2 530 1056 530C1069.8 530 1081 541.1 1081 554.9V605.1C1081 618.9 1069.8 630 1056 630Z" fill="#2D74CA"/>
<path d="M1090 548H1077V614H1090V548Z" fill="#2D74CA"/>
<path d="M1120 537H1090V615H1120V537Z" fill="#2D74CA"/>
<path d="M1117 622H1083V640H1117V622Z" fill="#2D74CA"/>
<path d="M1095 486H1071V522H1095V486Z" fill="#2D74CA"/>
<path d="M1067 486H1044V522H1067V486Z" fill="#2D74CA"/>
<path d="M919 434H890V458H919V434Z" fill="#2D74CA"/>
<path d="M818 272H707V329H818V272Z" fill="#2D74CA"/>
<path d="M818 327H724V344H818V327Z" fill="#2D74CA"/>
<path d="M758 340H728V364H758V340Z" fill="#2D74CA"/>
<path d="M435 546H282V595H435V546Z" fill="#2D74CA"/>
<path d="M324 593H311V603H324V593Z" fill="#2D74CA"/>
<path d="M470 589H459V600H470V589Z" fill="#2D74CA"/>
<path d="M356.774 528H310.225C296.811 528 286 517.3 286 504C286 490.7 296.911 480 310.225 480H356.774C370.188 480 380.999 490.7 380.999 504C381.099 517.3 370.188 528 356.774 528Z" fill="#2D74CA"/>
<path d="M359 523H303V547H359V523Z" fill="#2D74CA"/>
<path d="M660 555H598V620H660V555Z" fill="#2D74CA"/>
<path d="M660 537H629V561H660V537Z" fill="#2D74CA"/>
<path d="M767 547H660V590H767V547Z" fill="#2D74CA"/>
<path d="M766 526H713V552H766V526Z" fill="#2D74CA"/>
<path d="M765.8 529H719.2C705.3 529 694 517.8 694 504C694 490.2 705.3 479 719.2 479H765.8C779.7 479 791 490.2 791 504C791 517.8 779.7 529 765.8 529Z" fill="#2D74CA"/>
<path d="M285 392H235V406H285V392Z" fill="#2D74CA"/>
<path d="M226 621L216.1 559H194.9L157.2 526.1L191.6 443.9L145.4 427L106.8 515.8C106.8 515.8 92.2 522.4 89.4 535.3C86.6 548.2 93.2 568.4 93.2 568.4L73.9 567L60 618.8L226 621Z" fill="#2D74CA"/>
<path d="M418.8 209L396 214.3L402.2 240L425 234.7L418.8 209Z" fill="#2D74CA"/>
<path d="M241.7 292L224 306.9L241.3 327L259 312.1L241.7 292Z" fill="#2D74CA"/>
<path d="M650.6 197L648 223.7L671.4 226L674 199.3L650.6 197Z" fill="#2D74CA"/>
<path d="M655.9 296L631 318.7L644.1 333L669 310.3L655.9 296Z" fill="#2D74CA"/>
<path d="M619.3 331L604 344.7L613.7 355L629 341.3L619.3 331Z" fill="#2D74CA"/>
<path d="M420.2 296L407 310.4L432.8 334L446 319.6L420.2 296Z" fill="#2D74CA"/>
<path d="M458.5 333L449 343.5L462.5 356L472 345.5L458.5 333Z" fill="#2D74CA"/>
<path d="M680.3 311L655 334.5L673.7 355L699 331.5L680.3 311Z" fill="#2D74CA"/>
<path d="M616.6 239L597 272.8L644.3 300L664 266.2L616.6 239Z" fill="#2D74CA"/>
<path d="M910.2 267L897 290.3L916.8 302L930 278.7L910.2 267Z" fill="#2D74CA"/>
<path d="M1117 482L1098 493L1109 512L1128 501L1117 482Z" fill="#2D74CA"/>
<path d="M474.3 200L436 206.3L438.7 223L477 216.7L474.3 200Z" fill="#2D74CA"/>
<path d="M708.5 202L705 218.8L743.5 227L747 210.2L708.5 202Z" fill="#2D74CA"/>
<path d="M781 443H751V469H781V443Z" fill="#2D74CA"/>
<path d="M732 443H702V469H732V443Z" fill="#2D74CA"/>
<path d="M872.6 425L845 452.6L864.4 472L892 444.4L872.6 425Z" fill="#2D74CA"/>
<path d="M915 469H873V556H915V469Z" fill="#2D74CA"/>
<path d="M448.2 495L435 517.9L469.8 538L483 515.1L448.2 495Z" fill="#2D74CA"/>
<path d="M406.3 440L384 454.3L405.7 488L428 473.7L406.3 440Z" fill="#2D74CA"/>
<path d="M669.7 440L648 473.7L670.3 488L692 454.3L669.7 440Z" fill="#2D74CA"/>
<path d="M437 469L415 491L428 504L450 482L437 469Z" fill="#2D74CA"/>
<path d="M472.9 438L451 459.9L459.1 468L481 446.1L472.9 438Z" fill="#2D74CA"/>
<path d="M635 471L622 484L644 506L657 493L635 471Z" fill="#2D74CA"/>
<path d="M599.1 439L591 447.1L612.9 469L621 460.9L599.1 439Z" fill="#2D74CA"/>
<path d="M592 315.9L578.5 310.6L562 308H513.3L495.7 311.4L483 315.8V358H592V315.9V315.9Z" fill="#2D74CA"/>
<path d="M503 198H490V278H503V198Z" fill="#2D74CA"/>
<path d="M583 227H570V277H583V227Z" fill="#2D74CA"/>
<path d="M583 208H570V224H583V208Z" fill="#2D74CA"/>
<path d="M502 291.5C502 288.5 499.5 286 496.5 286C493.5 286 491 288.5 491 291.5C491 294.5 493.5 297 496.5 297C499.5 297 502 294.5 502 291.5Z" fill="#2D74CA"/>
<path d="M582 291.5C582 288.5 579.5 286 576.5 286C573.5 286 571 288.5 571 291.5C571 294.5 573.5 297 576.5 297C579.5 297 582 294.5 582 291.5Z" fill="#2D74CA"/>
<path d="M750.362 211C748.859 216.516 752.165 222.233 757.876 223.637C763.586 225.141 769.497 221.832 771 216.315" fill="#2D74CA"/>
<path d="M338 237.69C339.904 243.281 346.015 246.276 351.626 244.479C357.237 242.582 360.343 236.591 358.439 231" fill="#2D74CA"/>
<path d="M370 443H342V469H370V443Z" fill="#2D74CA"/>
<path d="M796.2 416H787V383H796.2C805.5 383 813 390.4 813 399.5C813 408.6 805.5 416 796.2 416Z" fill="#2D74CA"/>
<path d="M850 392H808V406H845.3L850 392Z" fill="#2D74CA"/>
<path d="M1068 396H845V402H1068V396Z" fill="#2D74CA"/>
<path d="M970 301H963V463H970V301Z" fill="#2D74CA"/>
<path d="M948 378C948 375.8 946.2 374 944 374C941.8 374 940 375.8 940 378C940 380.2 941.8 382 944 382C946.2 382 948 380.2 948 378Z" fill="#2D74CA"/>
<path d="M991 377C991 374.8 989.2 373 987 373C984.8 373 983 374.8 983 377C983 379.2 984.8 381 987 381C989.2 381 991 379.2 991 377Z" fill="#2D74CA"/>
<path d="M949 420C949 417.8 947.2 416 945 416C942.8 416 941 417.8 941 420C941 422.2 942.8 424 945 424C947.2 424 949 422.2 949 420Z" fill="#2D74CA"/>
<path d="M991 421C991 418.8 989.2 417 987 417C984.8 417 983 418.8 983 421C983 423.2 984.8 425 987 425C989.2 425 991 423.2 991 421Z" fill="#2D74CA"/>
<path d="M966 360C962.1 360 959 363.2 959 367.1V371H973V367.1C973 363.2 969.8 360 966 360Z" fill="#2D74CA"/>
<path d="M1029 494H998V522H1029V494Z" fill="#2D74CA"/>
<path d="M1039 576H1024V586H1039V576Z" fill="#2D74CA"/>
<path d="M244.659 610.304L264.469 541.227C267.771 529.631 265.67 517.136 258.766 507.239L238.456 478.449C231.853 469.052 230.653 456.756 235.355 446.26L241.858 428.266V372.285L199.137 330L157.217 379.383L123 433.464L166.421 415.871C169.523 414.571 172.824 414.071 176.226 414.171L195.836 415.171C200.038 415.371 203.539 418.57 204.14 422.768L233.454 621H246.26L244.659 610.304Z" fill="#2D74CA"/>
<path d="M866.8 247L777 622.3L784.2 624L874 248.7L866.8 247Z" fill="#2D74CA"/>
<path d="M881.6 248L792 623.4L794.4 624L884 248.6L881.6 248Z" fill="#2D74CA"/>
<path d="M855.6 248L766 623.4L768.4 624L858 248.6L855.6 248Z" fill="#2D74CA"/>
<path d="M787.042 629L793.76 601.032C794.863 596.622 792.055 592.211 787.644 591.209C783.232 590.206 778.72 592.913 777.718 597.223L771 625.191L787.042 629Z" fill="#2D74CA"/>
<path d="M820 570H811V609H820V570Z" fill="#2D74CA"/>
<path d="M828 595H816V610H828V595Z" fill="#2D74CA"/>
<path d="M461 737.7L458.7 625H239L259.4 759L373 749L461 737.7Z" fill="#2D74CA"/>
<path d="M349.7 236L348 237.7L430.3 321L432 319.3L349.7 236Z" fill="#2D74CA"/>
<path d="M514 195H512V312H514V195Z" fill="#2D74CA"/>
<path d="M563 193H561V322H563V193Z" fill="#2D74CA"/>
<path d="M593 193H591V333H593V193Z" fill="#2D74CA"/>
<path d="M484 198H482V339H484V198Z" fill="#2D74CA"/>
<path d="M576 290H497V292H576V290Z" fill="#2D74CA"/>
<path d="M578 265H500V267H578V265Z" fill="#2D74CA"/>
<path d="M575 240H498V242H575V240Z" fill="#2D74CA"/>
<path d="M578 215H498V217H578V215Z" fill="#2D74CA"/>
<path d="M556.6 491H520.4C469.4 491 428 449.5 428 398.5C428 347.5 469.5 306 520.4 306H556.6C607.6 306 649 347.5 649 398.5C649 449.5 607.5 491 556.6 491ZM520.4 308.5C470.8 308.5 430.4 348.9 430.4 398.5C430.4 448.1 470.8 488.5 520.4 488.5H556.6C606.2 488.5 646.6 448.1 646.6 398.5C646.6 348.9 606.2 308.5 556.6 308.5H520.4V308.5Z" fill="#2D74CA"/>
<path d="M560.158 507H517.942C458.419 507 410 458.577 410 399.049C410 353.127 439.111 312.208 482.328 297.101L483.228 299.802C441.112 314.509 412.801 354.428 412.801 399.049C412.801 456.976 459.919 504.199 517.842 504.199H560.058C617.981 504.199 665.099 457.076 665.099 399.049C665.099 352.727 635.487 312.408 591.27 298.701L592.171 296C637.488 310.107 668 351.526 668 399.149C668.1 458.577 619.681 507 560.158 507Z" fill="#2D74CA"/>
<path d="M593 106.164L592.5 109C581.2 104.99 569.1 102.741 556.4 102.741H514.2C501.7 102.741 489.7 104.893 478.6 108.804L478 106.066C489.3 102.155 501.5 100.003 514.2 100.003H556.3C569.2 99.9053 581.5 102.154 593 106.164Z" fill="#2D74CA"/>
<path d="M593 100.164L592.5 103C581.2 98.9905 569.1 96.7413 556.4 96.7413H514.2C501.7 96.7413 489.7 98.8927 478.6 102.804L478 100.066C489.3 96.1545 501.5 94.0031 514.2 94.0031H556.3C569.2 93.9053 581.5 96.1545 593 100.164Z" fill="#2D74CA"/>
<path d="M757.1 217L655 306.8L656.9 309L759 219.2L757.1 217Z" fill="#2D74CA"/>
<path d="M762 218H759V278H762V218Z" fill="#2D74CA"/>
<path d="M667.1 297L665 298.9L688.9 325L691 323.1L667.1 297Z" fill="#2D74CA"/>
<path d="M635.1 318L617 334.9L618.9 337L637 320.1L635.1 318Z" fill="#2D74CA"/>
<path d="M641.1 324L623 340.9L624.9 343L643 326.1L641.1 324Z" fill="#2D74CA"/>
<path d="M443.7 323L442 324.8L456.3 338L458 336.2L443.7 323Z" fill="#2D74CA"/>
<path d="M438.6 328L437 329.9L450.4 343L452 341.1L438.6 328Z" fill="#2D74CA"/>
<path d="M578 220H576V290H578V220Z" fill="#2D74CA"/>
<path d="M497 271H495V290H497V271Z" fill="#2D74CA"/>
<path d="M409.8 482L408 483.7L439.2 517L441 515.3L409.8 482Z" fill="#2D74CA"/>
<path d="M453.3 460L438 474.2L439.7 476L455 461.8L453.3 460Z" fill="#2D74CA"/>
<path d="M445.7 480L444 478.2L459.3 463L461 464.8L445.7 480Z" fill="#2D74CA"/>
<path d="M616.8 467L615 468.7L636.2 491L638 489.3L616.8 467Z" fill="#2D74CA"/>
<path d="M619.7 463L618 464.7L637.3 484L639 482.3L619.7 463Z" fill="#2D74CA"/>
<path d="M634.7 515L633 513.2L666.3 481L668 482.8L634.7 515Z" fill="#2D74CA"/>
<path d="M702.3 550L650 498.8L651.7 497L704 548.2L702.3 550Z" fill="#2D74CA"/>
<path d="M420.7 488L367 522.9L368.3 525L422 490.1L420.7 488Z" fill="#2D74CA"/>
<path d="M439 487L398 548.6L400 550L441 488.4L439 487Z" fill="#2D74CA"/>
<path d="M499 546H424V548H499V546Z" fill="#2D74CA"/>
<path d="M500 593H430V595H500V593Z" fill="#2D74CA"/>
<path d="M609 579L576 592.8L577 595L610 581.2L609 579Z" fill="#2D74CA"/>
<path d="M961 579H803V581H961V579Z" fill="#2D74CA"/>
<path d="M932 570H805V572H932V570Z" fill="#2D74CA"/>
<path d="M1050 575H998V577H1050V575Z" fill="#2D74CA"/>
<path d="M1044 584H1000V586H1044V584Z" fill="#2D74CA"/>
<path d="M1048.3 538L1024 513.7L1025.7 512L1050 536.3L1048.3 538Z" fill="#2D74CA"/>
<path d="M1080.5 515L1078 515.5L1085.5 552L1088 551.5L1080.5 515Z" fill="#2D74CA"/>
<path d="M1145 544H1115V546H1145V544Z" fill="#2D74CA"/>
<path d="M1161.4 606L1110 662.7L1113.6 666L1165 609.3L1161.4 606Z" fill="#2D74CA"/>
<path d="M1000.4 465H998V433.351L998.699 433.05L1065.9 401L1067 403.203L1000.5 434.953V465H1000.4Z" fill="#2D74CA"/>
<path d="M892 443H889.5V427.5H840V425H892V443Z" fill="#2D74CA"/>
<path d="M885 451H883V479H885V451Z" fill="#2D74CA"/>
<path d="M926 463H916V451H918.5V460.6H926V463Z" fill="#2D74CA"/>
<path d="M854 362H758V364H854V362Z" fill="#2D74CA"/>
<path d="M818.5 325L818 327.3L836.5 331L837 328.7L818.5 325Z" fill="#2D74CA"/>
<path d="M833.5 347L833 349.6L857.5 355L858 352.4L833.5 347Z" fill="#2D74CA"/>
<path d="M813.5 435L813 437.5L837.5 443L838 440.4L813.5 435Z" fill="#2D74CA"/>
<path d="M798.5 496L798 498.5L822.5 504L823 501.4L798.5 496Z" fill="#2D74CA"/>
<path d="M781.5 560L781 562.5L805.5 568L806 565.4L781.5 560Z" fill="#2D74CA"/>
<path d="M774.5 593L774 595.6L798.5 601L799 598.5L774.5 593Z" fill="#2D74CA"/>
<path d="M772.5 599L772 601.5L796.5 607L797 604.4L772.5 599Z" fill="#2D74CA"/>
<path d="M844.5 297L844 299.6L868.5 305L869 302.4L844.5 297Z" fill="#2D74CA"/>
<path d="M890 554H888V594H890V554Z" fill="#2D74CA"/>
<path d="M870 571H868V579H870V571Z" fill="#2D74CA"/>
<path d="M741 428H739V495H741V428Z" fill="#2D74CA"/>
<path d="M769 455H728V457H769V455Z" fill="#2D74CA"/>
<path d="M814 427H787V429H814V427Z" fill="#2D74CA"/>
<path d="M334 424H332V519H334V424Z" fill="#2D74CA"/>
<path d="M354 453H322V455H354V453Z" fill="#2D74CA"/>
<path d="M284 411H242V413H284V411Z" fill="#2D74CA"/>
<path d="M288 384H240V386H288V384Z" fill="#2D74CA"/>
<path d="M309 428H238V430H309V428Z" fill="#2D74CA"/>
<path d="M239.7 428L238 429.8L298.3 488L300 486.2L239.7 428Z" fill="#2D74CA"/>
<path d="M265.4 429L257 514.8L259.6 515L268 429.2L265.4 429Z" fill="#2D74CA"/>
<path d="M253 614.5C253 610.4 249.6 607 245.5 607C241.4 607 238 610.4 238 614.5C238 618.6 241.4 622 245.5 622C249.6 622 253 618.6 253 614.5Z" fill="#2D74CA"/>
<path d="M286 591L247 608.8L248 611L287 593.2L286 591Z" fill="#2D74CA"/>
<path d="M303 546H261V548H303V546Z" fill="#2D74CA"/>
<path d="M291 369H253.6C249.8 369 246.2 367.4 243.6 364.7L205 324.7L206.8 323L245.4 363C247.5 365.2 250.5 366.5 253.6 366.5H291V369Z" fill="#2D74CA"/>
<path d="M246 753L226.5 621L66.8 624.4L57 737.9L147.8 749.2L246 753Z" fill="#2D74CA"/>
<path d="M495 663H459V665H495V663Z" fill="#2D74CA"/>
<path d="M613 663H577V665H613V663Z" fill="#2D74CA"/>
<path d="M96.7 550L75 552.6L75.3 555L97 552.4L96.7 550Z" fill="#2D74CA"/>
<path d="M93 501L92 503.3L117 515L118 512.7L93 501Z" fill="#2D74CA"/>
<path d="M96.9 490L96 492.3L120.1 501L121 498.7L96.9 490Z" fill="#2D74CA"/>
<path d="M196.4 412L194 412.3L216.6 580L219 579.7L196.4 412Z" fill="#2D74CA"/>
<path d="M224.5 556L216 557.6L216.5 560L225 558.4L224.5 556Z" fill="#2D74CA"/>
<path d="M217.5 506L208 507.6L208.5 510L218 508.4L217.5 506Z" fill="#2D74CA"/>
<path d="M966.5 430C949.1 430 935 415.9 935 398.5C935 381.1 949.1 367 966.5 367C983.9 367 998 381.1 998 398.5C998 415.9 983.8 430 966.5 430ZM966.5 369.5C950.5 369.5 937.5 382.5 937.5 398.5C937.5 414.5 950.5 427.5 966.5 427.5C982.5 427.5 995.5 414.5 995.5 398.5C995.5 382.5 982.5 369.5 966.5 369.5Z" fill="#2D74CA"/>
<path d="M974.171 417H958.829L948 406.2V390.8L958.829 380H974.171L985 390.8V406.1L974.171 417ZM959.832 414.5H973.168L982.594 405.1V391.8L973.168 382.4H959.832L950.406 391.8V405.1L959.832 414.5Z" fill="#2D74CA"/>
<path d="M985.3 377L977 385.3L978.7 387L987 378.7L985.3 377Z" fill="#2D74CA"/>
<path d="M945.7 378L944 379.7L952.3 388L954 386.3L945.7 378Z" fill="#2D74CA"/>
<path d="M952.2 409L944 417.2L945.8 419L954 410.8L952.2 409Z" fill="#2D74CA"/>
<path d="M978.8 411L977 412.8L985.2 421L987 419.2L978.8 411Z" fill="#2D74CA"/>
<path d="M1190 718.055H1189.9V728.166C1163.7 720.157 1021.4 679.213 858.7 679.213C774.5 679.213 693.4 696.732 607.6 715.252C505.6 737.276 400.1 760 270.2 760C93.4 760 40.2 741.18 38 740.379L40.1 734.673L42.2 728.867C42.4 728.967 44.2 729.567 48 730.568C49.4 730.969 51 731.369 52.9 731.77C75.8 737.075 138.5 747.787 270.1 747.787C398.7 747.787 503.5 725.163 604.9 703.239C607.9 702.538 610.9 701.938 613.9 701.337C697.1 683.418 776.1 667 858.6 667C999.3 667 1125 697.333 1175 711.147C1175.1 711.147 1175.2 711.248 1175.3 711.248C1176.9 711.648 1178.4 712.149 1179.9 712.549C1181.3 712.949 1182.7 713.35 1183.9 713.65C1186 714.251 1188 714.851 1189.6 715.352C1189.7 715.352 1189.7 715.352 1189.8 715.352V716.754L1190 718.055Z" fill="#9AC8FF"/>
<path d="M198.115 313L186 314.9L253.885 760L266 758.1L198.115 313Z" fill="#9AC8FF"/>
<path d="M1173.4 696L1013.3 637.8C1001.5 633.5 989.1 631.3 976.6 631.3H59V619H976.6C990.6 619 1004.4 621.4 1017.5 626.2L1177 684.2L1173.4 696Z" fill="#9AC8FF"/>
<path d="M1190 718H1184V704H1188.6L1189.7 715.3L1189.8 716.7L1190 718Z" fill="#9AC8FF"/>
<path d="M38.3 741L38 719H43V735.2L38.3 741Z" fill="#9AC8FF"/>
<path d="M48.0719 734C48.0719 733.4 46.0717 672.7 63.1736 593.2C78.7754 519.8 114.479 414.8 194.788 331.5C285.399 237.6 413.013 190 574.031 190C699.746 190 808.958 212.6 898.568 257.1C973.077 294.1 1034.58 346.5 1081.49 412.8C1177.3 548.3 1180 697.7 1180 714.3H1175.1C1175.1 697.9 1172.4 550 1077.49 415.7C1031.08 350.1 970.176 298.2 896.368 261.5C807.458 217.3 698.946 194.9 574.031 194.9C414.313 194.9 287.899 242 198.289 334.9C118.78 417.3 83.4759 521.3 67.8741 594.1C50.9722 673 52.8724 733.2 52.8724 733.8L48.0719 734Z" fill="#9AC8FF"/>
<path d="M38.0726 723C38.0726 722.4 36.0727 662.7 53.0716 584.3C68.7706 511.9 104.168 408.2 184.163 325.2C276.457 229.5 407.249 181 572.939 181C700.731 181 811.724 203.5 902.818 247.9C978.613 284.8 1041.11 337 1088.81 403.1C1125.8 454.4 1153.4 513.2 1170.7 577.8C1187.2 639.4 1189 686.2 1189 703.5H1184.1C1184.1 687.1 1181.3 539.8 1084.91 406C1037.71 340.6 975.813 288.9 900.818 252.4C810.424 208.3 700.131 186 573.039 186C408.749 186 279.157 234 187.863 328.7C144.166 374 86.1695 455.3 58.0713 585.3C41.2724 663.1 43.1722 722.3 43.1722 722.9L38.0726 723Z" fill="#9AC8FF"/>
<path d="M789 538H765V540H789V538Z" fill="#2D74CA"/>
<path d="M557.5 336H514.5C481.1 336 454 363.1 454 396.5C454 429.9 481.1 457 514.5 457H557.5C590.9 457 618 429.9 618 396.5C618 363.1 590.9 336 557.5 336Z" fill="#134178"/>
<path d="M786 366H682V424H786V366Z" fill="#134178"/>
<path d="M390 366H286V424H390V366Z" fill="#134178"/>
<path d="M926 334H868V382H926V334Z" fill="#134178"/>
<path d="M909 474H879V551H909V474Z" fill="#134178"/>
<path d="M995 465H928V552H995V465Z" fill="#134178"/>
<path d="M764 530H717V544H764V530Z" fill="#134178"/>
<path d="M354 530H307V544H354V530Z" fill="#134178"/>
<path d="M652 558H603V595H652V558Z" fill="#134178"/>
<path d="M136.4 580H119.6C108.8 580 100 571.2 100 560.4V543.6C100 532.8 108.8 524 119.6 524H136.4C147.2 524 156 532.8 156 543.6V560.4C156 571.2 147.2 580 136.4 580Z" fill="#134178"/>
<path d="M513 603H504V615H513V603Z" fill="#134178"/>
<path d="M572 603H563V615H572V603Z" fill="#134178"/>
<path d="M538.5 698C520 698 505 683.2 505 664.9V630H511.7V664.9C511.7 679.5 523.7 691.3 538.5 691.3C553.3 691.3 565.3 679.4 565.3 664.9V630H572V664.9C572 683.2 556.9 698 538.5 698Z" fill="#134178"/>
<path d="M517 631V666.9C517 678.6 526.4 688 538 688C549.6 688 559 678.5 559 666.9V631" fill="#134178"/>
<path d="M486 633H474V662H486V633Z" fill="#134178"/>
<path d="M640 644H621V683H640V644Z" fill="#134178"/>
<path d="M453 646H393V669H453V646Z" fill="#134178"/>
<path d="M484.8 613H478C478 605.8 483.8 600 491 600V606.8C487.6 606.8 484.8 609.6 484.8 613Z" fill="#134178"/>
<path d="M596 613H589.2C589.2 609.6 586.4 606.8 583 606.8V600C590.1 600 596 605.8 596 613Z" fill="#134178"/>
<path d="M483.6 671L474 672.9L478.4 695L488 693.1L483.6 671Z" fill="#134178"/>
<path d="M597 671L593 693.3L603 695L607 672.7L597 671Z" fill="#134178"/>
<path d="M828 598H817V606H828V598Z" fill="#134178"/>
<path d="M503 245H491V274H503V245Z" fill="#134178"/>
<path d="M503 203H491V232H503V203Z" fill="#134178"/>
<path d="M585 245H573V274H585V245Z" fill="#134178"/>
<path d="M215 592H195V606H215V592Z" fill="#134178"/>
<path d="M110 608H90V618H110V608Z" fill="#134178"/>
<path d="M509 494H503V511H509V494Z" fill="#134178"/>
<path d="M509 514H503V531H509V514Z" fill="#134178"/>
<path d="M509 534H503V551H509V534Z" fill="#134178"/>
<path d="M509 553H503V570H509V553Z" fill="#134178"/>
<path d="M509 573H503V590H509V573Z" fill="#134178"/>
<path d="M516.5 589.2C516.5 586.2 518.9 583.7 522 583.7V578.5C519 578.5 516.5 576 516.5 573H511V590H516.6C516.6 589.7 516.5 589.4 516.5 589.2Z" fill="#134178"/>
<path d="M516.5 569.2C516.5 566.2 518.9 563.7 522 563.7V558.5C519 558.5 516.5 556 516.5 553H511V570H516.6C516.6 569.7 516.5 569.4 516.5 569.2Z" fill="#134178"/>
<path d="M516.5 550.2C516.5 547.2 518.9 544.7 522 544.7V539.5C519 539.5 516.5 537 516.5 534H511V551H516.6C516.6 550.7 516.5 550.4 516.5 550.2Z" fill="#134178"/>
<path d="M516.5 530.2C516.5 527.2 518.9 524.7 522 524.7V519.5C519 519.5 516.5 517 516.5 514H511V531H516.6C516.6 530.7 516.5 530.4 516.5 530.2Z" fill="#134178"/>
<path d="M516.5 510.2C516.5 507.2 518.9 504.7 522 504.7V499.5C519 499.5 516.5 497 516.5 494H511V511H516.6C516.6 510.7 516.5 510.4 516.5 510.2Z" fill="#134178"/>
<path d="M573 494H567V511H573V494Z" fill="#134178"/>
<path d="M573 514H567V531H573V514Z" fill="#134178"/>
<path d="M573 534H567V551H573V534Z" fill="#134178"/>
<path d="M573 553H567V570H573V553Z" fill="#134178"/>
<path d="M573 573H567V590H573V573Z" fill="#134178"/>
<path d="M558.5 589.2C558.5 586.2 556.1 583.7 553 583.7V578.5C556 578.5 558.5 576 558.5 573H564V590H558.4C558.5 589.7 558.5 589.4 558.5 589.2Z" fill="#134178"/>
<path d="M558.5 569.2C558.5 566.2 556.1 563.7 553 563.7V558.5C556 558.5 558.5 556 558.5 553H564V570H558.4C558.5 569.7 558.5 569.4 558.5 569.2Z" fill="#134178"/>
<path d="M558.5 550.2C558.5 547.2 556.1 544.7 553 544.7V539.5C556 539.5 558.5 537 558.5 534H564V551H558.4C558.5 550.7 558.5 550.4 558.5 550.2Z" fill="#134178"/>
<path d="M558.5 530.2C558.5 527.2 556.1 524.7 553 524.7V519.5C556 519.5 558.5 517 558.5 514H564V531H558.4C558.5 530.7 558.5 530.4 558.5 530.2Z" fill="#134178"/>
<path d="M558.5 510.2C558.5 507.2 556.1 504.7 553 504.7V499.5C556 499.5 558.5 497 558.5 494H564V511H558.4C558.5 510.7 558.5 510.4 558.5 510.2Z" fill="#134178"/>
<path d="M242.9 298L230 309L240.1 321L253 310L242.9 298Z" fill="#134178"/>
<path d="M417.4 216L401 219.9L404.6 235L421 231.1L417.4 216Z" fill="#134178"/>
<path d="M472.4 204L441 209.2L442.6 219L474 213.8L472.4 204Z" fill="#134178"/>
<path d="M652.6 205L651 220.4L668.4 222L670 206.6L652.6 205Z" fill="#134178"/>
<path d="M908 277L900 290.5L915 299L923 285.5L908 277Z" fill="#134178"/>
<path d="M1114.5 486L1101 494L1109.5 509L1123 501L1114.5 486Z" fill="#134178"/>
<path d="M711 207L709 216.5L740 223L742 213.5L711 207Z" fill="#134178"/>
<path d="M537.5 681C529.5 681 523 674.5 523 666.5C523 658.5 529.5 652 537.5 652C545.5 652 552 658.5 552 666.5C552 674.5 545.5 681 537.5 681ZM537.5 654.4C530.8 654.4 525.4 659.8 525.4 666.5C525.4 673.2 530.8 678.6 537.5 678.6C544.2 678.6 549.6 673.2 549.6 666.5C549.6 659.9 544.1 654.4 537.5 654.4Z" fill="#2D74CA"/>
<path d="M525 631H523V667H525V631Z" fill="#2D74CA"/>
<path d="M552 631H550V667H552V631Z" fill="#2D74CA"/>
<path d="M525 666H515V668H525V666Z" fill="#2D74CA"/>
<path d="M561 665H551V667H561V665Z" fill="#2D74CA"/>
<path d="M1231.47 735.299C1220.58 733.799 1202.08 731.799 1202.08 731.799C1197.58 647.585 1181.88 570.672 1155.49 503.361C1131.09 441.05 1097.2 386.241 1054.91 340.434C978.121 257.32 872.94 203.611 750.863 185.008C654.08 170.305 538.801 159.204 416.524 188.408C327.14 209.812 251.254 251.819 191.065 313.329C142.674 362.737 104.181 424.748 76.486 497.76C28.7947 623.181 29.8945 738.8 29.8945 740C29.8945 740 9.89819 735.199 0 731.699C0.59989 701.694 5.79894 599.977 47.9912 488.058C77.0859 410.945 117.878 345.234 169.169 292.726C233.457 226.915 314.342 182.007 409.525 159.204C536.802 128.699 655.78 140.1 755.362 155.303C884.238 174.906 995.518 231.916 1076.9 320.03C1121.79 368.638 1157.69 426.648 1183.38 492.459C1210.88 562.771 1227.28 642.684 1231.97 730.198C1232.07 731.899 1231.87 733.699 1231.47 735.299Z" fill="#9AC8FF"/>
<path d="M508 24L514 96" stroke="#2D74CA" stroke-width="3" stroke-miterlimit="10"/>
<path d="M562 23L555 95" stroke="#2D74CA" stroke-width="3" stroke-miterlimit="10"/>
<path d="M531 101L531.4 132" stroke="#2D74CA" stroke-width="3" stroke-miterlimit="10"/>
<path d="M540 101L540.4 132" stroke="#2D74CA" stroke-width="3" stroke-miterlimit="10"/>
<path d="M408 43C408 43 477.567 0.459925 620 28.6516" stroke="#9AC8FF" stroke-width="8" stroke-miterlimit="10"/>
<path d="M402 28C402 28 478.47 -15.4741 622 14.6004" stroke="#9AC8FF" stroke-width="8" stroke-miterlimit="10"/>
<path d="M607 23L591.639 106.681L591.14 109.591L586.751 133.371C586.751 133.371 546.652 132.468 533.285 133.471C503.66 135.578 447.8 142 447.8 142L408 41.161" stroke="#9AC8FF" stroke-width="4" stroke-miterlimit="10"/>
<path d="M1190.2 718H1190V717L1190.2 718Z" fill="#9AC8FF"/>
<path d="M430.788 50.7156L427 52L452.351 126.822L456.139 125.538L430.788 50.7156Z" fill="#9AC8FF"/>
<path d="M442.788 41.7156L439 43L464.351 117.822L468.139 116.538L442.788 41.7156Z" fill="#9AC8FF"/>
<path d="M459.788 48.7156L456 50L481.351 124.822L485.139 123.538L459.788 48.7156Z" fill="#9AC8FF"/>
<path d="M244 359L217 399" stroke="white" stroke-width="2.20952" stroke-linecap="square" stroke-dasharray="12.15 12.15"/>
<path d="M244 359H423" stroke="white" stroke-width="2.20952" stroke-linecap="square" stroke-dasharray="12.15 12.15"/>
<path d="M102.631 490.273V479.073H103.911L107.991 485.185L112.071 479.073H113.351V490.273H112.087V481.201L108.007 487.201H107.943L103.863 481.217V490.273H102.631ZM119.93 490.465C118.767 490.465 117.786 490.065 116.986 489.265C116.196 488.454 115.802 487.414 115.802 486.145C115.802 484.939 116.18 483.921 116.938 483.089C117.695 482.246 118.639 481.825 119.77 481.825C120.954 481.825 121.892 482.241 122.586 483.073C123.279 483.905 123.626 484.95 123.626 486.209C123.626 486.369 123.62 486.513 123.61 486.641H117.049C117.135 487.483 117.45 488.155 117.994 488.657C118.548 489.147 119.204 489.393 119.962 489.393C120.954 489.393 121.823 489.003 122.57 488.225L123.338 488.913C122.41 489.947 121.274 490.465 119.93 490.465ZM117.049 485.649H122.378C122.303 484.849 122.036 484.187 121.578 483.665C121.13 483.131 120.516 482.865 119.738 482.865C119.034 482.865 118.431 483.126 117.93 483.649C117.428 484.171 117.135 484.838 117.049 485.649ZM127.782 490.273V483.089H124.822V482.001H131.99V483.089H129.03V490.273H127.782ZM133.782 492.833V482.001H135.014V483.665C135.846 482.438 136.902 481.825 138.182 481.825C139.238 481.825 140.161 482.219 140.95 483.009C141.74 483.787 142.134 484.833 142.134 486.145C142.134 487.435 141.74 488.475 140.95 489.265C140.161 490.054 139.238 490.449 138.182 490.449C136.881 490.449 135.825 489.862 135.014 488.689V492.833H133.782ZM137.958 489.345C138.79 489.345 139.484 489.057 140.038 488.481C140.593 487.894 140.87 487.11 140.87 486.129C140.87 485.179 140.588 484.411 140.022 483.825C139.457 483.227 138.769 482.929 137.958 482.929C137.158 482.929 136.46 483.233 135.862 483.841C135.265 484.449 134.966 485.217 134.966 486.145C134.966 487.073 135.265 487.841 135.862 488.449C136.46 489.046 137.158 489.345 137.958 489.345ZM151.271 489.201C150.439 490.043 149.41 490.465 148.183 490.465C146.957 490.465 145.933 490.043 145.111 489.201C144.301 488.358 143.895 487.339 143.895 486.145C143.895 484.961 144.306 483.947 145.127 483.105C145.959 482.251 146.989 481.825 148.215 481.825C149.442 481.825 150.466 482.246 151.287 483.089C152.109 483.931 152.519 484.95 152.519 486.145C152.519 487.329 152.103 488.347 151.271 489.201ZM148.215 489.361C149.101 489.361 149.826 489.051 150.391 488.433C150.967 487.814 151.255 487.051 151.255 486.145C151.255 485.249 150.957 484.486 150.359 483.857C149.773 483.227 149.047 482.913 148.183 482.913C147.298 482.913 146.573 483.227 146.007 483.857C145.442 484.475 145.159 485.238 145.159 486.145C145.159 487.041 145.453 487.803 146.039 488.433C146.626 489.051 147.351 489.361 148.215 489.361ZM161.532 489.617L158.94 486.193V486.065L161.532 482.657L162.476 483.185L160.316 486.113L162.476 489.073L161.532 489.617ZM165.1 489.617L162.508 486.193V486.065L165.1 482.657L166.028 483.185L163.868 486.113L166.028 489.073L165.1 489.617ZM168.553 490.273V479.073H173.321C174.633 479.073 175.609 479.403 176.249 480.065C176.729 480.566 176.969 481.174 176.969 481.889C176.969 483.105 176.377 483.969 175.193 484.481C176.793 484.961 177.593 485.873 177.593 487.217C177.593 488.166 177.225 488.913 176.489 489.457C175.753 490.001 174.766 490.273 173.529 490.273H168.553ZM169.801 489.137H173.561C174.414 489.137 175.086 488.961 175.577 488.609C176.067 488.246 176.313 487.745 176.313 487.105C176.313 486.486 176.057 486.011 175.545 485.681C175.043 485.35 174.307 485.185 173.337 485.185H169.801V489.137ZM169.801 484.065H173.113C173.891 484.065 174.515 483.889 174.985 483.537C175.454 483.185 175.689 482.683 175.689 482.033C175.689 481.467 175.47 481.025 175.033 480.705C174.606 480.374 173.998 480.209 173.209 480.209H169.801V484.065ZM186.756 489.201C185.924 490.043 184.894 490.465 183.668 490.465C182.441 490.465 181.417 490.043 180.596 489.201C179.785 488.358 179.38 487.339 179.38 486.145C179.38 484.961 179.79 483.947 180.612 483.105C181.444 482.251 182.473 481.825 183.7 481.825C184.926 481.825 185.95 482.246 186.772 483.089C187.593 483.931 188.004 484.95 188.004 486.145C188.004 487.329 187.588 488.347 186.756 489.201ZM183.7 489.361C184.585 489.361 185.31 489.051 185.876 488.433C186.452 487.814 186.74 487.051 186.74 486.145C186.74 485.249 186.441 484.486 185.844 483.857C185.257 483.227 184.532 482.913 183.668 482.913C182.782 482.913 182.057 483.227 181.492 483.857C180.926 484.475 180.644 485.238 180.644 486.145C180.644 487.041 180.937 487.803 181.524 488.433C182.11 489.051 182.836 489.361 183.7 489.361ZM190.235 492.833V482.001H191.467V483.665C192.299 482.438 193.355 481.825 194.635 481.825C195.691 481.825 196.614 482.219 197.403 483.009C198.193 483.787 198.587 484.833 198.587 486.145C198.587 487.435 198.193 488.475 197.403 489.265C196.614 490.054 195.691 490.449 194.635 490.449C193.334 490.449 192.278 489.862 191.467 488.689V492.833H190.235ZM194.411 489.345C195.243 489.345 195.937 489.057 196.491 488.481C197.046 487.894 197.323 487.11 197.323 486.129C197.323 485.179 197.041 484.411 196.475 483.825C195.91 483.227 195.222 482.929 194.411 482.929C193.611 482.929 192.913 483.233 192.315 483.841C191.718 484.449 191.419 485.217 191.419 486.145C191.419 487.073 191.718 487.841 192.315 488.449C192.913 489.046 193.611 489.345 194.411 489.345ZM207.724 489.201C206.892 490.043 205.863 490.465 204.636 490.465C203.41 490.465 202.386 490.043 201.564 489.201C200.754 488.358 200.348 487.339 200.348 486.145C200.348 484.961 200.759 483.947 201.58 483.105C202.412 482.251 203.442 481.825 204.668 481.825C205.895 481.825 206.919 482.246 207.74 483.089C208.562 483.931 208.972 484.95 208.972 486.145C208.972 487.329 208.556 488.347 207.724 489.201ZM204.668 489.361C205.554 489.361 206.279 489.051 206.844 488.433C207.42 487.814 207.708 487.051 207.708 486.145C207.708 485.249 207.41 484.486 206.812 483.857C206.226 483.227 205.5 482.913 204.636 482.913C203.751 482.913 203.026 483.227 202.46 483.857C201.895 484.475 201.612 485.238 201.612 486.145C201.612 487.041 201.906 487.803 202.492 488.433C203.079 489.051 203.804 489.361 204.668 489.361ZM215.092 490.465C213.823 490.465 212.804 490.049 212.036 489.217C211.279 488.374 210.9 487.238 210.9 485.809C210.9 485.286 210.911 484.843 210.932 484.481C210.953 484.107 210.996 483.697 211.06 483.249C211.124 482.801 211.225 482.417 211.364 482.097C211.503 481.777 211.679 481.462 211.892 481.153C212.116 480.843 212.404 480.582 212.756 480.369C213.108 480.155 213.519 479.995 213.988 479.889L218.596 478.801L218.836 479.841L214.356 480.945C213.524 481.158 212.927 481.499 212.564 481.969C212.212 482.427 212.004 483.067 211.94 483.889C212.644 482.694 213.785 482.097 215.364 482.097C216.452 482.097 217.385 482.502 218.164 483.313C218.943 484.113 219.332 485.078 219.332 486.209C219.332 487.382 218.927 488.385 218.116 489.217C217.305 490.049 216.297 490.465 215.092 490.465ZM215.124 489.361C215.967 489.361 216.665 489.062 217.22 488.465C217.775 487.857 218.052 487.115 218.052 486.241C218.052 485.377 217.764 484.641 217.188 484.033C216.623 483.425 215.924 483.121 215.092 483.121C214.249 483.121 213.551 483.425 212.996 484.033C212.441 484.63 212.164 485.366 212.164 486.241C212.164 487.105 212.447 487.841 213.012 488.449C213.588 489.057 214.292 489.361 215.124 489.361ZM221.564 490.273V482.001H222.796V485.105H225.004C225.964 485.105 226.748 485.313 227.356 485.729C227.964 486.134 228.267 486.753 228.267 487.585C228.267 488.406 227.985 489.062 227.42 489.553C226.854 490.033 226.097 490.273 225.148 490.273H221.564ZM222.796 489.185H225.036C225.665 489.185 226.15 489.051 226.492 488.785C226.844 488.518 227.02 488.129 227.02 487.617C227.02 487.147 226.838 486.79 226.476 486.545C226.124 486.289 225.628 486.161 224.988 486.161H222.796V489.185ZM233.789 490.465C232.626 490.465 231.645 490.065 230.845 489.265C230.056 488.454 229.661 487.414 229.661 486.145C229.661 484.939 230.04 483.921 230.797 483.089C231.554 482.246 232.498 481.825 233.629 481.825C234.813 481.825 235.752 482.241 236.445 483.073C237.138 483.905 237.485 484.95 237.485 486.209C237.485 486.369 237.48 486.513 237.469 486.641H230.909C230.994 487.483 231.309 488.155 231.853 488.657C232.408 489.147 233.064 489.393 233.821 489.393C234.813 489.393 235.682 489.003 236.429 488.225L237.197 488.913C236.269 489.947 235.133 490.465 233.789 490.465ZM230.909 485.649H236.237C236.162 484.849 235.896 484.187 235.437 483.665C234.989 483.131 234.376 482.865 233.597 482.865C232.893 482.865 232.29 483.126 231.789 483.649C231.288 484.171 230.994 484.838 230.909 485.649ZM239.642 490.273V482.001H243.642C244.463 482.001 245.119 482.187 245.61 482.561C246.1 482.934 246.346 483.435 246.346 484.065C246.346 484.95 245.887 485.585 244.97 485.969C246.186 486.299 246.794 486.982 246.794 488.017C246.794 488.71 246.522 489.259 245.978 489.665C245.434 490.07 244.703 490.273 243.786 490.273H239.642ZM240.874 489.217H243.626C244.212 489.217 244.676 489.094 245.018 488.849C245.359 488.603 245.53 488.262 245.53 487.825C245.53 487.419 245.348 487.105 244.986 486.881C244.634 486.657 244.127 486.545 243.466 486.545H240.874V489.217ZM240.874 485.553H243.418C243.93 485.553 244.335 485.441 244.634 485.217C244.943 484.982 245.098 484.651 245.098 484.225C245.098 483.873 244.954 483.59 244.666 483.377C244.378 483.163 243.972 483.057 243.45 483.057H240.874V485.553ZM249.017 490.273V482.001H250.249V485.105H252.457C253.417 485.105 254.201 485.313 254.809 485.729C255.417 486.134 255.721 486.753 255.721 487.585C255.721 488.406 255.438 489.062 254.873 489.553C254.307 490.033 253.55 490.273 252.601 490.273H249.017ZM250.249 489.185H252.489C253.118 489.185 253.603 489.051 253.945 488.785C254.297 488.518 254.473 488.129 254.473 487.617C254.473 487.147 254.291 486.79 253.929 486.545C253.577 486.289 253.081 486.161 252.441 486.161H250.249V489.185ZM257.209 490.273V482.001H258.441V490.273H257.209ZM265.985 490.273V482.001H271.601V483.089H267.217V490.273H265.985ZM280.256 489.201C279.424 490.043 278.394 490.465 277.168 490.465C275.941 490.465 274.917 490.043 274.096 489.201C273.285 488.358 272.88 487.339 272.88 486.145C272.88 484.961 273.29 483.947 274.112 483.105C274.944 482.251 275.973 481.825 277.2 481.825C278.426 481.825 279.45 482.246 280.272 483.089C281.093 483.931 281.504 484.95 281.504 486.145C281.504 487.329 281.088 488.347 280.256 489.201ZM277.2 489.361C278.085 489.361 278.81 489.051 279.376 488.433C279.952 487.814 280.24 487.051 280.24 486.145C280.24 485.249 279.941 484.486 279.344 483.857C278.757 483.227 278.032 482.913 277.168 482.913C276.282 482.913 275.557 483.227 274.992 483.857C274.426 484.475 274.144 485.238 274.144 486.145C274.144 487.041 274.437 487.803 275.024 488.433C275.61 489.051 276.336 489.361 277.2 489.361ZM283.735 492.833V482.001H284.967V483.665C285.799 482.438 286.855 481.825 288.135 481.825C289.191 481.825 290.114 482.219 290.903 483.009C291.693 483.787 292.087 484.833 292.087 486.145C292.087 487.435 291.693 488.475 290.903 489.265C290.114 490.054 289.191 490.449 288.135 490.449C286.834 490.449 285.778 489.862 284.967 488.689V492.833H283.735ZM287.911 489.345C288.743 489.345 289.437 489.057 289.991 488.481C290.546 487.894 290.823 487.11 290.823 486.129C290.823 485.179 290.541 484.411 289.975 483.825C289.41 483.227 288.722 482.929 287.911 482.929C287.111 482.929 286.413 483.233 285.815 483.841C285.218 484.449 284.919 485.217 284.919 486.145C284.919 487.073 285.218 487.841 285.815 488.449C286.413 489.046 287.111 489.345 287.911 489.345ZM294.36 490.273V482.001H295.592V485.105H297.8C298.76 485.105 299.544 485.313 300.152 485.729C300.76 486.134 301.064 486.753 301.064 487.585C301.064 488.406 300.782 489.062 300.216 489.553C299.651 490.033 298.894 490.273 297.944 490.273H294.36ZM295.592 489.185H297.832C298.462 489.185 298.947 489.051 299.288 488.785C299.64 488.518 299.816 488.129 299.816 487.617C299.816 487.147 299.635 486.79 299.272 486.545C298.92 486.289 298.424 486.161 297.784 486.161H295.592V489.185ZM302.552 490.273V482.001H303.784V490.273H302.552ZM307.028 489.617L306.1 489.089L308.26 486.145L306.1 483.201L307.028 482.657L309.62 486.065V486.193L307.028 489.617ZM310.596 489.617L309.652 489.089L311.812 486.145L309.652 483.201L310.596 482.657L313.188 486.065V486.193L310.596 489.617Z" fill="white"/>
<g clip-path="url(#clip0_245_572)">
<path d="M206.5 466.101C218.926 466.101 229 456.027 229 443.601C229 431.174 218.926 421.101 206.5 421.101C194.074 421.101 184 431.174 184 443.601C184 456.027 194.074 466.101 206.5 466.101Z" fill="#F32735"/>
<path fill-rule="evenodd" clip-rule="evenodd" d="M217.211 449.586L211.138 434.101L206 443.153L200.883 434.101L194.789 449.586H193V451.933H202.194V449.586H200.821L202.152 445.73L206 452.101L209.848 445.73L211.179 449.586H209.806V451.933H219V449.586H217.211Z" fill="white"/>
</g>
<path d="M544.764 783V771.8H546.044L550.124 777.912L554.204 771.8H555.484V783H554.22V773.928L550.14 779.928H550.076L545.996 773.944V783H544.764ZM567.79 785.496V783H558.654V771.8H559.918V781.848H566.318V771.8H567.582V781.848H569.038L568.846 785.496H567.79ZM570.889 783V771.8H572.153V778.488L578.585 771.8H580.217L575.417 776.696L580.425 783H578.841L574.537 777.576L572.153 779.992V783H570.889ZM588.962 782.344L586.37 778.92V778.792L588.962 775.384L589.906 775.912L587.746 778.84L589.906 781.8L588.962 782.344ZM592.53 782.344L589.938 778.92V778.792L592.53 775.384L593.458 775.912L591.298 778.84L593.458 781.8L592.53 782.344ZM595.774 783.128C595.273 783.128 594.788 783.037 594.318 782.856L594.574 781.832C594.809 781.939 595.14 781.992 595.566 781.992C595.78 781.992 595.972 781.96 596.142 781.896C596.313 781.821 596.516 781.629 596.75 781.32C596.985 781 597.177 780.568 597.326 780.024C597.476 779.469 597.604 778.664 597.71 777.608C597.828 776.541 597.886 775.283 597.886 773.832V771.8H605.134V783H603.87V772.952H599.102V774.168C599.102 775.683 599.038 776.995 598.91 778.104C598.793 779.213 598.633 780.088 598.43 780.728C598.238 781.357 597.988 781.859 597.678 782.232C597.38 782.605 597.081 782.851 596.782 782.968C596.494 783.075 596.158 783.128 595.774 783.128ZM609.367 785.608C608.77 785.608 608.183 785.469 607.607 785.192L608.023 784.216C608.418 784.419 608.85 784.52 609.319 784.52C609.692 784.52 610.007 784.403 610.263 784.168C610.519 783.944 610.77 783.544 611.015 782.968L607.255 774.728H608.615L611.623 781.624L614.279 774.728H615.591L612.119 783.272C611.767 784.115 611.378 784.712 610.951 785.064C610.524 785.427 609.996 785.608 609.367 785.608ZM616.484 783L619.876 778.264L616.66 774.728H618.148L622.356 779.528V774.728H623.588V779.528L627.796 774.728H629.284L626.068 778.264L629.46 783H628.02L625.268 779.144L623.588 780.984V783H622.356V780.984L620.676 779.144L617.924 783H616.484ZM631.149 783V774.728H632.381V778.296H637.149V774.728H638.381V783H637.149V779.384H632.381V783H631.149ZM641.134 783V774.728H642.366V781.272L647.278 774.728H648.478V783H647.246V776.456L642.318 783H641.134ZM651.228 783V774.728H652.46V779.496L656.988 774.728H658.508L655.052 778.312L658.604 783H657.148L654.204 779.208L652.46 781V783H651.228ZM660.306 783V774.728H661.538V781.272L666.45 774.728H667.65V783H666.418V776.456L661.49 783H660.306ZM670.895 782.344L669.967 781.816L672.127 778.872L669.967 775.928L670.895 775.384L673.487 778.792V778.92L670.895 782.344ZM674.463 782.344L673.519 781.816L675.679 778.872L673.519 775.928L674.463 775.384L677.055 778.792V778.92L674.463 782.344Z" fill="white"/>
<g clip-path="url(#clip1_245_572)">
<path d="M609.5 759C621.926 759 632 748.926 632 736.5C632 724.074 621.926 714 609.5 714C597.074 714 587 724.074 587 736.5C587 748.926 597.074 759 609.5 759Z" fill="#F32735"/>
<path fill-rule="evenodd" clip-rule="evenodd" d="M620.211 742.485L614.138 727L609 736.053L603.883 727L597.789 742.485H596V744.833H605.194V742.485H603.821L605.152 738.629L609 745L612.848 738.629L614.179 742.485H612.806V744.833H622V742.485H620.211Z" fill="white"/>
</g>
<path d="M699.842 784V772.8H701.122L705.202 778.912L709.282 772.8H710.562V784H709.298V774.928L705.218 780.928H705.154L701.074 774.944V784H699.842ZM717.14 784.192C715.978 784.192 714.996 783.792 714.196 782.992C713.407 782.181 713.012 781.141 713.012 779.872C713.012 778.667 713.391 777.648 714.148 776.816C714.906 775.973 715.85 775.552 716.98 775.552C718.164 775.552 719.103 775.968 719.796 776.8C720.49 777.632 720.836 778.677 720.836 779.936C720.836 780.096 720.831 780.24 720.82 780.368H714.26C714.346 781.211 714.66 781.883 715.204 782.384C715.759 782.875 716.415 783.12 717.172 783.12C718.164 783.12 719.034 782.731 719.78 781.952L720.548 782.64C719.62 783.675 718.484 784.192 717.14 784.192ZM714.26 779.376H719.588C719.514 778.576 719.247 777.915 718.788 777.392C718.34 776.859 717.727 776.592 716.948 776.592C716.244 776.592 715.642 776.853 715.14 777.376C714.639 777.899 714.346 778.565 714.26 779.376ZM724.993 784V776.816H722.033V775.728H729.201V776.816H726.241V784H724.993ZM730.993 786.56V775.728H732.225V777.392C733.057 776.165 734.113 775.552 735.393 775.552C736.449 775.552 737.372 775.947 738.161 776.736C738.951 777.515 739.345 778.56 739.345 779.872C739.345 781.163 738.951 782.203 738.161 782.992C737.372 783.781 736.449 784.176 735.393 784.176C734.092 784.176 733.036 783.589 732.225 782.416V786.56H730.993ZM735.169 783.072C736.001 783.072 736.695 782.784 737.249 782.208C737.804 781.621 738.081 780.837 738.081 779.856C738.081 778.907 737.799 778.139 737.233 777.552C736.668 776.955 735.98 776.656 735.169 776.656C734.369 776.656 733.671 776.96 733.073 777.568C732.476 778.176 732.177 778.944 732.177 779.872C732.177 780.8 732.476 781.568 733.073 782.176C733.671 782.773 734.369 783.072 735.169 783.072ZM748.482 782.928C747.65 783.771 746.621 784.192 745.394 784.192C744.168 784.192 743.144 783.771 742.322 782.928C741.512 782.085 741.106 781.067 741.106 779.872C741.106 778.688 741.517 777.675 742.338 776.832C743.17 775.979 744.2 775.552 745.426 775.552C746.653 775.552 747.677 775.973 748.498 776.816C749.32 777.659 749.73 778.677 749.73 779.872C749.73 781.056 749.314 782.075 748.482 782.928ZM745.426 783.088C746.312 783.088 747.037 782.779 747.602 782.16C748.178 781.541 748.466 780.779 748.466 779.872C748.466 778.976 748.168 778.213 747.57 777.584C746.984 776.955 746.258 776.64 745.394 776.64C744.509 776.64 743.784 776.955 743.218 777.584C742.653 778.203 742.37 778.965 742.37 779.872C742.37 780.768 742.664 781.531 743.25 782.16C743.837 782.779 744.562 783.088 745.426 783.088ZM758.743 783.344L756.151 779.92V779.792L758.743 776.384L759.687 776.912L757.527 779.84L759.687 782.8L758.743 783.344ZM762.311 783.344L759.719 779.92V779.792L762.311 776.384L763.239 776.912L761.079 779.84L763.239 782.8L762.311 783.344ZM770.884 784.192C769.273 784.192 767.934 783.637 766.868 782.528C765.801 781.408 765.268 780.032 765.268 778.4C765.268 776.789 765.806 775.424 766.884 774.304C767.961 773.173 769.31 772.608 770.932 772.608C771.87 772.608 772.67 772.763 773.332 773.072C773.993 773.371 774.638 773.819 775.268 774.416L774.436 775.312C773.358 774.288 772.185 773.776 770.916 773.776C769.678 773.776 768.644 774.219 767.812 775.104C766.99 775.989 766.58 777.088 766.58 778.4C766.58 779.701 766.996 780.8 767.828 781.696C768.66 782.581 769.689 783.024 770.916 783.024C771.641 783.024 772.281 782.891 772.836 782.624C773.39 782.357 773.956 781.952 774.532 781.408L775.364 782.288C774.734 782.917 774.073 783.392 773.38 783.712C772.686 784.032 771.854 784.192 770.884 784.192ZM777.368 784V775.728H784.536V784H783.304V776.816H778.6V784H777.368ZM794.154 782.928C793.322 783.771 792.293 784.192 791.066 784.192C789.839 784.192 788.815 783.771 787.994 782.928C787.183 782.085 786.778 781.067 786.778 779.872C786.778 778.688 787.189 777.675 788.01 776.832C788.842 775.979 789.871 775.552 791.098 775.552C792.325 775.552 793.349 775.973 794.17 776.816C794.991 777.659 795.402 778.677 795.402 779.872C795.402 781.056 794.986 782.075 794.154 782.928ZM791.098 783.088C791.983 783.088 792.709 782.779 793.274 782.16C793.85 781.541 794.138 780.779 794.138 779.872C794.138 778.976 793.839 778.213 793.242 777.584C792.655 776.955 791.93 776.64 791.066 776.64C790.181 776.64 789.455 776.955 788.89 777.584C788.325 778.203 788.042 778.965 788.042 779.872C788.042 780.768 788.335 781.531 788.922 782.16C789.509 782.779 790.234 783.088 791.098 783.088ZM797.634 786.56V775.728H798.866V777.392C799.698 776.165 800.754 775.552 802.034 775.552C803.09 775.552 804.012 775.947 804.802 776.736C805.591 777.515 805.986 778.56 805.986 779.872C805.986 781.163 805.591 782.203 804.802 782.992C804.012 783.781 803.09 784.176 802.034 784.176C800.732 784.176 799.676 783.589 798.866 782.416V786.56H797.634ZM801.81 783.072C802.642 783.072 803.335 782.784 803.89 782.208C804.444 781.621 804.722 780.837 804.722 779.856C804.722 778.907 804.439 778.139 803.874 777.552C803.308 776.955 802.62 776.656 801.81 776.656C801.01 776.656 800.311 776.96 799.714 777.568C799.116 778.176 798.818 778.944 798.818 779.872C798.818 780.8 799.116 781.568 799.714 782.176C800.311 782.773 801.01 783.072 801.81 783.072ZM810.259 784V776.816H807.299V775.728H814.467V776.816H811.507V784H810.259ZM816.259 784V775.728H817.491V782.272L822.403 775.728H823.603V784H822.371V777.456L817.443 784H816.259ZM826.353 784V775.728H830.353C831.174 775.728 831.83 775.915 832.321 776.288C832.811 776.661 833.057 777.163 833.057 777.792C833.057 778.677 832.598 779.312 831.681 779.696C832.897 780.027 833.505 780.709 833.505 781.744C833.505 782.437 833.233 782.987 832.689 783.392C832.145 783.797 831.414 784 830.497 784H826.353ZM827.585 782.944H830.337C830.923 782.944 831.387 782.821 831.729 782.576C832.07 782.331 832.241 781.989 832.241 781.552C832.241 781.147 832.059 780.832 831.697 780.608C831.345 780.384 830.838 780.272 830.177 780.272H827.585V782.944ZM827.585 779.28H830.129C830.641 779.28 831.046 779.168 831.345 778.944C831.654 778.709 831.809 778.379 831.809 777.952C831.809 777.6 831.665 777.317 831.377 777.104C831.089 776.891 830.683 776.784 830.161 776.784H827.585V779.28ZM835.728 784V775.728H836.96V779.296H841.728V775.728H842.96V784H841.728V780.384H836.96V784H835.728ZM848.176 784.176C847.333 784.176 846.608 783.947 846 783.488C845.392 783.029 845.088 782.389 845.088 781.568C845.088 780.704 845.408 780.037 846.048 779.568C846.688 779.099 847.547 778.864 848.624 778.864C849.477 778.864 850.32 778.981 851.152 779.216V778.96C851.152 778.235 850.939 777.68 850.512 777.296C850.085 776.912 849.483 776.72 848.704 776.72C847.893 776.72 847.056 776.917 846.192 777.312L845.824 776.304C846.848 775.835 847.851 775.6 848.832 775.6C850.005 775.6 850.896 775.904 851.504 776.512C852.08 777.088 852.368 777.899 852.368 778.944V784H851.152V782.768C850.416 783.707 849.424 784.176 848.176 784.176ZM848.416 783.184C849.184 783.184 849.835 782.976 850.368 782.56C850.901 782.144 851.168 781.611 851.168 780.96V780.192C850.357 779.957 849.552 779.84 848.752 779.84C847.995 779.84 847.403 779.995 846.976 780.304C846.549 780.603 846.336 781.013 846.336 781.536C846.336 782.037 846.533 782.437 846.928 782.736C847.333 783.035 847.829 783.184 848.416 783.184ZM854.242 784L856.77 780.8C856.119 780.651 855.586 780.357 855.17 779.92C854.764 779.483 854.562 778.944 854.562 778.304C854.562 777.536 854.839 776.917 855.394 776.448C855.948 775.968 856.711 775.728 857.682 775.728H861.57V784H860.338V780.992H858.05C857.954 781.12 857.623 781.557 857.058 782.304C856.492 783.051 856.06 783.616 855.762 784H854.242ZM857.778 779.952H860.338V776.816H857.746C857.138 776.816 856.658 776.955 856.306 777.232C855.964 777.499 855.794 777.872 855.794 778.352C855.794 778.843 855.975 779.232 856.338 779.52C856.711 779.808 857.191 779.952 857.778 779.952ZM864.817 783.344L863.889 782.816L866.049 779.872L863.889 776.928L864.817 776.384L867.409 779.792V779.92L864.817 783.344ZM868.385 783.344L867.441 782.816L869.601 779.872L867.441 776.928L868.385 776.384L870.977 779.792V779.92L868.385 783.344Z" fill="white"/>
<g clip-path="url(#clip2_245_572)">
<path d="M784.5 760C796.926 760 807 749.926 807 737.5C807 725.074 796.926 715 784.5 715C772.074 715 762 725.074 762 737.5C762 749.926 772.074 760 784.5 760Z" fill="#F32735"/>
<path fill-rule="evenodd" clip-rule="evenodd" d="M795.211 743.485L789.138 728L784 737.053L778.883 728L772.789 743.485H771V745.833H780.194V743.485H778.821L780.152 739.629L784 746L787.848 739.629L789.179 743.485H787.806V745.833H797V743.485H795.211Z" fill="white"/>
</g>
<rect x="495" y="131.358" width="8" height="82.0449" rx="4" fill="#F32735"/>
<rect width="8.00028" height="61.0312" rx="4.00014" transform="matrix(0.967022 -0.254694 0.254272 0.967133 481 82.3314)" fill="#F32735"/>
<path d="M503.584 123V111.8H504.848V118.488L511.28 111.8H512.912L508.112 116.696L513.12 123H511.536L507.232 117.576L504.848 119.992V123H503.584ZM517.34 123.176C516.497 123.176 515.772 122.947 515.164 122.488C514.556 122.029 514.252 121.389 514.252 120.568C514.252 119.704 514.572 119.037 515.212 118.568C515.852 118.099 516.711 117.864 517.788 117.864C518.641 117.864 519.484 117.981 520.316 118.216V117.96C520.316 117.235 520.103 116.68 519.676 116.296C519.249 115.912 518.647 115.72 517.868 115.72C517.057 115.72 516.22 115.917 515.356 116.312L514.988 115.304C516.012 114.835 517.015 114.6 517.996 114.6C519.169 114.6 520.06 114.904 520.668 115.512C521.244 116.088 521.532 116.899 521.532 117.944V123H520.316V121.768C519.58 122.707 518.588 123.176 517.34 123.176ZM517.58 122.184C518.348 122.184 518.999 121.976 519.532 121.56C520.065 121.144 520.332 120.611 520.332 119.96V119.192C519.521 118.957 518.716 118.84 517.916 118.84C517.159 118.84 516.567 118.995 516.14 119.304C515.713 119.603 515.5 120.013 515.5 120.536C515.5 121.037 515.697 121.437 516.092 121.736C516.497 122.035 516.993 122.184 517.58 122.184ZM524.142 123V114.728H525.374V118.296H530.142V114.728H531.374V123H530.142V119.384H525.374V123H524.142ZM536.59 123.176C535.747 123.176 535.022 122.947 534.414 122.488C533.806 122.029 533.502 121.389 533.502 120.568C533.502 119.704 533.822 119.037 534.462 118.568C535.102 118.099 535.961 117.864 537.038 117.864C537.891 117.864 538.734 117.981 539.566 118.216V117.96C539.566 117.235 539.353 116.68 538.926 116.296C538.499 115.912 537.897 115.72 537.118 115.72C536.307 115.72 535.47 115.917 534.606 116.312L534.238 115.304C535.262 114.835 536.265 114.6 537.246 114.6C538.419 114.6 539.31 114.904 539.918 115.512C540.494 116.088 540.782 116.899 540.782 117.944V123H539.566V121.768C538.83 122.707 537.838 123.176 536.59 123.176ZM536.83 122.184C537.598 122.184 538.249 121.976 538.782 121.56C539.315 121.144 539.582 120.611 539.582 119.96V119.192C538.771 118.957 537.966 118.84 537.166 118.84C536.409 118.84 535.817 118.995 535.39 119.304C534.963 119.603 534.75 120.013 534.75 120.536C534.75 121.037 534.947 121.437 535.342 121.736C535.747 122.035 536.243 122.184 536.83 122.184ZM545.392 123V115.816H542.432V114.728H549.6V115.816H546.64V123H545.392ZM551.392 123V114.728H552.624V118.296H557.392V114.728H558.624V123H557.392V119.384H552.624V123H551.392ZM563.84 123.176C562.997 123.176 562.272 122.947 561.664 122.488C561.056 122.029 560.752 121.389 560.752 120.568C560.752 119.704 561.072 119.037 561.712 118.568C562.352 118.099 563.211 117.864 564.288 117.864C565.141 117.864 565.984 117.981 566.816 118.216V117.96C566.816 117.235 566.603 116.68 566.176 116.296C565.749 115.912 565.147 115.72 564.368 115.72C563.557 115.72 562.72 115.917 561.856 116.312L561.488 115.304C562.512 114.835 563.515 114.6 564.496 114.6C565.669 114.6 566.56 114.904 567.168 115.512C567.744 116.088 568.032 116.899 568.032 117.944V123H566.816V121.768C566.08 122.707 565.088 123.176 563.84 123.176ZM564.08 122.184C564.848 122.184 565.499 121.976 566.032 121.56C566.565 121.144 566.832 120.611 566.832 119.96V119.192C566.021 118.957 565.216 118.84 564.416 118.84C563.659 118.84 563.067 118.995 562.64 119.304C562.213 119.603 562 120.013 562 120.536C562 121.037 562.197 121.437 562.592 121.736C562.997 122.035 563.493 122.184 564.08 122.184ZM569.906 123L572.434 119.8C571.783 119.651 571.25 119.357 570.834 118.92C570.428 118.483 570.226 117.944 570.226 117.304C570.226 116.536 570.503 115.917 571.058 115.448C571.612 114.968 572.375 114.728 573.346 114.728H577.234V123H576.002V119.992H573.714C573.618 120.12 573.287 120.557 572.722 121.304C572.156 122.051 571.724 122.616 571.426 123H569.906ZM573.442 118.952H576.002V115.816H573.41C572.802 115.816 572.322 115.955 571.97 116.232C571.628 116.499 571.458 116.872 571.458 117.352C571.458 117.843 571.639 118.232 572.002 118.52C572.375 118.808 572.855 118.952 573.442 118.952ZM583.566 125.064V121.912H584.462C585.198 120.557 585.566 118.643 585.566 116.168V114.728H591.454V121.912H592.702L592.51 125.064H591.486V123H584.798L584.574 125.064H583.566ZM585.774 121.912H590.222V115.816H586.75V116.968C586.75 119.048 586.425 120.696 585.774 121.912ZM601.256 121.928C600.424 122.771 599.394 123.192 598.168 123.192C596.941 123.192 595.917 122.771 595.096 121.928C594.285 121.085 593.88 120.067 593.88 118.872C593.88 117.688 594.29 116.675 595.112 115.832C595.944 114.979 596.973 114.552 598.2 114.552C599.426 114.552 600.45 114.973 601.272 115.816C602.093 116.659 602.504 117.677 602.504 118.872C602.504 120.056 602.088 121.075 601.256 121.928ZM598.2 122.088C599.085 122.088 599.81 121.779 600.376 121.16C600.952 120.541 601.24 119.779 601.24 118.872C601.24 117.976 600.941 117.213 600.344 116.584C599.757 115.955 599.032 115.64 598.168 115.64C597.282 115.64 596.557 115.955 595.992 116.584C595.426 117.203 595.144 117.965 595.144 118.872C595.144 119.768 595.437 120.531 596.024 121.16C596.61 121.779 597.336 122.088 598.2 122.088ZM604.735 125.56V114.728H605.967V116.392C606.799 115.165 607.855 114.552 609.135 114.552C610.191 114.552 611.114 114.947 611.903 115.736C612.693 116.515 613.087 117.56 613.087 118.872C613.087 120.163 612.693 121.203 611.903 121.992C611.114 122.781 610.191 123.176 609.135 123.176C607.834 123.176 606.778 122.589 605.967 121.416V125.56H604.735ZM608.911 122.072C609.743 122.072 610.437 121.784 610.991 121.208C611.546 120.621 611.823 119.837 611.823 118.856C611.823 117.907 611.541 117.139 610.975 116.552C610.41 115.955 609.722 115.656 608.911 115.656C608.111 115.656 607.413 115.96 606.815 116.568C606.218 117.176 605.919 117.944 605.919 118.872C605.919 119.8 606.218 120.568 606.815 121.176C607.413 121.773 608.111 122.072 608.911 122.072ZM622.224 121.928C621.392 122.771 620.363 123.192 619.136 123.192C617.91 123.192 616.886 122.771 616.064 121.928C615.254 121.085 614.848 120.067 614.848 118.872C614.848 117.688 615.259 116.675 616.08 115.832C616.912 114.979 617.942 114.552 619.168 114.552C620.395 114.552 621.419 114.973 622.24 115.816C623.062 116.659 623.472 117.677 623.472 118.872C623.472 120.056 623.056 121.075 622.224 121.928ZM619.168 122.088C620.054 122.088 620.779 121.779 621.344 121.16C621.92 120.541 622.208 119.779 622.208 118.872C622.208 117.976 621.91 117.213 621.312 116.584C620.726 115.955 620 115.64 619.136 115.64C618.251 115.64 617.526 115.955 616.96 116.584C616.395 117.203 616.112 117.965 616.112 118.872C616.112 119.768 616.406 120.531 616.992 121.16C617.579 121.779 618.304 122.088 619.168 122.088ZM625.704 123V114.728H631.32V115.816H626.936V123H625.704ZM635.574 123.176C634.732 123.176 634.006 122.947 633.398 122.488C632.79 122.029 632.486 121.389 632.486 120.568C632.486 119.704 632.806 119.037 633.446 118.568C634.086 118.099 634.945 117.864 636.022 117.864C636.876 117.864 637.718 117.981 638.55 118.216V117.96C638.55 117.235 638.337 116.68 637.91 116.296C637.484 115.912 636.881 115.72 636.102 115.72C635.292 115.72 634.454 115.917 633.59 116.312L633.222 115.304C634.246 114.835 635.249 114.6 636.23 114.6C637.404 114.6 638.294 114.904 638.902 115.512C639.478 116.088 639.766 116.899 639.766 117.944V123H638.55V121.768C637.814 122.707 636.822 123.176 635.574 123.176ZM635.814 122.184C636.582 122.184 637.233 121.976 637.766 121.56C638.3 121.144 638.566 120.611 638.566 119.96V119.192C637.756 118.957 636.95 118.84 636.15 118.84C635.393 118.84 634.801 118.995 634.374 119.304C633.948 119.603 633.734 120.013 633.734 120.536C633.734 121.037 633.932 121.437 634.326 121.736C634.732 122.035 635.228 122.184 635.814 122.184Z" fill="white"/>
<rect x="279" y="384.986" width="111" height="9.02864" rx="4.51432" fill="#AF1917"/>
<rect x="405" y="384.986" width="46" height="9.02864" rx="4.51432" fill="#AF1917"/>
<rect x="398" y="384.986" width="41" height="32.1018" rx="5" fill="#AF1917"/>
<path d="M370.088 458.219H339.913C336.647 458.219 334 460.494 334 463.302V489.249C334 492.057 336.647 494.333 339.913 494.333H370.088C373.353 494.333 376 492.057 376 489.249V463.302C376 460.494 373.353 458.219 370.088 458.219Z" fill="#AF1917"/>
<defs>
<clipPath id="clip0_245_572">
<rect width="45" height="45" fill="white" transform="translate(184 421.101)"/>
</clipPath>
<clipPath id="clip1_245_572">
<rect width="45" height="45" fill="white" transform="translate(587 714)"/>
</clipPath>
<clipPath id="clip2_245_572">
<rect width="45" height="45" fill="white" transform="translate(762 715)"/>
</clipPath>
</defs>
</svg>
