<svg width="1232" height="784" viewBox="0 0 1232 784" fill="none" xmlns="http://www.w3.org/2000/svg">
<path d="M614 703.7V620.9L993.4 618L1177 685.8L1175.1 711L972.9 672.9L816.2 670.5L614 703.7Z" fill="#2D74CA"/>
<path d="M791 359H282V426H791V359Z" fill="#2D74CA"/>
<path d="M549 191H525V393H549V191Z" fill="#2D74CA"/>
<path d="M543.331 292H530.669C524.786 292 520 287.2 520 281.2V212.8C520 206.8 524.786 202 530.669 202H543.331C549.214 202 554 206.8 554 212.8V281.2C554 287.2 549.214 292 543.331 292Z" fill="#2D74CA"/>
<path d="M554 317H523C479.9 317 445 351.9 445 395C445 438.1 479.9 473 523 473H554C597.1 473 632 438.1 632 395C632 351.9 597 317 554 317Z" fill="#2D74CA"/>
<path d="M537 706C512.1 706 492 685.9 492 661.1V454H582V661.1C582 685.9 561.8 706 537 706Z" fill="#2D74CA"/>
<path d="M1002 454H921V618H1002V454Z" fill="#2D74CA"/>
<path d="M911 582H835V607H911V582Z" fill="#2D74CA"/>
<path d="M1056 626C1042.2 626 1031 614.9 1031 601.1V550.9C1031 537.2 1042.2 526 1056 526C1069.8 526 1081 537.1 1081 550.9V601.1C1081 614.9 1069.8 626 1056 626Z" fill="#2D74CA"/>
<path d="M1090 544H1077V610H1090V544Z" fill="#2D74CA"/>
<path d="M1120 533H1090V611H1120V533Z" fill="#2D74CA"/>
<path d="M1117 618H1083V636H1117V618Z" fill="#2D74CA"/>
<path d="M1095 482H1071V518H1095V482Z" fill="#2D74CA"/>
<path d="M1067 482H1044V518H1067V482Z" fill="#2D74CA"/>
<path d="M919 430H890V454H919V430Z" fill="#2D74CA"/>
<path d="M818 268H707V325H818V268Z" fill="#2D74CA"/>
<path d="M818 323H724V340H818V323Z" fill="#2D74CA"/>
<path d="M758 336H728V360H758V336Z" fill="#2D74CA"/>
<path d="M435 542H282V591H435V542Z" fill="#2D74CA"/>
<path d="M324 589H311V599H324V589Z" fill="#2D74CA"/>
<path d="M470 585H459V596H470V585Z" fill="#2D74CA"/>
<path d="M356.774 524H310.225C296.811 524 286 513.3 286 500C286 486.7 296.911 476 310.225 476H356.774C370.188 476 380.999 486.7 380.999 500C381.099 513.3 370.188 524 356.774 524Z" fill="#2D74CA"/>
<path d="M359 519H303V543H359V519Z" fill="#2D74CA"/>
<path d="M660 551H598V616H660V551Z" fill="#2D74CA"/>
<path d="M660 533H629V557H660V533Z" fill="#2D74CA"/>
<path d="M767 543H660V586H767V543Z" fill="#2D74CA"/>
<path d="M766 522H713V548H766V522Z" fill="#2D74CA"/>
<path d="M765.8 525H719.2C705.3 525 694 513.8 694 500C694 486.2 705.3 475 719.2 475H765.8C779.7 475 791 486.2 791 500C791 513.8 779.7 525 765.8 525Z" fill="#2D74CA"/>
<path d="M285 388H235V402H285V388Z" fill="#2D74CA"/>
<path d="M226 617L216.1 555H194.9L157.2 522.1L191.6 439.9L145.4 423L106.8 511.8C106.8 511.8 92.2 518.4 89.4 531.3C86.6 544.2 93.2 564.4 93.2 564.4L73.9 563L60 614.8L226 617Z" fill="#2D74CA"/>
<path d="M418.8 205L396 210.3L402.2 236L425 230.7L418.8 205Z" fill="#2D74CA"/>
<path d="M241.7 288L224 302.9L241.3 323L259 308.1L241.7 288Z" fill="#2D74CA"/>
<path d="M650.6 193L648 219.7L671.4 222L674 195.3L650.6 193Z" fill="#2D74CA"/>
<path d="M655.9 292L631 314.7L644.1 329L669 306.3L655.9 292Z" fill="#2D74CA"/>
<path d="M619.3 327L604 340.7L613.7 351L629 337.3L619.3 327Z" fill="#2D74CA"/>
<path d="M420.2 292L407 306.4L432.8 330L446 315.6L420.2 292Z" fill="#2D74CA"/>
<path d="M458.5 329L449 339.5L462.5 352L472 341.5L458.5 329Z" fill="#2D74CA"/>
<path d="M680.3 307L655 330.5L673.7 351L699 327.5L680.3 307Z" fill="#2D74CA"/>
<path d="M616.6 235L597 268.8L644.3 296L664 262.2L616.6 235Z" fill="#2D74CA"/>
<path d="M910.2 263L897 286.3L916.8 298L930 274.7L910.2 263Z" fill="#2D74CA"/>
<path d="M1117 478L1098 489L1109 508L1128 497L1117 478Z" fill="#2D74CA"/>
<path d="M474.3 196L436 202.3L438.7 219L477 212.7L474.3 196Z" fill="#2D74CA"/>
<path d="M708.5 198L705 214.8L743.5 223L747 206.2L708.5 198Z" fill="#2D74CA"/>
<path d="M781 439H751V465H781V439Z" fill="#2D74CA"/>
<path d="M732 439H702V465H732V439Z" fill="#2D74CA"/>
<path d="M872.6 421L845 448.6L864.4 468L892 440.4L872.6 421Z" fill="#2D74CA"/>
<path d="M915 465H873V552H915V465Z" fill="#2D74CA"/>
<path d="M448.2 491L435 513.9L469.8 534L483 511.1L448.2 491Z" fill="#2D74CA"/>
<path d="M406.3 436L384 450.3L405.7 484L428 469.7L406.3 436Z" fill="#2D74CA"/>
<path d="M669.7 436L648 469.7L670.3 484L692 450.3L669.7 436Z" fill="#2D74CA"/>
<path d="M437 465L415 487L428 500L450 478L437 465Z" fill="#2D74CA"/>
<path d="M472.9 434L451 455.9L459.1 464L481 442.1L472.9 434Z" fill="#2D74CA"/>
<path d="M635 467L622 480L644 502L657 489L635 467Z" fill="#2D74CA"/>
<path d="M599.1 435L591 443.1L612.9 465L621 456.9L599.1 435Z" fill="#2D74CA"/>
<path d="M592 311.9L578.5 306.6L562 304H513.3L495.7 307.4L483 311.8V354H592V311.9Z" fill="#2D74CA"/>
<path d="M503 194H490V274H503V194Z" fill="#2D74CA"/>
<path d="M583 223H570V273H583V223Z" fill="#2D74CA"/>
<path d="M583 204H570V220H583V204Z" fill="#2D74CA"/>
<path d="M502 287.5C502 284.5 499.5 282 496.5 282C493.5 282 491 284.5 491 287.5C491 290.5 493.5 293 496.5 293C499.5 293 502 290.5 502 287.5Z" fill="#2D74CA"/>
<path d="M582 287.5C582 284.5 579.5 282 576.5 282C573.5 282 571 284.5 571 287.5C571 290.5 573.5 293 576.5 293C579.5 293 582 290.5 582 287.5Z" fill="#2D74CA"/>
<path d="M750.362 207C748.859 212.516 752.165 218.233 757.876 219.637C763.586 221.141 769.497 217.832 771 212.315" fill="#2D74CA"/>
<path d="M338 233.69C339.904 239.281 346.015 242.276 351.626 240.479C357.237 238.582 360.343 232.591 358.439 227" fill="#2D74CA"/>
<path d="M370 439H342V465H370V439Z" fill="#2D74CA"/>
<path d="M796.2 412H787V379H796.2C805.5 379 813 386.4 813 395.5C813 404.6 805.5 412 796.2 412Z" fill="#2D74CA"/>
<path d="M850 388H808V402H845.3L850 388Z" fill="#2D74CA"/>
<path d="M1068 392H845V398H1068V392Z" fill="#2D74CA"/>
<path d="M970 297H963V459H970V297Z" fill="#2D74CA"/>
<path d="M948 374C948 371.8 946.2 370 944 370C941.8 370 940 371.8 940 374C940 376.2 941.8 378 944 378C946.2 378 948 376.2 948 374Z" fill="#2D74CA"/>
<path d="M991 373C991 370.8 989.2 369 987 369C984.8 369 983 370.8 983 373C983 375.2 984.8 377 987 377C989.2 377 991 375.2 991 373Z" fill="#2D74CA"/>
<path d="M949 416C949 413.8 947.2 412 945 412C942.8 412 941 413.8 941 416C941 418.2 942.8 420 945 420C947.2 420 949 418.2 949 416Z" fill="#2D74CA"/>
<path d="M991 417C991 414.8 989.2 413 987 413C984.8 413 983 414.8 983 417C983 419.2 984.8 421 987 421C989.2 421 991 419.2 991 417Z" fill="#2D74CA"/>
<path d="M966 356C962.1 356 959 359.2 959 363.1V367H973V363.1C973 359.2 969.8 356 966 356Z" fill="#2D74CA"/>
<path d="M1029 490H998V518H1029V490Z" fill="#2D74CA"/>
<path d="M1039 572H1024V582H1039V572Z" fill="#2D74CA"/>
<path d="M244.659 606.304L264.469 537.227C267.771 525.631 265.67 513.136 258.766 503.239L238.456 474.449C231.853 465.052 230.653 452.756 235.355 442.26L241.858 424.266V368.285L199.137 326L157.217 375.383L123 429.464L166.421 411.871C169.523 410.571 172.824 410.071 176.226 410.171L195.836 411.171C200.038 411.371 203.539 414.57 204.14 418.768L233.454 617H246.26L244.659 606.304Z" fill="#2D74CA"/>
<path d="M866.8 243L777 618.3L784.2 620L874 244.7L866.8 243Z" fill="#2D74CA"/>
<path d="M881.6 244L792 619.4L794.4 620L884 244.6L881.6 244Z" fill="#2D74CA"/>
<path d="M855.6 244L766 619.4L768.4 620L858 244.6L855.6 244Z" fill="#2D74CA"/>
<path d="M787.042 625L793.76 597.032C794.863 592.622 792.055 588.211 787.644 587.209C783.232 586.206 778.72 588.913 777.718 593.223L771 621.191L787.042 625Z" fill="#2D74CA"/>
<path d="M820 566H811V605H820V566Z" fill="#2D74CA"/>
<path d="M828 591H816V606H828V591Z" fill="#2D74CA"/>
<path d="M461 733.7L458.7 621H239L259.4 755L373 745L461 733.7Z" fill="#2D74CA"/>
<path d="M349.7 232L348 233.7L430.3 317L432 315.3L349.7 232Z" fill="#2D74CA"/>
<path d="M514 191H512V308H514V191Z" fill="#2D74CA"/>
<path d="M563 189H561V318H563V189Z" fill="#2D74CA"/>
<path d="M593 189H591V329H593V189Z" fill="#2D74CA"/>
<path d="M484 194H482V335H484V194Z" fill="#2D74CA"/>
<path d="M576 286H497V288H576V286Z" fill="#2D74CA"/>
<path d="M578 261H500V263H578V261Z" fill="#2D74CA"/>
<path d="M575 236H498V238H575V236Z" fill="#2D74CA"/>
<path d="M578 211H498V213H578V211Z" fill="#2D74CA"/>
<path d="M556.6 487H520.4C469.4 487 428 445.5 428 394.5C428 343.5 469.5 302 520.4 302H556.6C607.6 302 649 343.5 649 394.5C649 445.5 607.5 487 556.6 487ZM520.4 304.5C470.8 304.5 430.4 344.9 430.4 394.5C430.4 444.1 470.8 484.5 520.4 484.5H556.6C606.2 484.5 646.6 444.1 646.6 394.5C646.6 344.9 606.2 304.5 556.6 304.5H520.4Z" fill="#2D74CA"/>
<path d="M560.158 503H517.942C458.419 503 410 454.577 410 395.049C410 349.127 439.111 308.208 482.328 293.101L483.228 295.802C441.112 310.509 412.801 350.428 412.801 395.049C412.801 452.976 459.919 500.199 517.842 500.199H560.058C617.981 500.199 665.099 453.076 665.099 395.049C665.099 348.727 635.487 308.408 591.27 294.701L592.171 292C637.488 306.107 668 347.526 668 395.149C668.1 454.577 619.681 503 560.158 503Z" fill="#2D74CA"/>
<path d="M757.1 213L655 302.8L656.9 305L759 215.2L757.1 213Z" fill="#2D74CA"/>
<path d="M762 214H759V274H762V214Z" fill="#2D74CA"/>
<path d="M667.1 293L665 294.9L688.9 321L691 319.1L667.1 293Z" fill="#2D74CA"/>
<path d="M635.1 314L617 330.9L618.9 333L637 316.1L635.1 314Z" fill="#2D74CA"/>
<path d="M641.1 320L623 336.9L624.9 339L643 322.1L641.1 320Z" fill="#2D74CA"/>
<path d="M443.7 319L442 320.8L456.3 334L458 332.2L443.7 319Z" fill="#2D74CA"/>
<path d="M438.6 324L437 325.9L450.4 339L452 337.1L438.6 324Z" fill="#2D74CA"/>
<path d="M578 216H576V286H578V216Z" fill="#2D74CA"/>
<path d="M497 267H495V286H497V267Z" fill="#2D74CA"/>
<path d="M409.8 478L408 479.7L439.2 513L441 511.3L409.8 478Z" fill="#2D74CA"/>
<path d="M453.3 456L438 470.2L439.7 472L455 457.8L453.3 456Z" fill="#2D74CA"/>
<path d="M445.7 476L444 474.2L459.3 459L461 460.8L445.7 476Z" fill="#2D74CA"/>
<path d="M616.8 463L615 464.7L636.2 487L638 485.3L616.8 463Z" fill="#2D74CA"/>
<path d="M619.7 459L618 460.7L637.3 480L639 478.3L619.7 459Z" fill="#2D74CA"/>
<path d="M634.7 511L633 509.2L666.3 477L668 478.8L634.7 511Z" fill="#2D74CA"/>
<path d="M702.3 546L650 494.8L651.7 493L704 544.2L702.3 546Z" fill="#2D74CA"/>
<path d="M420.7 484L367 518.9L368.3 521L422 486.1L420.7 484Z" fill="#2D74CA"/>
<path d="M439 483L398 544.6L400 546L441 484.4L439 483Z" fill="#2D74CA"/>
<path d="M499 542H424V544H499V542Z" fill="#2D74CA"/>
<path d="M500 589H430V591H500V589Z" fill="#2D74CA"/>
<path d="M609 575L576 588.8L577 591L610 577.2L609 575Z" fill="#2D74CA"/>
<path d="M961 575H803V577H961V575Z" fill="#2D74CA"/>
<path d="M932 566H805V568H932V566Z" fill="#2D74CA"/>
<path d="M1050 571H998V573H1050V571Z" fill="#2D74CA"/>
<path d="M1044 580H1000V582H1044V580Z" fill="#2D74CA"/>
<path d="M1048.3 534L1024 509.7L1025.7 508L1050 532.3L1048.3 534Z" fill="#2D74CA"/>
<path d="M1080.5 511L1078 511.5L1085.5 548L1088 547.5L1080.5 511Z" fill="#2D74CA"/>
<path d="M1145 540H1115V542H1145V540Z" fill="#2D74CA"/>
<path d="M1161.4 602L1110 658.7L1113.6 662L1165 605.3L1161.4 602Z" fill="#2D74CA"/>
<path d="M1000.4 461H998V429.351L998.699 429.05L1065.9 397L1067 399.203L1000.5 430.953V461H1000.4Z" fill="#2D74CA"/>
<path d="M892 439H889.5V423.5H840V421H892V439Z" fill="#2D74CA"/>
<path d="M885 447H883V475H885V447Z" fill="#2D74CA"/>
<path d="M926 459H916V447H918.5V456.6H926V459Z" fill="#2D74CA"/>
<path d="M854 358H758V360H854V358Z" fill="#2D74CA"/>
<path d="M818.5 321L818 323.3L836.5 327L837 324.7L818.5 321Z" fill="#2D74CA"/>
<path d="M833.5 343L833 345.6L857.5 351L858 348.4L833.5 343Z" fill="#2D74CA"/>
<path d="M813.5 431L813 433.5L837.5 439L838 436.4L813.5 431Z" fill="#2D74CA"/>
<path d="M798.5 492L798 494.5L822.5 500L823 497.4L798.5 492Z" fill="#2D74CA"/>
<path d="M781.5 556L781 558.5L805.5 564L806 561.4L781.5 556Z" fill="#2D74CA"/>
<path d="M774.5 589L774 591.6L798.5 597L799 594.5L774.5 589Z" fill="#2D74CA"/>
<path d="M772.5 595L772 597.5L796.5 603L797 600.4L772.5 595Z" fill="#2D74CA"/>
<path d="M844.5 293L844 295.6L868.5 301L869 298.4L844.5 293Z" fill="#2D74CA"/>
<path d="M890 550H888V590H890V550Z" fill="#2D74CA"/>
<path d="M870 567H868V575H870V567Z" fill="#2D74CA"/>
<path d="M741 424H739V491H741V424Z" fill="#2D74CA"/>
<path d="M769 451H728V453H769V451Z" fill="#2D74CA"/>
<path d="M814 423H787V425H814V423Z" fill="#2D74CA"/>
<path d="M334 420H332V515H334V420Z" fill="#2D74CA"/>
<path d="M354 449H322V451H354V449Z" fill="#2D74CA"/>
<path d="M284 407H242V409H284V407Z" fill="#2D74CA"/>
<path d="M288 380H240V382H288V380Z" fill="#2D74CA"/>
<path d="M309 424H238V426H309V424Z" fill="#2D74CA"/>
<path d="M239.7 424L238 425.8L298.3 484L300 482.2L239.7 424Z" fill="#2D74CA"/>
<path d="M265.4 425L257 510.8L259.6 511L268 425.2L265.4 425Z" fill="#2D74CA"/>
<path d="M253 610.5C253 606.4 249.6 603 245.5 603C241.4 603 238 606.4 238 610.5C238 614.6 241.4 618 245.5 618C249.6 618 253 614.6 253 610.5Z" fill="#2D74CA"/>
<path d="M286 587L247 604.8L248 607L287 589.2L286 587Z" fill="#2D74CA"/>
<path d="M303 542H261V544H303V542Z" fill="#2D74CA"/>
<path d="M291 365H253.6C249.8 365 246.2 363.4 243.6 360.7L205 320.7L206.8 319L245.4 359C247.5 361.2 250.5 362.5 253.6 362.5H291V365Z" fill="#2D74CA"/>
<path d="M246 749L226.5 617L66.8 620.4L57 733.9L147.8 745.2L246 749Z" fill="#2D74CA"/>
<path d="M495 659H459V661H495V659Z" fill="#2D74CA"/>
<path d="M613 659H577V661H613V659Z" fill="#2D74CA"/>
<path d="M96.7 546L75 548.6L75.3 551L97 548.4L96.7 546Z" fill="#2D74CA"/>
<path d="M93 497L92 499.3L117 511L118 508.7L93 497Z" fill="#2D74CA"/>
<path d="M96.9 486L96 488.3L120.1 497L121 494.7L96.9 486Z" fill="#2D74CA"/>
<path d="M196.4 408L194 408.3L216.6 576L219 575.7L196.4 408Z" fill="#2D74CA"/>
<path d="M224.5 552L216 553.6L216.5 556L225 554.4L224.5 552Z" fill="#2D74CA"/>
<path d="M217.5 502L208 503.6L208.5 506L218 504.4L217.5 502Z" fill="#2D74CA"/>
<path d="M966.5 426C949.1 426 935 411.9 935 394.5C935 377.1 949.1 363 966.5 363C983.9 363 998 377.1 998 394.5C998 411.9 983.8 426 966.5 426ZM966.5 365.5C950.5 365.5 937.5 378.5 937.5 394.5C937.5 410.5 950.5 423.5 966.5 423.5C982.5 423.5 995.5 410.5 995.5 394.5C995.5 378.5 982.5 365.5 966.5 365.5Z" fill="#2D74CA"/>
<path d="M974.171 413H958.829L948 402.2V386.8L958.829 376H974.171L985 386.8V402.1L974.171 413ZM959.832 410.5H973.168L982.594 401.1V387.8L973.168 378.4H959.832L950.406 387.8V401.1L959.832 410.5Z" fill="#2D74CA"/>
<path d="M985.3 373L977 381.3L978.7 383L987 374.7L985.3 373Z" fill="#2D74CA"/>
<path d="M945.7 374L944 375.7L952.3 384L954 382.3L945.7 374Z" fill="#2D74CA"/>
<path d="M952.2 405L944 413.2L945.8 415L954 406.8L952.2 405Z" fill="#2D74CA"/>
<path d="M978.8 407L977 408.8L985.2 417L987 415.2L978.8 407Z" fill="#2D74CA"/>
<path d="M1190 714.055H1189.9V724.166C1163.7 716.157 1021.4 675.213 858.7 675.213C774.5 675.213 693.4 692.732 607.6 711.252C505.6 733.276 400.1 756 270.2 756C93.4 756 40.2 737.18 38 736.379L40.1 730.673L42.2 724.867C42.4 724.967 44.2 725.567 48 726.568C49.4 726.969 51 727.369 52.9 727.77C75.8 733.075 138.5 743.787 270.1 743.787C398.7 743.787 503.5 721.163 604.9 699.239C607.9 698.538 610.9 697.938 613.9 697.337C697.1 679.418 776.1 663 858.6 663C999.3 663 1125 693.333 1175 707.147C1175.1 707.147 1175.2 707.248 1175.3 707.248C1176.9 707.648 1178.4 708.149 1179.9 708.549C1181.3 708.949 1182.7 709.35 1183.9 709.65C1186 710.251 1188 710.851 1189.6 711.352C1189.7 711.352 1189.7 711.352 1189.8 711.352V712.754L1190 714.055Z" fill="#9AC8FF"/>
<path d="M198.115 309L186 310.9L253.885 756L266 754.1L198.115 309Z" fill="#9AC8FF"/>
<path d="M1173.4 692L1013.3 633.8C1001.5 629.5 989.1 627.3 976.6 627.3H59V615H976.6C990.6 615 1004.4 617.4 1017.5 622.2L1177 680.2L1173.4 692Z" fill="#9AC8FF"/>
<path d="M1190 714H1184V700H1188.6L1189.7 711.3L1189.8 712.7L1190 714Z" fill="#9AC8FF"/>
<path d="M38.3 737L38 715H43V731.2L38.3 737Z" fill="#9AC8FF"/>
<path d="M48.0719 730C48.0719 729.4 46.0717 668.7 63.1736 589.2C78.7754 515.8 114.479 410.8 194.788 327.5C285.399 233.6 413.013 186 574.031 186C699.746 186 808.958 208.6 898.568 253.1C973.077 290.1 1034.58 342.5 1081.49 408.8C1177.3 544.3 1180 693.7 1180 710.3H1175.1C1175.1 693.9 1172.4 546 1077.49 411.7C1031.08 346.1 970.176 294.2 896.368 257.5C807.458 213.3 698.946 190.9 574.031 190.9C414.313 190.9 287.899 238 198.289 330.9C118.78 413.3 83.4759 517.3 67.8741 590.1C50.9722 669 52.8724 729.2 52.8724 729.8L48.0719 730Z" fill="#9AC8FF"/>
<path d="M38.0726 719C38.0726 718.4 36.0727 658.7 53.0716 580.3C68.7706 507.9 104.168 404.2 184.163 321.2C276.458 225.5 407.249 177 572.939 177C700.731 177 811.724 199.5 902.818 243.9C978.613 280.8 1041.11 333 1088.81 399.1C1125.8 450.4 1153.4 509.2 1170.7 573.8C1187.2 635.4 1189 682.2 1189 699.5H1184.1C1184.1 683.1 1181.3 535.8 1084.91 402C1037.71 336.6 975.813 284.9 900.818 248.4C810.424 204.3 700.131 182 573.039 182C408.749 182 279.157 230 187.863 324.7C144.166 370 86.1695 451.3 58.0713 581.3C41.2724 659.1 43.1722 718.3 43.1722 718.9L38.0726 719Z" fill="#9AC8FF"/>
<path d="M789 534H765V536H789V534Z" fill="#2D74CA"/>
<path d="M557.5 332H514.5C481.1 332 454 359.1 454 392.5C454 425.9 481.1 453 514.5 453H557.5C590.9 453 618 425.9 618 392.5C618 359.1 590.9 332 557.5 332Z" fill="#134178"/>
<path d="M786 362H682V420H786V362Z" fill="#134178"/>
<path d="M390 362H286V420H390V362Z" fill="#134178"/>
<path d="M926 330H868V378H926V330Z" fill="#134178"/>
<path d="M909 470H879V547H909V470Z" fill="#134178"/>
<path d="M995 461H928V548H995V461Z" fill="#134178"/>
<path d="M764 526H717V540H764V526Z" fill="#134178"/>
<path d="M354 526H307V540H354V526Z" fill="#134178"/>
<path d="M652 554H603V591H652V554Z" fill="#134178"/>
<path d="M136.4 576H119.6C108.8 576 100 567.2 100 556.4V539.6C100 528.8 108.8 520 119.6 520H136.4C147.2 520 156 528.8 156 539.6V556.4C156 567.2 147.2 576 136.4 576Z" fill="#134178"/>
<path d="M513 599H504V611H513V599Z" fill="#134178"/>
<path d="M572 599H563V611H572V599Z" fill="#134178"/>
<path d="M538.5 694C520 694 505 679.2 505 660.9V626H511.7V660.9C511.7 675.5 523.7 687.3 538.5 687.3C553.3 687.3 565.3 675.4 565.3 660.9V626H572V660.9C572 679.2 556.9 694 538.5 694Z" fill="#134178"/>
<path d="M517 627V662.9C517 674.6 526.4 684 538 684C549.6 684 559 674.5 559 662.9V627" fill="#134178"/>
<path d="M486 629H474V658H486V629Z" fill="#134178"/>
<path d="M640 640H621V679H640V640Z" fill="#134178"/>
<path d="M453 642H393V665H453V642Z" fill="#134178"/>
<path d="M484.8 609H478C478 601.8 483.8 596 491 596V602.8C487.6 602.8 484.8 605.6 484.8 609Z" fill="#134178"/>
<path d="M596 609H589.2C589.2 605.6 586.4 602.8 583 602.8V596C590.1 596 596 601.8 596 609Z" fill="#134178"/>
<path d="M483.6 667L474 668.9L478.4 691L488 689.1L483.6 667Z" fill="#134178"/>
<path d="M597 667L593 689.3L603 691L607 668.7L597 667Z" fill="#134178"/>
<path d="M828 594H817V602H828V594Z" fill="#134178"/>
<path d="M503 241H491V270H503V241Z" fill="#134178"/>
<path d="M503 199H491V228H503V199Z" fill="#134178"/>
<path d="M585 241H573V270H585V241Z" fill="#134178"/>
<path d="M215 588H195V602H215V588Z" fill="#134178"/>
<path d="M110 604H90V614H110V604Z" fill="#134178"/>
<path d="M509 490H503V507H509V490Z" fill="#134178"/>
<path d="M509 510H503V527H509V510Z" fill="#134178"/>
<path d="M509 530H503V547H509V530Z" fill="#134178"/>
<path d="M509 549H503V566H509V549Z" fill="#134178"/>
<path d="M509 569H503V586H509V569Z" fill="#134178"/>
<path d="M516.5 585.2C516.5 582.2 518.9 579.7 522 579.7V574.5C519 574.5 516.5 572 516.5 569H511V586H516.6C516.6 585.7 516.5 585.4 516.5 585.2Z" fill="#134178"/>
<path d="M516.5 565.2C516.5 562.2 518.9 559.7 522 559.7V554.5C519 554.5 516.5 552 516.5 549H511V566H516.6C516.6 565.7 516.5 565.4 516.5 565.2Z" fill="#134178"/>
<path d="M516.5 546.2C516.5 543.2 518.9 540.7 522 540.7V535.5C519 535.5 516.5 533 516.5 530H511V547H516.6C516.6 546.7 516.5 546.4 516.5 546.2Z" fill="#134178"/>
<path d="M516.5 526.2C516.5 523.2 518.9 520.7 522 520.7V515.5C519 515.5 516.5 513 516.5 510H511V527H516.6C516.6 526.7 516.5 526.4 516.5 526.2Z" fill="#134178"/>
<path d="M516.5 506.2C516.5 503.2 518.9 500.7 522 500.7V495.5C519 495.5 516.5 493 516.5 490H511V507H516.6C516.6 506.7 516.5 506.4 516.5 506.2Z" fill="#134178"/>
<path d="M573 490H567V507H573V490Z" fill="#134178"/>
<path d="M573 510H567V527H573V510Z" fill="#134178"/>
<path d="M573 530H567V547H573V530Z" fill="#134178"/>
<path d="M573 549H567V566H573V549Z" fill="#134178"/>
<path d="M573 569H567V586H573V569Z" fill="#134178"/>
<path d="M558.5 585.2C558.5 582.2 556.1 579.7 553 579.7V574.5C556 574.5 558.5 572 558.5 569H564V586H558.4C558.5 585.7 558.5 585.4 558.5 585.2Z" fill="#134178"/>
<path d="M558.5 565.2C558.5 562.2 556.1 559.7 553 559.7V554.5C556 554.5 558.5 552 558.5 549H564V566H558.4C558.5 565.7 558.5 565.4 558.5 565.2Z" fill="#134178"/>
<path d="M558.5 546.2C558.5 543.2 556.1 540.7 553 540.7V535.5C556 535.5 558.5 533 558.5 530H564V547H558.4C558.5 546.7 558.5 546.4 558.5 546.2Z" fill="#134178"/>
<path d="M558.5 526.2C558.5 523.2 556.1 520.7 553 520.7V515.5C556 515.5 558.5 513 558.5 510H564V527H558.4C558.5 526.7 558.5 526.4 558.5 526.2Z" fill="#134178"/>
<path d="M558.5 506.2C558.5 503.2 556.1 500.7 553 500.7V495.5C556 495.5 558.5 493 558.5 490H564V507H558.4C558.5 506.7 558.5 506.4 558.5 506.2Z" fill="#134178"/>
<path d="M242.9 294L230 305L240.1 317L253 306L242.9 294Z" fill="#134178"/>
<path d="M417.4 212L401 215.9L404.6 231L421 227.1L417.4 212Z" fill="#134178"/>
<path d="M472.4 200L441 205.2L442.6 215L474 209.8L472.4 200Z" fill="#134178"/>
<path d="M652.6 201L651 216.4L668.4 218L670 202.6L652.6 201Z" fill="#134178"/>
<path d="M908 273L900 286.5L915 295L923 281.5L908 273Z" fill="#134178"/>
<path d="M1114.5 482L1101 490L1109.5 505L1123 497L1114.5 482Z" fill="#134178"/>
<path d="M711 203L709 212.5L740 219L742 209.5L711 203Z" fill="#134178"/>
<path d="M537.5 677C529.5 677 523 670.5 523 662.5C523 654.5 529.5 648 537.5 648C545.5 648 552 654.5 552 662.5C552 670.5 545.5 677 537.5 677ZM537.5 650.4C530.8 650.4 525.4 655.8 525.4 662.5C525.4 669.2 530.8 674.6 537.5 674.6C544.2 674.6 549.6 669.2 549.6 662.5C549.6 655.9 544.1 650.4 537.5 650.4Z" fill="#2D74CA"/>
<path d="M525 627H523V663H525V627Z" fill="#2D74CA"/>
<path d="M552 627H550V663H552V627Z" fill="#2D74CA"/>
<path d="M525 662H515V664H525V662Z" fill="#2D74CA"/>
<path d="M561 661H551V663H561V661Z" fill="#2D74CA"/>
<path d="M1231.47 731.299C1220.58 729.799 1202.08 727.799 1202.08 727.799C1197.58 643.585 1181.88 566.672 1155.49 499.361C1131.09 437.05 1097.2 382.241 1054.91 336.434C978.121 253.32 872.94 199.611 750.863 181.008C654.08 166.305 538.801 155.204 416.524 184.408C327.14 205.812 251.254 247.819 191.065 309.329C142.674 358.737 104.181 420.748 76.486 493.76C28.7947 619.181 29.8945 734.8 29.8945 736C29.8945 736 9.89819 731.199 0 727.699C0.59989 697.694 5.79894 595.977 47.9912 484.058C77.0859 406.945 117.878 341.234 169.169 288.726C233.457 222.915 314.342 178.007 409.525 155.204C536.802 124.699 655.78 136.1 755.362 151.303C884.238 170.906 995.518 227.916 1076.9 316.03C1121.79 364.638 1157.69 422.648 1183.38 488.459C1210.88 558.771 1227.28 638.684 1231.97 726.198C1232.07 727.899 1231.87 729.699 1231.47 731.299Z" fill="#9AC8FF"/>
<path d="M1190.2 714H1190V713L1190.2 714Z" fill="#9AC8FF"/>
<path d="M113.74 465.172V455.372H114.86L118.43 460.72L122 455.372H123.12V465.172H122.014V457.234L118.444 462.484H118.388L114.818 457.248V465.172H113.74ZM128.876 465.34C127.858 465.34 127 464.99 126.3 464.29C125.609 463.581 125.264 462.671 125.264 461.56C125.264 460.505 125.595 459.614 126.258 458.886C126.92 458.149 127.746 457.78 128.736 457.78C129.772 457.78 130.593 458.144 131.2 458.872C131.806 459.6 132.11 460.515 132.11 461.616C132.11 461.756 132.105 461.882 132.096 461.994H126.356C126.43 462.731 126.706 463.319 127.182 463.758C127.667 464.187 128.241 464.402 128.904 464.402C129.772 464.402 130.532 464.061 131.186 463.38L131.858 463.982C131.046 464.887 130.052 465.34 128.876 465.34ZM126.356 461.126H131.018C130.952 460.426 130.719 459.847 130.318 459.39C129.926 458.923 129.389 458.69 128.708 458.69C128.092 458.69 127.564 458.919 127.126 459.376C126.687 459.833 126.43 460.417 126.356 461.126ZM135.747 465.172V458.886H133.157V457.934H139.429V458.886H136.839V465.172H135.747ZM140.997 467.412V457.934H142.075V459.39C142.803 458.317 143.727 457.78 144.847 457.78C145.771 457.78 146.578 458.125 147.269 458.816C147.96 459.497 148.305 460.412 148.305 461.56C148.305 462.689 147.96 463.599 147.269 464.29C146.578 464.981 145.771 465.326 144.847 465.326C143.708 465.326 142.784 464.813 142.075 463.786V467.412H140.997ZM144.651 464.36C145.379 464.36 145.986 464.108 146.471 463.604C146.956 463.091 147.199 462.405 147.199 461.546C147.199 460.715 146.952 460.043 146.457 459.53C145.962 459.007 145.36 458.746 144.651 458.746C143.951 458.746 143.34 459.012 142.817 459.544C142.294 460.076 142.033 460.748 142.033 461.56C142.033 462.372 142.294 463.044 142.817 463.576C143.34 464.099 143.951 464.36 144.651 464.36ZM156.3 464.234C155.572 464.971 154.671 465.34 153.598 465.34C152.525 465.34 151.629 464.971 150.91 464.234C150.201 463.497 149.846 462.605 149.846 461.56C149.846 460.524 150.205 459.637 150.924 458.9C151.652 458.153 152.553 457.78 153.626 457.78C154.699 457.78 155.595 458.149 156.314 458.886C157.033 459.623 157.392 460.515 157.392 461.56C157.392 462.596 157.028 463.487 156.3 464.234ZM153.626 464.374C154.401 464.374 155.035 464.103 155.53 463.562C156.034 463.021 156.286 462.353 156.286 461.56C156.286 460.776 156.025 460.109 155.502 459.558C154.989 459.007 154.354 458.732 153.598 458.732C152.823 458.732 152.189 459.007 151.694 459.558C151.199 460.099 150.952 460.767 150.952 461.56C150.952 462.344 151.209 463.011 151.722 463.562C152.235 464.103 152.87 464.374 153.626 464.374ZM165.278 464.598L163.01 461.602V461.49L165.278 458.508L166.104 458.97L164.214 461.532L166.104 464.122L165.278 464.598ZM168.4 464.598L166.132 461.602V461.49L168.4 458.508L169.212 458.97L167.322 461.532L169.212 464.122L168.4 464.598ZM171.421 465.172V455.372H175.593C176.741 455.372 177.595 455.661 178.155 456.24C178.575 456.679 178.785 457.211 178.785 457.836C178.785 458.9 178.267 459.656 177.231 460.104C178.631 460.524 179.331 461.322 179.331 462.498C179.331 463.329 179.009 463.982 178.365 464.458C177.721 464.934 176.858 465.172 175.775 465.172H171.421ZM172.513 464.178H175.803C176.55 464.178 177.138 464.024 177.567 463.716C177.996 463.399 178.211 462.96 178.211 462.4C178.211 461.859 177.987 461.443 177.539 461.154C177.1 460.865 176.456 460.72 175.607 460.72H172.513V464.178ZM172.513 459.74H175.411C176.092 459.74 176.638 459.586 177.049 459.278C177.46 458.97 177.665 458.531 177.665 457.962C177.665 457.467 177.474 457.08 177.091 456.8C176.718 456.511 176.186 456.366 175.495 456.366H172.513V459.74ZM187.349 464.234C186.621 464.971 185.72 465.34 184.647 465.34C183.573 465.34 182.677 464.971 181.959 464.234C181.249 463.497 180.895 462.605 180.895 461.56C180.895 460.524 181.254 459.637 181.973 458.9C182.701 458.153 183.601 457.78 184.675 457.78C185.748 457.78 186.644 458.149 187.363 458.886C188.081 459.623 188.441 460.515 188.441 461.56C188.441 462.596 188.077 463.487 187.349 464.234ZM184.675 464.374C185.449 464.374 186.084 464.103 186.579 463.562C187.083 463.021 187.335 462.353 187.335 461.56C187.335 460.776 187.073 460.109 186.551 459.558C186.037 459.007 185.403 458.732 184.647 458.732C183.872 458.732 183.237 459.007 182.743 459.558C182.248 460.099 182.001 460.767 182.001 461.56C182.001 462.344 182.257 463.011 182.771 463.562C183.284 464.103 183.919 464.374 184.675 464.374ZM190.393 467.412V457.934H191.471V459.39C192.199 458.317 193.123 457.78 194.243 457.78C195.167 457.78 195.975 458.125 196.665 458.816C197.356 459.497 197.701 460.412 197.701 461.56C197.701 462.689 197.356 463.599 196.665 464.29C195.975 464.981 195.167 465.326 194.243 465.326C193.105 465.326 192.181 464.813 191.471 463.786V467.412H190.393ZM194.047 464.36C194.775 464.36 195.382 464.108 195.867 463.604C196.353 463.091 196.595 462.405 196.595 461.546C196.595 460.715 196.348 460.043 195.853 459.53C195.359 459.007 194.757 458.746 194.047 458.746C193.347 458.746 192.736 459.012 192.213 459.544C191.691 460.076 191.429 460.748 191.429 461.56C191.429 462.372 191.691 463.044 192.213 463.576C192.736 464.099 193.347 464.36 194.047 464.36ZM205.696 464.234C204.968 464.971 204.068 465.34 202.994 465.34C201.921 465.34 201.025 464.971 200.306 464.234C199.597 463.497 199.242 462.605 199.242 461.56C199.242 460.524 199.602 459.637 200.32 458.9C201.048 458.153 201.949 457.78 203.022 457.78C204.096 457.78 204.992 458.149 205.71 458.886C206.429 459.623 206.788 460.515 206.788 461.56C206.788 462.596 206.424 463.487 205.696 464.234ZM203.022 464.374C203.797 464.374 204.432 464.103 204.926 463.562C205.43 463.021 205.682 462.353 205.682 461.56C205.682 460.776 205.421 460.109 204.898 459.558C204.385 459.007 203.75 458.732 202.994 458.732C202.22 458.732 201.585 459.007 201.09 459.558C200.596 460.099 200.348 460.767 200.348 461.56C200.348 462.344 200.605 463.011 201.118 463.562C201.632 464.103 202.266 464.374 203.022 464.374ZM212.143 465.34C211.032 465.34 210.141 464.976 209.469 464.248C208.806 463.511 208.475 462.517 208.475 461.266C208.475 460.809 208.484 460.421 208.503 460.104C208.522 459.777 208.559 459.418 208.615 459.026C208.671 458.634 208.76 458.298 208.881 458.018C209.002 457.738 209.156 457.463 209.343 457.192C209.539 456.921 209.791 456.693 210.099 456.506C210.407 456.319 210.766 456.179 211.177 456.086L215.209 455.134L215.419 456.044L211.499 457.01C210.771 457.197 210.248 457.495 209.931 457.906C209.623 458.307 209.441 458.867 209.385 459.586C210.001 458.541 211 458.018 212.381 458.018C213.333 458.018 214.15 458.373 214.831 459.082C215.512 459.782 215.853 460.627 215.853 461.616C215.853 462.643 215.498 463.52 214.789 464.248C214.08 464.976 213.198 465.34 212.143 465.34ZM212.171 464.374C212.908 464.374 213.52 464.113 214.005 463.59C214.49 463.058 214.733 462.409 214.733 461.644C214.733 460.888 214.481 460.244 213.977 459.712C213.482 459.18 212.871 458.914 212.143 458.914C211.406 458.914 210.794 459.18 210.309 459.712C209.824 460.235 209.581 460.879 209.581 461.644C209.581 462.4 209.828 463.044 210.323 463.576C210.827 464.108 211.443 464.374 212.171 464.374ZM217.806 465.172V457.934H218.884V460.65H220.816C221.656 460.65 222.342 460.832 222.874 461.196C223.406 461.551 223.672 462.092 223.672 462.82C223.672 463.539 223.424 464.113 222.93 464.542C222.435 464.962 221.772 465.172 220.942 465.172H217.806ZM218.884 464.22H220.844C221.394 464.22 221.819 464.103 222.118 463.87C222.426 463.637 222.58 463.296 222.58 462.848C222.58 462.437 222.421 462.125 222.104 461.91C221.796 461.686 221.362 461.574 220.802 461.574H218.884V464.22ZM228.503 465.34C227.485 465.34 226.627 464.99 225.927 464.29C225.236 463.581 224.891 462.671 224.891 461.56C224.891 460.505 225.222 459.614 225.885 458.886C226.547 458.149 227.373 457.78 228.363 457.78C229.399 457.78 230.22 458.144 230.827 458.872C231.433 459.6 231.737 460.515 231.737 461.616C231.737 461.756 231.732 461.882 231.723 461.994H225.983C226.057 462.731 226.333 463.319 226.809 463.758C227.294 464.187 227.868 464.402 228.531 464.402C229.399 464.402 230.159 464.061 230.813 463.38L231.485 463.982C230.673 464.887 229.679 465.34 228.503 465.34ZM225.983 461.126H230.645C230.579 460.426 230.346 459.847 229.945 459.39C229.553 458.923 229.016 458.69 228.335 458.69C227.719 458.69 227.191 458.919 226.753 459.376C226.314 459.833 226.057 460.417 225.983 461.126ZM233.624 465.172V457.934H237.124C237.843 457.934 238.417 458.097 238.846 458.424C239.275 458.751 239.49 459.189 239.49 459.74C239.49 460.515 239.089 461.07 238.286 461.406C239.35 461.695 239.882 462.293 239.882 463.198C239.882 463.805 239.644 464.285 239.168 464.64C238.692 464.995 238.053 465.172 237.25 465.172H233.624ZM234.702 464.248H237.11C237.623 464.248 238.029 464.141 238.328 463.926C238.627 463.711 238.776 463.413 238.776 463.03C238.776 462.675 238.617 462.4 238.3 462.204C237.992 462.008 237.549 461.91 236.97 461.91H234.702V464.248ZM234.702 461.042H236.928C237.376 461.042 237.731 460.944 237.992 460.748C238.263 460.543 238.398 460.253 238.398 459.88C238.398 459.572 238.272 459.325 238.02 459.138C237.768 458.951 237.413 458.858 236.956 458.858H234.702V461.042ZM241.827 465.172V457.934H242.905V460.65H244.837C245.677 460.65 246.363 460.832 246.895 461.196C247.427 461.551 247.693 462.092 247.693 462.82C247.693 463.539 247.446 464.113 246.951 464.542C246.456 464.962 245.794 465.172 244.963 465.172H241.827ZM242.905 464.22H244.865C245.416 464.22 245.84 464.103 246.139 463.87C246.447 463.637 246.601 463.296 246.601 462.848C246.601 462.437 246.442 462.125 246.125 461.91C245.817 461.686 245.383 461.574 244.823 461.574H242.905V464.22ZM248.995 465.172V457.934H250.073V465.172H248.995ZM256.675 465.172V457.934H261.589V458.886H257.753V465.172H256.675ZM269.161 464.234C268.433 464.971 267.533 465.34 266.459 465.34C265.386 465.34 264.49 464.971 263.771 464.234C263.062 463.497 262.707 462.605 262.707 461.56C262.707 460.524 263.067 459.637 263.785 458.9C264.513 458.153 265.414 457.78 266.487 457.78C267.561 457.78 268.457 458.149 269.175 458.886C269.894 459.623 270.253 460.515 270.253 461.56C270.253 462.596 269.889 463.487 269.161 464.234ZM266.487 464.374C267.262 464.374 267.897 464.103 268.391 463.562C268.895 463.021 269.147 462.353 269.147 461.56C269.147 460.776 268.886 460.109 268.363 459.558C267.85 459.007 267.215 458.732 266.459 458.732C265.685 458.732 265.05 459.007 264.555 459.558C264.061 460.099 263.813 460.767 263.813 461.56C263.813 462.344 264.07 463.011 264.583 463.562C265.097 464.103 265.731 464.374 266.487 464.374ZM272.206 467.412V457.934H273.284V459.39C274.012 458.317 274.936 457.78 276.056 457.78C276.98 457.78 277.787 458.125 278.478 458.816C279.169 459.497 279.514 460.412 279.514 461.56C279.514 462.689 279.169 463.599 278.478 464.29C277.787 464.981 276.98 465.326 276.056 465.326C274.917 465.326 273.993 464.813 273.284 463.786V467.412H272.206ZM275.86 464.36C276.588 464.36 277.195 464.108 277.68 463.604C278.165 463.091 278.408 462.405 278.408 461.546C278.408 460.715 278.161 460.043 277.666 459.53C277.171 459.007 276.569 458.746 275.86 458.746C275.16 458.746 274.549 459.012 274.026 459.544C273.503 460.076 273.242 460.748 273.242 461.56C273.242 462.372 273.503 463.044 274.026 463.576C274.549 464.099 275.16 464.36 275.86 464.36ZM281.503 465.172V457.934H282.581V460.65H284.513C285.353 460.65 286.039 460.832 286.571 461.196C287.103 461.551 287.369 462.092 287.369 462.82C287.369 463.539 287.121 464.113 286.627 464.542C286.132 464.962 285.469 465.172 284.639 465.172H281.503ZM282.581 464.22H284.541C285.091 464.22 285.516 464.103 285.815 463.87C286.123 463.637 286.277 463.296 286.277 462.848C286.277 462.437 286.118 462.125 285.801 461.91C285.493 461.686 285.059 461.574 284.499 461.574H282.581V464.22ZM288.671 465.172V457.934H289.749V465.172H288.671ZM292.587 464.598L291.775 464.136L293.665 461.56L291.775 458.984L292.587 458.508L294.855 461.49V461.602L292.587 464.598ZM295.709 464.598L294.883 464.136L296.773 461.56L294.883 458.984L295.709 458.508L297.977 461.49V461.602L295.709 464.598Z" fill="white"/>
<g clip-path="url(#clip0_442_654)">
<path d="M204.5 442C216.926 442 227 431.926 227 419.5C227 407.074 216.926 397 204.5 397C192.074 397 182 407.074 182 419.5C182 431.926 192.074 442 204.5 442Z" fill="#F32735"/>
<path fill-rule="evenodd" clip-rule="evenodd" d="M215.211 425.485L209.138 410L204 419.053L198.883 410L192.789 425.485H191V427.833H200.194V425.485H198.821L200.152 421.629L204 428L207.848 421.629L209.179 425.485H207.806V427.833H217V425.485H215.211Z" fill="white"/>
</g>
<path d="M552.481 778V768.2H553.601L557.171 773.548L560.741 768.2H561.861V778H560.755V770.062L557.185 775.312H557.129L553.559 770.076V778H552.481ZM572.629 780.184V778H564.635V768.2H565.741V776.992H571.341V768.2H572.447V776.992H573.721L573.553 780.184H572.629ZM575.34 778V768.2H576.446V774.052L582.074 768.2H583.502L579.302 772.484L583.684 778H582.298L578.532 773.254L576.446 775.368V778H575.34ZM591.154 777.426L588.886 774.43V774.318L591.154 771.336L591.98 771.798L590.09 774.36L591.98 776.95L591.154 777.426ZM594.276 777.426L592.008 774.43V774.318L594.276 771.336L595.088 771.798L593.198 774.36L595.088 776.95L594.276 777.426ZM597.115 778.112C596.676 778.112 596.252 778.033 595.841 777.874L596.065 776.978C596.27 777.071 596.56 777.118 596.933 777.118C597.12 777.118 597.288 777.09 597.437 777.034C597.586 776.969 597.764 776.801 597.969 776.53C598.174 776.25 598.342 775.872 598.473 775.396C598.604 774.911 598.716 774.206 598.809 773.282C598.912 772.349 598.963 771.247 598.963 769.978V768.2H605.305V778H604.199V769.208H600.027V770.272C600.027 771.597 599.971 772.745 599.859 773.716C599.756 774.687 599.616 775.452 599.439 776.012C599.271 776.563 599.052 777.001 598.781 777.328C598.52 777.655 598.258 777.869 597.997 777.972C597.745 778.065 597.451 778.112 597.115 778.112ZM609.009 780.282C608.486 780.282 607.973 780.161 607.469 779.918L607.833 779.064C608.178 779.241 608.556 779.33 608.967 779.33C609.293 779.33 609.569 779.227 609.793 779.022C610.017 778.826 610.236 778.476 610.451 777.972L607.161 770.762H608.351L610.983 776.796L613.307 770.762H614.455L611.417 778.238C611.109 778.975 610.768 779.498 610.395 779.806C610.021 780.123 609.559 780.282 609.009 780.282ZM615.236 778L618.204 773.856L615.39 770.762H616.692L620.374 774.962V770.762H621.452V774.962L625.134 770.762H626.436L623.622 773.856L626.59 778H625.33L622.922 774.626L621.452 776.236V778H620.374V776.236L618.904 774.626L616.496 778H615.236ZM628.068 778V770.762H629.146V773.884H633.318V770.762H634.396V778H633.318V774.836H629.146V778H628.068ZM636.805 778V770.762H637.883V776.488L642.181 770.762H643.231V778H642.153V772.274L637.841 778H636.805ZM645.637 778V770.762H646.715V774.934L650.677 770.762H652.007L648.983 773.898L652.091 778H650.817L648.241 774.682L646.715 776.25V778H645.637ZM653.58 778V770.762H654.658V776.488L658.956 770.762H660.006V778H658.928V772.274L654.616 778H653.58ZM662.846 777.426L662.034 776.964L663.924 774.388L662.034 771.812L662.846 771.336L665.114 774.318V774.43L662.846 777.426ZM665.968 777.426L665.142 776.964L667.032 774.388L665.142 771.812L665.968 771.336L668.236 774.318V774.43L665.968 777.426Z" fill="white"/>
<g clip-path="url(#clip1_442_654)">
<path d="M609.5 755C621.926 755 632 744.926 632 732.5C632 720.074 621.926 710 609.5 710C597.074 710 587 720.074 587 732.5C587 744.926 597.074 755 609.5 755Z" fill="#F32735"/>
<path fill-rule="evenodd" clip-rule="evenodd" d="M620.211 738.485L614.138 723L609 732.053L603.883 723L597.789 738.485H596V740.833H605.194V738.485H603.821L605.152 734.629L609 741L612.848 734.629L614.179 738.485H612.806V740.833H622V738.485H620.211Z" fill="white"/>
</g>
<path d="M710.487 779V769.2H711.607L715.177 774.548L718.747 769.2H719.867V779H718.761V771.062L715.191 776.312H715.135L711.565 771.076V779H710.487ZM725.623 779.168C724.606 779.168 723.747 778.818 723.047 778.118C722.356 777.409 722.011 776.499 722.011 775.388C722.011 774.333 722.342 773.442 723.005 772.714C723.668 771.977 724.494 771.608 725.483 771.608C726.519 771.608 727.34 771.972 727.947 772.7C728.554 773.428 728.857 774.343 728.857 775.444C728.857 775.584 728.852 775.71 728.843 775.822H723.103C723.178 776.559 723.453 777.147 723.929 777.586C724.414 778.015 724.988 778.23 725.651 778.23C726.519 778.23 727.28 777.889 727.933 777.208L728.605 777.81C727.793 778.715 726.799 779.168 725.623 779.168ZM723.103 774.954H727.765C727.7 774.254 727.466 773.675 727.065 773.218C726.673 772.751 726.136 772.518 725.455 772.518C724.839 772.518 724.312 772.747 723.873 773.204C723.434 773.661 723.178 774.245 723.103 774.954ZM732.494 779V772.714H729.904V771.762H736.176V772.714H733.586V779H732.494ZM737.744 781.24V771.762H738.822V773.218C739.55 772.145 740.474 771.608 741.594 771.608C742.518 771.608 743.325 771.953 744.016 772.644C744.707 773.325 745.052 774.24 745.052 775.388C745.052 776.517 744.707 777.427 744.016 778.118C743.325 778.809 742.518 779.154 741.594 779.154C740.455 779.154 739.531 778.641 738.822 777.614V781.24H737.744ZM741.398 778.188C742.126 778.188 742.733 777.936 743.218 777.432C743.703 776.919 743.946 776.233 743.946 775.374C743.946 774.543 743.699 773.871 743.204 773.358C742.709 772.835 742.107 772.574 741.398 772.574C740.698 772.574 740.087 772.84 739.564 773.372C739.041 773.904 738.78 774.576 738.78 775.388C738.78 776.2 739.041 776.872 739.564 777.404C740.087 777.927 740.698 778.188 741.398 778.188ZM753.047 778.062C752.319 778.799 751.418 779.168 750.345 779.168C749.272 779.168 748.376 778.799 747.657 778.062C746.948 777.325 746.593 776.433 746.593 775.388C746.593 774.352 746.952 773.465 747.671 772.728C748.399 771.981 749.3 771.608 750.373 771.608C751.446 771.608 752.342 771.977 753.061 772.714C753.78 773.451 754.139 774.343 754.139 775.388C754.139 776.424 753.775 777.315 753.047 778.062ZM750.373 778.202C751.148 778.202 751.782 777.931 752.277 777.39C752.781 776.849 753.033 776.181 753.033 775.388C753.033 774.604 752.772 773.937 752.249 773.386C751.736 772.835 751.101 772.56 750.345 772.56C749.57 772.56 748.936 772.835 748.441 773.386C747.946 773.927 747.699 774.595 747.699 775.388C747.699 776.172 747.956 776.839 748.469 777.39C748.982 777.931 749.617 778.202 750.373 778.202ZM762.025 778.426L759.757 775.43V775.318L762.025 772.336L762.851 772.798L760.961 775.36L762.851 777.95L762.025 778.426ZM765.147 778.426L762.879 775.43V775.318L765.147 772.336L765.959 772.798L764.069 775.36L765.959 777.95L765.147 778.426ZM772.648 779.168C771.239 779.168 770.068 778.683 769.134 777.712C768.201 776.732 767.734 775.528 767.734 774.1C767.734 772.691 768.206 771.496 769.148 770.516C770.091 769.527 771.272 769.032 772.69 769.032C773.512 769.032 774.212 769.167 774.79 769.438C775.369 769.699 775.934 770.091 776.484 770.614L775.756 771.398C774.814 770.502 773.787 770.054 772.676 770.054C771.594 770.054 770.688 770.441 769.96 771.216C769.242 771.991 768.882 772.952 768.882 774.1C768.882 775.239 769.246 776.2 769.974 776.984C770.702 777.759 771.603 778.146 772.676 778.146C773.311 778.146 773.871 778.029 774.356 777.796C774.842 777.563 775.336 777.208 775.84 776.732L776.568 777.502C776.018 778.053 775.439 778.468 774.832 778.748C774.226 779.028 773.498 779.168 772.648 779.168ZM778.322 779V771.762H784.594V779H783.516V772.714H779.4V779H778.322ZM793.01 778.062C792.282 778.799 791.381 779.168 790.308 779.168C789.234 779.168 788.338 778.799 787.62 778.062C786.91 777.325 786.556 776.433 786.556 775.388C786.556 774.352 786.915 773.465 787.634 772.728C788.362 771.981 789.262 771.608 790.336 771.608C791.409 771.608 792.305 771.977 793.024 772.714C793.742 773.451 794.102 774.343 794.102 775.388C794.102 776.424 793.738 777.315 793.01 778.062ZM790.336 778.202C791.11 778.202 791.745 777.931 792.24 777.39C792.744 776.849 792.996 776.181 792.996 775.388C792.996 774.604 792.734 773.937 792.212 773.386C791.698 772.835 791.064 772.56 790.308 772.56C789.533 772.56 788.898 772.835 788.404 773.386C787.909 773.927 787.662 774.595 787.662 775.388C787.662 776.172 787.918 776.839 788.432 777.39C788.945 777.931 789.58 778.202 790.336 778.202ZM796.055 781.24V771.762H797.133V773.218C797.861 772.145 798.785 771.608 799.905 771.608C800.829 771.608 801.636 771.953 802.327 772.644C803.017 773.325 803.363 774.24 803.363 775.388C803.363 776.517 803.017 777.427 802.327 778.118C801.636 778.809 800.829 779.154 799.905 779.154C798.766 779.154 797.842 778.641 797.133 777.614V781.24H796.055ZM799.709 778.188C800.437 778.188 801.043 777.936 801.529 777.432C802.014 776.919 802.257 776.233 802.257 775.374C802.257 774.543 802.009 773.871 801.515 773.358C801.02 772.835 800.418 772.574 799.709 772.574C799.009 772.574 798.397 772.84 797.875 773.372C797.352 773.904 797.091 774.576 797.091 775.388C797.091 776.2 797.352 776.872 797.875 777.404C798.397 777.927 799.009 778.188 799.709 778.188ZM807.101 779V772.714H804.511V771.762H810.783V772.714H808.193V779H807.101ZM812.351 779V771.762H813.429V777.488L817.727 771.762H818.777V779H817.699V773.274L813.387 779H812.351ZM821.183 779V771.762H824.683C825.402 771.762 825.976 771.925 826.405 772.252C826.835 772.579 827.049 773.017 827.049 773.568C827.049 774.343 826.648 774.898 825.845 775.234C826.909 775.523 827.441 776.121 827.441 777.026C827.441 777.633 827.203 778.113 826.727 778.468C826.251 778.823 825.612 779 824.809 779H821.183ZM822.261 778.076H824.669C825.183 778.076 825.589 777.969 825.887 777.754C826.186 777.539 826.335 777.241 826.335 776.858C826.335 776.503 826.177 776.228 825.859 776.032C825.551 775.836 825.108 775.738 824.529 775.738H822.261V778.076ZM822.261 774.87H824.487C824.935 774.87 825.29 774.772 825.551 774.576C825.822 774.371 825.957 774.081 825.957 773.708C825.957 773.4 825.831 773.153 825.579 772.966C825.327 772.779 824.973 772.686 824.515 772.686H822.261V774.87ZM829.387 779V771.762H830.465V774.884H834.637V771.762H835.715V779H834.637V775.836H830.465V779H829.387ZM840.279 779.154C839.542 779.154 838.907 778.953 838.375 778.552C837.843 778.151 837.577 777.591 837.577 776.872C837.577 776.116 837.857 775.533 838.417 775.122C838.977 774.711 839.728 774.506 840.671 774.506C841.418 774.506 842.155 774.609 842.883 774.814V774.59C842.883 773.955 842.696 773.47 842.323 773.134C841.95 772.798 841.422 772.63 840.741 772.63C840.032 772.63 839.299 772.803 838.543 773.148L838.221 772.266C839.117 771.855 839.994 771.65 840.853 771.65C841.88 771.65 842.659 771.916 843.191 772.448C843.695 772.952 843.947 773.661 843.947 774.576V779H842.883V777.922C842.239 778.743 841.371 779.154 840.279 779.154ZM840.489 778.286C841.161 778.286 841.73 778.104 842.197 777.74C842.664 777.376 842.897 776.909 842.897 776.34V775.668C842.188 775.463 841.483 775.36 840.783 775.36C840.12 775.36 839.602 775.495 839.229 775.766C838.856 776.027 838.669 776.387 838.669 776.844C838.669 777.283 838.842 777.633 839.187 777.894C839.542 778.155 839.976 778.286 840.489 778.286ZM845.586 779L847.798 776.2C847.229 776.069 846.762 775.813 846.398 775.43C846.044 775.047 845.866 774.576 845.866 774.016C845.866 773.344 846.109 772.803 846.594 772.392C847.08 771.972 847.747 771.762 848.596 771.762H851.998V779H850.92V776.368H848.918C848.834 776.48 848.545 776.863 848.05 777.516C847.556 778.169 847.178 778.664 846.916 779H845.586ZM848.68 775.458H850.92V772.714H848.652C848.12 772.714 847.7 772.835 847.392 773.078C847.094 773.311 846.944 773.638 846.944 774.058C846.944 774.487 847.103 774.828 847.42 775.08C847.747 775.332 848.167 775.458 848.68 775.458ZM854.84 778.426L854.028 777.964L855.918 775.388L854.028 772.812L854.84 772.336L857.108 775.318V775.43L854.84 778.426ZM857.962 778.426L857.136 777.964L859.026 775.388L857.136 772.812L857.962 772.336L860.23 775.318V775.43L857.962 778.426Z" fill="white"/>
<g clip-path="url(#clip2_442_654)">
<path d="M784.5 756C796.926 756 807 745.926 807 733.5C807 721.074 796.926 711 784.5 711C772.074 711 762 721.074 762 733.5C762 745.926 772.074 756 784.5 756Z" fill="#F32735"/>
<path fill-rule="evenodd" clip-rule="evenodd" d="M795.211 739.485L789.138 724L784 733.053L778.883 724L772.789 739.485H771V741.833H780.194V739.485H778.821L780.152 735.629L784 742L787.848 735.629L789.179 739.485H787.806V741.833H797V739.485H795.211Z" fill="white"/>
</g>
<path d="M563.513 158.24V148.762H564.591V150.218C565.319 149.145 566.243 148.608 567.363 148.608C568.287 148.608 569.094 148.953 569.785 149.644C570.475 150.325 570.821 151.24 570.821 152.388C570.821 153.517 570.475 154.427 569.785 155.118C569.094 155.809 568.287 156.154 567.363 156.154C566.224 156.154 565.3 155.641 564.591 154.614V158.24H563.513ZM567.167 155.188C567.895 155.188 568.501 154.936 568.987 154.432C569.472 153.919 569.715 153.233 569.715 152.374C569.715 151.543 569.467 150.871 568.973 150.358C568.478 149.835 567.876 149.574 567.167 149.574C566.467 149.574 565.855 149.84 565.333 150.372C564.81 150.904 564.549 151.576 564.549 152.388C564.549 153.2 564.81 153.872 565.333 154.404C565.855 154.927 566.467 155.188 567.167 155.188ZM572.683 156V154.53H573.971V156H572.683ZM580.62 156V146.2H581.74L585.31 151.548L588.88 146.2H590V156H588.894V148.062L585.324 153.312H585.268L581.698 148.076V156H580.62ZM598.599 155.062C597.871 155.799 596.97 156.168 595.897 156.168C594.823 156.168 593.927 155.799 593.209 155.062C592.499 154.325 592.145 153.433 592.145 152.388C592.145 151.352 592.504 150.465 593.223 149.728C593.951 148.981 594.851 148.608 595.925 148.608C596.998 148.608 597.894 148.977 598.613 149.714C599.331 150.451 599.691 151.343 599.691 152.388C599.691 153.424 599.327 154.315 598.599 155.062ZM595.925 155.202C596.699 155.202 597.334 154.931 597.829 154.39C598.333 153.849 598.585 153.181 598.585 152.388C598.585 151.604 598.323 150.937 597.801 150.386C597.287 149.835 596.653 149.56 595.897 149.56C595.122 149.56 594.487 149.835 593.993 150.386C593.498 150.927 593.251 151.595 593.251 152.388C593.251 153.172 593.507 153.839 594.021 154.39C594.534 154.931 595.169 155.202 595.925 155.202ZM604.905 156.168C603.86 156.168 602.978 155.799 602.259 155.062C601.55 154.315 601.195 153.424 601.195 152.388C601.195 151.352 601.55 150.465 602.259 149.728C602.978 148.981 603.86 148.608 604.905 148.608C606.025 148.608 606.991 149.037 607.803 149.896L607.117 150.624C606.445 149.915 605.703 149.56 604.891 149.56C604.163 149.56 603.547 149.835 603.043 150.386C602.549 150.927 602.301 151.595 602.301 152.388C602.301 153.172 602.553 153.839 603.057 154.39C603.571 154.931 604.205 155.202 604.961 155.202C605.736 155.202 606.464 154.838 607.145 154.11L607.859 154.768C607.019 155.701 606.035 156.168 604.905 156.168ZM609.642 156V148.762H610.72V152.934L614.682 148.762H616.012L612.988 151.898L616.096 156H614.822L612.246 152.682L610.72 154.25V156H609.642ZM617.585 156V148.762H621.085C621.804 148.762 622.378 148.925 622.807 149.252C623.236 149.579 623.451 150.017 623.451 150.568C623.451 151.343 623.05 151.898 622.247 152.234C623.311 152.523 623.843 153.121 623.843 154.026C623.843 154.633 623.605 155.113 623.129 155.468C622.653 155.823 622.014 156 621.211 156H617.585ZM618.663 155.076H621.071C621.584 155.076 621.99 154.969 622.289 154.754C622.588 154.539 622.737 154.241 622.737 153.858C622.737 153.503 622.578 153.228 622.261 153.032C621.953 152.836 621.51 152.738 620.931 152.738H618.663V155.076ZM618.663 151.87H620.889C621.337 151.87 621.692 151.772 621.953 151.576C622.224 151.371 622.359 151.081 622.359 150.708C622.359 150.4 622.233 150.153 621.981 149.966C621.729 149.779 621.374 149.686 620.917 149.686H618.663V151.87ZM627.944 156.154C627.207 156.154 626.572 155.953 626.04 155.552C625.508 155.151 625.242 154.591 625.242 153.872C625.242 153.116 625.522 152.533 626.082 152.122C626.642 151.711 627.393 151.506 628.336 151.506C629.083 151.506 629.82 151.609 630.548 151.814V151.59C630.548 150.955 630.361 150.47 629.988 150.134C629.615 149.798 629.087 149.63 628.406 149.63C627.697 149.63 626.964 149.803 626.208 150.148L625.886 149.266C626.782 148.855 627.659 148.65 628.518 148.65C629.545 148.65 630.324 148.916 630.856 149.448C631.36 149.952 631.612 150.661 631.612 151.576V156H630.548V154.922C629.904 155.743 629.036 156.154 627.944 156.154ZM628.154 155.286C628.826 155.286 629.395 155.104 629.862 154.74C630.329 154.376 630.562 153.909 630.562 153.34V152.668C629.853 152.463 629.148 152.36 628.448 152.36C627.785 152.36 627.267 152.495 626.894 152.766C626.521 153.027 626.334 153.387 626.334 153.844C626.334 154.283 626.507 154.633 626.852 154.894C627.207 155.155 627.641 155.286 628.154 155.286Z" fill="#003078"/>
<path d="M461.72 386V376.2H468.748V377.208H462.826V380.218H465.724C466.825 380.218 467.721 380.461 468.412 380.946C469.103 381.422 469.448 382.131 469.448 383.074C469.448 384.017 469.121 384.74 468.468 385.244C467.824 385.748 466.947 386 465.836 386H461.72ZM462.826 384.992H465.752C467.479 384.992 468.342 384.334 468.342 383.018C468.342 382.411 468.109 381.959 467.642 381.66C467.175 381.352 466.527 381.198 465.696 381.198H462.826V384.992ZM477.456 385.062C476.728 385.799 475.827 386.168 474.754 386.168C473.681 386.168 472.785 385.799 472.066 385.062C471.357 384.325 471.002 383.433 471.002 382.388C471.002 381.352 471.361 380.465 472.08 379.728C472.808 378.981 473.709 378.608 474.782 378.608C475.855 378.608 476.751 378.977 477.47 379.714C478.189 380.451 478.548 381.343 478.548 382.388C478.548 383.424 478.184 384.315 477.456 385.062ZM474.782 385.202C475.557 385.202 476.191 384.931 476.686 384.39C477.19 383.849 477.442 383.181 477.442 382.388C477.442 381.604 477.181 380.937 476.658 380.386C476.145 379.835 475.51 379.56 474.754 379.56C473.979 379.56 473.345 379.835 472.85 380.386C472.355 380.927 472.108 381.595 472.108 382.388C472.108 383.172 472.365 383.839 472.878 384.39C473.391 384.931 474.026 385.202 474.782 385.202ZM480.151 386.112C479.871 386.112 479.582 386.075 479.283 386L479.409 385.076C479.624 385.141 479.796 385.174 479.927 385.174C480.132 385.174 480.3 385.151 480.431 385.104C480.562 385.048 480.702 384.913 480.851 384.698C481.01 384.474 481.131 384.161 481.215 383.76C481.299 383.359 481.369 382.789 481.425 382.052C481.49 381.315 481.523 380.419 481.523 379.364V378.762H486.647V386H485.569V379.714H482.545V379.882C482.545 380.983 482.503 381.921 482.419 382.696C482.335 383.471 482.228 384.077 482.097 384.516C481.976 384.955 481.803 385.295 481.579 385.538C481.355 385.781 481.136 385.935 480.921 386C480.716 386.075 480.459 386.112 480.151 386.112ZM489.059 386V378.762H490.137V381.478H492.069C492.909 381.478 493.595 381.66 494.127 382.024C494.659 382.379 494.925 382.92 494.925 383.648C494.925 384.367 494.678 384.941 494.183 385.37C493.689 385.79 493.026 386 492.195 386H489.059ZM490.137 385.048H492.097C492.648 385.048 493.073 384.931 493.371 384.698C493.679 384.465 493.833 384.124 493.833 383.676C493.833 383.265 493.675 382.953 493.357 382.738C493.049 382.514 492.615 382.402 492.055 382.402H490.137V385.048ZM496.593 386V378.762H497.671V385.048H501.199V378.762H502.277V385.048H505.805V378.762H506.897V386H496.593ZM511.464 386.154C510.726 386.154 510.092 385.953 509.56 385.552C509.028 385.151 508.762 384.591 508.762 383.872C508.762 383.116 509.042 382.533 509.602 382.122C510.162 381.711 510.913 381.506 511.856 381.506C512.602 381.506 513.34 381.609 514.068 381.814V381.59C514.068 380.955 513.881 380.47 513.508 380.134C513.134 379.798 512.607 379.63 511.926 379.63C511.216 379.63 510.484 379.803 509.728 380.148L509.406 379.266C510.302 378.855 511.179 378.65 512.038 378.65C513.064 378.65 513.844 378.916 514.376 379.448C514.88 379.952 515.132 380.661 515.132 381.576V386H514.068V384.922C513.424 385.743 512.556 386.154 511.464 386.154ZM511.674 385.286C512.346 385.286 512.915 385.104 513.382 384.74C513.848 384.376 514.082 383.909 514.082 383.34V382.668C513.372 382.463 512.668 382.36 511.968 382.36C511.305 382.36 510.787 382.495 510.414 382.766C510.04 383.027 509.854 383.387 509.854 383.844C509.854 384.283 510.026 384.633 510.372 384.894C510.726 385.155 511.16 385.286 511.674 385.286ZM516.771 386L518.983 383.2C518.414 383.069 517.947 382.813 517.583 382.43C517.228 382.047 517.051 381.576 517.051 381.016C517.051 380.344 517.294 379.803 517.779 379.392C518.264 378.972 518.932 378.762 519.781 378.762H523.183V386H522.105V383.368H520.103C520.019 383.48 519.73 383.863 519.235 384.516C518.74 385.169 518.362 385.664 518.101 386H516.771ZM519.865 382.458H522.105V379.714H519.837C519.305 379.714 518.885 379.835 518.577 380.078C518.278 380.311 518.129 380.638 518.129 381.058C518.129 381.487 518.288 381.828 518.605 382.08C518.932 382.332 519.352 382.458 519.865 382.458ZM533.05 386.168C532.005 386.168 531.123 385.799 530.404 385.062C529.695 384.315 529.34 383.424 529.34 382.388C529.34 381.352 529.695 380.465 530.404 379.728C531.123 378.981 532.005 378.608 533.05 378.608C534.17 378.608 535.136 379.037 535.948 379.896L535.262 380.624C534.59 379.915 533.848 379.56 533.036 379.56C532.308 379.56 531.692 379.835 531.188 380.386C530.693 380.927 530.446 381.595 530.446 382.388C530.446 383.172 530.698 383.839 531.202 384.39C531.715 384.931 532.35 385.202 533.106 385.202C533.881 385.202 534.609 384.838 535.29 384.11L536.004 384.768C535.164 385.701 534.179 386.168 533.05 386.168ZM537.786 386V378.762H544.058V386H542.98V379.714H538.864V386H537.786ZM552.474 385.062C551.746 385.799 550.845 386.168 549.772 386.168C548.698 386.168 547.802 385.799 547.084 385.062C546.374 384.325 546.02 383.433 546.02 382.388C546.02 381.352 546.379 380.465 547.098 379.728C547.826 378.981 548.726 378.608 549.8 378.608C550.873 378.608 551.769 378.977 552.488 379.714C553.206 380.451 553.566 381.343 553.566 382.388C553.566 383.424 553.202 384.315 552.474 385.062ZM549.8 385.202C550.574 385.202 551.209 384.931 551.704 384.39C552.208 383.849 552.46 383.181 552.46 382.388C552.46 381.604 552.198 380.937 551.676 380.386C551.162 379.835 550.528 379.56 549.772 379.56C548.997 379.56 548.362 379.835 547.868 380.386C547.373 380.927 547.126 381.595 547.126 382.388C547.126 383.172 547.382 383.839 547.896 384.39C548.409 384.931 549.044 385.202 549.8 385.202ZM555.518 388.24V378.762H556.596V380.218C557.324 379.145 558.248 378.608 559.368 378.608C560.292 378.608 561.1 378.953 561.79 379.644C562.481 380.325 562.826 381.24 562.826 382.388C562.826 383.517 562.481 384.427 561.79 385.118C561.1 385.809 560.292 386.154 559.368 386.154C558.23 386.154 557.306 385.641 556.596 384.614V388.24H555.518ZM559.172 385.188C559.9 385.188 560.507 384.936 560.992 384.432C561.478 383.919 561.72 383.233 561.72 382.374C561.72 381.543 561.473 380.871 560.978 380.358C560.484 379.835 559.882 379.574 559.172 379.574C558.472 379.574 557.861 379.84 557.338 380.372C556.816 380.904 556.554 381.576 556.554 382.388C556.554 383.2 556.816 383.872 557.338 384.404C557.861 384.927 558.472 385.188 559.172 385.188ZM566.565 386V379.714H563.975V378.762H570.247V379.714H567.657V386H566.565ZM571.815 386V378.762H572.893V384.488L577.191 378.762H578.241V386H577.163V380.274L572.851 386H571.815ZM580.647 386V378.762H584.147C584.866 378.762 585.44 378.925 585.869 379.252C586.299 379.579 586.513 380.017 586.513 380.568C586.513 381.343 586.112 381.898 585.309 382.234C586.373 382.523 586.905 383.121 586.905 384.026C586.905 384.633 586.667 385.113 586.191 385.468C585.715 385.823 585.076 386 584.273 386H580.647ZM581.725 385.076H584.133C584.647 385.076 585.053 384.969 585.351 384.754C585.65 384.539 585.799 384.241 585.799 383.858C585.799 383.503 585.641 383.228 585.323 383.032C585.015 382.836 584.572 382.738 583.993 382.738H581.725V385.076ZM581.725 381.87H583.951C584.399 381.87 584.754 381.772 585.015 381.576C585.286 381.371 585.421 381.081 585.421 380.708C585.421 380.4 585.295 380.153 585.043 379.966C584.791 379.779 584.437 379.686 583.979 379.686H581.725V381.87ZM588.85 386V378.762H589.928V381.884H594.1V378.762H595.178V386H594.1V382.836H589.928V386H588.85ZM599.743 386.154C599.005 386.154 598.371 385.953 597.839 385.552C597.307 385.151 597.041 384.591 597.041 383.872C597.041 383.116 597.321 382.533 597.881 382.122C598.441 381.711 599.192 381.506 600.135 381.506C600.881 381.506 601.619 381.609 602.347 381.814V381.59C602.347 380.955 602.16 380.47 601.787 380.134C601.413 379.798 600.886 379.63 600.205 379.63C599.495 379.63 598.763 379.803 598.007 380.148L597.685 379.266C598.581 378.855 599.458 378.65 600.317 378.65C601.343 378.65 602.123 378.916 602.655 379.448C603.159 379.952 603.411 380.661 603.411 381.576V386H602.347V384.922C601.703 385.743 600.835 386.154 599.743 386.154ZM599.953 385.286C600.625 385.286 601.194 385.104 601.661 384.74C602.127 384.376 602.361 383.909 602.361 383.34V382.668C601.651 382.463 600.947 382.36 600.247 382.36C599.584 382.36 599.066 382.495 598.693 382.766C598.319 383.027 598.133 383.387 598.133 383.844C598.133 384.283 598.305 384.633 598.651 384.894C599.005 385.155 599.439 385.286 599.953 385.286ZM605.05 386L607.262 383.2C606.693 383.069 606.226 382.813 605.862 382.43C605.508 382.047 605.33 381.576 605.33 381.016C605.33 380.344 605.573 379.803 606.058 379.392C606.544 378.972 607.211 378.762 608.06 378.762H611.462V386H610.384V383.368H608.382C608.298 383.48 608.009 383.863 607.514 384.516C607.02 385.169 606.642 385.664 606.38 386H605.05ZM608.144 382.458H610.384V379.714H608.116C607.584 379.714 607.164 379.835 606.856 380.078C606.558 380.311 606.408 380.638 606.408 381.058C606.408 381.487 606.567 381.828 606.884 382.08C607.211 382.332 607.631 382.458 608.144 382.458ZM518.593 403.154C517.856 403.154 517.221 402.953 516.689 402.552C516.157 402.151 515.891 401.591 515.891 400.872C515.891 400.116 516.171 399.533 516.731 399.122C517.291 398.711 518.043 398.506 518.985 398.506C519.732 398.506 520.469 398.609 521.197 398.814V398.59C521.197 397.955 521.011 397.47 520.637 397.134C520.264 396.798 519.737 396.63 519.055 396.63C518.346 396.63 517.613 396.803 516.857 397.148L516.535 396.266C517.431 395.855 518.309 395.65 519.167 395.65C520.194 395.65 520.973 395.916 521.505 396.448C522.009 396.952 522.261 397.661 522.261 398.576V403H521.197V401.922C520.553 402.743 519.685 403.154 518.593 403.154ZM518.803 402.286C519.475 402.286 520.045 402.104 520.511 401.74C520.978 401.376 521.211 400.909 521.211 400.34V399.668C520.502 399.463 519.797 399.36 519.097 399.36C518.435 399.36 517.917 399.495 517.543 399.766C517.17 400.027 516.983 400.387 516.983 400.844C516.983 401.283 517.156 401.633 517.501 401.894C517.856 402.155 518.29 402.286 518.803 402.286ZM524.545 405.24V395.762H525.623V397.218C526.351 396.145 527.275 395.608 528.395 395.608C529.319 395.608 530.126 395.953 530.817 396.644C531.507 397.325 531.853 398.24 531.853 399.388C531.853 400.517 531.507 401.427 530.817 402.118C530.126 402.809 529.319 403.154 528.395 403.154C527.256 403.154 526.332 402.641 525.623 401.614V405.24H524.545ZM528.199 402.188C528.927 402.188 529.533 401.936 530.019 401.432C530.504 400.919 530.747 400.233 530.747 399.374C530.747 398.543 530.499 397.871 530.005 397.358C529.51 396.835 528.908 396.574 528.199 396.574C527.499 396.574 526.887 396.84 526.365 397.372C525.842 397.904 525.581 398.576 525.581 399.388C525.581 400.2 525.842 400.872 526.365 401.404C526.887 401.927 527.499 402.188 528.199 402.188ZM537.006 403.168C535.988 403.168 535.13 402.818 534.43 402.118C533.739 401.409 533.394 400.499 533.394 399.388C533.394 398.333 533.725 397.442 534.388 396.714C535.05 395.977 535.876 395.608 536.866 395.608C537.902 395.608 538.723 395.972 539.33 396.7C539.936 397.428 540.24 398.343 540.24 399.444C540.24 399.584 540.235 399.71 540.226 399.822H534.486C534.56 400.559 534.836 401.147 535.312 401.586C535.797 402.015 536.371 402.23 537.034 402.23C537.902 402.23 538.662 401.889 539.316 401.208L539.988 401.81C539.176 402.715 538.182 403.168 537.006 403.168ZM534.486 398.954H539.148C539.082 398.254 538.849 397.675 538.448 397.218C538.056 396.751 537.519 396.518 536.838 396.518C536.222 396.518 535.694 396.747 535.256 397.204C534.817 397.661 534.56 398.245 534.486 398.954ZM542.127 403V395.762H543.205V398.884H547.377V395.762H548.455V403H547.377V399.836H543.205V403H542.127ZM553.019 403.154C552.282 403.154 551.647 402.953 551.115 402.552C550.583 402.151 550.317 401.591 550.317 400.872C550.317 400.116 550.597 399.533 551.157 399.122C551.717 398.711 552.469 398.506 553.411 398.506C554.158 398.506 554.895 398.609 555.623 398.814V398.59C555.623 397.955 555.437 397.47 555.063 397.134C554.69 396.798 554.163 396.63 553.481 396.63C552.772 396.63 552.039 396.803 551.283 397.148L550.961 396.266C551.857 395.855 552.735 395.65 553.593 395.65C554.62 395.65 555.399 395.916 555.931 396.448C556.435 396.952 556.687 397.661 556.687 398.576V403H555.623V401.922C554.979 402.743 554.111 403.154 553.019 403.154ZM553.229 402.286C553.901 402.286 554.471 402.104 554.937 401.74C555.404 401.376 555.637 400.909 555.637 400.34V399.668C554.928 399.463 554.223 399.36 553.523 399.36C552.861 399.36 552.343 399.495 551.969 399.766C551.596 400.027 551.409 400.387 551.409 400.844C551.409 401.283 551.582 401.633 551.927 401.894C552.282 402.155 552.716 402.286 553.229 402.286Z" fill="white"/>
<path d="M286.223 383L290.689 373.13H291.725L296.191 383H295.001L293.853 380.41H288.519L287.357 383H286.223ZM288.953 379.416H293.419L291.193 374.418L288.953 379.416ZM297.941 383V375.762H299.019V379.934L302.981 375.762H304.311L301.287 378.898L304.395 383H303.121L300.545 379.682L299.019 381.25V383H297.941ZM305.885 383V375.762H309.385C310.103 375.762 310.677 375.925 311.107 376.252C311.536 376.579 311.751 377.017 311.751 377.568C311.751 378.343 311.349 378.898 310.547 379.234C311.611 379.523 312.143 380.121 312.143 381.026C312.143 381.633 311.905 382.113 311.429 382.468C310.953 382.823 310.313 383 309.511 383H305.885ZM306.963 382.076H309.371C309.884 382.076 310.29 381.969 310.589 381.754C310.887 381.539 311.037 381.241 311.037 380.858C311.037 380.503 310.878 380.228 310.561 380.032C310.253 379.836 309.809 379.738 309.231 379.738H306.963V382.076ZM306.963 378.87H309.189C309.637 378.87 309.991 378.772 310.253 378.576C310.523 378.371 310.659 378.081 310.659 377.708C310.659 377.4 310.533 377.153 310.281 376.966C310.029 376.779 309.674 376.686 309.217 376.686H306.963V378.87ZM316.244 383.154C315.506 383.154 314.872 382.953 314.34 382.552C313.808 382.151 313.542 381.591 313.542 380.872C313.542 380.116 313.822 379.533 314.382 379.122C314.942 378.711 315.693 378.506 316.636 378.506C317.382 378.506 318.12 378.609 318.848 378.814V378.59C318.848 377.955 318.661 377.47 318.288 377.134C317.914 376.798 317.387 376.63 316.706 376.63C315.996 376.63 315.264 376.803 314.508 377.148L314.186 376.266C315.082 375.855 315.959 375.65 316.818 375.65C317.844 375.65 318.624 375.916 319.156 376.448C319.66 376.952 319.912 377.661 319.912 378.576V383H318.848V381.922C318.204 382.743 317.336 383.154 316.244 383.154ZM316.454 382.286C317.126 382.286 317.695 382.104 318.162 381.74C318.628 381.376 318.862 380.909 318.862 380.34V379.668C318.152 379.463 317.448 379.36 316.748 379.36C316.085 379.36 315.567 379.495 315.194 379.766C314.82 380.027 314.634 380.387 314.634 380.844C314.634 381.283 314.806 381.633 315.152 381.894C315.506 382.155 315.94 382.286 316.454 382.286ZM322.195 383V375.762H323.273V379.934L327.235 375.762H328.565L325.541 378.898L328.649 383H327.375L324.799 379.682L323.273 381.25V383H322.195ZM336.145 382.062C335.417 382.799 334.516 383.168 333.443 383.168C332.369 383.168 331.473 382.799 330.755 382.062C330.045 381.325 329.691 380.433 329.691 379.388C329.691 378.352 330.05 377.465 330.769 376.728C331.497 375.981 332.397 375.608 333.471 375.608C334.544 375.608 335.44 375.977 336.159 376.714C336.877 377.451 337.237 378.343 337.237 379.388C337.237 380.424 336.873 381.315 336.145 382.062ZM333.471 382.202C334.245 382.202 334.88 381.931 335.375 381.39C335.879 380.849 336.131 380.181 336.131 379.388C336.131 378.604 335.869 377.937 335.347 377.386C334.833 376.835 334.199 376.56 333.443 376.56C332.668 376.56 332.033 376.835 331.539 377.386C331.044 377.927 330.797 378.595 330.797 379.388C330.797 380.172 331.053 380.839 331.567 381.39C332.08 381.931 332.715 382.202 333.471 382.202ZM339.189 383V375.762H340.211L342.913 379.57L345.615 375.762H346.651V383H345.559V377.484L342.885 381.152L340.239 377.484V383H339.189ZM349.06 383V375.762H355.332V383H354.254V376.714H350.138V383H349.06ZM357.392 383.112C357.112 383.112 356.823 383.075 356.524 383L356.65 382.076C356.865 382.141 357.037 382.174 357.168 382.174C357.373 382.174 357.541 382.151 357.672 382.104C357.803 382.048 357.943 381.913 358.092 381.698C358.251 381.474 358.372 381.161 358.456 380.76C358.54 380.359 358.61 379.789 358.666 379.052C358.731 378.315 358.764 377.419 358.764 376.364V375.762H363.888V383H362.81V376.714H359.786V376.882C359.786 377.983 359.744 378.921 359.66 379.696C359.576 380.471 359.469 381.077 359.338 381.516C359.217 381.955 359.044 382.295 358.82 382.538C358.596 382.781 358.377 382.935 358.162 383C357.957 383.075 357.7 383.112 357.392 383.112ZM369.465 383.168C368.447 383.168 367.589 382.818 366.889 382.118C366.198 381.409 365.853 380.499 365.853 379.388C365.853 378.333 366.184 377.442 366.847 376.714C367.509 375.977 368.335 375.608 369.325 375.608C370.361 375.608 371.182 375.972 371.789 376.7C372.395 377.428 372.699 378.343 372.699 379.444C372.699 379.584 372.694 379.71 372.685 379.822H366.945C367.019 380.559 367.295 381.147 367.771 381.586C368.256 382.015 368.83 382.23 369.493 382.23C370.361 382.23 371.121 381.889 371.775 381.208L372.447 381.81C371.635 382.715 370.641 383.168 369.465 383.168ZM366.945 378.954H371.607C371.541 378.254 371.308 377.675 370.907 377.218C370.515 376.751 369.978 376.518 369.297 376.518C368.681 376.518 368.153 376.747 367.715 377.204C367.276 377.661 367.019 378.245 366.945 378.954ZM374.586 383V375.762H375.664V379.934L379.626 375.762H380.956L377.932 378.898L381.04 383H379.766L377.19 379.682L375.664 381.25V383H374.586ZM385.791 383.168C384.746 383.168 383.864 382.799 383.145 382.062C382.436 381.315 382.081 380.424 382.081 379.388C382.081 378.352 382.436 377.465 383.145 376.728C383.864 375.981 384.746 375.608 385.791 375.608C386.911 375.608 387.877 376.037 388.689 376.896L388.003 377.624C387.331 376.915 386.589 376.56 385.777 376.56C385.049 376.56 384.433 376.835 383.929 377.386C383.435 377.927 383.187 378.595 383.187 379.388C383.187 380.172 383.439 380.839 383.943 381.39C384.457 381.931 385.091 382.202 385.847 382.202C386.622 382.202 387.35 381.838 388.031 381.11L388.745 381.768C387.905 382.701 386.921 383.168 385.791 383.168ZM306.056 400.112C305.617 400.112 305.192 400.033 304.782 399.874L305.006 398.978C305.211 399.071 305.5 399.118 305.874 399.118C306.06 399.118 306.228 399.09 306.378 399.034C306.527 398.969 306.704 398.801 306.91 398.53C307.115 398.25 307.283 397.872 307.414 397.396C307.544 396.911 307.656 396.206 307.75 395.282C307.852 394.349 307.904 393.247 307.904 391.978V390.2H314.246V400H313.14V391.208H308.968V392.272C308.968 393.597 308.912 394.745 308.8 395.716C308.697 396.687 308.557 397.452 308.38 398.012C308.212 398.563 307.992 399.001 307.722 399.328C307.46 399.655 307.199 399.869 306.938 399.972C306.686 400.065 306.392 400.112 306.056 400.112ZM317.949 402.282C317.426 402.282 316.913 402.161 316.409 401.918L316.773 401.064C317.118 401.241 317.496 401.33 317.907 401.33C318.234 401.33 318.509 401.227 318.733 401.022C318.957 400.826 319.176 400.476 319.391 399.972L316.101 392.762H317.291L319.923 398.796L322.247 392.762H323.395L320.357 400.238C320.049 400.975 319.708 401.498 319.335 401.806C318.962 402.123 318.5 402.282 317.949 402.282ZM324.176 400L327.144 395.856L324.33 392.762H325.632L329.314 396.962V392.762H330.392V396.962L334.074 392.762H335.376L332.562 395.856L335.53 400H334.27L331.862 396.626L330.392 398.236V400H329.314V398.236L327.844 396.626L325.436 400H324.176ZM337.009 400V392.762H338.087V395.884H342.259V392.762H343.337V400H342.259V396.836H338.087V400H337.009ZM345.745 400V392.762H346.823V398.488L351.121 392.762H352.171V400H351.093V394.274L346.781 400H345.745ZM354.577 400V392.762H355.655V396.934L359.617 392.762H360.947L357.923 395.898L361.031 400H359.757L357.181 396.682L355.655 398.25V400H354.577ZM362.52 400V392.762H363.598V398.488L367.896 392.762H368.946V400H367.868V394.274L363.556 400H362.52Z" fill="white"/>
<path d="M343.95 506C343.7 507.69 342.26 509 340.5 509H339V507H342C341.93 505.72 342.26 503.04 341.53 501.95C340.56 499.9 337.83 499.56 335.93 499.05C335 499 334 498 333.84 497H331C330.72 497 330.5 496.78 330.5 496.5C330.5 496.22 330.72 496 331 496H333.5V495H331C330.72 495 330.5 494.78 330.5 494.5C330.5 494.22 330.72 494 331 494H333.5V491H325.03V507H328V509H324V511H340.5C343.36 511 345.72 508.8 346 506H343.95ZM337 509H330V507H337V509Z" fill="white"/>
<defs>
<clipPath id="clip0_442_654">
<rect width="45" height="45" fill="white" transform="translate(182 397)"/>
</clipPath>
<clipPath id="clip1_442_654">
<rect width="45" height="45" fill="white" transform="translate(587 710)"/>
</clipPath>
<clipPath id="clip2_442_654">
<rect width="45" height="45" fill="white" transform="translate(762 711)"/>
</clipPath>
</defs>
</svg>
