<svg width="45" height="45" viewBox="0 0 45 45" fill="none" xmlns="http://www.w3.org/2000/svg">
<path d="M24.8233 43.0435V31.8504L20.843 28.1193L18.9476 36.3276L5.86951 33.7159L6.62766 29.9849L15.7255 31.8504L18.7581 16.7397L15.3464 18.0455V24.3883H11.5556V15.6204L19.0424 12.449C20.148 11.9826 20.9618 11.6791 21.4837 11.5386C22.0042 11.3993 22.4857 11.3297 22.9279 11.3297C23.5913 11.3297 24.2073 11.5007 24.7759 11.8427C25.3445 12.1847 25.8026 12.6355 26.1501 13.1952L28.0455 16.18C28.8668 17.4859 29.98 18.5585 31.3851 19.398C32.7915 20.2375 34.395 20.6573 36.1956 20.6573V24.3883C34.1107 24.3883 32.1603 23.9605 30.3446 23.1048C28.5275 22.2504 27.003 21.1236 25.771 19.7245L24.6338 25.3211L28.6141 29.0521V43.0435H24.8233ZM25.771 10.3969C24.7285 10.3969 23.8365 10.0313 23.0947 9.29997C22.3517 8.56993 21.9802 7.69189 21.9802 6.66586C21.9802 5.63982 22.3517 4.76116 23.0947 4.02987C23.8365 3.29983 24.7285 2.93481 25.771 2.93481C26.8135 2.93481 27.7062 3.29983 28.4492 4.02987C29.1909 4.76116 29.5618 5.63982 29.5618 6.66586C29.5618 7.69189 29.1909 8.56993 28.4492 9.29997C27.7062 10.0313 26.8135 10.3969 25.771 10.3969Z" fill="inherit"/>
</svg>
